<svg width="120" height="23" viewBox="0 0 120 23" fill="none" xmlns="http://www.w3.org/2000/svg">
<path d="M8.84371 3.90308C11.4053 3.90308 13.4485 4.87893 14.028 6.19024V4.36051H18.1753V21.7735H14.028V19.9437C13.4485 21.2246 11.4358 22.2309 8.84371 22.2309C4.17789 22.2309 0 18.5104 0 13.0822C0 7.65403 4.20839 3.90308 8.84371 3.90308ZM9.39263 17.6871C11.5273 17.6871 13.3875 16.6807 13.9365 15.3999V10.7646C13.3875 9.45327 11.5273 8.47741 9.39263 8.47741C6.40406 8.47741 4.36086 10.3681 4.36086 13.1127C4.36086 15.8268 6.37357 17.6871 9.39263 17.6871Z" fill="#DB3727"/>
<path d="M23.0547 4.36096H27.3546V13.7536C27.3546 16.2542 28.9403 17.6875 31.0445 17.6875C32.8743 17.6875 34.582 16.5592 34.887 15.0649V4.39145H39.1868V21.8044H35.0394V20.0357C34.582 21.3165 32.9048 22.2618 30.4041 22.2618C26.8361 22.2618 23.0547 19.8832 23.0547 14.4855V4.36096Z" fill="#DB3727"/>
<path d="M55.5929 20.2186C54.7695 21.3774 53.2142 22.2617 51.2625 22.2617C47.4201 22.2617 45.5599 20.0661 45.5599 16.3151V8.9352H42.5713V7.5629L48.5484 0H49.8597V4.39136H55.3794V8.96569H49.8292V15.4002C49.8292 17.1385 50.8356 17.7179 51.9944 17.7179C53.1837 17.7179 53.8851 17.291 54.678 16.4066L55.5929 20.2186Z" fill="#DB3727"/>
<path d="M67.6391 22.2621C62.6988 22.2621 58.46 18.3892 58.46 13.1135C58.46 7.83775 62.7293 3.93433 67.6391 3.93433C72.5794 3.93433 76.8183 7.86825 76.8183 13.1135C76.8488 18.3587 72.5794 22.2621 67.6391 22.2621ZM67.6391 17.6878C70.3532 17.6878 72.5184 15.8276 72.5184 13.083C72.5184 10.3384 70.3532 8.44767 67.6391 8.44767C64.925 8.44767 62.7598 10.3384 62.7598 13.083C62.7598 15.8276 64.9555 17.6878 67.6391 17.6878Z" fill="#DB3727"/>
<path d="M82.5819 16.3766C84.2286 16.3766 85.5094 17.6574 85.5094 19.3042C85.5094 20.9509 84.2286 22.2317 82.5819 22.2317C80.9351 22.2317 79.6543 20.9509 79.6543 19.3042C79.6543 17.6574 80.9046 16.3766 82.5819 16.3766Z" fill="#DB3727"/>
<path d="M100.33 9.1788C99.8118 8.84335 99.019 8.47741 98.0431 8.47741C96.0609 8.47741 94.7496 9.72772 94.4141 11.3135V21.804H90.1143V4.391H94.2616V6.67817C94.7801 5.06191 96.1524 3.90308 98.1041 3.90308C99.3849 3.90308 100.483 4.51298 100.91 5.21438L100.33 9.1788Z" fill="#DB3727"/>
<path d="M103.868 4.36096H108.168V13.7536C108.168 16.2542 109.753 17.6875 111.858 17.6875C113.687 17.6875 115.395 16.5592 115.7 15.0649V4.39145H120V21.8044H115.852V20.0357C115.395 21.3165 113.718 22.2618 111.217 22.2618C107.619 22.2618 103.868 19.8832 103.868 14.4855V4.36096Z" fill="#DB3727"/>
</svg>
