<svg width="120" height="31" viewBox="0 0 120 31" fill="none" xmlns="http://www.w3.org/2000/svg">
<mask id="mask0_101_867" style="mask-type:luminance" maskUnits="userSpaceOnUse" x="0" y="0" width="120" height="31">
<path d="M120 0H0V30.5221H120V0Z" fill="white"/>
</mask>
<g mask="url(#mask0_101_867)">
<path d="M45.8699 0.717651L35.5171 27.7666H41.0808L43.2293 22.1173H54.2212L56.3595 27.7666H61.881L51.5665 0.717651H45.8699ZM45.1145 17.153L48.7368 7.63486L52.3385 17.153H45.1145Z" fill="black"/>
<path d="M110.153 8.42151C108.206 8.42151 106.304 8.9987 104.685 10.0801C103.067 11.1615 101.806 12.6986 101.061 14.4969C100.316 16.2952 100.121 18.274 100.5 20.183C100.88 22.0921 101.818 23.8458 103.194 25.2221C104.57 26.5985 106.324 27.5358 108.233 27.9156C110.142 28.2952 112.121 28.1004 113.92 27.3555C115.717 26.6106 117.255 25.3492 118.336 23.7307C119.418 22.1124 119.994 20.2095 119.994 18.2631C119.994 15.6529 118.957 13.1497 117.112 11.3041C115.267 9.45838 112.763 8.42151 110.153 8.42151ZM110.153 23.0586C109.205 23.0586 108.278 22.7774 107.49 22.2507C106.701 21.7238 106.087 20.9751 105.724 20.099C105.361 19.223 105.266 18.259 105.451 17.3291C105.636 16.3991 106.092 15.5448 106.763 14.8744C107.434 14.2038 108.287 13.7472 109.218 13.5622C110.148 13.3773 111.112 13.4722 111.988 13.8351C112.863 14.1979 113.613 14.8124 114.14 15.6008C114.666 16.3892 114.947 17.3161 114.947 18.2644C114.949 18.8942 114.825 19.5181 114.585 20.1002C114.344 20.6823 113.991 21.2112 113.545 21.6566C113.1 22.1021 112.571 22.4552 111.989 22.6957C111.407 22.9363 110.783 23.0596 110.153 23.0586Z" fill="black"/>
<path d="M68.5106 20.7908L64.0167 8.76367H58.71L65.9429 27.7668H71.2075L78.3112 8.76367H73.0045L68.5106 20.7908Z" fill="black"/>
<path d="M95.0029 3.71375H89.9531V8.76362H87.0005V13.301H89.9531V21.3902C89.9531 25.9697 92.4784 27.938 96.0302 27.938C97.235 27.9554 98.4302 27.7221 99.5402 27.2529V22.5456C98.9362 22.7683 98.2993 22.8863 97.6559 22.8945C96.1226 22.8945 95.0029 22.2951 95.0029 20.2411V13.301H99.5402V8.76362H95.0029V3.71375Z" fill="black"/>
<path d="M82.4629 7.39446C84.4958 7.39446 86.144 5.74643 86.144 3.71346C86.144 1.68051 84.4958 0.0324707 82.4629 0.0324707C80.4299 0.0324707 78.7817 1.68051 78.7817 3.71346C78.7817 5.74643 80.4299 7.39446 82.4629 7.39446Z" fill="black"/>
<path d="M84.9881 8.76367H79.9385V27.7668H84.9881V8.76367Z" fill="black"/>
<path d="M9.87679 30.4629C15.3135 30.4629 19.7209 26.0555 19.7209 20.6188C19.7209 15.182 15.3135 10.7747 9.87679 10.7747C4.44007 10.7747 0.0327148 15.182 0.0327148 20.6188C0.0327148 26.0555 4.44007 30.4629 9.87679 30.4629Z" fill="#04E061"/>
<path d="M26.9538 29.2206C30.239 29.2206 32.9022 26.5574 32.9022 23.2722C32.9022 19.987 30.239 17.3239 26.9538 17.3239C23.6686 17.3239 21.0054 19.987 21.0054 23.2722C21.0054 26.5574 23.6686 29.2206 26.9538 29.2206Z" fill="#FF4053"/>
<path d="M11.7596 9.49212C13.7926 9.49212 15.4406 7.84408 15.4406 5.81112C15.4406 3.77817 13.7926 2.13013 11.7596 2.13013C9.72665 2.13013 8.07861 3.77817 8.07861 5.81112C8.07861 7.84408 9.72665 9.49212 11.7596 9.49212Z" fill="#965EEB"/>
<path d="M24.6428 16.0397C29.063 16.0397 32.6464 12.4563 32.6464 8.0361C32.6464 3.61581 29.063 0.0324707 24.6428 0.0324707C20.2225 0.0324707 16.6392 3.61581 16.6392 8.0361C16.6392 12.4563 20.2225 16.0397 24.6428 16.0397Z" fill="#00AAFF"/>
</g>
</svg>
