<svg width="41" height="30" viewBox="0 0 41 30" fill="none" xmlns="http://www.w3.org/2000/svg">
<path d="M26.4633 21.9125C26.4633 22.3625 26.3633 22.825 26.1508 23.275C25.9383 23.725 25.6633 24.15 25.3008 24.55C24.6883 25.225 24.0133 25.7125 23.2508 26.025C22.5008 26.3375 21.6883 26.5 20.8133 26.5C19.5383 26.5 18.1758 26.2 16.7383 25.5875C15.3008 24.975 13.8633 24.15 12.4383 23.1125C11.0008 22.0625 9.63829 20.9 8.33829 19.6125C7.05079 18.3125 5.88829 16.95 4.85079 15.525C3.82579 14.1 3.00079 12.675 2.40079 11.2625C1.80079 9.8375 1.50079 8.475 1.50079 7.175C1.50079 6.325 1.65079 5.5125 1.95079 4.7625C2.25079 4 2.72579 3.3 3.38829 2.675C4.18829 1.8875 5.06329 1.5 5.98829 1.5C6.33829 1.5 6.68829 1.575 7.00079 1.725C7.32579 1.875 7.61329 2.1 7.83829 2.425L10.7383 6.5125C10.9633 6.825 11.1258 7.1125 11.2383 7.3875C11.3508 7.65 11.4133 7.9125 11.4133 8.15C11.4133 8.45 11.3258 8.75 11.1508 9.0375C10.9883 9.325 10.7508 9.625 10.4508 9.925L9.50079 10.9125C9.36329 11.05 9.30079 11.2125 9.30079 11.4125C9.30079 11.5125 9.31329 11.6 9.33829 11.7C9.37579 11.8 9.41329 11.875 9.43829 11.95C9.66329 12.3625 10.0508 12.9 10.6008 13.55C11.1633 14.2 11.7633 14.8625 12.4133 15.525C13.0883 16.1875 13.7383 16.8 14.4008 17.3625C15.0508 17.9125 15.5883 18.2875 16.0133 18.5125C16.0758 18.5375 16.1508 18.575 16.2383 18.6125C16.3383 18.65 16.4383 18.6625 16.5508 18.6625C16.7633 18.6625 16.9258 18.5875 17.0633 18.45L18.0133 17.5125C18.3258 17.2 18.6258 16.9625 18.9133 16.8125C19.2008 16.6375 19.4883 16.55 19.8008 16.55C20.0383 16.55 20.2883 16.6 20.5633 16.7125C20.8383 16.825 21.1258 16.9875 21.4383 17.2L25.5758 20.1375C25.9008 20.3625 26.1258 20.625 26.2633 20.9375C26.3883 21.25 26.4633 21.5625 26.4633 21.9125Z" stroke="#091920" stroke-width="2" stroke-miterlimit="10"/>
<path d="M19.25 8.75H25.25M19.25 8.75V2.75V8.75Z" stroke="#091920" stroke-width="2" stroke-linecap="round" stroke-linejoin="round"/>
</svg>
