<svg width="54" height="66" viewBox="0 0 54 66" fill="none" xmlns="http://www.w3.org/2000/svg">
<g filter="url(#filter0_d_101_9)">
<path d="M52 25C52 38.8071 40.8071 50 27 50C13.1929 50 2 38.8071 2 25C2 11.1929 13.1929 0 27 0C40.8071 0 52 11.1929 52 25Z" fill="#E50601"/>
<path d="M34 25C34 28.866 30.866 32 27 32C23.134 32 20 28.866 20 25C20 21.134 23.134 18 27 18C30.866 18 34 21.134 34 25Z" fill="white"/>
<path d="M27 61.6152L20.9378 47.6537H33.0622L27 61.6152Z" fill="#E50601"/>
</g>
<defs>
<filter id="filter0_d_101_9" x="0" y="0" width="54" height="65.6152" filterUnits="userSpaceOnUse" color-interpolation-filters="sRGB">
<feFlood flood-opacity="0" result="BackgroundImageFix"/>
<feColorMatrix in="SourceAlpha" type="matrix" values="0 0 0 0 0 0 0 0 0 0 0 0 0 0 0 0 0 0 127 0" result="hardAlpha"/>
<feOffset dy="2"/>
<feGaussianBlur stdDeviation="1"/>
<feComposite in2="hardAlpha" operator="out"/>
<feColorMatrix type="matrix" values="0 0 0 0 0.975 0 0 0 0 0.0324998 0 0 0 0 0.0324998 0 0 0 0.25 0"/>
<feBlend mode="normal" in2="BackgroundImageFix" result="effect1_dropShadow_101_9"/>
<feBlend mode="normal" in="SourceGraphic" in2="effect1_dropShadow_101_9" result="shape"/>
</filter>
</defs>
</svg>
