<svg width="30" height="30" viewBox="0 0 30 30" fill="none" xmlns="http://www.w3.org/2000/svg">
<path d="M27.4644 22.9117C27.4644 23.3617 27.3644 23.8242 27.1519 24.2742C26.9394 24.7242 26.6645 25.1492 26.302 25.5492C25.6895 26.2242 25.0145 26.7117 24.252 27.0242C23.502 27.3367 22.6895 27.4992 21.8145 27.4992C20.5395 27.4992 19.177 27.1992 17.7395 26.5867C16.302 25.9742 14.8645 25.1492 13.4395 24.1117C12.002 23.0617 10.6395 21.8992 9.33945 20.6117C8.05195 19.3117 6.88945 17.9492 5.85195 16.5242C4.82695 15.0992 4.00195 13.6742 3.40195 12.2617C2.80195 10.8367 2.50195 9.47422 2.50195 8.17422C2.50195 7.32422 2.65195 6.51172 2.95195 5.76172C3.25195 4.99922 3.72695 4.29922 4.38945 3.67422C5.18945 2.88672 6.06445 2.49922 6.98945 2.49922C7.33945 2.49922 7.68945 2.57422 8.00195 2.72422C8.32695 2.87422 8.61445 3.09922 8.83945 3.42422L11.7395 7.51172C11.9645 7.82422 12.127 8.11172 12.2395 8.38672C12.352 8.64922 12.4145 8.91172 12.4145 9.14922C12.4145 9.44922 12.327 9.74922 12.152 10.0367C11.9895 10.3242 11.752 10.6242 11.452 10.9242L10.502 11.9117C10.3645 12.0492 10.302 12.2117 10.302 12.4117C10.302 12.5117 10.3145 12.5992 10.3395 12.6992C10.377 12.7992 10.4145 12.8742 10.4395 12.9492C10.6645 13.3617 11.052 13.8992 11.602 14.5492C12.1645 15.1992 12.7645 15.8617 13.4145 16.5242C14.0895 17.1867 14.7395 17.7992 15.402 18.3617C16.052 18.9117 16.5895 19.2867 17.0145 19.5117C17.077 19.5367 17.152 19.5742 17.2395 19.6117C17.3395 19.6492 17.4395 19.6617 17.552 19.6617C17.7645 19.6617 17.927 19.5867 18.0645 19.4492L19.0145 18.5117C19.327 18.1992 19.627 17.9617 19.9145 17.8117C20.202 17.6367 20.4895 17.5492 20.802 17.5492C21.0395 17.5492 21.2895 17.5992 21.5645 17.7117C21.8395 17.8242 22.127 17.9867 22.4395 18.1992L26.577 21.1367C26.902 21.3617 27.127 21.6242 27.2645 21.9367C27.3895 22.2492 27.4644 22.5617 27.4644 22.9117Z" stroke="#091920" stroke-width="2" stroke-miterlimit="10"/>
<path d="M23.1273 11.2488C23.1273 10.4988 22.5398 9.34883 21.6648 8.41133C20.8648 7.54883 19.8023 6.87383 18.7523 6.87383" stroke="#091920" stroke-width="2" stroke-linecap="round" stroke-linejoin="round"/>
<path d="M27.5021 11.2492C27.5021 6.41172 23.5896 2.49922 18.7521 2.49922" stroke="#091920" stroke-width="2" stroke-linecap="round" stroke-linejoin="round"/>
</svg>
