<svg width="40" height="40" viewBox="0 0 40 40" fill="none" xmlns="http://www.w3.org/2000/svg">
<circle cx="20" cy="20" r="19.5" stroke="#0C1F28"/>
<path d="M29.8008 16C29.8008 16 29.6055 14.6211 29.0039 14.0156C28.2422 13.2188 27.3906 13.2148 27 13.168C24.2031 12.9648 20.0039 12.9648 20.0039 12.9648H19.9961C19.9961 12.9648 15.7969 12.9648 13 13.168C12.6094 13.2148 11.7578 13.2188 10.9961 14.0156C10.3945 14.6211 10.2031 16 10.2031 16C10.2031 16 10 17.6211 10 19.2383V20.7539C10 22.3711 10.1992 23.9922 10.1992 23.9922C10.1992 23.9922 10.3945 25.3711 10.9922 25.9766C11.7539 26.7734 12.7539 26.7461 13.1992 26.832C14.8008 26.9844 20 27.0312 20 27.0312C20 27.0312 24.2031 27.0234 27 26.8242C27.3906 26.7773 28.2422 26.7734 29.0039 25.9766C29.6055 25.3711 29.8008 23.9922 29.8008 23.9922C29.8008 23.9922 30 22.375 30 20.7539V19.2383C30 17.6211 29.8008 16 29.8008 16ZM17.9336 22.5938V16.9727L23.3359 19.793L17.9336 22.5938Z" fill="#0C1F28"/>
</svg>
