<svg width="57" height="75" viewBox="0 0 57 75" fill="none" xmlns="http://www.w3.org/2000/svg">
<g clip-path="url(#clip0_101_807)">
<path d="M28.1165 0.0579911C21.7213 0.0869858 15.3542 0.898841 9.15617 2.43557C6.11351 3.21842 3.099 4.26224 0.169031 5.45102L0 5.53801C0 5.53801 0.366242 28.009 0.619796 39.143C0.704315 42.4195 1.29595 45.6379 2.36652 48.7694C3.60613 52.2778 5.24015 55.6122 7.24042 58.7145C10.1986 63.2088 14.0019 67.036 18.425 69.9645C20.3971 71.1824 22.4537 72.2551 24.5667 73.154C25.2711 73.4729 25.8908 73.7629 26.4261 73.9369C27.0177 74.1979 27.6094 74.3718 28.201 74.5168C28.8208 74.3718 29.4124 74.1688 29.9759 73.9658C30.5675 73.7629 31.1591 73.4729 31.8634 73.1831C35.4132 71.7913 38.7095 69.7906 41.6113 67.2681C44.5412 64.8034 47.0767 61.904 49.1897 58.6856C51.2182 55.5541 52.8522 52.2487 54.0637 48.7404C55.1624 45.609 55.7258 42.3905 55.8103 39.114C56.064 27.9511 56.4302 5.50902 56.4302 5.50902L56.233 5.39304C49.3024 2.52254 41.9493 0.782861 34.4836 0.260955C32.3706 0.0869849 30.4548 0 28.3137 0H28.1165V0.0579911ZM28.1165 1.18879H28.2855C34.4272 1.24678 40.5406 2.02964 46.5133 3.53737C49.4434 4.32024 52.317 5.24806 55.1624 6.43686L55.3314 6.52384L55.2187 13.5696H55.1342C48.4573 10.7861 41.4141 9.0754 34.2299 8.55349C32.2579 8.35052 30.2858 8.26353 28.3137 8.20554H28.1447C22.003 8.26353 15.8895 9.0754 9.91683 10.5831C6.95869 11.366 4.05688 12.3518 1.2396 13.5406L1.12691 6.43686L1.29594 6.37886C7.9729 3.59536 15.0725 1.91365 22.2565 1.39175C24.1723 1.24678 26.1444 1.15979 28.1165 1.18879ZM26.0599 2.2616C25.919 2.29058 25.7782 2.34859 25.6655 2.43557C25.5528 2.49356 25.4963 2.60953 25.4683 2.72552V3.82732L25.4401 4.87113C25.4401 4.98712 25.5528 5.13209 25.6373 5.19008C25.75 5.30607 25.8909 5.30607 26.0599 5.33505H27.4121L28.8208 5.36405L30.2295 5.45102C30.3422 5.45102 30.3985 5.50902 30.4267 5.59601V6.1759C30.4267 6.29188 30.4267 6.37886 30.3703 6.49485C30.3422 6.58184 30.2576 6.61082 30.0886 6.61082H28.849L28.1728 6.58184H26.3979L25.3556 6.63982L25.2991 7.56765L26.7642 7.50966L27.8911 7.48066H28.7926L29.6097 7.50966L30.1731 7.53866H30.7929C30.9338 7.53866 31.1028 7.48068 31.2155 7.39369C31.3282 7.3067 31.3845 7.19072 31.4127 7.04574V6.00193L31.4408 4.95812C31.4127 4.84214 31.3563 4.72616 31.2718 4.63919C31.1873 4.5522 31.0746 4.5232 30.9338 4.4942L29.6379 4.43621H26.5106L26.4261 4.37822C26.3698 4.32024 26.3416 4.26225 26.3416 4.20425V3.82732C26.3416 3.68234 26.3416 3.50837 26.3979 3.3634C26.4261 3.30541 26.5106 3.24743 26.6515 3.24743L29.8069 3.27641H30.2576L31.3563 3.30541V2.37757L29.8914 2.31959L26.0599 2.2616ZM23.0453 2.40657C22.5101 2.40657 17.6362 2.92848 17.6362 2.92848V8.26353L18.1996 8.20554L18.735 8.11856V6.46585L21.7776 6.11792C22.172 6.11792 22.5382 6.32088 22.7073 6.69781C22.8481 7.01676 22.9608 7.36469 23.0736 7.74162L24.2568 7.62565C24.2286 7.2777 24.1441 6.95877 24.0033 6.66882C23.8342 6.29189 23.5525 5.94394 23.2425 5.654C23.5243 5.48002 23.7215 5.19008 23.8061 4.87113C23.8342 4.23325 23.8061 3.62436 23.7497 3.01547C23.7215 2.72552 23.5807 2.43557 23.0453 2.40657ZM33.9765 2.46456C33.7228 2.46456 33.4411 2.55155 33.2439 2.72552C33.0467 2.87049 32.9059 3.10245 32.8777 3.3634V7.07474L32.9059 7.33569C32.934 7.45168 32.9904 7.50966 33.0467 7.56765C33.1312 7.68364 33.2439 7.74162 33.4129 7.77062H33.6383L33.6948 7.79961H33.751L36.1175 8.06057L38.5685 8.32153L38.9349 8.4085V7.42268L38.5123 7.33569L38.1741 7.3067H38.1178L36.0893 7.04574L34.061 6.7848C34.0327 6.7848 33.9765 6.7848 33.9482 6.72681L33.92 6.61082V3.76933C33.92 3.65336 33.92 3.56637 34.0327 3.50837C34.1172 3.45038 34.2019 3.4214 34.2864 3.3924C34.7371 3.4214 38.5123 3.94331 39.0757 4.03028V2.98646L35.8076 2.60953L33.9765 2.46456ZM40.0336 3.30541V3.53737C40.0336 3.85632 40.0336 4.29124 39.9772 4.78416C39.9772 5.45104 39.949 6.11792 39.9209 6.7848L39.8927 7.21972V7.85761L39.8645 8.49549L40.1181 8.55349L40.2589 8.61148L40.5126 8.64046L40.907 8.69846L40.9352 8.32153V8.00258L40.9633 7.62565V6.58184C41.0197 6.58184 41.1042 6.58182 41.1605 6.61082H41.245L42.4564 6.87178L44.3158 7.24872L44.4567 7.3067L44.6539 7.36469L44.8794 7.42268V8.4665L44.8511 8.81444V9.22035L44.8229 9.42333L45.1611 9.51032L45.3583 9.5683L45.5555 9.62629L45.8372 9.71327V9.19137C45.8935 8.55348 45.8935 7.8866 45.9217 7.10374V4.5522L45.5273 4.43621L44.9921 4.32024V5.13209L44.9356 5.654V6.52384H44.9074L44.6539 6.46585L44.4567 6.40786L44.3158 6.37886L44.175 6.32088L42.9918 6.05993L41.7803 5.82797H41.6676L41.3577 5.74098L41.0478 5.68298H40.9633V3.45038L40.7098 3.3924H40.5408L40.3434 3.33441L40.0336 3.30541ZM15.5232 3.3634L10.7338 4.32024C10.3676 4.43621 9.97319 4.72616 9.97319 5.13209V8.69846C9.97319 9.0754 10.4239 9.5683 10.7902 9.48132L15.5796 8.52449C16.0303 8.4085 16.3402 8.00258 16.3965 7.53866V3.94331C16.312 3.53737 15.9458 3.30541 15.5232 3.3634C15.5514 3.3634 15.5514 3.3634 15.5232 3.3634ZM22.2283 3.53737C22.3692 3.53737 22.4819 3.53737 22.5946 3.65334C22.6791 3.74033 22.7073 3.79833 22.7073 3.9143V4.5232C22.7073 4.69717 22.6509 4.87113 22.5382 4.98712C22.4256 5.10309 22.2565 5.19008 22.0875 5.19008L20.3971 5.33505L18.7067 5.48002V3.85632L22.2283 3.53737ZM14.7062 4.37822C15.157 4.32024 15.2978 4.58118 15.2978 4.90013V7.19072C15.326 7.48066 15.1288 7.74162 14.8471 7.82861L11.4382 8.49549C11.1001 8.58248 10.9029 8.32152 10.9029 8.00258V5.74098C10.9029 5.27706 11.1001 5.0741 11.6354 4.95812C11.6072 4.95812 14.7062 4.37822 14.7062 4.37822ZM47.4431 4.84214L47.3866 7.97358L47.3304 10.1192L50.1476 10.989C51.0491 11.308 52.0634 11.6269 53.0776 12.0039L53.1903 12.0329L53.5283 12.1488C53.5847 11.7719 53.5848 11.482 53.5848 11.105L53.303 10.989H53.2466L53.1903 10.96C52.6832 10.7571 52.0916 10.5831 51.5562 10.3802L49.8378 9.80026L49.4714 9.68427L49.077 9.5683L48.6545 9.45231L48.4291 9.36533V8.84344L48.4573 8.32153L49.0207 8.4665L51.1055 9.10438L53.0776 9.80026L53.2748 9.85825L53.6128 9.97422V8.87242L53.303 8.75645L53.1621 8.72745C51.9507 8.26353 50.7392 7.85761 49.4997 7.50966L49.2179 7.42268L48.908 7.33569L48.7671 7.2777L48.5136 7.19072V6.11792L48.8798 6.23389L49.3307 6.34988L49.7251 6.46585H49.7531C50.8519 6.7848 51.9506 7.13273 53.0212 7.53866L53.2748 7.65464L53.641 7.79961V6.84278L53.3875 6.72681L53.1621 6.63982H53.1339C51.2463 6.00193 49.3587 5.36405 47.4431 4.84214ZM8.25463 5.0451H7.91656C5.94446 5.683 4.00054 6.34988 2.05661 7.10374L2.11297 9.77126V12.2648L3.46526 11.8009V9.97422L8.5082 8.35052C8.62088 8.32152 8.70541 8.23454 8.76175 8.14756C8.84626 8.08956 8.87443 7.97358 8.90262 7.8866C8.90262 7.85761 8.93079 7.79961 8.93079 7.77062L8.87445 5.654C8.84628 5.45104 8.73358 5.24806 8.53637 5.13209C8.45184 5.07411 8.36733 5.0451 8.25463 5.0451ZM7.26859 6.1469H7.32493C7.43763 6.1469 7.52214 6.1759 7.5785 6.26289C7.66301 6.34988 7.69118 6.40786 7.69118 6.52384L7.74754 7.2777C7.71936 7.42268 7.66301 7.53866 7.5785 7.62565C7.49397 7.71262 7.38127 7.77062 7.26859 7.79961L3.38075 9.10438L3.35258 7.53866C3.35258 7.53866 4.8739 6.90077 5.4937 6.66882C6.11351 6.46585 7.26859 6.1469 7.26859 6.1469ZM27.5249 9.22035V23.5438H18.6223C18.5095 23.5438 18.5658 23.4859 18.6785 23.3989C19.2984 22.906 20.0309 22.5869 20.8198 22.442C20.9043 22.442 20.9325 22.413 20.8198 22.2971C20.059 21.5142 18.9885 21.2532 18.0024 21.6301C17.1291 21.9491 16.4247 22.616 16.1148 23.5148C16.1148 23.6017 16.0585 23.6308 16.0021 23.6308L14.5654 23.6887C14.4808 23.6887 14.4527 23.5728 14.4527 23.5148C14.5654 22.877 14.9598 22.355 15.4951 22.0361C15.974 21.6882 16.5092 21.5142 17.0728 21.4563H17.1009C17.1573 21.4272 17.1573 21.3402 17.1291 21.2823C17.0446 21.1663 16.9319 21.0793 16.7909 20.9923C16.3402 20.7313 15.8049 20.6443 15.2697 20.7313C13.7483 20.9053 12.5369 22.152 12.4242 23.7468C12.396 23.9208 12.4242 23.9787 12.2833 24.0367C11.9171 24.1527 11.2973 24.2397 10.9592 24.2976C10.9029 24.3267 10.8184 24.1818 10.8465 24.1237C10.9592 23.5148 11.2128 22.993 11.579 22.5C11.8326 22.1231 12.1988 21.8331 12.5933 21.6012C12.7059 21.5721 12.7341 21.4852 12.7059 21.4272C11.9453 20.7313 10.3676 21.4563 9.71964 22.1811C9.128 22.9639 8.84626 24.0078 8.90262 24.9935V25.1386L7.69118 25.5734L7.63484 25.4575C7.52214 24.7037 7.69118 23.9787 8.0856 23.3409C8.25463 23.0219 8.5082 22.7609 8.81809 22.558V22.442C8.45184 21.978 7.09955 22.2971 6.67695 22.703C5.71908 23.6887 5.80361 24.6167 5.74726 26.1244C5.74726 26.2113 5.63457 26.4723 5.57823 26.5014C5.40919 26.6172 5.21198 26.7042 5.01477 26.7333H4.93024L4.81755 26.4723C4.47947 25.8924 3.77516 25.6894 3.21171 26.0374C3.15535 26.0374 3.12718 26.0953 3.09901 26.1244C2.64825 26.5302 2.5919 27.2261 2.98631 27.6901C3.04265 27.7481 3.07084 27.806 2.98631 27.806C2.31016 28.009 1.94392 28.734 2.14112 29.4297C2.14112 29.4588 2.14114 29.4588 2.16931 29.4878C2.31018 29.8646 2.67642 30.1256 3.07084 30.1256C3.46526 30.1256 3.85968 30.0097 4.16958 29.7777C4.22592 29.7197 4.28228 29.7488 4.33862 29.7777C4.67669 30.3577 5.40919 30.5316 5.9163 30.1837C6.4234 29.8358 6.62061 29.3138 6.28253 28.444C6.25436 28.386 6.33889 28.3279 6.39523 28.27C9.26886 26.5593 12.5369 25.6315 15.8613 25.5445C16.3402 25.6024 16.7909 25.6894 17.2418 25.8924H17.2981V28.821L17.2136 28.9078C16.5937 29.2848 16.1148 29.8937 15.8895 30.6186C15.8895 30.6766 15.8895 30.6766 15.7768 30.6766L14.0019 30.8794C13.9455 30.8794 13.8892 30.7925 13.8892 30.7636C14.3118 29.6327 15.0725 28.6179 16.0866 27.9511C16.1148 27.893 16.1148 27.806 16.0866 27.7481C15.9458 27.6031 15.7768 27.4871 15.5796 27.4292C14.5654 27.3422 13.5511 27.7771 12.9032 28.56C12.2833 29.3427 11.9735 30.2707 11.9735 31.2564C11.9735 31.3434 11.9735 31.4304 11.8889 31.4595L10.7338 31.8074C10.6775 31.8074 10.6212 31.7493 10.6212 31.6914C10.4239 30.4156 11.0156 29.1399 12.0861 28.5019C12.227 28.386 11.9735 28.183 11.7762 28.183C10.6212 28.1251 9.52241 28.7629 8.98713 29.8067C8.73358 30.5896 8.70541 31.4595 8.90262 32.2712C8.90262 32.3582 8.95896 32.4743 8.90262 32.4743L7.8884 32.8222C7.83205 32.8511 7.77569 32.8222 7.77569 32.7062C7.63484 32.2133 7.60667 31.6914 7.71935 31.1985C7.83205 30.6186 8.11378 30.0967 8.53637 29.6907V29.5748C8.17012 29.4008 7.74752 29.3718 7.38127 29.4878C6.76148 29.6618 6.25436 30.0677 5.97264 30.6475C5.46553 31.5753 5.6064 32.4743 6.1135 33.7791C6.1135 33.866 6.16985 33.953 6.1135 34.011L5.71908 34.3299C5.69091 34.3589 5.63457 34.3299 5.6064 34.2719C5.43736 34.011 5.24015 33.634 4.98659 33.5181C4.564 33.3151 4.08505 33.3441 3.69064 33.634C3.32439 33.9819 3.18352 34.5038 3.32439 34.9967L3.60613 35.4607C3.6343 35.4897 3.60613 35.5767 3.57795 35.5767C3.40892 35.7217 3.15535 35.8377 2.98631 36.0117C2.67641 36.4465 2.67641 37.0265 2.98631 37.4614C3.26805 37.9252 3.8315 38.0992 4.33862 37.8382C4.59217 37.7224 4.81756 37.6063 5.04294 37.4614C5.12745 37.4033 5.15562 37.3163 5.24015 37.3744C5.40917 37.5773 5.63457 37.7513 5.9163 37.8382C6.28255 37.9543 6.67697 37.8963 6.98686 37.6643C7.3531 37.4614 7.57848 37.0554 7.49397 36.6204C7.40944 36.3306 7.24041 36.0406 7.07138 35.7796C6.95869 35.6637 6.95869 35.6637 7.07138 35.6056C8.64905 34.6778 10.3676 33.924 12.0861 33.373C13.7483 32.8511 15.4669 32.6192 17.1854 32.7352H17.2981V38.7951H1.63402L1.21143 14.4974L1.26778 14.4684C7.94474 11.6849 15.0161 10.0032 22.2002 9.51032C24.0314 9.33634 25.7218 9.24936 27.5249 9.22035ZM18.4533 11.7719C17.6362 11.7139 16.8474 11.9749 16.143 12.4678C15.2978 13.0767 14.7626 14.8454 14.6217 15.5123C14.6217 15.5702 14.5935 15.6283 14.509 15.6283C13.8047 15.7153 13.1285 15.8312 12.4242 16.0051C12.4806 15.3092 12.7623 14.6714 13.1849 14.1785C13.6638 13.7146 14.1709 13.3086 14.7062 12.9317C14.7344 12.9027 14.7062 12.8157 14.6499 12.7867C13.8892 12.4678 13.0159 12.4678 12.2552 12.8157C11.1564 13.3086 10.4239 14.3235 10.2267 15.5123C10.1422 15.9181 10.1141 16.3821 10.1141 16.8171L10.0014 16.875L7.86022 17.5999L7.74754 17.5709C7.71936 16.846 7.88839 16.1501 8.25463 15.5123C8.62088 14.9034 9.29703 14.5844 9.77596 14.0625C9.83232 14.0335 9.88866 13.9465 9.83232 13.9175C8.59271 13.3956 7.43763 13.9175 6.45159 15.0773C5.77543 16.1212 5.57823 17.3679 5.83178 18.5857C5.85995 18.7017 5.83178 18.7887 5.77543 18.8467L5.09928 19.1076C5.04293 19.1076 4.98659 19.1076 4.98659 19.0497C4.67669 18.1217 3.6343 18.2957 3.15535 18.5857C2.64824 18.9046 2.45103 19.5714 2.76094 20.0934C2.76094 20.1804 2.76094 20.2094 2.70459 20.2384C2.05661 20.5864 1.77489 21.3693 2.08478 22.065C2.33835 22.529 2.87363 22.703 3.35258 22.5L4.11322 22.1231H4.19775C4.19775 22.1231 4.19775 22.1811 4.25409 22.1811C4.64851 22.703 5.38102 22.819 5.9163 22.355C6.25438 22.0941 6.39523 22.065 6.5361 21.6012C6.59244 21.2532 6.47976 20.9343 6.28253 20.6734C6.22619 20.6734 6.28253 20.5574 6.28253 20.5574C10.2267 18.4697 14.5372 17.339 18.9602 17.223C20.5381 17.2809 22.0875 17.8608 23.299 18.9336C23.3553 18.9916 23.4117 19.0497 23.4962 19.0497C23.5807 19.0206 23.6089 18.9336 23.637 18.8757C23.8624 18.1217 23.6089 17.2809 23.0173 16.759C22.5101 16.2371 21.8903 15.8602 21.186 15.6862C21.1297 15.6862 21.1297 15.5702 21.1577 15.5702C21.4114 15.2803 21.7776 15.0483 22.172 14.9034C22.7636 14.7874 23.3553 14.7584 24.0033 14.7584C24.0314 14.7584 24.1159 14.7004 24.1159 14.6424C23.8624 13.9465 23.2425 13.4536 22.5382 13.4246C21.8339 13.3376 21.1015 13.4536 20.4534 13.7436C19.7773 14.1205 19.2421 14.7294 18.9322 15.4543L18.8477 15.5123H17.0164C16.9882 15.5123 16.9319 15.5123 16.9319 15.4543C17.0164 14.8164 17.27 14.2945 17.6925 13.8305C18.3123 13.3086 19.0167 12.8737 19.7492 12.6418C19.8337 12.6128 19.8618 12.5258 19.8618 12.4678C19.6928 12.2358 19.4956 12.0619 19.2421 11.9459C19.0449 11.8299 18.735 11.7719 18.4533 11.7719ZM28.4546 16.759H55.1342C55.1342 18.9046 55.0779 21.1663 55.0215 23.5728H28.4827L28.4546 16.759ZM18.1714 24.5007H38.2868C38.3433 24.5007 38.3433 24.5297 38.3433 24.5586V40.5058C38.3433 41.3466 38.2023 42.1295 37.9206 42.8833C37.1036 45.029 35.5541 46.7687 33.582 47.8125C32.0044 48.7694 30.1731 49.3202 28.3419 49.3493C25.8063 49.3202 23.4117 48.3634 21.5241 46.6817C19.4674 45.058 18.2561 42.5935 18.1996 39.9259V24.5876C18.1433 24.5876 18.1714 24.5007 18.1714 24.5007ZM54.9934 24.5586L54.8807 30.5316H54.6553H54.9088C54.937 30.5316 54.9934 24.5586 54.9934 24.5586ZM31.8352 25.8634C31.7227 25.8924 31.5817 25.9794 31.5535 26.1244L30.8492 28.357L30.8774 28.5309L31.0183 28.6179C31.131 28.6179 31.1873 28.6179 31.2155 28.5019L31.3282 28.1251H32.3424L32.4551 28.5019C32.4551 28.5889 32.5678 28.6179 32.6241 28.6179C32.6805 28.6179 32.765 28.5889 32.7932 28.5309C32.8213 28.473 32.8213 28.386 32.7932 28.3279L32.0324 26.0953C32.0324 25.9794 31.9199 25.8924 31.8352 25.8634ZM25.5246 25.9213C25.4118 25.9213 25.3273 26.0083 25.3273 26.0953C25.3273 26.1823 25.4118 26.2693 25.5246 26.2693H25.8627V28.4149C25.8627 28.5309 25.9754 28.5889 26.0599 28.5889C26.1444 28.5889 26.2289 28.5019 26.2289 28.4149V26.2693H26.5951C26.6797 26.2693 26.7642 26.1823 26.7642 26.0953C26.7642 26.0083 26.6797 25.9213 26.5951 25.9213H25.5246ZM27.1867 25.9213C27.1022 25.9213 27.0177 26.0083 27.0177 26.0953C27.0177 26.1823 27.1022 26.2693 27.1867 26.2693H27.5531V28.4149C27.5531 28.5309 27.6658 28.5889 27.7503 28.5889C27.8348 28.5889 27.9193 28.5019 27.9193 28.4149V26.2693H28.2855C28.37 26.2693 28.4546 26.1823 28.4546 26.0953C28.4546 26.0083 28.37 25.9213 28.2855 25.9213H27.1867ZM29.6097 25.9213C29.3279 25.8924 29.0743 26.0664 28.9616 26.2983C28.7926 26.5883 28.7081 26.9072 28.7081 27.2261C28.7081 27.5741 28.7926 27.8641 28.9335 28.183C29.0462 28.444 29.2997 28.6179 29.6097 28.6179C29.7786 28.6179 29.9196 28.56 30.0604 28.5019C30.2858 28.3279 30.4267 28.067 30.483 27.7771C30.5112 27.632 30.5394 27.4581 30.5394 27.3131C30.5394 27.1971 30.483 27.0522 30.2858 27.0522H29.7224C29.5814 27.0522 29.5532 27.1101 29.5532 27.1682C29.5532 27.2841 29.6097 27.3422 29.6941 27.3422H30.1168V27.4581C30.145 27.806 29.9196 28.1251 29.6097 28.212C29.4124 28.212 29.2152 28.067 29.1588 27.8641C29.0462 27.6611 29.018 27.4292 29.018 27.1971C29.018 26.9363 29.1025 26.7042 29.187 26.5014C29.2434 26.3274 29.4124 26.2113 29.5814 26.1823C29.7506 26.1823 29.8914 26.2983 29.9759 26.4433C30.0041 26.5302 30.0886 26.5593 30.1731 26.5302C30.2576 26.5302 30.2858 26.4144 30.2858 26.3563C30.2295 26.0664 29.9196 25.8924 29.6097 25.9213ZM35.4696 25.9213C35.3569 25.9213 35.2724 26.0083 35.2724 26.0953C35.2724 26.1823 35.3569 26.2693 35.4696 26.2693H35.8358V28.4149C35.8358 28.5309 35.9203 28.5889 36.0048 28.5889C36.0893 28.5889 36.174 28.5019 36.174 28.4149V26.2693H36.5402C36.6529 26.2693 36.7092 26.1823 36.7092 26.0953C36.7092 26.0083 36.6247 25.9213 36.5402 25.9213H35.4696ZM20.5661 25.9213C20.3689 25.8924 20.1436 25.9504 19.9745 26.0664C19.8055 26.1823 19.6928 26.3853 19.6928 26.5883C19.6646 26.7912 19.7492 27.0231 19.89 27.1971C20.0027 27.3422 20.1999 27.4292 20.3971 27.4292C20.6506 27.4292 20.8478 27.5162 20.9888 27.719C21.045 27.8351 20.9888 27.98 20.9043 28.096C20.7915 28.212 20.6226 28.27 20.4534 28.2409C20.2844 28.2409 20.1154 28.154 20.0027 28.0381C19.9464 27.9511 19.8337 27.922 19.7492 27.9511C19.6365 28.009 19.6365 28.154 19.6365 28.212C19.8055 28.473 20.0872 28.647 20.4253 28.6179C20.7071 28.647 20.9888 28.56 21.186 28.357C21.3269 28.212 21.3832 28.009 21.3832 27.806C21.4114 27.6031 21.2987 27.3711 21.1297 27.2552C20.876 27.1101 20.5943 27.0231 20.3126 26.9942C20.1436 26.9652 20.0309 26.7912 20.059 26.6172C20.1154 26.3853 20.3126 26.2693 20.4816 26.2983C20.6506 26.2983 20.8478 26.3563 20.9605 26.5014C21.0733 26.6172 21.2422 26.5014 21.2422 26.3853C21.2422 26.2693 21.0733 25.9213 20.5661 25.9213ZM21.7494 25.9213C21.6649 25.9213 21.5804 26.0083 21.5804 26.0953V26.1244C21.5804 26.2113 21.6649 26.2983 21.7494 26.2983H22.1157V28.4149C22.1157 28.5309 22.2002 28.6179 22.2847 28.6179C22.3974 28.6179 22.4819 28.5019 22.4819 28.4149V26.2983H22.8481C22.9326 26.2983 23.0173 26.2113 23.0173 26.1244C23.0173 26.0374 22.9608 25.9213 22.8763 25.9213H22.8481H21.7494ZM33.4411 25.9213L33.3003 26.0083C33.2721 26.0374 33.2439 26.0953 33.2439 26.1244V28.386C33.2439 28.5019 33.3003 28.56 33.3848 28.5889H33.4129C33.5256 28.5889 33.6103 28.5019 33.6103 28.4149V27.6901H33.9765L34.5399 28.473C34.5963 28.56 34.6526 28.5889 34.7089 28.5889C34.8216 28.5889 34.878 28.5019 34.878 28.444C34.878 28.386 34.8498 28.299 34.7935 28.27L34.3427 27.632H34.3991C34.5399 27.5741 34.6526 27.4871 34.7653 27.3711C34.9343 27.2261 35.0188 26.9942 34.9907 26.7623C34.9907 26.5014 34.8498 26.2693 34.6526 26.1244C34.4554 26.0083 34.2582 25.9504 34.0327 25.9504C34.0047 25.9213 33.4411 25.9213 33.4411 25.9213ZM23.4962 25.9213C23.4117 25.9213 23.327 26.0083 23.327 26.0953V26.1244V27.4871C23.327 27.7481 23.3835 28.067 23.4962 28.299C23.6652 28.5309 23.9187 28.647 24.2005 28.6179C24.454 28.6759 24.7075 28.5309 24.8766 28.299C24.9894 28.0381 25.0739 27.7771 25.0456 27.4871V26.1244C25.0456 26.0374 24.9611 25.9504 24.8766 25.9504H24.8484C24.7639 25.9504 24.6794 26.0374 24.6794 26.1244V27.5741C24.6794 27.7481 24.6512 27.922 24.5667 28.067C24.4822 28.183 24.3413 28.2409 24.2005 28.212C24.0596 28.2409 23.9187 28.183 23.8342 28.067C23.7497 27.922 23.6934 27.7481 23.7215 27.5741V26.1244C23.6934 26.0083 23.6089 25.9213 23.4962 25.9213ZM33.582 26.2983H34.061C34.2019 26.2983 34.3427 26.3274 34.4272 26.4144C34.5399 26.5303 34.5681 26.6172 34.5681 26.7623C34.5681 27.0812 34.3144 27.3131 34.0047 27.3131H33.6103L33.582 26.2983ZM31.8072 26.3274L32.2579 27.7771H31.4127L31.8072 26.3274ZM28.2855 29.4878C28.032 29.5748 27.7783 29.6327 27.5811 29.7777C27.4121 29.9227 27.2714 30.0967 27.1587 30.2996C27.1304 30.3286 27.1022 30.3577 27.0459 30.3866L26.905 30.4156L26.3698 30.6766C26.2007 30.7636 26.0317 30.8794 25.8627 30.9375C25.7218 30.9955 25.609 31.0245 25.4683 31.0534C25.1583 30.9955 24.8202 31.0245 24.7075 31.3725C24.7075 31.4595 24.7357 31.5174 24.8202 31.5464C24.8766 31.5753 24.9047 31.6044 24.9611 31.6334L25.1301 31.7204C25.1866 31.7204 25.2146 31.7204 25.2428 31.7784L25.2711 31.8363V31.8653C25.2711 31.9233 25.1866 31.9814 25.1584 31.9814C24.9894 32.0103 24.8484 31.9814 24.7075 31.8944H24.6794C24.623 31.8363 24.5385 31.8363 24.4822 31.8944C24.1723 32.1553 23.8624 32.4163 23.5243 32.6192L23.4117 32.7352L23.3835 32.7932V32.8801C23.3835 32.9671 23.299 32.9962 23.2425 32.9962C23.1863 33.0251 23.1298 33.0832 23.1298 33.1411V33.286C23.158 33.4021 23.2425 33.46 23.3835 33.46H23.4398L23.6934 33.3441H23.8061L23.8342 33.373V33.4891C23.8061 33.547 23.7779 33.6051 23.7215 33.634C23.6652 33.721 23.637 33.7791 23.7215 33.837C23.8342 33.953 24.0033 33.924 24.0878 33.808C24.1441 33.75 24.1723 33.663 24.2005 33.6051C24.2286 33.5181 24.285 33.46 24.3695 33.46C24.5103 33.4021 24.6794 33.373 24.8202 33.3441C24.9329 33.3441 25.0456 33.3441 25.1301 33.4311L25.2146 33.5181V33.576C25.1866 33.6921 25.1584 33.7791 25.1019 33.8949L25.0174 34.1559L24.9329 34.388L24.8202 34.5038L24.3695 34.8808C24.1159 35.1128 23.9469 35.3447 23.7497 35.6637C23.6934 35.7507 23.6652 35.8377 23.637 35.9247C23.5807 36.1856 23.5243 36.5045 23.2708 36.3015C23.0171 36.1856 22.7636 35.9826 22.5101 35.7796C22.4255 35.7217 22.3129 35.6347 22.2565 35.5186C22.003 35.1418 21.6931 35.5186 21.5522 35.7796C21.2705 36.2726 20.9325 36.7365 20.5661 37.1714C20.5381 37.2874 20.4816 37.3744 20.4253 37.4614C20.3408 37.5773 20.2844 37.7224 20.3126 37.8673C20.3126 38.1283 20.2281 38.3602 20.1154 38.5632C20.0027 38.6791 19.9464 38.8241 19.9464 38.9691V39.375C19.9464 39.491 20.0027 39.5489 20.0872 39.5489H20.1717C20.3689 39.462 20.5661 39.3461 20.7633 39.1721L20.8478 39.114C20.9043 39.0561 20.9043 38.9691 20.876 38.9111L20.8478 38.853L20.7915 38.7951C20.7633 38.7661 20.7071 38.7372 20.6788 38.6791V38.5051L20.7353 38.3311C20.7353 38.2732 20.7633 38.1862 20.8198 38.1573L21.1297 37.8963C21.2422 37.7803 21.2987 37.5773 21.2422 37.4324V37.2293C21.2422 37.1423 21.2705 37.1135 21.3269 37.0265L21.5241 36.7655C21.6086 36.6204 21.7494 36.5045 21.8903 36.4465C22.1157 36.4465 22.3129 36.5045 22.4819 36.6495C22.6227 36.8525 22.7354 37.1135 22.8201 37.3744C22.8763 37.6063 22.9608 37.8094 23.0736 38.0122C23.1863 38.1283 23.327 38.2152 23.468 38.1283L23.5525 38.0702L23.6089 38.0413C23.6652 38.0413 23.7215 38.0413 23.7497 38.1283L24.0033 38.3892C24.1159 38.4762 24.0314 38.5341 23.9187 38.5341H23.5243C23.1018 38.6791 22.6227 38.7661 22.172 38.7661H22.0875C22.003 38.7661 21.9748 38.8241 21.9748 38.8821L21.9466 38.94L21.8903 39.0561C21.8621 39.1721 21.8621 39.288 21.8903 39.404C22.0593 40.0418 22.1438 40.7088 22.003 41.3757C21.9466 41.6366 22.003 41.8976 22.172 42.0716L22.3692 42.1874L22.4819 42.2455C22.5382 42.3325 22.5664 42.3905 22.5664 42.5065C22.5664 42.6224 22.6509 42.7675 22.7073 42.8544C22.8199 42.9994 22.9608 43.1154 23.1298 43.2313H23.1863C23.299 43.2894 23.3835 43.2313 23.4398 43.1443C23.5243 42.9414 23.5807 42.7094 23.5525 42.4774C23.5525 42.3614 23.468 42.2744 23.3553 42.2455L23.2425 42.2744L23.1581 42.3035H23.0453C22.9891 42.2744 22.9608 42.2165 22.9326 42.1585C22.8763 42.0135 22.8763 41.8685 22.9046 41.7236V41.6366L22.9326 41.4336C22.9326 41.3757 22.9326 41.3177 22.8763 41.2596C22.8199 41.1437 22.8199 41.1147 22.7354 41.0857C22.6791 41.0857 22.6509 41.0568 22.6227 40.9987C22.5664 40.9407 22.5664 40.9117 22.5946 40.8828C22.6509 40.5637 22.6509 40.2448 22.6227 39.9259C22.6227 39.8099 22.6229 39.7229 22.6791 39.665C22.9046 39.4619 23.2708 39.607 23.468 39.694C23.7779 39.8099 24.0596 39.868 24.3413 39.9259C24.8484 39.9839 25.3556 39.8389 25.75 39.5489C25.7782 39.52 25.7782 39.491 25.8345 39.52L26.2571 39.8389C26.6233 40.0999 27.0177 40.2739 27.4121 40.4188C27.9756 40.4767 28.5109 40.4767 29.1025 40.3898C29.2152 40.3898 29.3842 40.4188 29.4969 40.4767L29.5532 40.5637C29.5532 40.7958 29.4407 40.9698 29.4407 41.2017C29.4407 41.3177 29.4969 41.4336 29.5532 41.5496L29.6659 41.8685L29.7504 41.9846C30.0604 42.3905 30.0886 42.9994 29.7504 43.4053C29.5532 43.6083 29.3279 43.8111 29.0743 43.9851C28.849 44.1591 28.5672 44.2751 28.2855 44.3042C28.0883 44.3042 27.9193 44.3912 27.7783 44.5361C27.6094 44.7101 27.4404 44.855 27.2432 44.942C27.1587 44.971 27.0742 45.058 27.0742 45.145C26.9614 45.3769 26.905 45.6088 26.8487 45.8698C26.8205 45.9858 26.9332 46.0438 27.0459 46.0438C27.2431 46.0149 27.4404 45.9279 27.6658 45.8698C27.7783 45.8698 27.8348 45.7249 27.8066 45.6088L27.7783 45.5799L27.6938 45.406V45.261C27.7503 45.232 27.7783 45.174 27.8348 45.145C27.8911 45.0871 27.9756 45.0871 28.032 45.0871H28.1447C28.4264 45.2029 28.7644 45.0871 28.8771 44.797C28.9335 44.7101 28.9898 44.6231 29.0462 44.5651C29.5814 44.2172 30.145 43.9272 30.7647 43.6953C30.8211 43.6953 30.8774 43.6372 30.8774 43.5792V42.6805C30.8774 42.5354 30.9338 42.2744 31.131 42.2744C31.2155 42.2744 31.2718 42.3325 31.3 42.3905C31.4972 42.6514 31.7507 42.8254 32.0606 42.9414L32.3143 43.0573C32.5396 43.1733 32.6805 43.3764 32.7087 43.6373C32.7368 43.7822 32.7087 43.8981 32.6241 44.0142L32.0324 44.884C31.9479 45.029 31.8352 45.174 31.6662 45.261C31.2718 45.522 30.9338 45.8409 30.5957 46.1888L30.314 47.0876C30.2576 47.2616 30.3703 47.3197 30.5112 47.2616C30.7647 47.2036 30.9619 47.1166 31.1591 47.0006L31.2718 46.9136C31.3 46.8847 31.3 46.8266 31.3 46.7977C31.3 46.7108 31.2436 46.6238 31.1873 46.5657C31.131 46.4787 31.131 46.3628 31.1873 46.2758C31.2155 46.2177 31.2718 46.1888 31.3 46.1598L31.8072 46.0149C32.0044 45.9858 32.2016 45.8988 32.3706 45.7539C32.3988 45.6958 32.4269 45.6669 32.4551 45.6088V45.5509C32.6523 44.884 33.1031 44.2461 33.7228 43.9272C33.8075 43.8981 33.8355 43.8111 33.8355 43.7242L33.8075 43.4633L33.3566 42.7384C33.2158 42.5354 33.1312 42.3325 33.1031 42.1005C33.1031 41.8395 33.1594 41.6076 33.2721 41.4047L33.3848 41.2307C33.4693 41.0568 33.6383 40.9698 33.751 40.7958C33.8637 40.6507 34.0047 40.4767 34.0892 40.2739L34.3427 39.578C34.3991 39.375 34.3144 39.1721 34.3144 38.9691C34.3144 38.8821 34.3709 38.853 34.3991 38.7661C34.4836 38.6502 34.5963 38.5632 34.7371 38.5051C34.878 38.4762 35.0188 38.4762 35.1315 38.5341L35.7795 38.7951C35.8921 38.7951 36.033 38.7951 36.1457 38.7372C36.2585 38.7081 36.3992 38.6211 36.512 38.5341V38.4181H36.202C36.0893 38.3892 36.0048 38.3311 35.9485 38.2441C35.8921 38.1571 35.8358 38.0703 35.8358 37.9833L35.9203 37.8382C36.0893 37.7224 36.2302 37.5773 36.3147 37.4324C36.3992 37.2584 36.4275 37.0844 36.4275 36.9104H36.343C36.2302 37.0265 36.202 37.1714 36.0613 37.2584C35.9485 37.3454 35.8076 37.3744 35.6949 37.3744C35.6104 37.3744 35.5259 37.3454 35.4414 37.2584C35.3851 37.1714 35.3569 37.0844 35.3287 36.9974C35.3005 36.8814 35.4414 36.8525 35.4977 36.8234C35.6668 36.8234 35.8358 36.7655 36.0048 36.7074C36.1175 36.6495 36.174 36.5625 36.2302 36.4465C36.2585 36.3595 36.2865 36.2725 36.2865 36.1856C36.2865 36.1276 36.2865 36.0987 36.2585 36.1276C36.1458 36.1276 36.0893 36.2145 36.0048 36.2436C35.864 36.3015 35.6949 36.2726 35.5541 36.2145C35.4132 36.0987 35.3005 35.9536 35.216 35.8087V35.4897C35.3851 35.4897 35.5259 35.3158 35.6104 35.1128L35.6668 34.9967L35.7795 34.8518C35.8076 34.7358 35.8076 34.6199 35.8076 34.5038C35.8076 34.4169 35.7513 34.301 35.6949 34.2429H35.5823C35.5259 34.3589 35.5823 34.5038 35.4696 34.6199C35.3851 34.7358 35.3005 34.8518 35.1879 34.9388C35.1033 34.9967 35.047 35.0548 34.9907 35.0548C34.8498 34.9967 34.7653 34.8808 34.7371 34.7358C34.7371 34.6199 34.7935 34.4459 34.8498 34.3299L35.3287 33.547L35.7231 33.0832C35.8076 32.9671 35.8358 32.7062 35.7513 32.6482C35.6386 32.6192 35.5823 32.8801 35.4977 32.9381C35.1033 33.0832 34.7371 33.286 34.3991 33.547C34.2299 33.75 34.1455 33.9819 34.061 34.2429C34.0047 34.388 34.0327 34.5908 33.9765 34.7358C33.9765 34.7939 33.8637 34.8518 33.8075 34.8227C33.6948 34.7069 33.6101 34.5329 33.5538 34.388C33.5256 34.2719 33.5256 34.1559 33.5538 34.011C33.582 33.953 33.5538 33.924 33.5256 33.953C33.3566 34.04 33.2721 34.1849 33.1876 34.3299C33.1312 34.5618 33.1312 34.7939 33.2439 34.9967C33.413 35.3447 33.6103 35.6347 33.8637 35.9247C34.0327 36.1856 34.2299 36.5045 34.3709 36.7655C34.5117 36.9684 34.5681 37.2584 34.5399 37.5484C34.4554 37.8093 34.3427 38.0702 34.1455 38.2441C34.1455 38.2441 34.061 38.3022 34.0327 38.2732C33.8355 38.0703 33.6103 37.8963 33.3848 37.7224C33.1031 37.5484 32.8213 37.4033 32.5115 37.3454C32.1171 37.2874 31.6945 37.2874 31.3 37.3454C30.8774 37.3454 30.4548 37.4324 30.0323 37.4033C29.6941 37.4324 29.3562 37.4033 29.018 37.2874C28.7926 37.1714 28.5954 36.9974 28.4546 36.7655C28.3419 36.5334 28.2855 36.2436 28.3419 35.9826C28.3419 35.7507 28.4264 35.5477 28.5109 35.3447C28.5954 35.1707 28.7363 35.0258 28.8771 34.9388C29.0743 34.8228 29.2997 34.7939 29.4969 34.8518L29.7504 35.0258C29.8351 35.1128 29.9196 35.1997 30.0041 35.2867L30.0886 35.2577C30.1168 34.9678 30.0604 34.6778 29.9759 34.388C29.8914 34.1849 29.7504 33.9819 29.6097 33.7791C29.6097 33.721 29.7224 33.75 29.7504 33.721C29.9759 33.721 30.2013 33.7791 30.3703 33.924C30.483 34.011 30.6239 34.098 30.7084 34.2719L30.7366 34.2429C30.7647 33.8949 30.6239 33.547 30.3985 33.286C30.314 33.1411 30.1731 32.9962 30.0323 32.9092C29.9196 32.8801 30.0886 32.7932 30.1731 32.7932C30.3422 32.7641 30.5394 32.7932 30.6802 32.8801L30.8492 32.9962L30.9619 33.1121C30.9901 33.1121 31.0464 33.0541 31.0183 33.0251C30.9901 32.9092 30.9619 32.8222 30.9056 32.7352C30.652 32.4743 30.3703 32.2133 30.0604 31.9814L29.9476 31.8944C29.8631 31.7784 29.7786 31.6334 29.7504 31.5174L29.6379 31.3434V31.1404C29.7504 30.9664 29.8069 30.9375 30.0041 30.8505C30.145 30.7925 30.2858 30.7636 30.4267 30.7345L30.5675 30.7925C30.5675 30.7925 30.5957 30.7055 30.5394 30.6766C30.3703 30.5605 30.145 30.5026 29.9196 30.5026C29.6379 30.4447 29.356 30.4736 29.0743 30.5605C28.8771 30.6766 28.6518 30.7345 28.4546 30.7345C28.3137 30.7345 28.1447 30.7345 28.032 30.6475C27.9475 30.5896 27.863 30.5026 27.863 30.3866C27.863 30.2416 27.8911 30.0386 27.9756 29.8937C28.032 29.7777 28.1447 29.6907 28.2574 29.6327C28.37 29.6327 28.3982 29.5748 28.37 29.5167C28.4264 29.4297 28.3419 29.4588 28.2855 29.4878ZM27.1867 31.1985C27.3276 31.1985 27.4404 31.2564 27.5531 31.3434C27.8911 31.6334 28.0602 32.0393 28.1165 32.4743C28.201 33.0541 28.2292 33.663 28.1165 34.2429C28.1165 34.4459 28.032 34.6199 27.863 34.7069C27.7783 34.7358 27.6938 34.7648 27.6094 34.7648C27.5249 34.7648 27.4966 34.6199 27.4966 34.388V32.7932C27.4404 32.4452 27.3559 32.0973 27.1867 31.7493C27.1867 31.6623 27.1304 31.6334 27.0742 31.5753L26.9614 31.4304C26.905 31.3725 26.8205 31.3434 26.7642 31.2855L26.7923 31.1985C26.9332 31.1694 27.0742 31.1404 27.1867 31.1985ZM39.2729 31.4883H54.8807L54.7398 38.5051H39.2729V31.4883ZM39.3011 39.4331H54.7398C54.5989 42.5065 54.0354 45.5509 53.0494 48.4503C51.8662 51.8717 50.2885 55.0902 48.3446 58.1346C45.5273 62.4838 41.8648 66.1952 37.5825 69.0658C35.6949 70.2546 33.7228 71.2694 31.6662 72.1972C31.0183 72.4872 30.3985 72.777 29.8914 72.951C29.2997 73.125 28.7926 73.328 28.4546 73.415V50.422C28.7926 50.422 29.0743 50.422 29.4124 50.3641L29.5252 50.683C29.6659 50.9439 29.8914 51.1179 30.1731 51.2049C30.5394 51.263 30.8774 51.1179 31.1028 50.8569C31.4408 51.1179 31.8634 51.2339 32.2579 51.06C32.5678 50.973 32.7932 50.683 32.7932 50.3641C32.8213 50.1321 32.7932 49.9291 32.6805 49.7261L32.5678 49.5521C33.3848 49.1753 34.1172 48.7694 34.8216 48.2475H34.9061C36.0048 47.9575 40.5408 46.2758 43.3298 46.2468C45.0484 46.2177 46.7387 46.6238 48.2319 47.4646C49.049 47.9575 49.7814 48.5664 50.4012 49.3202L50.5139 49.2332C50.6829 48.7113 50.7956 48.1894 50.7674 47.6095C50.6829 46.7397 49.8378 46.1018 49.5841 45.8409C49.5841 45.8409 49.5841 45.7828 49.6686 45.7249C49.7531 45.6379 49.8659 45.5509 49.9786 45.4639C50.4857 45.0871 51.0773 44.8261 51.6972 44.8261C51.7817 44.8261 51.7534 44.7101 51.7254 44.5651C51.5562 43.8111 50.4575 43.3183 49.3587 43.4633C48.5981 43.6083 47.9502 44.1012 47.5276 44.768C47.4994 44.8261 47.3866 44.884 47.3586 44.8261C46.9922 44.681 46.626 44.5651 46.2598 44.4781C46.1471 44.4491 46.2034 44.3331 46.2034 44.3331C46.4288 43.9272 46.7105 43.5503 47.1049 43.2894C47.5276 42.9414 48.0629 42.6805 48.6263 42.5935C48.6826 42.5935 48.6826 42.5065 48.6263 42.4774C48.4291 42.0135 48.0065 41.6657 47.5276 41.5496C46.7387 41.2887 45.8372 41.4336 45.1893 41.9555C44.5694 42.5065 44.0905 43.2603 43.8369 44.0432C43.8087 44.1302 43.7806 44.1591 43.7242 44.1591C43.4143 44.0721 42.6818 44.1302 42.6254 44.0721C42.5691 44.0721 42.5691 43.9562 42.5974 43.9272C42.7101 43.4922 42.9636 43.0864 43.2453 42.7675C43.5552 42.3905 43.9214 42.0716 44.344 41.8976L44.4004 41.8395C44.4567 41.7525 44.4567 41.6366 44.3722 41.5787C43.1045 40.9407 41.5831 41.2887 40.6815 42.4195C40.2589 43.0573 39.949 43.8111 39.78 44.5651C39.78 44.594 39.7237 44.681 39.6673 44.681L38.146 45.058L37.8924 45.1159L37.8361 45.058C38.7377 43.5213 39.2448 41.7815 39.3011 39.9548C39.3011 39.9839 39.3011 39.4331 39.3011 39.4331ZM18.3968 41.9555C18.4813 42.3035 18.6505 42.6224 18.763 42.9703L18.3968 41.9555ZM20.1154 45.6379C22.1157 48.2184 25.1019 49.7261 28.2855 49.7842C30.7366 49.7551 33.1031 48.8273 34.9625 47.1746C33.1031 48.7983 30.7366 49.6972 28.2855 49.7261C25.1301 49.6972 22.1157 48.1894 20.1154 45.6379ZM2.95814 47.2616H20.6506L21.017 47.5805C22.8481 49.2043 25.1583 50.1901 27.5531 50.3931V54.1334H5.77543C4.62035 51.9008 3.69065 49.6102 2.95814 47.2616ZM39.8645 48.7404C39.4138 48.7983 38.9912 48.9434 38.5967 49.2042C38.0896 49.5232 37.6671 49.9582 37.4135 50.509C37.1036 51.2919 36.9628 52.0747 36.9064 52.8867L36.7937 53.0026L35.7795 53.2635C35.7795 53.2635 35.7231 53.2635 35.6949 53.2056C35.5823 52.4227 35.7513 51.6398 36.1457 50.973C36.3147 50.6541 36.5402 50.3641 36.7937 50.1321C36.8501 50.1031 36.8782 50.0161 36.8501 49.9871L36.7374 49.9291C36.0893 49.8131 35.3851 49.9291 34.7935 50.3061C34.0327 50.712 33.5256 51.4949 33.4411 52.3937C33.3566 53.0026 33.4129 53.6115 33.5538 54.2204C33.5538 54.2494 33.5538 54.3074 33.4975 54.3364L32.3988 54.8872H32.3424C32.2296 54.4234 31.9479 54.0174 31.5255 53.7564C31.0746 53.5535 30.5957 53.5824 30.1731 53.8145C29.8914 53.9885 29.6659 54.2204 29.5532 54.5104C29.3279 55.0322 29.4969 55.6122 29.9196 55.902C29.9196 55.9311 29.9759 55.989 29.9196 56.0181C29.6379 56.1341 29.6379 56.192 29.4124 56.5109C29.2152 56.9749 29.2715 57.5257 29.5814 57.9027C30.0041 58.5696 30.8774 58.7435 31.4972 58.3086C31.5535 58.2797 31.61 58.2216 31.6662 58.1637C31.6662 58.1637 31.7227 58.1637 31.7507 58.2216C31.8634 58.3956 32.0044 58.5696 32.1734 58.6856C32.596 58.9466 33.1312 58.9466 33.5256 58.6856C33.9765 58.4246 34.2299 57.9027 34.1455 57.3808C34.1455 57.0908 34.0327 56.8009 33.8075 56.5979C33.7792 56.54 33.8075 56.5109 33.92 56.453C35.7513 55.3801 37.7516 54.6553 39.8645 54.3653C40.9352 54.2204 42.0338 54.2494 43.1045 54.4523C43.7806 54.5974 44.4567 54.9453 44.9921 55.4091C45.4428 55.7861 45.8372 56.192 46.2316 56.656C46.3443 56.656 46.4851 56.656 46.5978 56.569C46.8232 56.0471 46.8514 55.4671 46.626 54.9452C46.3725 54.2494 45.9781 53.6405 45.471 53.1186V53.0605C45.471 52.9446 45.5273 52.9156 45.6118 52.7997C46.0907 52.3648 46.6823 52.0168 47.3021 51.9008C47.3866 51.9008 47.4149 51.8138 47.3866 51.7558C46.9359 50.828 45.8654 50.422 44.9356 50.799C44.344 51.06 43.8369 51.5238 43.5834 52.1038C43.5552 52.1617 43.4989 52.2487 43.4707 52.2197L42.4564 52.1038C42.3437 52.1038 42.3719 51.9878 42.4001 51.9878C42.5129 51.6108 42.7101 51.2628 42.9918 51.002C43.358 50.5671 43.8369 50.2191 44.344 50.0161C44.4004 50.0161 44.4004 49.9582 44.4004 49.9291C44.0623 49.4942 43.527 49.2332 42.9918 49.2042C42.3156 49.1753 41.6394 49.4362 41.1605 49.9291C40.5688 50.5671 40.2309 51.3789 40.1464 52.2487C40.0899 52.3067 40.0617 52.3648 40.0336 52.3648C39.78 52.4227 39.4701 52.4227 39.1884 52.4517C39.1321 52.4517 39.1321 52.3648 39.1321 52.3357C39.1321 51.9008 39.2448 51.4658 39.442 51.0888C39.8082 50.335 40.3998 49.6972 41.1042 49.2623C41.2169 49.1753 41.2169 49.0013 41.1887 49.0013C40.7943 48.7694 40.3153 48.6824 39.8645 48.7404ZM36.5402 58.5986C36.2585 58.5986 35.9768 58.6856 35.7513 58.8596C35.0752 59.2075 34.5681 59.8164 34.3144 60.5703C34.2019 61.1501 34.2019 61.759 34.3709 62.3389V62.4259L33.7228 62.7448H33.6383C33.2439 61.991 33.3284 61.0922 33.892 60.4542C33.9482 60.3963 33.9765 60.3384 33.8637 60.3093C33.2721 60.2223 32.6805 60.4542 32.2861 60.9182C31.8072 61.4981 31.6662 62.281 31.9199 63.0057C31.9762 63.2667 32.0606 63.5277 32.2296 63.7886C32.2296 63.7886 32.3424 63.8756 32.2579 63.9047L31.8352 64.2815H31.7507C31.5817 63.9047 31.2436 63.6437 30.8774 63.5277C30.5394 63.4407 30.2013 63.5567 29.9476 63.7886C29.5252 64.2236 29.4969 64.9195 29.9196 65.3834L29.9476 65.4123C30.0604 65.5284 30.2013 65.6154 30.3703 65.6733C30.3985 65.6733 30.4267 65.7314 30.3985 65.7603C30.145 65.9343 29.9476 66.1373 29.8069 66.3982C29.6379 66.8332 29.7224 67.326 30.0604 67.674C30.314 67.877 30.6239 67.9929 30.9338 67.935C31.4127 67.7899 31.7789 67.413 32.0324 66.9781C32.0324 66.9781 32.0889 66.9202 32.1171 66.9781C32.3143 67.2391 32.596 67.4421 32.934 67.587C33.2721 67.7319 33.6383 67.645 33.892 67.384C34.2582 67.123 34.3991 66.6011 34.2299 66.1373C34.0892 65.8763 33.892 65.6444 33.6383 65.4993C33.582 65.4414 33.6383 65.3834 33.6948 65.3253C34.9061 64.3106 36.3712 63.6437 37.9488 63.4118C38.9912 63.2667 40.0617 63.4407 41.0197 63.9337C41.3859 64.1366 41.724 64.4266 42.0338 64.7455C42.062 64.7455 42.1747 64.8034 42.2029 64.7455C42.6818 64.3396 42.7101 63.5858 42.3156 63.0927C42.1465 62.8899 41.9493 62.7159 41.6958 62.5708L41.6676 62.5129C41.9775 61.7011 42.6254 61.0631 43.4707 60.8601C43.5552 60.8601 43.527 60.8022 43.4707 60.7152C43.1325 59.8453 41.6113 59.8164 40.907 60.2803C40.4561 60.5992 40.0899 61.0052 39.8364 61.4981C39.8364 61.556 39.8082 61.6141 39.7518 61.6141L39.1321 61.4111V61.3241C39.5546 60.4542 40.3153 59.8164 41.2169 59.5844C41.2732 59.5555 41.245 59.4974 41.2169 59.4685C40.907 58.6277 39.2448 58.6856 38.4278 59.2364C37.6671 59.7583 37.1036 60.5412 36.9064 61.469V61.5851C36.6529 61.672 36.4557 61.73 36.202 61.759C36.174 61.759 36.1457 61.73 36.1457 61.6721C36.0893 61.2662 36.1458 60.8312 36.343 60.4833C36.5965 60.0193 36.9628 59.5844 37.329 59.1785C37.3853 59.1205 37.3853 59.0335 37.329 59.0045C37.0755 58.7145 36.8219 58.6277 36.5402 58.5986ZM11.4945 62.6578H27.4966V73.299C27.1867 73.1831 26.8487 73.038 26.4543 72.9221C25.919 72.7481 25.3556 72.4291 24.6512 72.1392C21.2422 70.7765 18.0869 68.8628 15.2978 66.4271C13.9455 65.2674 12.6778 64.0207 11.4945 62.6578Z" fill="white"/>
</g>
<defs>
<clipPath id="clip0_101_807">
<rect width="56.4302" height="74.5168" fill="white"/>
</clipPath>
</defs>
</svg>
