<svg width="58" height="80" viewBox="0 0 58 80" fill="none" xmlns="http://www.w3.org/2000/svg">
<g clip-path="url(#clip0_101_749)">
<path fill-rule="evenodd" clip-rule="evenodd" d="M25.1312 48.8491C25.1312 48.8491 25.0634 47.1634 25.3952 47.2926C25.7273 47.4231 30.2612 51.1366 30.6571 52.043C31.0577 52.9502 31.7682 52.4972 31.9871 51.8485C32.2041 51.2009 33.0675 48.3301 33.6648 48.2004C34.2612 48.0702 35.1917 48.2644 34.86 48.9795C34.5279 49.6911 34.1295 50.3578 34.0628 50.6832C33.9969 51.0054 33.9303 52.1092 33.3978 52.8862C32.8686 53.6628 33.0868 54.181 32.3381 54.3136C31.5869 54.442 31.3221 54.507 30.8578 54.507C30.3934 54.507 28.8658 54.181 28.6017 53.2759C28.3355 52.3667 28.5172 51.8673 27.2529 50.6182C25.9956 49.3681 25.1312 48.8491 25.1312 48.8491Z" fill="white"/>
<path fill-rule="evenodd" clip-rule="evenodd" d="M25.9341 0.401735C26.1679 0.933782 26.9853 1.33534 26.6513 2.01041C26.1564 2.07304 25.7826 1.7536 25.3642 1.61893C25.2127 1.51177 25.0479 1.41259 25.0072 1.2473C24.906 0.809904 25.5336 0.666191 25.407 0.216613C25.4362 0.135536 25.4708 0.0478491 25.5552 0.0102684C25.8296 -0.0554981 25.7658 0.279597 25.9341 0.401735Z" fill="white"/>
<path fill-rule="evenodd" clip-rule="evenodd" d="M28.3624 0.361489C28.9091 0.645085 29.0474 1.285 29.6267 1.55746C29.8805 1.78469 29.9233 2.14553 30.2208 2.3397C31.7182 2.14553 33.0887 2.57284 34.0609 3.76255C34.3927 4.14428 34.9332 4.04024 35.4329 4.09209C35.9748 4.06599 36.5699 4.1394 37.1009 4.03015C37.494 4.05067 37.8839 4.1133 38.242 4.29774C38.3528 4.38577 38.381 4.54549 38.3453 4.69094C38.2377 4.82316 38.0103 4.75114 37.8816 4.83465C37.0913 5.01595 36.296 5.21011 35.6869 5.72058C35.869 5.87438 36.1602 5.90571 36.4242 5.98817C37.2509 6.31143 38.005 6.93012 38.6625 7.63825C38.9497 7.82649 39.3232 7.83694 39.6752 7.9455C40.9196 8.21762 41.08 9.55208 42.0179 10.2745C42.0032 10.3044 41.9627 10.3239 41.9541 10.3576C40.9364 10.5055 40.7169 9.16688 39.8423 9.10007C38.5959 9.20168 37.5891 8.6658 36.6138 8.13063C36.4157 8.0833 36.1366 8.02833 36.0023 8.19222C36.0165 8.43475 36.3016 8.43475 36.4659 8.5649C37.2403 8.72845 37.6469 9.57366 38.2412 10.0695C38.5113 10.3402 38.9772 10.2118 39.3574 10.2957C40.4659 10.4481 41.4862 10.8448 42.313 11.7377C42.4363 11.8661 42.4795 12.062 42.4391 12.253C42.4078 12.3278 42.2977 12.3494 42.2481 12.3157C41.9673 12.0557 41.7649 11.7366 41.4473 11.5526C41.198 11.4273 40.9481 11.3187 40.6862 11.285C39.7561 11.4273 38.496 11.7561 37.7338 11.0786L37.5431 11.0174V11.0999C37.8361 11.5202 38.1276 12.1525 38.7256 12.2746C39.4507 12.427 40.0986 12.8077 40.75 13.2221C40.9442 13.3175 41.2126 13.2663 41.4473 13.345C41.4809 13.394 41.5243 13.4775 41.4895 13.551C40.873 14.1157 40.1317 13.5336 39.5067 13.448C38.8271 13.1884 38.0001 13.3018 37.4167 12.8919L36.4239 12.3964C36.327 12.3898 36.2535 12.4416 36.236 12.5213C36.6327 13.1212 37.3051 13.519 37.7969 14.1091C38.2844 14.5434 38.4744 15.1096 38.6625 15.6949C39.1193 16.1555 39.8677 16.4952 39.7797 17.2805C39.9949 17.7224 40.4521 17.9535 40.8135 18.2913C40.8034 18.3302 40.7853 18.3665 40.7602 18.3984C40.7353 18.4302 40.7038 18.4566 40.6681 18.4762C39.7671 18.4688 39.1849 17.6228 38.6197 17.0341C37.5841 16.5571 36.6184 15.8782 35.7914 15.0753C35.7421 15.0539 35.7208 15.0893 35.7068 15.1183C35.7162 15.4501 36.0223 15.6656 36.236 15.9426C37.1298 16.7242 38.6268 17.103 38.893 18.435C39.129 19.2925 40.104 19.4059 40.8355 19.6513C40.9699 19.7717 41.2535 19.8604 41.194 20.105C40.7289 20.3697 40.0572 20.278 39.5904 20.1875C38.934 19.9989 38.3521 19.5712 37.9006 19.0544C37.2769 18.5972 36.4438 18.6693 35.7914 18.3523C35.6991 18.3644 35.6014 18.3753 35.5801 18.4759C35.5387 18.6996 35.5847 18.9361 35.8319 19.0325C36.6181 19.3137 36.7011 20.3538 37.5848 20.4756C38.3638 20.7957 39.104 21.548 39.4853 22.3097C39.7083 22.5849 39.8253 22.9855 40.2012 23.1552C40.2034 23.2743 40.0946 23.316 40.0135 23.3606C39.3983 23.2537 39.0756 22.5015 38.5131 22.3518C37.8368 22.26 37.3824 21.683 36.678 21.7339C36.5589 21.7659 36.6217 21.8573 36.678 21.9186L37.3536 22.5997C37.4088 22.6723 37.3158 22.7597 37.2685 22.8055C36.812 22.862 36.5068 22.4618 36.1292 22.3518C35.8847 22.2439 35.6271 22.203 35.3894 22.1448C35.2767 22.1678 35.2472 22.2815 35.3067 22.372C35.8693 23.1404 36.9092 22.894 37.6494 23.3606C38.2748 23.8405 38.8709 24.4125 39.6966 24.4956C39.8156 24.5778 39.8794 24.7476 39.8032 24.8865C39.0886 25.1604 38.243 24.9077 37.607 24.6393C36.9092 24.2284 35.9791 23.7333 35.2012 24.2685L35.2864 24.3509C35.9486 24.4233 36.6334 24.4752 37.2281 24.783C37.737 25.2062 38.212 25.7473 38.7882 26.0825C38.7879 26.1541 38.728 26.2059 38.6839 26.2682C37.9751 26.0724 37.3789 25.5212 36.5948 25.7098C35.7693 25.85 34.8398 25.85 33.9975 25.7933C33.965 25.8194 33.9019 25.835 33.9347 25.8955C34.1956 26.0973 34.5123 26.2206 34.8431 26.35C35.9631 26.443 36.871 27.2523 37.607 28.1636C38.3646 28.7253 39.4731 28.4987 40.2647 28.1223C40.354 28.055 40.4118 27.854 40.5622 27.957C40.6235 28.0912 40.5109 28.2095 40.4547 28.3286C39.6246 29.0645 38.2633 29.1564 37.2474 28.8014C36.354 28.3637 35.4674 27.9416 34.439 27.8954C33.9953 27.7353 33.5421 27.6176 33.1108 27.504C33.0681 27.5293 33.0157 27.561 33.047 27.6268C33.1423 27.7673 33.3175 27.7464 33.4696 27.8136C34.4985 28.1688 35.5091 28.602 36.3412 29.5023C36.5393 29.6777 36.8362 29.8478 36.9519 30.122C36.9242 30.2493 36.993 30.4561 36.8465 30.5124C36.4926 30.3993 36.2449 30.0734 35.9595 29.875C35.4122 29.4511 34.7765 29.2155 34.0819 29.2768C34.0327 29.2921 34.0235 29.3273 34.0402 29.3795C34.3121 29.6056 34.7137 29.5695 35.0109 29.8119C35.4425 30.13 35.9489 30.6154 36.1295 31.1516C36.3341 31.4865 36.7192 31.7495 37.0378 31.9757C37.0724 32.063 36.9495 32.109 36.9117 32.1624C35.8334 31.841 35.09 30.7707 34.0405 30.4501C33.4327 30.1363 32.6782 30.2139 32.0999 29.915C31.7114 29.734 31.4067 29.4041 30.9794 29.4004C30.8324 29.4664 30.8833 29.6216 30.854 29.7511C30.7675 31.9392 32.0233 33.6027 33.1957 35.3141C33.98 36.3998 34.9258 37.4917 35.983 38.4472C36.8928 38.9657 37.7852 39.5788 38.6839 40.2198C40.0308 41.2832 41.3437 42.4324 42.524 43.7652C43.6389 45.1415 44.5633 46.6095 45.0986 48.2579C45.2601 48.4392 45.5661 48.3874 45.8188 48.3808C46.8743 48.2579 47.7709 47.7331 48.6668 47.1864C50.5673 45.7382 51.6527 43.761 51.5568 41.4155C51.5476 39.672 51.3281 37.9357 50.903 36.2424C50.4799 34.8293 49.8591 33.5105 49.8285 31.9757C49.5117 28.4879 51.6733 25.4126 54.8074 23.8971H54.8926V24.0823C53.2516 25.3917 52.1975 27.0502 51.6441 28.8637C51.4428 29.5594 51.4428 30.4192 51.5568 31.1729C51.5803 31.2387 51.6641 31.2229 51.7481 31.234C52.7253 30.2385 53.5944 29.0597 54.7865 28.3074C55.2561 27.7568 55.5526 27.1229 55.9681 26.5762C55.9887 26.55 56.0102 26.5883 56.0515 26.6173C56.184 27.3024 55.8081 27.8394 55.6306 28.4313C55.0391 29.4559 54.0574 30.3328 53.6483 31.4405C53.2826 32.3766 52.9337 33.6338 53.4576 34.6338C53.5246 34.7204 53.6625 34.7521 53.7922 34.7173C54.2782 34.4177 54.2466 33.8443 54.6396 33.4799C55.1347 32.7519 56.0573 32.3518 56.3686 31.5222C56.4421 31.341 56.4421 31.0684 56.6648 31.0271C56.8744 31.3663 56.9324 31.8302 56.7913 32.2429C55.8997 33.3143 55.2651 34.4984 55.0823 35.8702C54.6599 37.8876 55.4172 39.7483 55.5665 41.7237C55.6239 43.1274 55.4778 44.5079 55.124 45.7839C54.4686 47.7262 52.4642 49.2614 50.5647 49.8847C50.3758 49.9413 50.5223 50.0913 50.5223 50.2149C50.6881 50.5712 50.8394 50.9457 50.9859 51.3493C51.1652 51.9415 51.2404 52.7856 51.0083 53.4085C50.7977 54.2016 50.8199 55.1487 50.9859 55.9863L50.9656 56.2322C50.8394 56.225 50.7924 56.1283 50.7756 56.0681C50.0709 54.8915 50.1126 53.4388 49.8456 52.1319C49.6628 51.6057 49.2526 51.1934 48.8756 50.7922C48.7619 50.7146 48.6501 50.787 48.6229 50.8942C48.5926 51.4293 49.2067 51.7241 49.2355 52.2756C49.6589 53.9953 49.0562 55.6704 48.3711 57.1395C47.5593 58.2617 46.3178 59.2242 46.3857 60.7268C46.3181 60.7862 46.2186 60.734 46.153 60.7667C45.9282 60.5586 45.9079 60.2897 45.8809 60.0451C45.7593 59.1062 46.1131 58.3233 46.6184 57.6342C47.3201 56.3046 47.9797 54.7166 47.4423 53.1625C47.3628 53.0627 47.241 53.0431 47.1669 53.0992C46.7677 53.5682 46.9894 54.3004 46.7023 54.8313C46.5497 55.2156 46.3508 55.5879 46.3857 56.0681C46.3971 56.3085 46.4193 56.6126 46.3658 56.8726C46.3287 56.8917 46.2817 56.8698 46.2593 56.892C46.0462 56.7013 46.0497 56.439 45.9844 56.2322C45.7336 55.0565 46.2286 54.0426 46.1317 52.8744C46.1128 52.2595 46.1128 51.643 45.6474 51.2658C45.4959 51.2249 45.3779 51.2035 45.2675 51.2862C44.9949 51.5915 45.1421 52.0793 45.0554 52.4819C44.4468 55.9647 41.198 58.7092 38.2412 60.6655C37.3148 61.5583 36.87 62.9185 37.3946 64.1681C37.5681 64.8807 38.3521 65.3648 38.4718 66.147C38.4109 66.8485 38.6743 67.5897 38.3215 68.2286C37.0279 68.9657 35.6823 69.6101 34.629 70.8457C34.1639 71.551 33.4686 72.2372 32.71 72.6388C32.4031 72.9436 32.4238 73.4009 32.2024 73.7725C31.7959 74.3859 31.1594 75.0123 30.4913 75.3589C30.2803 75.5659 30.4275 75.9257 30.367 76.2236C30.3604 77.3673 29.0932 77.7188 28.2779 78.161C27.5378 78.3924 26.689 78.7957 25.8917 78.4505C25.57 78.1927 25.5875 77.7696 25.6377 77.4196C25.8822 76.2966 26.4898 75.3443 27.2637 74.4725C27.8122 73.8486 28.4765 73.397 28.8671 72.7414C29.321 72.1861 29.9037 71.8354 30.555 71.6902C31.7004 70.6247 32.7235 69.4921 33.8285 68.3709C34.2579 67.7296 34.8545 67.1464 34.8189 66.3725C33.6507 64.5666 32.4071 62.811 31.781 60.8272C31.22 59.3626 30.8413 57.6175 31.2734 56.0274C31.5521 54.8202 32.2024 53.7805 33.0042 52.8121C33.5952 51.9669 33.6265 50.8997 33.744 49.8847C33.8666 49.4368 34.1285 49.0561 34.398 48.689C34.4375 48.5567 34.301 48.4997 34.2498 48.4621C33.8165 48.4384 33.541 48.8953 33.4052 49.2266C33.3089 49.7516 33.3208 50.3339 33.1525 50.8544C33.0189 51.3586 32.8089 51.8385 32.6034 52.3374C32.2756 52.8469 31.9384 53.6559 31.2108 53.7388C30.5031 53.5981 29.7219 52.9976 29.6072 52.2954C29.5476 50.9814 28.4839 50.077 27.5172 49.1853C26.0023 47.7324 24.1878 47.0319 22.6198 45.7842C20.274 44.0193 17.7467 41.8907 16.5008 39.354C16.4075 39.0318 16.7762 38.9657 16.8179 38.7148L16.6915 38.634C14.9671 38.7701 13.1211 38.6671 12.1312 37.1295C11.0161 36.343 9.71866 36.0083 8.60719 35.2727C7.88735 34.9581 7.35389 34.1793 6.47476 34.3668C5.87324 34.6901 5.95164 35.3599 5.98977 35.9547C6.19396 36.7254 6.60591 37.4301 6.68502 38.2819C6.80048 39.0989 6.99113 39.9034 7.33964 40.6537C7.41733 41.1294 8.01422 41.4137 8.05698 41.929C8.1678 42.238 7.96718 42.6952 8.31106 42.92C9.1738 42.9997 10.018 43.7203 10.2311 44.5684C10.4991 45.6825 10.6145 47.151 9.72401 48.0313C9.61817 48.0678 9.52302 48.1396 9.40863 48.1542C8.27257 47.8824 7.71452 46.6656 7.10908 45.8468C6.52608 45.0179 6.43094 43.973 5.50335 43.3526C4.7967 42.7102 5.07073 41.686 4.67945 40.9411C4.51089 40.4243 4.47918 39.8722 4.38404 39.3537C4.14135 37.9085 3.67703 36.5643 3.47676 35.129C3.33458 34.2566 3.00708 33.2937 3.35096 32.4294C3.72014 31.8145 3.94607 31.0786 4.67945 30.6972C5.79271 29.8523 7.42232 30.4091 8.62751 30.6972C9.45389 30.6555 10.1445 30.9654 10.9288 31.0897C11.122 30.9231 10.8579 30.7533 10.802 30.6147C10.6409 30.4554 10.4934 30.29 10.3156 30.2243C9.29139 29.3423 8.4675 28.322 7.72022 27.3178C7.35853 27.0864 6.94373 26.649 6.53748 26.9457C6.1993 27.3382 6.3144 27.9256 6.1152 28.3891C5.86612 29.1556 5.38647 30.1659 4.44782 30.3465C2.88129 31.2995 2.64289 33.1037 2.90838 34.7789C3.00209 35.4059 3.29822 35.9676 3.30785 36.6538C3.36665 36.9248 3.44149 37.2022 3.45644 37.5199C3.37163 38.2481 2.61758 38.6543 2.25303 39.292C1.92591 39.5719 1.60982 39.9282 1.15511 39.8488C0.871094 39.5064 0.913144 39.0519 0.795903 38.6734C0.744232 37.8059 0.849 37.0167 1.02967 36.2624C1.01827 35.4571 0.912788 34.5242 1.19823 33.8095C2.10622 32.2986 2.26836 30.4971 3.03488 28.9456C3.32423 28.378 3.4764 27.7663 3.56122 27.1319C3.79391 26.0355 4.22011 25.0201 4.70119 24.0398C4.76499 23.2986 5.41282 22.6768 6.0728 22.371C7.42802 21.8226 8.826 22.4343 9.80739 23.4222C10.7407 24.5461 12.1009 24.8554 13.2277 25.6485L14.2629 26.2859C14.6089 26.3385 14.8719 26.0563 15.1901 25.9575C15.6769 25.9258 15.937 25.3387 16.3523 25.1116C17.3713 24.2058 18.7383 24.0255 19.6239 22.8668C19.9628 21.3731 21.6701 20.7286 22.5157 19.4859C24.2814 17.6999 25.0743 15.4902 25.9328 13.3244C25.9602 12.9914 25.9067 12.6313 25.5746 12.458C24.6998 12.3021 23.755 12.3432 22.9376 12.1079C22.3718 11.992 21.8708 11.7547 21.3533 11.5926C21.0019 11.7304 20.6481 11.6065 20.2977 11.5926C19.3139 11.8588 17.9621 12.7447 17.0891 11.7363C17.076 11.611 17.1565 11.4931 17.2787 11.4687C17.8967 11.2655 18.5902 11.2053 19.1172 10.8083C19.15 10.7195 19.1146 10.6231 19.0737 10.5619C18.9796 10.4467 18.8324 10.5083 18.7365 10.5403C17.9473 10.8493 17.0977 11.0129 16.2246 11.0985C15.6039 10.8135 15.8996 10.0612 15.8041 9.53224C15.8676 8.65502 16.7028 8.09235 17.0247 7.32612C17.4092 6.65488 18.2156 6.8828 18.8855 6.81077C20.9464 6.47115 22.4676 4.82734 24.477 4.31722C24.5836 4.14671 24.9019 4.17907 24.879 3.94663C24.7519 3.74481 24.2768 3.85337 24.4981 3.49253C24.3414 3.33803 24.1621 3.43128 23.9711 3.41006C23.2138 3.13794 22.4362 2.80772 21.5657 2.97719C21.3996 3.00328 21.2556 3.08054 21.0781 3.06036C21.0333 3.01372 21.0532 2.94657 21.0583 2.8961C21.3276 2.65913 21.6701 2.58572 22.0082 2.48306C22.3988 2.35919 22.7149 2.61668 23.1266 2.5029C23.1795 2.46149 23.1838 2.39955 23.1914 2.33761C22.9857 2.14797 22.7121 2.15771 22.4719 2.11143C22.3675 2.05019 22.3934 1.91622 22.4291 1.84454C22.5742 1.64411 22.9105 1.78712 23.1479 1.72066C24.4098 1.29335 25.4275 2.07628 26.5268 2.39955C26.9038 2.45836 27.3161 2.41103 27.5798 2.13196C27.623 1.74119 27.1312 1.49796 27.2827 1.08074C27.4694 0.710852 27.7523 0.380279 27.9394 0.00864675C28.1924 -0.0553798 28.1779 0.253617 28.3624 0.361489Z" fill="white"/>
<path fill-rule="evenodd" clip-rule="evenodd" d="M32.2463 3.76193C32.2182 3.80786 32.2767 3.82838 32.267 3.8858C32.1326 3.96306 31.9644 3.91155 31.8661 3.8451C31.6857 3.81377 31.4802 3.82352 31.4024 3.65858C31.3961 3.5347 31.5333 3.54445 31.6127 3.49329C31.8704 3.44875 32.1023 3.52565 32.2463 3.76193ZM32.5613 4.87438C32.495 4.9353 32.4137 4.97865 32.3254 5.00031C32.2369 5.02199 32.1445 5.02129 32.0565 4.99827C31.9726 4.98747 31.9092 4.90501 31.8871 4.85351C31.9174 4.74112 32.0354 4.71537 32.1387 4.68996C32.2869 4.70457 32.4922 4.70457 32.5613 4.87438ZM27.349 5.16354C27.2841 5.3953 27.0222 5.48786 26.8218 5.53519C26.7018 5.52753 26.6267 5.46245 26.6087 5.36921C26.6267 5.16354 26.854 5.08003 27.0326 5.03967C27.1422 5.0442 27.3236 4.99374 27.349 5.16354ZM23.2551 6.06862C23.233 6.32717 22.9273 6.50636 22.748 6.66818C22.1155 6.94586 21.5044 7.23849 20.8059 7.32723C20.6434 7.41909 20.3901 7.39926 20.2347 7.34881C20.2629 7.23397 20.4122 7.2037 20.5119 7.14176C21.3194 6.63615 22.2007 6.30733 23.1276 6.04878L23.2551 6.06862ZM26.0835 6.60554C26.2254 6.88844 26.4207 7.25903 26.2308 7.59482C25.858 7.82065 25.4139 7.61465 25.0907 7.47234C24.8067 7.34219 24.5854 7.11496 24.3328 6.97682C24.2202 6.82128 24.315 6.64208 24.415 6.52411C24.6417 6.30699 24.9432 6.23913 25.2596 6.19319C25.5803 6.18798 25.8829 6.30106 26.0835 6.60554ZM32.5834 7.3074C32.5938 7.47094 32.2767 7.68668 32.5834 7.78098L33.5961 7.63763C33.6599 7.65607 33.6635 7.77472 33.6386 7.84257C33.0887 8.07363 32.5453 8.29528 32.0565 8.62551C31.9174 8.65613 31.7485 8.72781 31.6334 8.64535C31.3368 8.2845 31.6903 7.93443 31.8034 7.61605C31.9128 7.33767 32.2035 7.20301 32.4969 7.18317L32.5834 7.3074ZM17.9775 8.68814C18.0168 8.85169 18.0652 9.05211 17.9775 9.22332C17.6643 9.51527 17.2847 9.78286 16.8821 9.82079C16.6932 9.71675 16.7128 9.47526 16.7545 9.30614C16.8671 8.97591 16.9991 8.57922 17.3856 8.44073C17.6054 8.44805 17.8335 8.45988 17.9775 8.68814ZM19.0961 8.70798C19.1411 8.83603 19.0527 8.98462 18.928 9.05804C18.8025 9.09318 18.7401 8.9954 18.6742 8.93415C18.6033 8.82559 18.6867 8.72781 18.738 8.64499C18.8289 8.47935 19.0199 8.59454 19.0961 8.70798ZM26.6087 9.94536C26.6267 10.1799 26.3041 10.2279 26.2506 10.4391C26.21 10.6135 26.1566 10.7986 25.9991 10.9131C25.5554 10.9583 25.1713 11.1333 24.7304 11.1608C24.6531 11.1288 24.6899 11.0623 24.6899 11.0171C25.2611 10.6455 25.8249 10.2317 26.4207 9.88238C26.479 9.87647 26.5632 9.8615 26.6087 9.94536ZM20.4488 10.1921C20.4813 10.3093 20.3812 10.4026 20.2992 10.4604C20.1642 10.4952 20.1182 10.3922 20.0892 10.317C20.1207 10.2175 20.0701 10.0724 20.2161 10.048C20.3016 10.0508 20.3979 10.0936 20.4488 10.1921ZM33.6386 10.2123C33.7152 10.3295 33.5595 10.3855 33.4911 10.4391C33.3945 10.4377 33.3051 10.3713 33.3853 10.2954C33.4143 10.2588 33.454 10.2313 33.4991 10.2165C33.5442 10.2017 33.5927 10.2002 33.6386 10.2123ZM28.7644 10.5414C28.7569 11.1744 28.0168 11.3693 27.5814 11.5933C27.4815 11.633 27.3749 11.592 27.3062 11.5519C27.4337 11.087 27.9669 10.824 28.279 10.4597C28.3949 10.3198 28.6999 10.3396 28.7644 10.5414ZM33.9544 11.1608C33.9338 11.2179 33.9004 11.2697 33.8567 11.3126C33.8129 11.3554 33.76 11.3882 33.7016 11.4086C33.6276 11.4385 33.5221 11.4009 33.5117 11.3261C33.5056 11.2854 33.5151 11.2438 33.5386 11.2096C33.562 11.1754 33.5976 11.1509 33.6386 11.141C33.7319 11.1379 33.8794 11.0248 33.9544 11.1608ZM29.6489 11.5325C29.6759 11.8491 29.4422 12.0861 29.227 12.2938C28.7152 12.5395 28.1882 12.7249 27.6023 12.7677C27.5125 12.7403 27.406 12.7302 27.3914 12.6446C27.4748 12.3276 27.8653 12.3582 28.1294 12.2528C28.6617 12.1076 29.0043 11.514 29.5858 11.4489L29.6489 11.5325ZM33.9343 12.2329C33.8527 12.3752 33.6693 12.4302 33.5114 12.4393C33.4316 12.3965 33.4529 12.298 33.4908 12.2528C33.6004 12.1793 33.8677 12.014 33.9343 12.2329ZM33.8906 12.996C33.8425 13.2514 33.5417 13.2406 33.3642 13.3259C33.2587 13.273 33.3214 13.2131 33.3443 13.1613C33.4694 12.9884 33.7067 12.8791 33.8906 12.996ZM33.8906 14.025C33.9422 14.161 33.7873 14.2804 33.6818 14.3552C33.5335 14.3521 33.4112 14.4561 33.2815 14.3959C33.1996 14.2898 33.3008 14.2083 33.3446 14.1276C33.473 13.9867 33.7319 13.8385 33.8906 14.025ZM33.9343 15.1796C33.9593 15.3111 33.8278 15.3678 33.7451 15.4273C33.548 15.4413 33.2944 15.5282 33.1536 15.3848C33.1671 15.2908 33.263 15.1976 33.3646 15.1796C33.5053 15.085 33.8018 14.9864 33.9343 15.1796ZM27.9408 15.4273C27.9451 16.0314 27.6444 16.5679 27.4337 17.117C26.6629 18.5973 25.5708 20.0041 24.268 21.2182C24.2052 21.2457 24.131 21.2244 24.0791 21.2384C23.9476 21.1786 23.9789 21.045 24.0142 20.9718C24.843 20.0849 24.9913 18.9328 25.6827 18.0041C26.0993 17.1344 26.6547 16.3261 27.2213 15.53C27.3329 15.4503 27.3594 15.2863 27.5179 15.2823C27.6717 15.2651 27.85 15.2696 27.9408 15.4273ZM33.8082 16.2718C33.7319 16.5068 33.4319 16.5522 33.2164 16.6016C33.1529 16.5929 33.1109 16.5736 33.0902 16.5401C33.1276 16.2844 33.398 16.2179 33.6182 16.1703C33.695 16.1344 33.764 16.1962 33.8082 16.2718ZM33.8293 17.323C33.7006 17.5987 33.3507 17.5882 33.0898 17.6324C32.9933 17.5728 32.9718 17.4748 33.0272 17.4045C33.2057 17.2332 33.6599 16.9793 33.8293 17.323ZM33.8082 18.4149C33.8532 18.5816 33.7151 18.6753 33.5961 18.7247C33.3631 18.7208 33.0559 18.8145 32.901 18.6415C32.9199 18.3557 33.237 18.3036 33.448 18.209C33.5884 18.1906 33.7151 18.2838 33.8082 18.4149ZM33.428 19.4244C33.3474 19.6325 33.1152 19.628 32.9633 19.7136C32.8243 19.7167 32.7139 19.6481 32.6676 19.5482C32.586 19.4365 32.6829 19.3496 32.7513 19.2807C32.9665 19.1958 33.2944 19.2149 33.428 19.4244ZM33.1315 20.5178C33.1419 20.7555 32.8621 20.8435 32.7106 20.9507C32.5511 20.9367 32.3921 20.9673 32.3105 20.8469C32.2399 20.6631 32.4135 20.5553 32.5407 20.4962C32.7139 20.4618 32.9771 20.2561 33.1315 20.5178ZM32.5834 21.7962C32.6084 21.8237 32.5863 21.8849 32.6045 21.9388C32.4827 22.1007 32.282 22.1216 32.1191 22.0825C32.0229 22.0223 32.0023 21.9259 32.0565 21.8574C32.1387 21.642 32.4341 21.7138 32.5834 21.7962ZM32.3528 22.887C32.3154 23.0576 32.1077 23.0795 31.9926 23.1554C31.885 23.1561 31.7816 23.1404 31.7599 23.0513C31.7589 22.9507 31.8016 22.8572 31.9092 22.8252C32.0229 22.7645 32.2666 22.7238 32.3528 22.887ZM7.27728 23.63C7.25484 23.9341 6.84859 23.8566 6.62266 23.9387C6.47549 23.9449 6.2795 23.9237 6.20109 23.7953C6.14337 23.6102 6.35327 23.5542 6.45411 23.4845C6.71139 23.4303 7.10766 23.3572 7.27728 23.63ZM31.9723 23.9596C31.9759 24.073 31.865 24.1297 31.7816 24.1865C31.647 24.217 31.4863 24.1968 31.4225 24.1245C31.3839 23.9919 31.4945 23.882 31.6124 23.8561C31.7221 23.821 31.9124 23.789 31.9723 23.9596ZM24.5623 24.8653C24.5686 24.9797 24.7052 25.1033 24.606 25.2366C24.3107 25.3605 24.0267 25.1294 23.7604 25.0713C22.7602 24.8249 21.5774 24.6197 20.596 25.0101C20.343 24.9898 20.0269 25.3299 19.8766 25.0101C19.9279 24.6656 20.3267 24.5312 20.6156 24.4335C21.6832 24.1752 23.1276 23.8051 24.1632 24.4335L24.5623 24.8653ZM31.6334 24.8239C31.6387 24.9185 31.5225 24.9491 31.4642 24.9892C31.3797 25.0167 31.2834 24.9955 31.2114 25.0108C31.0967 24.9541 31.1049 24.8302 31.1481 24.7644C31.2839 24.6252 31.5425 24.6297 31.6334 24.8239ZM5.39895 25.6694C5.46772 26.1194 5.19332 26.4837 5.14522 26.9266C4.88616 27.3133 4.88115 27.9055 4.38512 28.1223C4.2276 28.0137 4.32169 27.8488 4.30102 27.6898C4.4236 27.1688 4.45318 26.6226 4.68017 26.1635C4.75394 25.8915 4.9977 25.6451 5.23003 25.5042C5.31449 25.5 5.35083 25.5996 5.39895 25.6694ZM10.0216 27.9361C10.0034 27.9789 10.0419 28.0454 9.97916 28.0813C9.59787 27.9118 9.21799 27.5613 9.02878 27.2148L9.05157 27.1128C9.44 27.2047 9.7928 27.5916 10.0216 27.9361ZM26.6723 27.7097C26.8373 27.9466 26.879 28.37 26.714 28.6376C26.4154 28.8478 26.0739 28.5808 25.8077 28.4723C25.6667 28.354 25.5508 28.2145 25.6385 28.0594C25.724 27.7913 26.0027 27.622 26.2742 27.5871C26.4157 27.5763 26.5428 27.6331 26.6723 27.7097ZM14.4119 28.1025C14.3224 28.869 13.9764 29.5399 13.7565 30.2665C13.5851 30.8163 13.1154 31.4286 12.5314 31.6462C12.4569 31.6504 12.4099 31.6145 12.4056 31.5633V31.441C12.8795 30.5939 13.3328 29.7511 13.5662 28.823C13.7161 28.4846 13.9395 28.182 14.2209 27.9361C14.3224 27.916 14.3712 28.0137 14.4119 28.1025ZM30.1143 31.7085C30.5002 33.3461 31.2364 34.8493 32.246 36.2634C32.6572 36.8543 33.2052 37.3992 33.6383 38.0148C33.3421 38.0026 33.0933 37.7864 32.8558 37.6448C31.0728 36.4319 30.2123 34.6385 29.5858 32.8839C29.4532 32.4135 29.2433 31.9441 29.3969 31.4413C29.4336 31.357 29.5067 31.2651 29.608 31.2551C29.8763 31.2231 30.008 31.4962 30.1143 31.7085ZM4.99805 31.4608C4.98435 31.6174 4.93783 31.7696 4.8614 31.9081C4.78496 32.0464 4.68022 32.168 4.55367 32.2653H4.47029C4.4236 31.9088 4.55367 31.5435 4.87118 31.3584C4.91787 31.3626 4.97631 31.3932 4.99805 31.4608ZM11.3921 35.3353C11.4434 35.4008 11.5393 35.4882 11.4784 35.6036C11.4124 35.684 11.2749 35.6596 11.2015 35.6443C10.3259 35.4119 9.69871 34.6078 8.88123 34.2852C8.92721 34.2469 9.12783 34.2267 9.21906 34.305C9.97809 34.5466 10.7268 34.8239 11.3921 35.3353ZM5.12491 36.9642C5.42425 37.6355 5.47735 38.4504 5.56643 39.2093C5.54612 39.3159 5.42425 39.2333 5.37756 39.2301C4.91751 38.4549 4.78103 37.5637 4.68053 36.675C4.69123 36.4568 4.70263 36.2362 4.87118 36.1194C5.24571 36.1778 5.02977 36.673 5.12491 36.9642ZM2.10765 37.8505C2.09054 37.9414 2.01216 38.0175 1.91665 38.0558C1.81152 38.0436 1.70142 37.9761 1.68359 37.8905C1.68431 37.7914 1.78516 37.7544 1.85393 37.7259C1.953 37.7137 2.04815 37.7655 2.10765 37.8505ZM53.4355 39.9306C53.831 41.3817 53.7676 43.1891 53.2453 44.5882C52.8073 45.8786 51.8486 47.1243 50.6297 47.9479C50.5295 47.9702 50.4079 47.997 50.3324 47.9695C50.1132 47.6441 50.4079 47.3366 50.5654 47.0825C51.5628 45.8733 52.4445 44.6206 52.803 43.1668C53.0037 41.8291 53.0037 40.3653 52.8872 39.0441C52.9131 38.9758 53.0093 38.9034 53.077 39.0037C53.2453 39.2747 53.2979 39.6094 53.4355 39.9306ZM21.0597 41.3132C22.2938 42.4218 23.0496 43.7765 24.415 44.7751C24.8702 45.2912 25.4361 45.7603 25.8077 46.3618V46.4026H25.745C24.1988 45.4717 22.8009 44.225 21.3544 43.1265C20.6858 42.5147 20.2077 41.8508 19.6449 41.23C19.5854 40.9857 19.425 40.6663 19.6449 40.4675C19.8641 40.3252 20.1177 40.5 20.3214 40.6329L21.0597 41.3132ZM33.2164 42.8988C33.5338 43.4463 32.912 43.8338 32.7744 44.3221C32.619 44.473 32.7217 44.7606 32.4801 44.8768C32.4239 44.8835 32.3669 44.8757 32.3148 44.8543C32.2626 44.8328 32.2172 44.7983 32.1829 44.7543C32.0817 44.2765 32.3154 43.8335 32.3927 43.3954C32.3825 43.1484 32.4295 42.902 32.6882 42.8182C32.8368 42.6894 33.0784 42.7367 33.2164 42.8988ZM9.21906 46.2181C9.26966 46.318 9.20624 46.4513 9.11501 46.5271C9.01345 46.5797 8.90084 46.5382 8.81781 46.5065C8.72195 46.3935 8.59045 46.318 8.64783 46.1761C8.68631 46.0887 8.77398 46.0538 8.86129 46.0316C9.0138 45.9923 9.16596 46.0598 9.21906 46.2181Z" fill="white"/>
<path fill-rule="evenodd" clip-rule="evenodd" d="M26.3778 49.0001C27.8566 49.8854 29.0526 51.3384 29.2268 53.0188C29.6131 53.5642 30.2092 53.92 30.7255 54.3574C30.8514 54.4817 30.8948 54.6867 30.8531 54.8948L30.7687 55.0803C30.444 56.4442 30.5192 58.0509 30.7886 59.4476C31.1268 60.8012 31.6636 62.1002 32.3292 63.3643C32.3349 63.8202 31.8848 64.1546 31.7814 64.6205C31.7226 64.7573 31.6266 64.8756 31.5039 64.9632C31.3812 65.0506 31.2365 65.1037 31.0851 65.1168C29.8804 65.083 28.968 64.3918 27.9624 63.983C26.6317 63.4271 25.2219 63.0726 23.7816 62.9319C22.6652 62.3781 21.167 62.9552 20.0677 62.4367C19.7378 61.8736 19.0458 62.254 18.5899 62.1895C17.6441 62.5178 16.4259 62.5178 15.5292 62.1071C14.4038 61.7613 13.6163 60.6433 13.0397 59.7363C12.9866 59.6074 13.0215 59.4779 13.1028 59.4065C13.7988 58.9048 14.8097 58.9162 15.6347 59.1587C16.8203 59.0662 17.9699 59.2096 18.9685 59.6745C19.557 59.8029 20.0478 59.3892 20.6785 59.5527C21.3257 59.6533 21.9353 59.8679 22.5169 60.2117C24.0572 60.5955 25.5549 61.1832 27.2839 61.1383C27.8818 61.1018 28.662 61.4666 29.1213 60.9529C29.4389 60.1425 28.5775 59.6734 28.3195 59.0568C26.5573 56.4028 25.2178 53.5948 24.5852 50.5246C24.5054 49.901 24.3461 49.2618 24.4787 48.6705C24.5106 48.5881 24.5649 48.5156 24.6357 48.4608C24.7064 48.406 24.791 48.371 24.8807 48.3596C25.4704 48.3192 25.9027 48.6863 26.3778 49.0001Z" fill="white"/>
<path fill-rule="evenodd" clip-rule="evenodd" d="M43.4747 50.9574C43.6611 51.4101 43.5759 52.0186 43.2199 52.4C43.0937 52.4153 43.0439 52.343 43.0314 52.2769C42.991 51.8752 42.8435 51.5342 42.6718 51.2257C42.6248 50.9574 42.7595 50.7517 42.9892 50.6282C43.1914 50.5923 43.3595 50.7817 43.4747 50.9574ZM33.3852 54.5233C33.3941 55.0571 32.9562 55.4699 32.856 56.0067C32.6614 56.3402 32.6088 56.748 32.4969 57.1405C32.4423 57.1752 32.3924 57.2208 32.3293 57.2226C32.0656 56.7361 32.2556 56.1337 32.3293 55.6559C32.4921 55.181 32.6928 54.7175 33.1314 54.3992C33.2309 54.357 33.3331 54.4142 33.3852 54.5233ZM15.8056 60.1698C15.8643 60.2868 15.6929 60.4093 15.5924 60.4789C15.4859 60.544 15.3308 60.5649 15.2118 60.5412C15.1103 60.4921 15.0052 60.3901 14.9809 60.3143C14.9104 60.1539 15.0843 60.1476 15.1477 60.0882C15.3483 60.0029 15.6491 60.0029 15.8056 60.1698ZM20.8472 60.4789C20.8561 60.5283 20.7756 60.544 20.7432 60.5829C20.6052 60.5707 20.4813 60.5707 20.405 60.5005C20.3694 60.4207 20.4374 60.3731 20.4894 60.3763C20.6191 60.3526 20.756 60.3484 20.8472 60.4789ZM23.9511 61.3036C24.2733 61.3422 24.6334 61.3422 24.9841 61.3861C25.6441 61.5166 26.3625 61.5482 26.9886 61.8377C27.0221 61.8774 27.1277 61.9139 27.0952 62.0239C26.969 62.2128 26.7485 62.0475 26.5909 62.0855C25.9146 61.6724 25.0551 62.1061 24.4361 61.6325C23.9308 61.3637 23.2815 61.4717 22.852 61.0969C22.7854 61.012 22.7637 60.935 22.852 60.8906C23.2459 60.9253 23.5915 61.1059 23.9511 61.3036ZM34.0174 61.5921C34.0922 62.1579 33.9861 62.8214 34.2715 63.3444C34.2743 63.4088 34.1599 63.4289 34.1247 63.4064C33.7641 62.8315 33.537 62.2226 33.3221 61.6325C33.3008 61.3523 33.2904 61.0541 33.5545 60.9529C33.8844 60.9611 33.9165 61.3311 34.0174 61.5921ZM30.3251 61.4886C30.3772 61.6373 30.2127 61.744 30.1143 61.8185C29.9805 61.8161 29.8648 61.9508 29.755 61.8594C29.6912 61.6415 29.9329 61.5224 30.0708 61.4484C30.1456 61.3832 30.2376 61.426 30.3251 61.4886ZM37.5645 67.177C37.5353 67.3422 37.3557 67.4773 37.2281 67.6089C37.1668 67.6269 37.0834 67.565 37.0793 67.5273C37.0122 67.3638 37.0521 67.1839 37.2281 67.1359C37.2993 67.0706 37.5089 67.0186 37.5645 67.177ZM35.1591 68.3521C35.1478 68.6834 34.7717 68.9401 34.5879 69.2592C34.1599 69.8056 33.548 70.3828 33.0053 70.8241C32.6985 71.1717 32.2766 71.3244 31.9499 71.6498L31.866 71.6292C31.8596 71.3561 32.0229 71.1664 32.1828 70.989C32.8738 70.2277 33.6324 69.5838 34.2715 68.8653C34.5441 68.6517 34.8238 68.4419 35.1591 68.3521ZM30.1341 73.0097C30.157 73.2414 29.8954 73.3719 29.7343 73.5034C29.6446 73.5208 29.5276 73.5932 29.4597 73.5256C29.4076 73.3545 29.5067 73.2115 29.6079 73.112C29.7229 72.9484 29.9924 72.7678 30.1341 73.0097ZM27.8128 76.2026C27.8247 76.4619 27.7128 76.7347 27.5178 76.9664C27.3172 77.0377 27.1076 77.1473 26.8853 77.1101C26.7172 76.847 26.9647 76.6727 27.0952 76.5116C27.3062 76.3478 27.5389 75.942 27.8128 76.2026Z" fill="white"/>
</g>
<defs>
<clipPath id="clip0_101_749">
<rect width="57.8771" height="79.581" fill="white"/>
</clipPath>
</defs>
</svg>
