<svg width="58" height="80" viewBox="0 0 58 80" fill="none" xmlns="http://www.w3.org/2000/svg">
<g clip-path="url(#clip0_101_184)">
<path fill-rule="evenodd" clip-rule="evenodd" d="M25.1313 48.8491C25.1313 48.8491 25.0634 47.1634 25.3953 47.2926C25.7274 47.4231 30.2612 51.1366 30.6572 52.043C31.0577 52.9502 31.7683 52.4972 31.9872 51.8485C32.2041 51.2009 33.0675 48.3301 33.6649 48.2004C34.2613 48.0702 35.1918 48.2644 34.8601 48.9795C34.528 49.6911 34.1295 50.3578 34.0629 50.6832C33.997 51.0054 33.9304 52.1092 33.3979 52.8862C32.8687 53.6628 33.0868 54.181 32.3381 54.3136C31.5869 54.442 31.3222 54.507 30.8578 54.507C30.3935 54.507 28.8658 54.181 28.6018 53.2759C28.3356 52.3667 28.5172 51.8673 27.253 50.6182C25.9957 49.3681 25.1313 48.8491 25.1313 48.8491Z" fill="white"/>
<path fill-rule="evenodd" clip-rule="evenodd" d="M25.9341 0.401765C26.1679 0.933812 26.9853 1.33537 26.6513 2.01044C26.1564 2.07307 25.7826 1.75363 25.3642 1.61896C25.2127 1.5118 25.0479 1.41262 25.0072 1.24733C24.906 0.809935 25.5336 0.666222 25.407 0.216643C25.4362 0.135566 25.4708 0.0478796 25.5552 0.0102989C25.8296 -0.0554676 25.7658 0.279628 25.9341 0.401765Z" fill="#161718"/>
<path fill-rule="evenodd" clip-rule="evenodd" d="M28.3623 0.361489C28.909 0.645085 29.0473 1.285 29.6267 1.55746C29.8804 1.78469 29.9232 2.14553 30.2207 2.3397C31.7181 2.14553 33.0886 2.57284 34.0608 3.76255C34.3926 4.14428 34.9331 4.04024 35.4328 4.09209C35.9748 4.06599 36.5699 4.1394 37.1008 4.03015C37.494 4.05067 37.8838 4.1133 38.2419 4.29774C38.3528 4.38577 38.381 4.54549 38.3452 4.69094C38.2376 4.82316 38.0103 4.75114 37.8816 4.83465C37.0912 5.01595 36.2959 5.21011 35.6869 5.72058C35.8689 5.87438 36.1601 5.90571 36.4241 5.98817C37.2509 6.31143 38.0049 6.93012 38.6625 7.63825C38.9496 7.82649 39.3232 7.83694 39.6752 7.9455C40.9195 8.21762 41.08 9.55208 42.0179 10.2745C42.0032 10.3044 41.9627 10.3239 41.9541 10.3576C40.9363 10.5055 40.7168 9.16688 39.8423 9.10007C38.5959 9.20168 37.5891 8.6658 36.6138 8.13063C36.4157 8.0833 36.1365 8.02833 36.0022 8.19222C36.0165 8.43475 36.3015 8.43475 36.4658 8.5649C37.2402 8.72845 37.6468 9.57366 38.2412 10.0695C38.5113 10.3402 38.9771 10.2118 39.3573 10.2957C40.4659 10.4481 41.4861 10.8448 42.3129 11.7377C42.4362 11.8661 42.4794 12.062 42.439 12.253C42.4077 12.3278 42.2976 12.3494 42.248 12.3157C41.9673 12.0557 41.7648 11.7366 41.4473 11.5526C41.1979 11.4273 40.948 11.3187 40.6861 11.285C39.7561 11.4273 38.496 11.7561 37.7338 11.0786L37.5431 11.0174V11.0999C37.836 11.5202 38.1275 12.1525 38.7256 12.2746C39.4506 12.427 40.0986 12.8077 40.7499 13.2221C40.9442 13.3175 41.2125 13.2663 41.4473 13.345C41.4808 13.394 41.5243 13.4775 41.4894 13.551C40.8729 14.1157 40.1317 13.5336 39.5066 13.448C38.8271 13.1884 38 13.3018 37.4166 12.8919L36.4238 12.3964C36.3269 12.3898 36.2535 12.4416 36.2359 12.5213C36.6326 13.1212 37.305 13.519 37.7969 14.1091C38.2844 14.5434 38.4743 15.1096 38.6625 15.6949C39.1193 16.1555 39.8677 16.4952 39.7797 17.2805C39.9948 17.7224 40.4521 17.9535 40.8134 18.2913C40.8033 18.3302 40.7852 18.3665 40.7602 18.3984C40.7352 18.4302 40.7038 18.4566 40.668 18.4762C39.767 18.4688 39.1849 17.6228 38.6196 17.0341C37.584 16.5571 36.6184 15.8782 35.7913 15.0753C35.7421 15.0539 35.7207 15.0893 35.7067 15.1183C35.7161 15.4501 36.0222 15.6656 36.2359 15.9426C37.1298 16.7242 38.6267 17.103 38.893 18.435C39.1289 19.2925 40.1039 19.4059 40.8354 19.6513C40.9698 19.7717 41.2534 19.8604 41.1939 20.105C40.7288 20.3697 40.0572 20.278 39.5903 20.1875C38.9339 19.9989 38.352 19.5712 37.9006 19.0544C37.2768 18.5972 36.4437 18.6693 35.7913 18.3523C35.699 18.3644 35.6014 18.3753 35.58 18.4759C35.5386 18.6996 35.5846 18.9361 35.8318 19.0325C36.6181 19.3137 36.701 20.3538 37.5848 20.4756C38.3638 20.7957 39.104 21.548 39.4852 22.3097C39.7083 22.5849 39.8252 22.9855 40.2011 23.1552C40.2034 23.2743 40.0946 23.316 40.0134 23.3606C39.3983 23.2537 39.0755 22.5015 38.513 22.3518C37.8368 22.26 37.3824 21.683 36.6779 21.7339C36.5589 21.7659 36.6216 21.8573 36.6779 21.9186L37.3536 22.5997C37.4088 22.6723 37.3157 22.7597 37.2684 22.8055C36.8119 22.862 36.5068 22.4618 36.1291 22.3518C35.8847 22.2439 35.6271 22.203 35.3893 22.1448C35.2767 22.1678 35.2471 22.2815 35.3067 22.372C35.8692 23.1404 36.9091 22.894 37.6493 23.3606C38.2747 23.8405 38.8708 24.4125 39.6966 24.4956C39.8156 24.5778 39.8794 24.7476 39.8031 24.8865C39.0885 25.1604 38.243 24.9077 37.6069 24.6393C36.9091 24.2284 35.9791 23.7333 35.2011 24.2685L35.2863 24.3509C35.9485 24.4233 36.6334 24.4752 37.228 24.783C37.7369 25.2062 38.2119 25.7473 38.7882 26.0825C38.7879 26.1541 38.7279 26.2059 38.6839 26.2682C37.9751 26.0724 37.3788 25.5212 36.5948 25.7098C35.7692 25.85 34.8398 25.85 33.9974 25.7933C33.9649 25.8194 33.9019 25.835 33.9347 25.8955C34.1956 26.0973 34.5123 26.2206 34.843 26.35C35.963 26.443 36.871 27.2523 37.6069 28.1636C38.3645 28.7253 39.4731 28.4987 40.2646 28.1223C40.354 28.055 40.4117 27.854 40.5622 27.957C40.6235 28.0912 40.5108 28.2095 40.4546 28.3286C39.6246 29.0645 38.2633 29.1564 37.2473 28.8014C36.3539 28.3637 35.4674 27.9416 34.4389 27.8954C33.9952 27.7353 33.542 27.6176 33.1107 27.504C33.068 27.5293 33.0156 27.561 33.0469 27.6268C33.1422 27.7673 33.3175 27.7464 33.4696 27.8136C34.4984 28.1688 35.5091 28.602 36.3412 29.5023C36.5393 29.6777 36.8361 29.8478 36.9518 30.122C36.9241 30.2493 36.993 30.4561 36.8465 30.5124C36.4925 30.3993 36.2449 30.0734 35.9595 29.875C35.4122 29.4511 34.7764 29.2155 34.0819 29.2768C34.0326 29.2921 34.0234 29.3273 34.0402 29.3795C34.3121 29.6056 34.7136 29.5695 35.0109 29.8119C35.4424 30.13 35.9488 30.6154 36.1294 31.1516C36.334 31.4865 36.7191 31.7495 37.0378 31.9757C37.0723 32.063 36.9495 32.109 36.9116 32.1624C35.8333 31.841 35.09 30.7707 34.0405 30.4501C33.4326 30.1363 32.6781 30.2139 32.0998 29.915C31.7113 29.734 31.4066 29.4041 30.9794 29.4004C30.8323 29.4664 30.8832 29.6216 30.854 29.7511C30.7675 31.9392 32.0232 33.6027 33.1956 35.3141C33.9799 36.3998 34.9257 37.4917 35.9829 38.4472C36.8928 38.9657 37.7851 39.5788 38.6839 40.2198C40.0308 41.2832 41.3437 42.4324 42.5239 43.7652C43.6389 45.1415 44.5633 46.6095 45.0986 48.2579C45.26 48.4392 45.566 48.3874 45.8188 48.3808C46.8742 48.2579 47.7709 47.7331 48.6668 47.1864C50.5672 45.7382 51.6526 43.761 51.5568 41.4155C51.5476 39.672 51.3281 37.9357 50.9029 36.2424C50.4798 34.8293 49.859 33.5105 49.8285 31.9757C49.5116 28.4879 51.6733 25.4126 54.8074 23.8971H54.8926V24.0823C53.2515 25.3917 52.1974 27.0502 51.644 28.8637C51.4428 29.5594 51.4428 30.4192 51.5568 31.1729C51.5802 31.2387 51.6641 31.2229 51.748 31.234C52.7253 30.2385 53.5943 29.0597 54.7864 28.3074C55.256 27.7568 55.5525 27.1229 55.968 26.5762C55.9887 26.55 56.0102 26.5883 56.0514 26.6173C56.184 27.3024 55.808 27.8394 55.6306 28.4313C55.039 29.4559 54.0573 30.3328 53.6482 31.4405C53.2825 32.3766 52.9336 33.6338 53.4575 34.6338C53.5246 34.7204 53.6624 34.7521 53.7921 34.7173C54.2782 34.4177 54.2466 33.8443 54.6395 33.4799C55.1346 32.7519 56.0572 32.3518 56.3686 31.5222C56.442 31.341 56.442 31.0684 56.6648 31.0271C56.8743 31.3663 56.9324 31.8302 56.7912 32.2429C55.8996 33.3143 55.265 34.4984 55.0822 35.8702C54.6599 37.8876 55.4172 39.7483 55.5665 41.7237C55.6239 43.1274 55.4777 44.5079 55.1239 45.7839C54.4686 47.7262 52.4641 49.2614 50.5647 49.8847C50.3758 49.9413 50.5222 50.0913 50.5222 50.2149C50.688 50.5712 50.8394 50.9457 50.9859 51.3493C51.1651 51.9415 51.2404 52.7856 51.0083 53.4085C50.7977 54.2016 50.8198 55.1487 50.9859 55.9863L50.9655 56.2322C50.8394 56.225 50.7923 56.1283 50.7756 56.0681C50.0708 54.8915 50.1125 53.4388 49.8455 52.1319C49.6627 51.6057 49.2525 51.1934 48.8756 50.7922C48.7619 50.7146 48.65 50.787 48.6228 50.8942C48.5926 51.4293 49.2066 51.7241 49.2354 52.2756C49.6588 53.9953 49.0562 55.6704 48.371 57.1395C47.5592 58.2617 46.3177 59.2242 46.3857 60.7268C46.318 60.7862 46.2186 60.734 46.153 60.7667C45.9281 60.5586 45.9078 60.2897 45.8808 60.0451C45.7593 59.1062 46.113 58.3233 46.6184 57.6342C47.32 56.3046 47.9797 54.7166 47.4423 53.1625C47.3627 53.0627 47.2409 53.0431 47.1669 53.0992C46.7677 53.5682 46.9894 54.3004 46.7022 54.8313C46.5496 55.2156 46.3508 55.5879 46.3857 56.0681C46.3971 56.3085 46.4192 56.6126 46.3658 56.8726C46.3287 56.8917 46.2816 56.8698 46.2592 56.892C46.0461 56.7013 46.0497 56.439 45.9844 56.2322C45.7336 55.0565 46.2285 54.0426 46.1316 52.8744C46.1127 52.2595 46.1128 51.643 45.6474 51.2658C45.4958 51.2249 45.3779 51.2035 45.2674 51.2862C44.9948 51.5915 45.142 52.0793 45.0554 52.4819C44.4468 55.9647 41.1979 58.7092 38.2412 60.6655C37.3147 61.5583 36.8699 62.9185 37.3945 64.1681C37.568 64.8807 38.352 65.3648 38.4718 66.147C38.4108 66.8485 38.6742 67.5897 38.3215 68.2286C37.0278 68.9657 35.6823 69.6101 34.6289 70.8457C34.1638 71.551 33.4685 72.2372 32.7099 72.6388C32.403 72.9436 32.4238 73.4009 32.2024 73.7725C31.7959 74.3859 31.1594 75.0123 30.4913 75.3589C30.2803 75.5659 30.4275 75.9257 30.3669 76.2236C30.3604 77.3673 29.0932 77.7188 28.2778 78.161C27.5378 78.3924 26.6889 78.7957 25.8917 78.4505C25.5699 78.1927 25.5875 77.7696 25.6376 77.4196C25.8822 76.2966 26.4897 75.3443 27.2637 74.4725C27.8122 73.8486 28.4764 73.397 28.867 72.7414C29.321 72.1861 29.9036 71.8354 30.5549 71.6902C31.7003 70.6247 32.7234 69.4921 33.8284 68.3709C34.2579 67.7296 34.8545 67.1464 34.8189 66.3725C33.6506 64.5666 32.407 62.811 31.7809 60.8272C31.2199 59.3626 30.8412 57.6175 31.2734 56.0274C31.5521 54.8202 32.2024 53.7805 33.0042 52.8121C33.5951 51.9669 33.6264 50.8997 33.744 49.8847C33.8666 49.4368 34.1285 49.0561 34.398 48.689C34.4375 48.5567 34.3009 48.4997 34.2497 48.4621C33.8164 48.4384 33.541 48.8953 33.4052 49.2266C33.3089 49.7516 33.3207 50.3339 33.1524 50.8544C33.0189 51.3586 32.8089 51.8385 32.6033 52.3374C32.2755 52.8469 31.9384 53.6559 31.2107 53.7388C30.503 53.5981 29.7218 52.9976 29.6071 52.2954C29.5476 50.9814 28.4838 50.077 27.5171 49.1853C26.0022 47.7324 24.1877 47.0319 22.6197 45.7842C20.2739 44.0193 17.7466 41.8907 16.5008 39.354C16.4074 39.0318 16.7762 38.9657 16.8179 38.7148L16.6915 38.634C14.967 38.7701 13.1211 38.6671 12.1311 37.1295C11.0161 36.343 9.7186 36.0083 8.60713 35.2727C7.88729 34.9581 7.35383 34.1793 6.4747 34.3668C5.87318 34.6901 5.95158 35.3599 5.98971 35.9547C6.1939 36.7254 6.60585 37.4301 6.68496 38.2819C6.80042 39.0989 6.99107 39.9034 7.33958 40.6537C7.41727 41.1294 8.01416 41.4137 8.05691 41.929C8.16774 42.238 7.96712 42.6952 8.31099 42.92C9.17373 42.9997 10.0179 43.7203 10.231 44.5684C10.499 45.6825 10.6145 47.151 9.72395 48.0313C9.61811 48.0678 9.52296 48.1396 9.40857 48.1542C8.27251 47.8824 7.71446 46.6656 7.10902 45.8468C6.52602 45.0179 6.43088 43.973 5.50329 43.3526C4.79664 42.7102 5.07066 41.686 4.67939 40.9411C4.51083 40.4243 4.47912 39.8722 4.38398 39.3537C4.14129 37.9085 3.67697 36.5643 3.4767 35.129C3.33452 34.2566 3.00702 33.2937 3.3509 32.4294C3.72008 31.8145 3.94601 31.0786 4.67939 30.6972C5.79264 29.8523 7.42226 30.4091 8.62745 30.6972C9.45383 30.6555 10.1444 30.9654 10.9288 31.0897C11.1219 30.9231 10.8579 30.7533 10.8019 30.6147C10.6408 30.4554 10.4933 30.29 10.3155 30.2243C9.29133 29.3423 8.46744 28.322 7.72016 27.3178C7.35847 27.0864 6.94367 26.649 6.53742 26.9457C6.19924 27.3382 6.31434 27.9256 6.11514 28.3891C5.86606 29.1556 5.38641 30.1659 4.44776 30.3465C2.88123 31.2995 2.64282 33.1037 2.90832 34.7789C3.00203 35.4059 3.29816 35.9676 3.30779 36.6538C3.36658 36.9248 3.44142 37.2022 3.45638 37.5199C3.37157 38.2481 2.61752 38.6543 2.25297 39.292C1.92585 39.5719 1.60976 39.9282 1.15505 39.8488C0.871033 39.5064 0.913083 39.0519 0.795842 38.6734C0.744171 37.8059 0.848939 37.0167 1.02961 36.2624C1.01821 35.4571 0.912727 34.5242 1.19817 33.8095C2.10616 32.2986 2.2683 30.4971 3.03482 28.9456C3.32417 28.378 3.47634 27.7663 3.56116 27.1319C3.79385 26.0355 4.22005 25.0201 4.70113 24.0398C4.76493 23.2986 5.41276 22.6768 6.07274 22.371C7.42795 21.8226 8.82594 22.4343 9.80733 23.4222C10.7406 24.5461 12.1008 24.8554 13.2276 25.6485L14.2628 26.2859C14.6089 26.3385 14.8719 26.0563 15.1901 25.9575C15.6768 25.9258 15.937 25.3387 16.3522 25.1116C17.3713 24.2058 18.7382 24.0255 19.6239 22.8668C19.9627 21.3731 21.6701 20.7286 22.5157 19.4859C24.2814 17.6999 25.0743 15.4902 25.9328 13.3244C25.9601 12.9914 25.9067 12.6313 25.5745 12.458C24.6997 12.3021 23.755 12.3432 22.9376 12.1079C22.3717 11.992 21.8707 11.7547 21.3532 11.5926C21.0018 11.7304 20.648 11.6065 20.2976 11.5926C19.3139 11.8588 17.9621 12.7447 17.089 11.7363C17.076 11.611 17.1564 11.4931 17.2787 11.4687C17.8966 11.2655 18.5901 11.2053 19.1171 10.8083C19.1499 10.7195 19.1146 10.6231 19.0736 10.5619C18.9795 10.4467 18.8323 10.5083 18.7364 10.5403C17.9472 10.8493 17.0976 11.0129 16.2246 11.0985C15.6038 10.8135 15.8996 10.0612 15.804 9.53224C15.8675 8.65502 16.7027 8.09235 17.0246 7.32612C17.4091 6.65488 18.2155 6.8828 18.8854 6.81077C20.9463 6.47115 22.4676 4.82734 24.477 4.31722C24.5835 4.14671 24.9018 4.17907 24.879 3.94663C24.7518 3.74481 24.2768 3.85337 24.498 3.49253C24.3413 3.33803 24.162 3.43128 23.9711 3.41006C23.2138 3.13794 22.4361 2.80772 21.5656 2.97719C21.3995 3.00328 21.2556 3.08054 21.0781 3.06036C21.0333 3.01372 21.0532 2.94657 21.0582 2.8961C21.3276 2.65913 21.6701 2.58572 22.0081 2.48306C22.3987 2.35919 22.7148 2.61668 23.1265 2.5029C23.1795 2.46149 23.1838 2.39955 23.1913 2.33761C22.9857 2.14797 22.712 2.15771 22.4719 2.11143C22.3674 2.05019 22.3934 1.91622 22.429 1.84454C22.5741 1.64411 22.9104 1.78712 23.1479 1.72066C24.4097 1.29335 25.4275 2.07628 26.5267 2.39955C26.9038 2.45836 27.3161 2.41103 27.5798 2.13196C27.6229 1.74119 27.1311 1.49796 27.2827 1.08074C27.4693 0.710852 27.7522 0.380279 27.9393 0.00864675C28.1924 -0.0553798 28.1778 0.253617 28.3623 0.361489Z" fill="#161718"/>
<path fill-rule="evenodd" clip-rule="evenodd" d="M32.2461 3.76199C32.2181 3.80792 32.2766 3.82845 32.2669 3.88586C32.1325 3.96312 31.9643 3.91162 31.8659 3.84516C31.6856 3.81384 31.4801 3.82358 31.4023 3.65864C31.3959 3.53476 31.5332 3.54451 31.6126 3.49335C31.8702 3.44881 32.1022 3.52571 32.2461 3.76199ZM32.5612 4.87444C32.4949 4.93536 32.4135 4.97871 32.3252 5.00037C32.2368 5.02206 32.1443 5.02135 32.0563 4.99833C31.9725 4.98754 31.9091 4.90507 31.887 4.85357C31.9173 4.74118 32.0353 4.71543 32.1385 4.69002C32.2868 4.70463 32.492 4.70463 32.5612 4.87444ZM27.3488 5.1636C27.284 5.39537 27.0221 5.48792 26.8217 5.53525C26.7017 5.52759 26.6266 5.46251 26.6086 5.36927C26.6266 5.1636 26.8539 5.08009 27.0324 5.03973C27.1421 5.04426 27.3235 4.9938 27.3488 5.1636ZM23.255 6.06868C23.2329 6.32723 22.9272 6.50642 22.7479 6.66824C22.1154 6.94592 21.5043 7.23855 20.8058 7.32729C20.6433 7.41916 20.3899 7.39932 20.2346 7.34887C20.2628 7.23403 20.4121 7.20376 20.5118 7.14182C21.3192 6.63621 22.2006 6.30739 23.1275 6.04885L23.255 6.06868ZM26.0834 6.6056C26.2253 6.8885 26.4206 7.25909 26.2306 7.59488C25.8578 7.82071 25.4138 7.61471 25.0906 7.4724C24.8066 7.34225 24.5853 7.11502 24.3327 6.97688C24.2201 6.82134 24.3149 6.64214 24.4149 6.52417C24.6415 6.30705 24.9431 6.23919 25.2595 6.19325C25.5802 6.18804 25.8828 6.30112 26.0834 6.6056ZM32.5833 7.30746C32.5937 7.471 32.2766 7.68674 32.5833 7.78104L33.596 7.63769C33.6598 7.65613 33.6634 7.77478 33.6385 7.84263C33.0886 8.07369 32.5452 8.29534 32.0563 8.62557C31.9173 8.65619 31.7484 8.72787 31.6332 8.64541C31.3367 8.28456 31.6902 7.93449 31.8033 7.61611C31.9127 7.33773 32.2034 7.20307 32.4968 7.18324L32.5833 7.30746ZM17.9774 8.6882C18.0167 8.85175 18.0651 9.05217 17.9774 9.22338C17.6642 9.51533 17.2846 9.78292 16.882 9.82085C16.6931 9.71681 16.7127 9.47532 16.7544 9.3062C16.867 8.97597 16.9989 8.57928 17.3855 8.4408C17.6053 8.44811 17.8334 8.45994 17.9774 8.6882ZM19.096 8.70804C19.141 8.83609 19.0525 8.98468 18.9279 9.0581C18.8023 9.09324 18.74 8.99546 18.6741 8.93421C18.6032 8.82565 18.6866 8.72787 18.7379 8.64505C18.8287 8.47942 19.0197 8.5946 19.096 8.70804ZM26.6086 9.94542C26.6266 10.18 26.3039 10.228 26.2505 10.4392C26.2099 10.6135 26.1564 10.7986 25.999 10.9131C25.5552 10.9584 25.1712 11.1334 24.7303 11.1609C24.653 11.1289 24.6898 11.0624 24.6898 11.0172C25.261 10.6455 25.8248 10.2318 26.4206 9.88244C26.4789 9.87653 26.5631 9.86156 26.6086 9.94542ZM20.4487 10.1921C20.4812 10.3094 20.381 10.4026 20.2991 10.4604C20.1641 10.4952 20.1181 10.3922 20.0891 10.317C20.1206 10.2175 20.07 10.0724 20.216 10.0481C20.3015 10.0509 20.3978 10.0936 20.4487 10.1921ZM33.6385 10.2123C33.715 10.3296 33.5594 10.3856 33.4909 10.4392C33.3943 10.4378 33.305 10.3713 33.3851 10.2955C33.4142 10.2588 33.4538 10.2314 33.499 10.2166C33.5441 10.2018 33.5926 10.2003 33.6385 10.2123ZM28.7643 10.5415C28.7567 11.1744 28.0167 11.3693 27.5812 11.5934C27.4814 11.6331 27.3748 11.592 27.3061 11.552C27.4336 11.0871 27.9668 10.8241 28.2789 10.4597C28.3948 10.3198 28.6998 10.3397 28.7643 10.5415ZM33.9543 11.1609C33.9336 11.2179 33.9002 11.2698 33.8566 11.3126C33.8128 11.3555 33.7598 11.3883 33.7015 11.4086C33.6275 11.4386 33.522 11.401 33.5116 11.3262C33.5055 11.2854 33.515 11.2439 33.5384 11.2097C33.5619 11.1755 33.5975 11.151 33.6385 11.1411C33.7318 11.1379 33.8793 11.0248 33.9543 11.1609ZM29.6488 11.5325C29.6758 11.8492 29.4421 12.0861 29.2269 12.2939C28.715 12.5395 28.1881 12.725 27.6022 12.7678C27.5124 12.7403 27.4058 12.7302 27.3913 12.6446C27.4747 12.3276 27.8651 12.3583 28.1293 12.2528C28.6616 12.1077 29.0041 11.5141 29.5857 11.449L29.6488 11.5325ZM33.9342 12.233C33.8526 12.3753 33.6692 12.4303 33.5113 12.4393C33.4314 12.3965 33.4528 12.298 33.4906 12.2528C33.6003 12.1794 33.8676 12.0141 33.9342 12.233ZM33.8904 12.9961C33.8424 13.2515 33.5415 13.2407 33.3641 13.326C33.2585 13.2731 33.3213 13.2132 33.3442 13.1614C33.4693 12.9884 33.7066 12.8792 33.8904 12.9961ZM33.8904 14.025C33.9421 14.1611 33.7872 14.2804 33.6816 14.3553C33.5334 14.3521 33.4111 14.4562 33.2814 14.396C33.1995 14.2898 33.3007 14.2084 33.3445 14.1277C33.4728 13.9868 33.7318 13.8385 33.8904 14.025ZM33.9342 15.1796C33.9592 15.3111 33.8277 15.3679 33.745 15.4274C33.5479 15.4413 33.2943 15.5283 33.1535 15.3849C33.167 15.2909 33.2628 15.1976 33.3645 15.1796C33.5052 15.085 33.8017 14.9865 33.9342 15.1796ZM27.9407 15.4274C27.945 16.0314 27.6443 16.5679 27.4336 17.117C26.6628 18.5974 25.5707 20.0042 24.2679 21.2183C24.2051 21.2458 24.1309 21.2245 24.0789 21.2384C23.9475 21.1787 23.9788 21.045 24.0141 20.9719C24.8429 20.085 24.9912 18.9328 25.6826 18.0041C26.0991 17.1345 26.6546 16.3262 27.2212 15.5301C27.3328 15.4503 27.3592 15.2864 27.5177 15.2823C27.6716 15.2652 27.8499 15.2697 27.9407 15.4274ZM33.8081 16.2718C33.7318 16.5068 33.4317 16.5523 33.2162 16.6017C33.1527 16.593 33.1107 16.5736 33.0901 16.5401C33.1275 16.2844 33.3979 16.2179 33.6181 16.1703C33.6948 16.1344 33.7639 16.1963 33.8081 16.2718ZM33.8292 17.323C33.7005 17.5987 33.3506 17.5882 33.0897 17.6325C32.9932 17.5729 32.9717 17.4748 33.027 17.4046C33.2056 17.2333 33.6598 16.9793 33.8292 17.323ZM33.8081 18.415C33.853 18.5816 33.715 18.6753 33.596 18.7247C33.363 18.7208 33.0558 18.8145 32.9009 18.6415C32.9197 18.3558 33.2369 18.3037 33.4479 18.2091C33.5883 18.1906 33.715 18.2839 33.8081 18.415ZM33.4279 19.4244C33.3473 19.6325 33.115 19.628 32.9632 19.7136C32.8242 19.7168 32.7138 19.6482 32.6675 19.5483C32.5858 19.4366 32.6827 19.3497 32.7512 19.2807C32.9663 19.1959 33.2943 19.215 33.4279 19.4244ZM33.1314 20.5178C33.1418 20.7555 32.862 20.8435 32.7105 20.9507C32.551 20.9368 32.392 20.9674 32.3104 20.847C32.2398 20.6632 32.4134 20.5554 32.5406 20.4962C32.7138 20.4618 32.977 20.2561 33.1314 20.5178ZM32.5833 21.7962C32.6082 21.8237 32.5861 21.885 32.6044 21.9389C32.4825 22.1008 32.2819 22.1216 32.119 22.0826C32.0228 22.0224 32.0022 21.926 32.0563 21.8575C32.1385 21.642 32.434 21.7138 32.5833 21.7962ZM32.3527 22.8871C32.3153 23.0577 32.1075 23.0796 31.9925 23.1554C31.8849 23.1562 31.7815 23.1404 31.7598 23.0514C31.7588 22.9508 31.8015 22.8572 31.9091 22.8252C32.0228 22.7646 32.2665 22.7239 32.3527 22.8871ZM7.27716 23.6301C7.25472 23.9341 6.84847 23.8566 6.62254 23.9388C6.47537 23.9449 6.27937 23.9238 6.20097 23.7954C6.14324 23.6102 6.35314 23.5542 6.45398 23.4846C6.71127 23.4304 7.10753 23.3572 7.27716 23.6301ZM31.9722 23.9597C31.9757 24.073 31.8649 24.1298 31.7815 24.1865C31.6469 24.217 31.4862 24.1969 31.4224 24.1245C31.3838 23.9919 31.4943 23.882 31.6123 23.8562C31.722 23.8211 31.9122 23.7891 31.9722 23.9597ZM24.5621 24.8654C24.5685 24.9798 24.705 25.1034 24.6059 25.2367C24.3106 25.3606 24.0266 25.1295 23.7603 25.0714C22.7601 24.825 21.5773 24.6197 20.5959 25.0101C20.3429 24.9899 20.0268 25.3299 19.8765 25.0101C19.9278 24.6657 20.3266 24.5313 20.6155 24.4335C21.6831 24.1753 23.1275 23.8051 24.1631 24.4335L24.5621 24.8654ZM31.6332 24.8239C31.6386 24.9185 31.5224 24.9492 31.4641 24.9892C31.3796 25.0167 31.2833 24.9956 31.2113 25.0109C31.0966 24.9541 31.1048 24.8302 31.148 24.7645C31.2837 24.6253 31.5424 24.6298 31.6332 24.8239ZM5.39882 25.6694C5.46759 26.1194 5.1932 26.4837 5.1451 26.9267C4.88603 27.3133 4.88103 27.9055 4.385 28.1223C4.22748 28.0138 4.32157 27.8489 4.3009 27.6899C4.42348 27.1689 4.45305 26.6226 4.68005 26.1636C4.75382 25.8915 4.99757 25.6451 5.22991 25.5043C5.31437 25.5001 5.35071 25.5996 5.39882 25.6694ZM10.0215 27.9361C10.0033 27.9789 10.0418 28.0455 9.97904 28.0813C9.59775 27.9118 9.21787 27.5614 9.02865 27.2148L9.05145 27.1129C9.43988 27.2048 9.79268 27.5917 10.0215 27.9361ZM26.6721 27.7097C26.8372 27.9467 26.8789 28.3701 26.7138 28.6377C26.4152 28.8479 26.0738 28.5809 25.8075 28.4723C25.6666 28.354 25.5506 28.2145 25.6384 28.0594C25.7238 27.7914 26.0025 27.622 26.2741 27.5872C26.4155 27.5764 26.5427 27.6331 26.6721 27.7097ZM14.4117 28.1025C14.3223 28.869 13.9763 29.5399 13.7564 30.2665C13.585 30.8164 13.1153 31.4287 12.5313 31.6463C12.4568 31.6505 12.4097 31.6146 12.4055 31.5634V31.441C12.8794 30.594 13.3327 29.7512 13.5661 28.8231C13.716 28.4847 13.9393 28.1821 14.2207 27.9361C14.3223 27.916 14.3711 28.0138 14.4117 28.1025ZM30.1142 31.7086C30.5 33.3462 31.2363 34.8493 32.2458 36.2635C32.6571 36.8543 33.2051 37.3992 33.6382 38.0149C33.3419 38.0027 33.0932 37.7865 32.8556 37.6449C31.0727 36.4319 30.2121 34.6385 29.5857 32.884C29.453 32.4136 29.2432 31.9442 29.3968 31.4413C29.4335 31.3571 29.5066 31.2652 29.6078 31.2551C29.8761 31.2231 30.0079 31.4963 30.1142 31.7086ZM4.99793 31.4608C4.98423 31.6174 4.93771 31.7697 4.86128 31.9081C4.78484 32.0464 4.6801 32.1681 4.55355 32.2654H4.47016C4.42348 31.9089 4.55355 31.5436 4.87106 31.3584C4.91775 31.3626 4.97619 31.3933 4.99793 31.4608ZM11.392 35.3354C11.4433 35.4008 11.5392 35.4882 11.4782 35.6037C11.4123 35.684 11.2747 35.6597 11.2013 35.6444C10.3258 35.412 9.69859 34.6079 8.88111 34.2852C8.92709 34.2469 9.12771 34.2268 9.21894 34.305C9.97797 34.5466 10.7267 34.824 11.392 35.3354ZM5.12478 36.9642C5.42413 37.6356 5.47723 38.4505 5.56631 39.2093C5.546 39.3159 5.42413 39.2333 5.37744 39.2302C4.91739 38.455 4.78091 37.5638 4.68041 36.675C4.69111 36.4569 4.7025 36.2363 4.87106 36.1195C5.24558 36.1779 5.02964 36.6731 5.12478 36.9642ZM2.10753 37.8506C2.09042 37.9414 2.01204 38.0176 1.91652 38.0559C1.81139 38.0437 1.70129 37.9761 1.68347 37.8905C1.68418 37.7914 1.78504 37.7545 1.85381 37.726C1.95288 37.7138 2.04802 37.7656 2.10753 37.8506ZM53.4354 39.9307C53.8309 41.3817 53.7675 43.1891 53.2451 44.5882C52.8072 45.8787 51.8485 47.1243 50.6295 47.9479C50.5294 47.9703 50.4078 47.997 50.3323 47.9695C50.1131 47.6442 50.4078 47.3366 50.5653 47.0826C51.5627 45.8734 52.4444 44.6207 52.8029 43.1669C53.0035 41.8292 53.0035 40.3653 52.887 39.0442C52.913 38.9758 53.0092 38.9035 53.0768 39.0038C53.2451 39.2748 53.2978 39.6095 53.4354 39.9307ZM21.0595 41.3133C22.2937 42.4218 23.0495 43.7765 24.4149 44.7752C24.8701 45.2913 25.4359 45.7603 25.8075 46.3619V46.4027H25.7449C24.1987 45.4717 22.8007 44.225 21.3543 43.1265C20.6857 42.5148 20.2076 41.8508 19.6448 41.2301C19.5853 40.9858 19.4249 40.6664 19.6448 40.4676C19.864 40.3253 20.1176 40.5 20.3212 40.6329L21.0595 41.3133ZM33.2162 42.8989C33.5337 43.4463 32.9119 43.8339 32.7743 44.3222C32.6189 44.4731 32.7216 44.7606 32.48 44.8768C32.4238 44.8836 32.3668 44.8758 32.3147 44.8543C32.2625 44.8328 32.2171 44.7983 32.1828 44.7543C32.0816 44.2765 32.3153 43.8336 32.3926 43.3954C32.3824 43.1484 32.4294 42.902 32.6881 42.8182C32.8366 42.6894 33.0782 42.7367 33.2162 42.8989ZM9.21894 46.2182C9.26954 46.318 9.20611 46.4513 9.11489 46.5272C9.01332 46.5797 8.90072 46.5383 8.81768 46.5066C8.72183 46.3935 8.59033 46.318 8.6477 46.1761C8.68618 46.0887 8.77386 46.0539 8.86117 46.0317C9.01368 45.9923 9.16584 46.0599 9.21894 46.2182Z" fill="white"/>
<path fill-rule="evenodd" clip-rule="evenodd" d="M26.3779 49.0002C27.8567 49.8855 29.0527 51.3385 29.2269 53.0189C29.6132 53.5642 30.2093 53.9201 30.7256 54.3575C30.8515 54.4818 30.895 54.6868 30.8533 54.8949L30.7688 55.0803C30.4441 56.4443 30.5194 58.0509 30.7887 59.4477C31.1269 60.8013 31.6637 62.1003 32.3293 63.3644C32.3351 63.8203 31.885 64.1547 31.7815 64.6206C31.7228 64.7574 31.6267 64.8757 31.504 64.9632C31.3813 65.0506 31.2366 65.1038 31.0852 65.1168C29.8805 65.083 28.9681 64.3919 27.9625 63.983C26.6318 63.4272 25.222 63.0727 23.7817 62.932C22.6653 62.3782 21.1672 62.9552 20.0678 62.4368C19.7379 61.8737 19.0459 62.254 18.59 62.1896C17.6442 62.5178 16.426 62.5178 15.5293 62.1072C14.404 61.7614 13.6164 60.6433 13.0398 59.7364C12.9867 59.6074 13.0217 59.478 13.1029 59.4065C13.7989 58.9049 14.8099 58.9163 15.6349 59.1588C16.8204 59.0663 17.97 59.2097 18.9686 59.6745C19.5571 59.8029 20.0479 59.3893 20.6786 59.5528C21.3258 59.6534 21.9354 59.8679 22.517 60.2118C24.0573 60.5956 25.555 61.1833 27.284 61.1384C27.8819 61.1019 28.6621 61.4666 29.1214 60.9529C29.439 60.1426 28.5777 59.6735 28.3196 59.0568C26.5574 56.4029 25.218 53.5949 24.5853 50.5247C24.5055 49.9011 24.3462 49.2619 24.4788 48.6706C24.5107 48.5882 24.565 48.5156 24.6358 48.4608C24.7066 48.406 24.7912 48.371 24.8808 48.3596C25.4705 48.3192 25.9028 48.6864 26.3779 49.0002Z" fill="#161718"/>
<path fill-rule="evenodd" clip-rule="evenodd" d="M43.4746 50.9573C43.661 51.41 43.5758 52.0186 43.2198 52.4C43.0937 52.4153 43.0438 52.3429 43.0313 52.2769C42.991 51.8752 42.8434 51.5342 42.6717 51.2257C42.6247 50.9573 42.7595 50.7516 42.9892 50.6282C43.1913 50.5923 43.3594 50.7817 43.4746 50.9573ZM33.3851 54.5233C33.394 55.0571 32.9561 55.4699 32.8559 56.0067C32.6614 56.3402 32.6087 56.748 32.4968 57.1405C32.4422 57.1752 32.3923 57.2208 32.3293 57.2226C32.0655 56.7361 32.2555 56.1337 32.3293 55.6559C32.4921 55.181 32.6927 54.7175 33.1314 54.3991C33.2308 54.3569 33.3331 54.4142 33.3851 54.5233ZM15.8055 60.1698C15.8643 60.2868 15.6929 60.4093 15.5924 60.4788C15.4858 60.544 15.3308 60.5649 15.2117 60.5411C15.1102 60.492 15.0052 60.3901 14.9808 60.3143C14.9103 60.1539 15.0843 60.1476 15.1476 60.0881C15.3483 60.0028 15.6491 60.0028 15.8055 60.1698ZM20.8472 60.4788C20.8561 60.5282 20.7755 60.544 20.7432 60.5829C20.6051 60.5707 20.4812 60.5707 20.4049 60.5004C20.3693 60.4207 20.4373 60.3731 20.4894 60.3763C20.6191 60.3525 20.7559 60.3483 20.8472 60.4788ZM23.951 61.3036C24.2732 61.3422 24.6334 61.3422 24.9841 61.386C25.644 61.5165 26.3624 61.5482 26.9885 61.8377C27.0221 61.8773 27.1276 61.9138 27.0951 62.0239C26.9689 62.2128 26.7484 62.0475 26.5908 62.0855C25.9145 61.6724 25.055 62.106 24.436 61.6325C23.9307 61.3637 23.2814 61.4716 22.852 61.0969C22.7853 61.012 22.7637 60.935 22.852 60.8905C23.2458 60.9252 23.5914 61.1059 23.951 61.3036ZM34.0173 61.5921C34.0921 62.1578 33.986 62.8214 34.2714 63.3443C34.2742 63.4088 34.1598 63.4289 34.1246 63.4064C33.764 62.8314 33.537 62.2226 33.3221 61.6325C33.3007 61.3523 33.2903 61.0541 33.5545 60.9529C33.8844 60.9611 33.9164 61.3311 34.0173 61.5921ZM30.3251 61.4886C30.3772 61.6373 30.2126 61.744 30.1142 61.8185C29.9805 61.8161 29.8647 61.9508 29.7549 61.8593C29.6911 61.6415 29.9328 61.5224 30.0707 61.4484C30.1455 61.3832 30.2375 61.426 30.3251 61.4886ZM37.5645 67.177C37.5352 67.3422 37.3557 67.4773 37.228 67.6088C37.1667 67.6269 37.0833 67.565 37.0792 67.5273C37.0121 67.3638 37.052 67.1839 37.228 67.1359C37.2993 67.0705 37.5088 67.0186 37.5645 67.177ZM35.159 68.3521C35.1477 68.6833 34.7717 68.9401 34.5878 69.2592C34.1598 69.8056 33.5479 70.3828 33.0052 70.8241C32.6985 71.1717 32.2766 71.3244 31.9498 71.6497L31.8659 71.6292C31.8596 71.356 32.0228 71.1664 32.1828 70.9889C32.8737 70.2276 33.6324 69.5838 34.2714 68.8653C34.544 68.6516 34.8238 68.4419 35.159 68.3521ZM30.1341 73.0097C30.1569 73.2414 29.8953 73.3718 29.7343 73.5034C29.6445 73.5208 29.5276 73.5932 29.4596 73.5256C29.4075 73.3544 29.5066 73.2115 29.6078 73.1119C29.7229 72.9484 29.9924 72.7678 30.1341 73.0097ZM27.8128 76.2025C27.8246 76.4618 27.7127 76.7347 27.5177 76.9664C27.3171 77.0377 27.1076 77.1473 26.8853 77.1101C26.7171 76.847 26.9646 76.6727 27.0951 76.5115C27.3061 76.3477 27.5388 75.942 27.8128 76.2025Z" fill="white"/>
</g>
<defs>
<clipPath id="clip0_101_184">
<rect width="57.8771" height="79.581" fill="white"/>
</clipPath>
</defs>
</svg>
