<svg width="104" height="50" viewBox="0 0 104 50" fill="none" xmlns="http://www.w3.org/2000/svg">
<path fill-rule="evenodd" clip-rule="evenodd" d="M102.446 23.9871C102.446 37.185 79.5235 47.8842 51.2481 47.8842C22.9717 47.8842 0.0495605 37.185 0.0495605 23.9871C0.0495605 10.7901 22.9717 0.0915222 51.2481 0.0915222C79.5237 0.0915222 102.446 10.79 102.446 23.9871ZM84.0604 12.7995H75.2794L74.2097 15.8508H79.8934L73.4104 18.0908L72.982 19.3283L82.958 16.0637L84.0604 12.7995ZM28.0754 18.1551H24.4984C24.4984 18.1551 27.8135 9.33712 28.0793 8.67048C28.5522 7.48931 28.8345 7.57058 28.8345 7.57058H23.8943C24.5059 7.86263 23.9641 9.01376 23.9641 9.01376C23.9641 9.01376 20.0071 20.0106 19.7314 20.56C19.4559 21.1105 19.2494 21.1797 19.2494 21.1797H27.805L29.0016 17.9228C28.8984 18.2329 28.0754 18.1551 28.0754 18.1551ZM43.0828 21.1657H47.1125C47.1125 21.1657 46.8364 20.7577 47.0088 20.3113C47.2475 19.6913 49.3853 13.8848 49.3853 13.8848L50.3148 21.1657H53.9651L58.7502 8.21446C58.7502 8.21446 58.9461 7.60702 59.213 7.60702L55.3345 7.59563C55.3345 7.59563 55.4454 8.04267 55.3072 8.38653C55.1703 8.73039 52.9653 14.6067 52.9653 14.6067L52.1045 7.59578H47.9388C47.9388 7.59578 48.1544 7.93906 48.0165 8.31694C47.9039 8.6235 43.6001 20.4137 43.6001 20.4137C43.6001 20.4137 43.3247 21.1657 43.0828 21.1657ZM61.5066 7.59947C61.5066 7.59947 61.8509 8.14927 61.4021 9.42025C60.9544 10.6922 57.4422 20.1421 57.4422 20.1421C57.4422 20.1421 57.1659 21.0311 56.788 21.2039L62.2978 21.1976C62.2978 21.1976 68.9772 21.4439 71.0439 14.4374C71.0439 14.4374 73.6608 7.53015 66.0852 7.59947H61.5066ZM62.091 18.0683C62.091 18.0683 62.1087 18.0629 62.7276 18.0629C63.6651 18.0629 65.401 17.8568 66.5674 15.0221C68.4844 10.3627 65.8098 10.5203 65.8098 10.5203H64.7765L62.091 18.0683ZM13.0917 32.1381H21.8723L22.9409 29.0862H17.2581L23.7406 26.8466L24.1701 25.6095L14.1939 28.8743L13.0917 32.1381ZM28.4795 37.7671C28.3407 37.7671 28.3407 37.3236 28.3407 37.3236L29.9557 33.0467C29.9557 33.0467 31.9676 36.9864 32.1057 37.2616C32.2437 37.5368 32.1739 37.7658 32.1739 37.7658H36.987C36.5281 37.7658 36.0545 36.8953 36.0545 36.8953L33.6585 32.6045C37.0098 32.6045 38.0818 29.2892 38.0818 29.2892C39.7346 24.0199 34.1719 24.1572 34.1719 24.1572H28.4795C28.8922 24.6156 28.5704 25.5779 28.5704 25.5779C28.5704 25.5779 25.0353 35.6647 24.7604 36.4442C24.4846 37.223 23.9798 37.7671 23.9798 37.7671H28.4795ZM31.8909 27.2861L30.9578 30.023H31.8302C31.8302 30.023 33.5296 30.1722 34.1566 28.8241C34.1566 28.8241 34.89 27.2791 32.8398 27.2791C32.391 27.2791 31.8909 27.2861 31.8909 27.2861ZM78.2819 37.817C77.9376 37.824 78.1773 36.9831 78.1773 36.9831L79.6183 33.0965C79.6183 33.0965 81.5607 37.0369 81.697 37.3127C81.8353 37.5873 81.7669 37.8163 81.7669 37.8163H86.7508C86.2912 37.8163 85.7859 36.9458 85.7859 36.9458L83.3888 32.6537C86.742 32.6537 87.7505 29.4581 87.7505 29.4581C89.5111 23.9406 83.9043 24.2079 83.9043 24.2079H78.257C78.671 24.6662 78.3495 25.6283 78.3495 25.6283C78.3495 25.6283 74.6668 35.7538 74.3903 36.532C74.1151 37.3126 73.5864 37.8093 73.5864 37.8093L78.2819 37.817ZM81.5637 30.0723C81.5637 30.0723 83.2499 30.1996 83.7661 28.881C84.3751 27.328 82.8551 27.3691 82.8551 27.3691H81.6086L80.6906 30.0723H81.5637ZM44.034 38.1037C49.0024 38.1037 51.9591 33.2402 51.9591 29.7511C51.9591 26.0908 50.4515 23.8069 47.0088 23.8069C42.6165 23.8069 39.7512 27.133 39.0117 31.2681C38.3322 35.0707 40.4839 38.1037 44.034 38.1037ZM44.3469 34.8877C45.5862 35.1159 46.9487 34.2259 47.6602 31.3821C48.7392 27.0785 46.7504 27.0431 46.3876 26.9988C45.2881 26.8648 43.82 28.1287 43.2237 30.7637C42.9506 31.9672 42.6609 34.5758 44.3469 34.8877ZM53.1383 24.2079C53.1383 24.2079 53.48 24.3908 53.48 25.2607V37.0368C53.48 37.0368 53.4332 37.6815 53.1891 37.8163H56.8807C56.8807 37.8163 56.8807 37.5405 57.247 37.0824C57.6147 36.6243 65.2819 26.3618 65.2819 26.3618C65.2819 26.3618 67.0304 24.2079 67.4886 24.2079H62.2053C62.2053 24.2079 62.6193 24.4831 62.2978 24.987C61.9765 25.4912 57.2799 32.5012 57.2799 32.5012L57.3389 25.4303C57.3389 25.4303 57.3306 24.2966 57.7865 24.2015L53.1383 24.2079ZM75.4568 27.4184L76.6505 24.2048L67.6985 24.2057C67.6985 24.2057 68.0192 24.4883 67.6072 25.6335C67.1932 26.7801 63.5662 36.5371 63.5662 36.5371C63.5662 36.5371 62.9235 37.8196 62.741 37.8196H71.9683L73.0705 34.5669C73.0705 34.5669 72.933 34.7498 72.0606 34.7498H68.1575L68.9848 32.5506H72.0138C72.0138 32.5506 72.6573 32.505 72.7948 32.6885L74.0342 29.2118C74.0342 29.2118 73.9435 29.5264 73.1157 29.5264H70.1773L71.0509 27.0988H74.769C74.769 27.0988 75.2743 27.0294 75.4568 27.4184ZM28.786 21.1779H33.2025C33.2025 21.1779 33.1888 20.8394 33.3038 20.6195C33.5138 20.2225 34.0616 19.2645 34.0616 19.2645H38.5067L38.5152 20.4595C38.5152 20.4595 38.538 20.8714 38.2109 21.1892H42.6188C42.6188 21.1892 42.2913 21.0059 42.2313 20.4649L41.6781 8.50637C41.6781 8.50637 41.6543 7.74208 42.0189 7.58111H37.6462C37.6462 7.58111 37.9523 7.95884 37.3669 8.81791C36.782 9.67714 29.3121 20.7305 29.3121 20.7305C29.3121 20.7305 29.1636 21.0148 28.786 21.1779ZM38.422 12.2094L35.9676 16.1947H38.4573L38.422 12.2094Z" fill="white"/>
</svg>
