<svg width="104" height="50" viewBox="0 0 104 50" fill="none" xmlns="http://www.w3.org/2000/svg">
<path fill-rule="evenodd" clip-rule="evenodd" d="M102.446 23.9872C102.446 37.185 79.5237 47.8843 51.2483 47.8843C22.9718 47.8843 0.0496826 37.185 0.0496826 23.9872C0.0496826 10.7901 22.9718 0.0915527 51.2483 0.0915527C79.5238 0.0915527 102.446 10.79 102.446 23.9872ZM84.0605 12.7995H75.2796L74.2099 15.8508H79.8935L73.4105 18.0909L72.9821 19.3283L82.9581 16.0637L84.0605 12.7995ZM28.0755 18.1551H24.4985C24.4985 18.1551 27.8137 9.33715 28.0794 8.67051C28.5523 7.48934 28.8347 7.57061 28.8347 7.57061H23.8944C24.506 7.86266 23.9642 9.01379 23.9642 9.01379C23.9642 9.01379 20.0072 20.0107 19.7315 20.56C19.456 21.1106 19.2495 21.1797 19.2495 21.1797H27.8051L29.0017 17.9228C28.8986 18.2329 28.0755 18.1551 28.0755 18.1551ZM43.0829 21.1657H47.1126C47.1126 21.1657 46.8365 20.7577 47.0089 20.3114C47.2476 19.6913 49.3855 13.8849 49.3855 13.8849L50.3149 21.1657H53.9652L58.7503 8.21449C58.7503 8.21449 58.9463 7.60705 59.2131 7.60705L55.3346 7.59566C55.3346 7.59566 55.4455 8.0427 55.3074 8.38656C55.1704 8.73042 52.9655 14.6068 52.9655 14.6068L52.1047 7.59581H47.9389C47.9389 7.59581 48.1545 7.93909 48.0167 8.31697C47.9041 8.62353 43.6002 20.4138 43.6002 20.4138C43.6002 20.4138 43.3248 21.1657 43.0829 21.1657ZM61.5068 7.5995C61.5068 7.5995 61.8511 8.1493 61.4023 9.42028C60.9545 10.6922 57.4423 20.1422 57.4423 20.1422C57.4423 20.1422 57.1661 21.0311 56.7881 21.2039L62.2979 21.1976C62.2979 21.1976 68.9773 21.4439 71.044 14.4374C71.044 14.4374 73.6609 7.53018 66.0853 7.5995H61.5068ZM62.0911 18.0683C62.0911 18.0683 62.1088 18.063 62.7277 18.063C63.6652 18.063 65.4011 17.8568 66.5676 15.0221C68.4845 10.3627 65.8099 10.5203 65.8099 10.5203H64.7766L62.0911 18.0683ZM13.0919 32.1381H21.8724L22.9411 29.0862H17.2582L23.7407 26.8466L24.1702 25.6096L14.194 28.8744L13.0919 32.1381ZM28.4796 37.7671C28.3408 37.7671 28.3408 37.3236 28.3408 37.3236L29.9558 33.0467C29.9558 33.0467 31.9677 36.9864 32.1058 37.2616C32.2438 37.5368 32.174 37.7658 32.174 37.7658H36.9871C36.5282 37.7658 36.0546 36.8953 36.0546 36.8953L33.6586 32.6046C37.0099 32.6046 38.0819 29.2892 38.0819 29.2892C39.7348 24.02 34.1721 24.1573 34.1721 24.1573H28.4796C28.8923 24.6157 28.5706 25.578 28.5706 25.578C28.5706 25.578 25.0354 35.6647 24.7605 36.4442C24.4847 37.223 23.9799 37.7671 23.9799 37.7671H28.4796ZM31.891 27.2861L30.9579 30.023H31.8303C31.8303 30.023 33.5297 30.1722 34.1567 28.8241C34.1567 28.8241 34.8902 27.2791 32.8399 27.2791C32.3911 27.2791 31.891 27.2861 31.891 27.2861ZM78.2821 37.8171C77.9378 37.8241 78.1774 36.9831 78.1774 36.9831L79.6184 33.0965C79.6184 33.0965 81.5608 37.0369 81.6971 37.3127C81.8354 37.5873 81.767 37.8163 81.767 37.8163H86.7509C86.2913 37.8163 85.7861 36.9459 85.7861 36.9459L83.3889 32.6538C86.7421 32.6538 87.7506 29.4582 87.7506 29.4582C89.5112 23.9406 83.9044 24.2079 83.9044 24.2079H78.2571C78.6711 24.6662 78.3496 25.6284 78.3496 25.6284C78.3496 25.6284 74.6669 35.7538 74.3905 36.532C74.1152 37.3126 73.5865 37.8093 73.5865 37.8093L78.2821 37.8171ZM81.5639 30.0724C81.5639 30.0724 83.25 30.1997 83.7663 28.8811C84.3753 27.328 82.8552 27.3691 82.8552 27.3691H81.6087L80.6907 30.0724H81.5639ZM44.0341 38.1037C49.0025 38.1037 51.9592 33.2402 51.9592 29.7511C51.9592 26.0908 50.4517 23.8069 47.0089 23.8069C42.6166 23.8069 39.7513 27.133 39.0118 31.2681C38.3323 35.0708 40.484 38.1037 44.0341 38.1037ZM44.347 34.8877C45.5864 35.1159 46.9488 34.2259 47.6603 31.3821C48.7393 27.0786 46.7505 27.0431 46.3877 26.9988C45.2882 26.8648 43.8202 28.1287 43.2238 30.7638C42.9507 31.9673 42.661 34.5758 44.347 34.8877ZM53.1385 24.2079C53.1385 24.2079 53.4802 24.3909 53.4802 25.2607V37.0368C53.4802 37.0368 53.4333 37.6816 53.1893 37.8163H56.8808C56.8808 37.8163 56.8808 37.5405 57.2472 37.0824C57.6149 36.6243 65.282 26.3618 65.282 26.3618C65.282 26.3618 67.0305 24.2079 67.4888 24.2079H62.2054C62.2054 24.2079 62.6194 24.4831 62.2979 24.987C61.9766 25.4912 57.28 32.5013 57.28 32.5013L57.339 25.4304C57.339 25.4304 57.3307 24.2966 57.7866 24.2015L53.1385 24.2079ZM75.457 27.4185L76.6507 24.2048L67.6986 24.2057C67.6986 24.2057 68.0193 24.4884 67.6073 25.6336C67.1933 26.7801 63.5663 36.5371 63.5663 36.5371C63.5663 36.5371 62.9237 37.8196 62.7411 37.8196H71.9684L73.0706 34.5669C73.0706 34.5669 72.9331 34.7498 72.0607 34.7498H68.1576L68.9849 32.5506H72.0139C72.0139 32.5506 72.6574 32.505 72.795 32.6885L74.0343 29.2119C74.0343 29.2119 73.9436 29.5264 73.1158 29.5264H70.1774L71.051 27.0989H74.7691C74.7691 27.0989 75.2744 27.0294 75.457 27.4185ZM28.7861 21.1779H33.2026C33.2026 21.1779 33.1889 20.8394 33.3039 20.6195C33.5139 20.2225 34.0617 19.2645 34.0617 19.2645H38.5068L38.5154 20.4595C38.5154 20.4595 38.5382 20.8714 38.2111 21.1893H42.6189C42.6189 21.1893 42.2915 21.0059 42.2314 20.4649L41.6782 8.5064C41.6782 8.5064 41.6545 7.74211 42.019 7.58114H37.6463C37.6463 7.58114 37.9524 7.95887 37.367 8.81794C36.7822 9.67717 29.3122 20.7306 29.3122 20.7306C29.3122 20.7306 29.1637 21.0149 28.7861 21.1779ZM38.4221 12.2094L35.9678 16.1947H38.4574L38.4221 12.2094Z" fill="#161718"/>
</svg>
