<svg width="69" height="65" viewBox="0 0 69 65" fill="none" xmlns="http://www.w3.org/2000/svg">
<g clip-path="url(#clip0_101_179)">
<path d="M34.6997 64.1228L44.0186 13.4547C52.9012 13.4547 55.703 14.3964 56.1076 18.24C56.1076 18.24 62.0662 16.092 65.0716 11.7296C53.3438 6.47588 41.5602 6.23894 41.5602 6.23894L34.6841 14.3354L34.6997 14.3344L27.8236 6.23767C27.8236 6.23767 16.0396 6.47487 4.31342 11.7286C7.31616 16.091 13.2772 18.239 13.2772 18.239C13.6841 14.3951 16.4824 13.4534 25.3055 13.4473L34.6997 64.1228Z" fill="#161718"/>
<path d="M34.6961 3.90069C44.1763 3.83059 55.0275 5.3185 66.1359 9.99907C67.6206 7.41563 68.0022 6.27386 68.0022 6.27386C55.8591 1.62935 44.4873 0.0398702 34.6947 0C24.9026 0.0398702 13.5313 1.62961 1.38983 6.27386C1.38983 6.27386 1.93148 7.68025 3.25489 9.99907C14.3612 5.3185 25.2155 3.83059 34.6961 3.90069Z" fill="#161718"/>
</g>
<defs>
<clipPath id="clip0_101_179">
<rect width="68.729" height="64.3883" fill="white"/>
</clipPath>
</defs>
</svg>
