<svg width="71" height="70" viewBox="0 0 71 70" fill="none" xmlns="http://www.w3.org/2000/svg">
<g clip-path="url(#clip0_101_735)">
<path d="M35.3512 0C15.8278 0 0 15.5048 0 34.6298C0 53.7548 15.8278 69.2595 35.3512 69.2595C54.8747 69.2595 70.7024 53.7548 70.7024 34.6298C70.7024 15.5048 54.8747 0 35.3512 0ZM68.4036 34.6298C68.4036 52.5107 53.6068 67.0076 35.3512 67.0076C17.0957 67.0076 2.29883 52.5107 2.29883 34.6298C2.29883 16.7488 17.0978 2.25192 35.3512 2.25192C53.6047 2.25192 68.4036 16.7488 68.4036 34.6298Z" fill="white"/>
<path d="M52.4844 19.9373C52.9646 20.4424 53.6567 21.2568 54.0454 21.7515L61.2037 17.3006C60.8462 16.8425 60.2767 16.1462 59.8506 15.6555L55.3174 18.5915L55.0077 18.8521L55.2383 18.5222L57.24 14.6089L55.8245 13.2224L51.8276 15.1831L51.4909 15.4091L51.759 15.1058L54.7583 10.6671C54.2304 10.2273 53.7232 9.82411 53.0768 9.33545L48.5332 16.3416C49.1088 16.7753 49.8675 17.4126 50.3519 17.8463L54.6294 15.6717L54.9037 15.4743L54.7022 15.743L52.4844 19.9373Z" fill="white"/>
<path d="M36.2409 11.058L38.1968 6.76593L38.3214 6.38518L38.2861 6.78223L38.4919 12.5179C39.1778 12.581 39.8866 12.6747 40.5849 12.7887L40.2669 4.29411C39.29 4.18825 38.3173 4.1129 37.3445 4.07219L35.4179 8.75722L35.3492 9.1054L35.2806 8.75722L33.3559 4.07219C32.3832 4.1129 31.4104 4.18825 30.4335 4.29411L30.1155 12.7887C30.8139 12.6747 31.5226 12.583 32.2085 12.5179L32.4143 6.78223L32.379 6.38518L32.5037 6.76593L34.4597 11.058H36.2409Z" fill="white"/>
<path d="M20.4213 17.828C21.5521 16.6614 22.1922 15.3134 21.0616 14.0266C20.4462 13.3283 19.4132 13.1756 18.557 13.5197L18.4718 13.5522L18.4988 13.4789C18.6255 13.147 18.7066 12.0883 17.7858 11.3573C17.3369 11.001 16.7736 10.8687 16.204 10.9257C15.1419 11.0316 14.3251 11.7422 12.1011 14.1712C11.4297 14.9042 10.4528 16.0607 9.8667 16.81L15.9755 22.4867C17.9999 20.2917 18.8251 19.4752 20.4213 17.828ZM12.4503 16.4394C13.6808 14.9652 14.9881 13.6276 15.5806 13.0982C15.7676 12.9312 15.9713 12.7643 16.2187 12.6991C16.6198 12.5912 17.0334 12.8701 17.1269 13.2733C17.2205 13.6785 16.9607 14.0633 16.6717 14.3809C16.0212 15.0997 13.635 17.545 13.635 17.545L12.4503 16.4394ZM14.8426 18.6628C14.8426 18.6628 17.1665 16.2562 17.9251 15.4866C18.2265 15.1811 18.4197 14.9958 18.6276 14.8961C18.8958 14.7678 19.1888 14.7413 19.4506 14.9123C19.7084 15.0814 19.8268 15.3725 19.7624 15.6617C19.6855 16.0057 19.3987 16.3336 19.1618 16.5839C18.8416 16.92 16.0856 19.8092 16.0814 19.8132L14.8426 18.6628Z" fill="white"/>
<path d="M56.3151 34.6298H35.3513V14.0938C46.9369 14.0938 56.3151 23.2806 56.3151 34.6298Z" fill="white"/>
<path d="M35.3512 34.6298V55.1657C23.7656 55.1657 14.3875 45.9789 14.3875 34.6298H35.3512Z" fill="white"/>
<path d="M35.3512 14.0938V34.6298H14.3875C14.3875 23.2806 23.7656 14.0938 35.3512 14.0938Z" fill="#091920"/>
<path d="M56.3151 34.6298C56.3151 45.9789 46.9369 55.1657 35.3513 55.1657V34.6298H56.3151Z" fill="#091920"/>
</g>
<defs>
<clipPath id="clip0_101_735">
<rect width="70.8994" height="69.4525" fill="white"/>
</clipPath>
</defs>
</svg>
