<svg width="71" height="70" viewBox="0 0 71 70" fill="none" xmlns="http://www.w3.org/2000/svg">
<g clip-path="url(#clip0_101_170)">
<path d="M35.3512 0C15.8278 0 0 15.5048 0 34.6298C0 53.7548 15.8278 69.2595 35.3512 69.2595C54.8747 69.2595 70.7024 53.7548 70.7024 34.6298C70.7024 15.5048 54.8747 0 35.3512 0ZM68.4036 34.6298C68.4036 52.5107 53.6068 67.0076 35.3512 67.0076C17.0957 67.0076 2.29883 52.5107 2.29883 34.6298C2.29883 16.7488 17.0978 2.25192 35.3512 2.25192C53.6047 2.25192 68.4036 16.7488 68.4036 34.6298Z" fill="#161718"/>
<path d="M52.4844 19.9373C52.9646 20.4424 53.6567 21.2568 54.0454 21.7515L61.2037 17.3006C60.8462 16.8425 60.2767 16.1462 59.8506 15.6555L55.3174 18.5915L55.0077 18.8521L55.2383 18.5222L57.24 14.6089L55.8245 13.2224L51.8276 15.1831L51.4909 15.4091L51.759 15.1058L54.7583 10.6671C54.2304 10.2273 53.7232 9.82411 53.0768 9.33545L48.5332 16.3416C49.1088 16.7753 49.8675 17.4126 50.3519 17.8463L54.6294 15.6717L54.9037 15.4743L54.7022 15.743L52.4844 19.9373Z" fill="#161718"/>
<path d="M36.241 11.058L38.1969 6.76588L38.3215 6.38513L38.2862 6.78218L38.4919 12.5178C39.1778 12.5809 39.8867 12.6746 40.585 12.7886L40.267 4.29407C39.2901 4.1882 38.3174 4.11285 37.3446 4.07214L35.4179 8.75717L35.3493 9.10535L35.2806 8.75717L33.3559 4.07214C32.3833 4.11285 31.4104 4.1882 30.4335 4.29407L30.1155 12.7886C30.814 12.6746 31.5227 12.583 32.2086 12.5178L32.4143 6.78218L32.379 6.38513L32.5038 6.76588L34.4597 11.058H36.241Z" fill="#161718"/>
<path d="M20.4213 17.8281C21.5521 16.6614 22.1921 15.3134 21.0615 14.0267C20.4462 13.3283 19.4132 13.1756 18.5569 13.5197L18.4717 13.5523L18.4987 13.479C18.6254 13.1471 18.7066 12.0883 17.7858 11.3574C17.3369 11.0011 16.7736 10.8687 16.204 10.9257C15.1418 11.0316 14.325 11.7422 12.101 14.1713C11.4297 14.9043 10.4528 16.0607 9.86664 16.8101L15.9754 22.4867C17.9998 20.2917 18.825 19.4753 20.4213 17.8281ZM12.4502 16.4395C13.6807 14.9653 14.9881 13.6276 15.5805 13.0982C15.7676 12.9313 15.9712 12.7643 16.2186 12.6992C16.6197 12.5913 17.0333 12.8702 17.1269 13.2733C17.2204 13.6785 16.9606 14.0633 16.6716 14.381C16.0211 15.0998 13.635 17.5451 13.635 17.5451L12.4502 16.4395ZM14.8426 18.6628C14.8426 18.6628 17.1664 16.2562 17.925 15.4866C18.2264 15.1812 18.4197 14.9959 18.6275 14.8961C18.8957 14.7678 19.1887 14.7414 19.4506 14.9124C19.7084 15.0814 19.8268 15.3725 19.7624 15.6617C19.6854 16.0057 19.3987 16.3336 19.1617 16.584C18.8416 16.92 16.0856 19.8092 16.0813 19.8132L14.8426 18.6628Z" fill="#161718"/>
<path d="M56.315 34.6298H35.3512V14.0939C46.9368 14.0939 56.315 23.2807 56.315 34.6298Z" fill="#161718"/>
<path d="M35.3512 34.6298V55.1657C23.7656 55.1657 14.3875 45.9789 14.3875 34.6298H35.3512Z" fill="#161718"/>
<path d="M35.3512 14.0939V34.6298H14.3875C14.3875 23.2807 23.7656 14.0939 35.3512 14.0939Z" fill="#E2E2E2"/>
<path d="M56.315 34.6298C56.315 45.9789 46.9368 55.1657 35.3512 55.1657V34.6298H56.315Z" fill="#E2E2E2"/>
</g>
<defs>
<clipPath id="clip0_101_170">
<rect width="70.8994" height="69.4525" fill="white"/>
</clipPath>
</defs>
</svg>
