<svg width="76" height="81" viewBox="0 0 76 81" fill="none" xmlns="http://www.w3.org/2000/svg">
<g clip-path="url(#clip0_101_725)">
<path fill-rule="evenodd" clip-rule="evenodd" d="M68.4994 79.338V73.112H68.0978L64.7438 79.338H59.6889L56.3349 73.112H56.0278V79.338H48.4692V68.2068H60.303L62.3818 71.6734L64.602 68.2068H75.9635V79.338H68.4994Z" fill="white"/>
<path fill-rule="evenodd" clip-rule="evenodd" d="M16.747 75.5174C16.747 75.5174 19.9357 74.8571 19.9357 72.3338C19.9357 68.2304 14.9282 68.2304 14.9282 68.2304H0V79.4559H8.14909V75.7533H9.40097L12.1882 79.3851H20.8569L16.747 75.5174ZM9.99149 73.1356H8.07822V70.5179H10.1804C10.9599 70.565 11.5741 71.2254 11.5741 72.0036C11.5741 73.112 10.0151 73.1356 10.0151 73.1356H9.99149Z" fill="white"/>
<path fill-rule="evenodd" clip-rule="evenodd" d="M40.6039 68.2304H28.3922L22.5342 79.3615H30.7777L31.9115 76.6731H36.9427L38.0293 79.338H46.3909L40.6039 68.2304ZM32.691 74.1261L34.4626 70.6594L36.2105 74.1261H32.691Z" fill="white"/>
<path d="M38.0056 0.0753841C39.9189 0.0753841 41.8084 0.0753841 43.7217 0.0753841C46.3673 0.12255 49.0363 0.216882 51.6819 0.311215C54.0912 0.405547 56.4769 0.523462 58.8861 0.688543C60.4215 0.759293 61.9568 0.924374 63.4685 1.20737C63.7992 1.27812 64.1063 1.37245 64.4133 1.46678C65.1927 1.7262 65.7833 2.36294 65.9959 3.16476C66.1849 3.87226 66.2793 4.60333 66.2793 5.33439C66.2793 9.27276 66.2793 13.1875 66.2793 17.1023C66.2793 19.6493 66.2084 22.1963 66.1377 24.7668C66.0668 27.1487 65.9723 29.5306 65.8305 31.9126C65.6889 34.2943 65.5708 36.6055 65.2401 38.9402C64.9567 41.7466 63.8701 44.4115 62.0985 46.6283C60.5868 48.3735 58.7917 49.8356 56.7839 50.9676C51.918 53.8447 46.9342 56.486 41.8321 58.8914C40.9581 59.2924 40.0605 59.7169 39.2102 60.165C38.478 60.5659 37.5804 60.5659 36.8482 60.165C34.6515 59.1509 32.502 58.0424 30.3525 56.9341C26.5024 54.9531 22.6522 52.9486 18.9438 50.7318C16.7235 49.4818 14.8102 47.7603 13.2985 45.7322C12.0466 43.8455 11.2199 41.7231 10.9128 39.4826C10.6294 37.714 10.5113 35.9452 10.3932 34.1529C10.2515 31.9361 10.1334 29.7192 10.0389 27.5025C9.96802 26.2997 9.96802 25.0969 9.9444 23.8707C9.77906 17.8334 9.77906 11.7962 9.80269 5.75889C9.77906 4.98065 9.84992 4.20241 10.0153 3.42417C10.1806 2.41011 10.9601 1.5847 11.9521 1.32529C12.8497 1.08946 13.7709 0.947956 14.7157 0.877208C17.7156 0.570628 20.7862 0.452713 23.8332 0.334798C26.1717 0.240467 28.4865 0.169717 30.825 0.0989676C33.1161 0.0518015 35.5963 0.0753841 38.0056 0.0753841ZM38.0056 1.5847C35.3365 1.5847 32.6673 1.5847 29.9982 1.65545C28.0849 1.70261 26.1717 1.77337 24.2585 1.8677C21.2586 1.98561 18.3297 2.12711 15.3536 2.36294C14.4795 2.41011 13.6292 2.52802 12.7789 2.74026C12.0702 2.88176 11.5034 3.44776 11.3852 4.15524C11.2908 4.57974 11.2435 5.02782 11.2435 5.47589C11.2435 7.22104 11.2435 8.96619 11.1727 10.7113C11.1254 14.9091 11.1018 19.107 11.2435 23.3047C11.2435 24.0594 11.2435 24.7904 11.3144 25.5923C11.4797 28.4458 11.5978 31.3229 11.834 34.1764C11.9758 35.9688 12.0702 37.7611 12.3773 39.5297C12.6608 41.4872 13.4166 43.3503 14.5268 45.001C16.0149 46.982 17.9281 48.6328 20.1012 49.8356C23.8569 52.076 27.778 54.0806 31.6753 56.0851C33.5886 57.0755 35.5018 58.0661 37.4623 58.9622C37.7929 59.1273 38.1945 59.1273 38.5252 58.9622C39.7062 58.3962 40.8874 57.8539 42.0684 57.2879C46.013 55.3777 49.8631 53.3495 53.6659 51.1562C55.4847 50.1894 57.2091 49.0809 58.8389 47.831C61.1774 46.0152 62.8072 43.4209 63.4448 40.5438C63.8464 38.5157 64.0826 36.464 64.2008 34.4123C64.3426 32.5963 64.4133 30.7569 64.5314 28.9175C64.744 25.7574 64.8386 22.6207 64.8858 19.4606C64.8858 16.6779 64.933 13.8715 64.8858 11.0887C64.8386 9.29635 64.8858 7.48046 64.8386 5.68815C64.8386 5.31082 64.8149 4.93348 64.7677 4.55616C64.6968 3.63642 64.0117 2.90535 63.1142 2.74026C62.3584 2.52802 61.5788 2.41011 60.7994 2.36294C58.2483 2.19785 55.721 2.03278 53.1936 1.91487C50.1229 1.77337 47.0286 1.67902 43.9344 1.60828C41.9266 1.51395 39.9661 1.5847 38.0056 1.5847Z" fill="white"/>
<path d="M30.5884 34.2472C30.8955 35.0962 31.179 35.8272 31.4387 36.5583C31.5096 36.6999 31.6514 36.8177 31.7931 36.865C32.549 37.2894 33.2812 37.714 34.037 38.1384C34.2969 38.2563 34.4622 38.4922 34.4858 38.7752C34.7929 40.8741 35.1236 42.9494 35.4307 45.0483C35.4542 45.3784 35.407 45.7321 35.3361 46.0623C35.2654 46.5576 35.1945 47.0528 35.1 47.548C35.0527 47.7131 35.1472 47.8781 35.3126 47.9254C36.0683 48.2319 36.8007 48.562 37.6037 48.8922C37.7455 48.963 37.9344 48.963 38.0762 48.8922C38.8793 48.5857 39.706 48.2556 40.5091 47.9489C40.6744 47.9254 40.7925 47.7602 40.7689 47.5951C40.7689 47.5716 40.7689 47.548 40.7453 47.5245C40.6272 46.8406 40.5091 46.1566 40.4382 45.4727C40.4382 45.0246 40.4854 44.5766 40.6035 44.152C40.8634 42.3597 41.1469 40.5674 41.4303 38.7752C41.4539 38.4922 41.6192 38.2563 41.8791 38.1384C42.6349 37.7375 43.3671 37.2894 44.123 36.8885C44.3356 36.7942 44.4774 36.6055 44.5481 36.3932C44.7844 35.7093 45.0443 35.0254 45.3277 34.2708C44.7843 34.3651 44.312 34.483 43.8396 34.5538C43.4852 34.601 43.1782 34.7895 42.9892 35.0962C42.6821 35.5206 42.3514 35.9452 42.0208 36.3461C41.9735 36.4169 41.9263 36.5112 41.8317 36.4875C41.7373 36.464 41.761 36.3461 41.7845 36.2517C41.9735 35.049 42.1389 33.8463 42.3042 32.6435C42.3279 32.4078 42.4932 32.1954 42.7295 32.1483C43.5561 31.8653 44.3593 31.5588 45.1859 31.2993C45.3749 31.2521 45.5403 31.0871 45.5638 30.8983C45.7056 30.0022 45.8709 29.1297 46.0363 28.2336C46.0835 28.0685 46.0126 27.9033 45.8709 27.8326C45.5638 27.6439 45.2803 27.4552 44.9734 27.2666C44.808 27.1959 44.7371 27.0071 44.808 26.8657C45.5875 24.0594 46.9338 21.4416 48.729 19.1305C49.8155 17.7391 51.3037 16.7485 52.9807 16.2533C55.9805 15.4515 58.3425 16.5127 59.7835 19.3192C60.492 20.7105 60.8463 22.2434 60.7991 23.7999C60.7991 24.1065 60.681 24.2244 60.3739 24.2479L58.2481 24.4838C57.9646 24.4838 57.8228 24.6254 57.7521 24.9319C57.2559 27.809 56.8308 30.6861 56.1223 33.5161C55.8861 34.601 55.4845 35.6622 54.9885 36.6762C54.7758 37.1007 54.4688 37.4545 54.0673 37.6903C53.524 37.9733 53.1225 37.8082 52.9807 37.2186C52.7917 36.3696 52.7917 35.4971 52.9807 34.6481C53.2406 33.1623 53.6894 31.7473 53.8782 30.2617C54.1145 28.8938 54.1382 27.5025 53.9728 26.1346C53.9019 25.5686 53.6894 25.0261 53.335 24.5781C52.6972 23.8943 51.5871 23.847 50.9021 24.4838C50.784 24.6017 50.6659 24.7433 50.5714 24.8847C50.5242 25.0261 50.5242 25.1677 50.5714 25.2856C50.7131 26.2526 50.7368 27.243 50.6659 28.2099C50.5714 29.507 49.9101 30.6861 48.8708 31.4172C48.3983 31.7473 47.9732 32.1719 47.5244 32.5257C47.3826 32.6435 47.2882 32.8322 47.241 32.9973C46.6741 35.2849 46.0599 37.5724 45.493 39.86C45.1387 40.9447 44.619 41.9588 44.0049 42.9022C43.7924 43.3503 43.5324 43.7984 43.249 44.1993C42.6113 45.0718 42.5877 46.1095 42.3986 47.0999C42.2098 48.0905 42.0917 48.9158 41.9499 49.812C41.8554 50.7789 41.1232 51.5336 40.1547 51.6987C38.7375 52.0523 37.2495 52.0523 35.8086 51.6987C34.8873 51.51 34.1788 50.7553 34.0843 49.812C33.8481 48.3262 33.5882 46.8877 33.3284 45.4256C33.2812 45.2368 33.2103 45.0483 33.1159 44.8596C32.4544 43.7276 31.8168 42.6192 31.1553 41.4636C30.8483 40.9447 30.6357 40.3787 30.4704 39.7892C29.927 37.5487 29.3366 35.3084 28.7932 33.0444C28.7225 32.785 28.5807 32.5257 28.3681 32.3605C27.9194 31.9832 27.4706 31.6059 26.9981 31.2286C26.0297 30.4974 25.4392 29.3656 25.3446 28.1628C25.2502 27.2666 25.2739 26.3469 25.4155 25.4507C25.5337 24.8376 25.1793 24.2244 24.5652 24.0357C23.6913 23.6584 22.6992 24.0594 22.3213 24.9319C22.3213 24.9319 22.3213 24.9555 22.2976 24.9555C22.0378 25.4979 21.896 26.111 21.896 26.7006C21.8488 28.8702 22.1323 31.0163 22.6992 33.1152C23.0063 34.1529 23.1244 35.2376 23.1007 36.3225C23.1007 36.6055 23.0535 36.865 22.9589 37.148C22.9117 37.5016 22.5811 37.7611 22.2032 37.714C22.0851 37.6903 21.9906 37.6667 21.896 37.596C21.4709 37.3602 21.1403 37.0064 20.9276 36.5583C20.3372 35.3792 19.9119 34.1058 19.6521 32.8087C19.0143 30.1673 18.6128 27.4789 18.164 24.8139C18.164 24.5546 17.9514 24.3424 17.6917 24.3659L15.5422 24.13C15.306 24.13 15.1406 24.0357 15.1406 23.7527C15.0225 21.5595 15.7311 19.4135 17.1248 17.7391C18.4002 16.159 20.5025 15.4751 22.4629 16.0175C24.518 16.5127 26.3368 17.7155 27.5413 19.4606C29.0295 21.4652 30.1633 23.7291 30.8955 26.111C31.2026 27.0071 31.2026 27.0071 30.3758 27.526C29.8089 27.8798 29.8089 27.8798 29.927 28.5401C30.0452 29.2005 30.187 30.0258 30.3049 30.7804C30.3286 31.0163 30.4939 31.2286 30.7302 31.2758C31.5568 31.5351 32.36 31.8418 33.1866 32.1248C33.3993 32.1719 33.541 32.337 33.5647 32.5257C33.7535 33.7755 33.9425 35.0019 34.1079 36.2753C34.1079 36.3461 34.1551 36.4404 34.0607 36.464C33.9662 36.4875 33.9425 36.3932 33.8953 36.3461C33.5174 35.8744 33.1394 35.4028 32.7852 34.9311C32.6434 34.7424 32.4544 34.6245 32.2183 34.5773C31.7459 34.5065 31.2026 34.3888 30.5884 34.2472ZM28.2736 30.3796C28.2028 29.7663 28.1319 29.0589 28.0375 28.3515C28.0375 28.2099 27.9666 28.092 27.8957 27.9741L26.5493 26.2054C26.5021 26.1346 26.4549 26.0639 26.384 26.0875C26.3131 26.1346 26.3131 26.1818 26.3131 26.2526C26.1478 26.96 26.0769 27.6911 26.0769 28.4221C26.0533 29.3656 26.6675 30.2146 27.565 30.4976C27.7067 30.5682 27.8722 30.6153 28.0138 30.6861C28.25 30.8277 28.3209 30.7098 28.2736 30.3796ZM49.5558 25.9696C49.0833 26.5827 48.6817 27.1487 48.233 27.6676C47.9967 27.9269 47.8551 28.2571 47.8314 28.6109C47.7842 29.1061 47.7133 29.5778 47.6661 30.0966C47.5952 30.8512 47.5952 30.8512 48.3274 30.5447C49.1305 30.3088 49.7211 29.6249 49.8155 28.7759C49.9101 27.8561 49.8155 26.8892 49.5558 25.9696Z" fill="white"/>
<path d="M13.6292 24.7904C13.7709 25.0026 13.889 25.2149 14.0071 25.4507C14.1016 25.7337 14.385 25.8988 14.6921 25.8751C15.0228 25.8751 15.3771 25.9459 15.7078 25.9459C16.0385 25.9696 16.1094 26.0639 16.1566 26.3705C16.6054 30.0258 17.5738 33.5869 19.062 36.9592C19.6052 38.2798 20.4083 39.4826 21.424 40.4967C21.8728 40.9684 22.4869 41.2749 23.1482 41.3222C23.5735 41.4164 23.9986 41.1334 24.0931 40.6854C24.282 40.0722 24.3766 39.4354 24.3529 38.7752C24.4238 37.7846 24.3529 36.7705 24.1639 35.7801C24.1639 35.7093 24.1639 35.6622 24.1639 35.5914C24.3529 35.5914 24.3529 35.7801 24.3766 35.8744C24.8961 37.431 25.156 39.0582 25.1324 40.6854C25.0615 43.303 23.3372 44.3644 21.0696 44.2228C19.4398 44.1285 17.9282 43.3974 16.8651 42.1946L16.7707 42.1004H16.6763C17.0541 42.8314 17.5029 43.5154 18.0698 44.1048C19.3689 45.4727 20.9043 46.6282 22.5578 47.5245C27.4472 50.3308 32.4548 52.9013 37.5095 55.3775C37.7458 55.4954 38.0292 55.4954 38.2654 55.3775C41.4541 53.9862 44.5485 52.4297 47.5956 50.8024C49.8395 49.6233 52.0834 48.3735 54.2329 47.0528C56.1226 46.0151 57.7524 44.5294 58.9806 42.7606C59.2168 42.4069 59.4058 42.0296 59.5475 41.6286C58.8862 42.5013 58.0358 43.1852 57.0437 43.6568C55.8154 44.2464 54.4219 44.3878 53.0991 44.0577C51.7999 43.7511 50.8315 42.6192 50.7607 41.2749C50.6426 39.4118 50.8787 37.5487 51.5165 35.7801C51.5165 35.6857 51.5637 35.5442 51.7527 35.4971C51.7055 35.733 51.6818 35.9452 51.6346 36.181C51.4693 37.4781 51.4693 38.7752 51.6346 40.0486C51.7764 41.2514 52.3433 41.6286 53.5951 41.0626C54.2565 40.7089 54.8234 40.1902 55.2485 39.5769C56.4295 37.9025 57.3508 36.0631 57.9414 34.1056C58.7916 31.6059 59.3822 29.0353 59.7128 26.4411C59.7128 26.1346 59.8546 25.9931 60.1853 25.9931C60.5159 25.9931 60.941 25.8751 61.2719 25.8988C61.6025 25.9224 61.9332 25.6866 62.0276 25.3564C62.0748 25.2385 62.1221 25.0969 62.2639 25.0261C62.3583 25.1206 62.3111 25.2149 62.3111 25.3091C62.3111 26.4648 62.3111 27.6203 62.3111 28.7759C62.3111 31.8889 61.9095 35.0019 61.1537 38.0204C60.9647 39.0582 60.705 40.0957 60.3978 41.0863C59.6184 43.1144 58.2484 44.8831 56.4768 46.1566C54.9179 47.2886 53.2644 48.3027 51.5637 49.1988C48.4222 50.9911 45.1862 52.6891 41.9266 54.2455C40.7219 54.8352 39.47 55.354 38.2418 55.92C38.0292 56.0379 37.7693 56.0379 37.5567 55.92C34.1554 54.2928 30.8013 52.5477 27.4708 50.7789C25.5339 49.7648 23.6442 48.7271 21.7547 47.5951C20.0303 46.6518 18.5186 45.3784 17.2667 43.8455C16.3928 42.7135 15.755 41.3928 15.4007 40.0014C14.9991 38.5628 14.5268 37.1715 14.2433 35.7093C13.889 33.8463 13.6528 31.9597 13.6056 30.0493C13.5347 28.4458 13.6056 26.8421 13.6056 25.2149C13.5111 25.1206 13.5347 24.9319 13.6292 24.7904Z" fill="white"/>
<path d="M59.8072 16.8901L59.1224 15.711C58.2483 14.1073 57.1618 12.6216 55.8391 11.3481C54.5872 10.051 52.8865 9.29634 51.0914 9.20202C49.6269 9.17843 48.186 9.55576 46.9341 10.2868C45.0445 11.4188 43.4382 12.9517 42.1863 14.7676C41.0053 16.4184 39.9661 18.1635 39.0684 20.0031C39.0212 20.1682 38.9031 20.3332 38.7614 20.4275C38.6196 19.9558 38.5252 19.4842 38.4543 18.989C38.3835 18.6352 38.3599 18.2343 38.2417 17.9042C38.1001 17.409 38.1708 16.8901 38.4543 16.4655C39.3992 14.4374 40.6747 12.5744 42.21 10.9472C43.9107 9.15484 46.1783 8.02286 48.6112 7.71628C50.6661 7.45687 52.7684 8.07003 54.351 9.39067C56.713 11.3245 58.5555 13.8007 59.7128 16.6071C59.7365 16.6543 59.7365 16.7014 59.76 16.7485C59.8072 16.7957 59.8546 16.8193 59.8072 16.8901Z" fill="white"/>
<path d="M15.6841 16.8901C16.0621 15.9467 16.5109 15.027 17.0541 14.1544C18.0698 12.4329 19.3689 10.9 20.8806 9.62649C22.9593 7.8106 25.841 7.22103 28.4628 8.04643C30.6123 8.68317 32.502 9.93308 33.9428 11.6546C35.3128 13.2583 36.4466 15.0505 37.2969 16.9607C37.3914 17.126 37.4151 17.3145 37.3678 17.5032C37.2025 18.3757 37.0372 19.272 36.8954 20.1445C36.8954 20.2388 36.8954 20.3804 36.8009 20.4039C36.7064 20.4275 36.6356 20.2624 36.5884 20.1682C35.6435 18.1872 34.5097 16.3005 33.2342 14.5318C31.9586 12.6451 30.2344 11.1122 28.203 10.051C25.3686 8.68317 22.6759 8.89543 20.1957 10.9471C19.4398 11.5839 18.7785 12.315 18.1879 13.0932C17.4085 14.1544 16.6998 15.2629 16.0621 16.442C15.9675 16.6543 15.8496 16.7957 15.6841 16.8901Z" fill="white"/>
<path d="M14.7153 17.2203V23.5877C14.7153 23.7056 14.7153 23.847 14.7153 23.9649C14.6917 24.1536 14.5264 24.2716 14.3374 24.2716C14.1721 24.2716 14.2429 24.0594 14.2193 23.9649C14.1012 22.1492 14.1721 20.3096 14.1484 18.4937C14.1484 16.4892 14.1484 14.5082 14.1484 12.5036C14.1484 10.8764 14.1484 9.2256 14.2193 7.59836C14.2193 7.31536 14.2429 7.05595 14.3138 6.77295C14.3846 5.90038 15.1406 5.21647 16.0381 5.28723C17.1482 5.19289 18.282 5.12214 19.3449 5.05139L26.0059 4.69765C27.3759 4.6269 28.7223 4.57973 30.0923 4.53256C33.5646 4.43823 37.0132 4.41465 40.4853 4.46182C43.1545 4.50899 45.8472 4.60332 48.5163 4.69765C50.7367 4.7684 52.9334 4.86273 55.1538 4.98065C56.7835 5.00423 58.3897 5.14573 60.0195 5.33439C60.9879 5.35797 61.7438 6.13621 61.7438 7.10312C61.7438 7.17386 61.7438 7.24462 61.7201 7.29178C61.9092 12.5272 61.8855 17.7626 61.8383 23.0688C61.8383 23.3989 61.8383 23.7292 61.791 24.0357C61.791 24.1536 61.8619 24.3424 61.6966 24.3659C61.5076 24.3659 61.3423 24.2479 61.295 24.0829C61.2714 23.9414 61.2714 23.7999 61.295 23.6819C61.295 19.555 61.295 15.4515 61.295 11.3481C61.295 9.93308 61.295 8.54169 61.1769 7.12671C61.106 6.37204 60.8935 6.11263 60.1613 5.94756C59.1456 5.75888 58.1299 5.66456 57.0905 5.66456C53.8546 5.49947 50.5949 5.38156 47.3353 5.26364C45.989 5.21647 44.6189 5.16932 43.2489 5.12214C39.8475 5.00423 36.4226 5.00423 33.0212 5.05139C29.4782 5.09856 25.9115 5.24006 22.3684 5.47589C20.4552 5.5938 18.5183 5.68814 16.605 5.80606C16.3216 5.80606 16.0617 5.85321 15.7782 5.90038C15.3059 5.94756 14.9279 6.3013 14.8571 6.77295C14.7862 7.05595 14.7626 7.33895 14.7626 7.62195V17.2439H14.7153V17.2203Z" fill="white"/>
</g>
<defs>
<clipPath id="clip0_101_725">
<rect width="75.9637" height="80.3045" fill="white"/>
</clipPath>
</defs>
</svg>
