<svg width="76" height="81" viewBox="0 0 76 81" fill="none" xmlns="http://www.w3.org/2000/svg">
<g clip-path="url(#clip0_101_160)">
<path fill-rule="evenodd" clip-rule="evenodd" d="M68.4996 79.338V73.1121H68.0981L64.744 79.338H59.6892L56.3351 73.1121H56.028V79.338H48.4695V68.2068H60.3033L62.382 71.6734L64.6022 68.2068H75.9637V79.338H68.4996Z" fill="#161718"/>
<path fill-rule="evenodd" clip-rule="evenodd" d="M16.747 75.5174C16.747 75.5174 19.9357 74.8571 19.9357 72.3338C19.9357 68.2303 14.9282 68.2303 14.9282 68.2303H0V79.4559H8.14909V75.7532H9.40097L12.1882 79.3851H20.8569L16.747 75.5174ZM9.99149 73.1356H8.07822V70.5178H10.1804C10.9599 70.565 11.5741 71.2254 11.5741 72.0036C11.5741 73.112 10.0151 73.1356 10.0151 73.1356H9.99149Z" fill="#161718"/>
<path fill-rule="evenodd" clip-rule="evenodd" d="M40.6036 68.2303H28.3919L22.5339 79.3614H30.7775L31.9113 76.673H36.9425L38.029 79.3379H46.3907L40.6036 68.2303ZM32.6907 74.126L34.4623 70.6594L36.2102 74.126H32.6907Z" fill="#161718"/>
<path d="M38.0055 0.0753535C39.9188 0.0753535 41.8083 0.0753535 43.7216 0.0753535C46.3672 0.12252 49.0362 0.216852 51.6818 0.311184C54.0911 0.405517 56.4768 0.523432 58.886 0.688513C60.4214 0.759262 61.9567 0.924343 63.4684 1.20734C63.7991 1.27809 64.1062 1.37242 64.4132 1.46675C65.1926 1.72617 65.7832 2.36291 65.9958 3.16473C66.1848 3.87223 66.2792 4.6033 66.2792 5.33436C66.2792 9.27273 66.2792 13.1875 66.2792 17.1023C66.2792 19.6493 66.2083 22.1963 66.1376 24.7668C66.0667 27.1487 65.9722 29.5306 65.8304 31.9125C65.6888 34.2943 65.5707 36.6054 65.24 38.9402C64.9565 41.7466 63.87 44.4115 62.0984 46.6283C60.5867 48.3735 58.7916 49.8356 56.7837 50.9676C51.9179 53.8447 46.9341 56.486 41.832 58.8914C40.958 59.2923 40.0604 59.7169 39.2101 60.165C38.4778 60.5659 37.5803 60.5659 36.848 60.165C34.6514 59.1509 32.5019 58.0424 30.3524 56.9341C26.5022 54.9531 22.6521 52.9486 18.9437 50.7317C16.7233 49.4818 14.8101 47.7603 13.2984 45.7322C12.0465 43.8455 11.2198 41.7231 10.9127 39.4826C10.6293 37.7139 10.5112 35.9451 10.3931 34.1529C10.2513 31.936 10.1332 29.7192 10.0388 27.5025C9.9679 26.2997 9.9679 25.0969 9.94427 23.8706C9.77894 17.8334 9.77894 11.7961 9.80256 5.75886C9.77894 4.98062 9.8498 4.20238 10.0151 3.42414C10.1805 2.41008 10.96 1.58467 11.952 1.32526C12.8496 1.08943 13.7708 0.947926 14.7156 0.877178C17.7155 0.570597 20.786 0.452682 23.8331 0.334767C26.1716 0.240436 28.4864 0.169686 30.8249 0.098937C33.116 0.051771 35.5961 0.0753535 38.0055 0.0753535ZM38.0055 1.58467C35.3364 1.58467 32.6672 1.58467 29.9981 1.65542C28.0848 1.70258 26.1716 1.77334 24.2583 1.86766C21.2585 1.98558 18.3296 2.12708 15.3535 2.36291C14.4794 2.41008 13.6291 2.52799 12.7787 2.74023C12.0701 2.88173 11.5032 3.44773 11.3851 4.15521C11.2906 4.57971 11.2434 5.02779 11.2434 5.47586C11.2434 7.22101 11.2434 8.96616 11.1725 10.7113C11.1253 14.9091 11.1017 19.1069 11.2434 23.3046C11.2434 24.0593 11.2434 24.7904 11.3143 25.5923C11.4796 28.4458 11.5977 31.3229 11.8339 34.1764C11.9756 35.9688 12.0701 37.7611 12.3772 39.5297C12.6606 41.4872 13.4165 43.3503 14.5267 45.001C16.0148 46.982 17.928 48.6328 20.101 49.8356C23.8568 52.0759 27.7778 54.0806 31.6752 56.0851C33.5885 57.0755 35.5017 58.0661 37.4622 58.9622C37.7928 59.1273 38.1944 59.1273 38.5251 58.9622C39.7061 58.3962 40.8872 57.8538 42.0682 57.2878C46.0128 55.3776 49.863 53.3495 53.6658 51.1562C55.4846 50.1894 57.209 49.0809 58.8388 47.831C61.1773 46.0152 62.8071 43.4209 63.4447 40.5438C63.8463 38.5156 64.0825 36.464 64.2006 34.4122C64.3424 32.5963 64.4132 30.7569 64.5313 28.9175C64.7438 25.7573 64.8384 22.6207 64.8856 19.4606C64.8856 16.6779 64.9329 13.8714 64.8856 11.0886C64.8384 9.29632 64.8856 7.48043 64.8384 5.68812C64.8384 5.31079 64.8147 4.93345 64.7675 4.55612C64.6966 3.63639 64.0116 2.90532 63.1141 2.74023C62.3583 2.52799 61.5787 2.41008 60.7992 2.36291C58.2482 2.19782 55.7209 2.03275 53.1935 1.91484C50.1228 1.77334 47.0285 1.67899 43.9343 1.60825C41.9264 1.51392 39.966 1.58467 38.0055 1.58467Z" fill="#161718"/>
<path d="M30.5885 34.2472C30.8956 35.0962 31.1791 35.8273 31.4388 36.5583C31.5097 36.6999 31.6515 36.8177 31.7932 36.865C32.5491 37.2894 33.2813 37.714 34.0371 38.1384C34.297 38.2563 34.4623 38.4922 34.4859 38.7752C34.793 40.8741 35.1237 42.9494 35.4308 45.0483C35.4543 45.3785 35.4071 45.7321 35.3362 46.0624C35.2655 46.5576 35.1946 47.0528 35.1001 47.548C35.0528 47.7131 35.1474 47.8782 35.3127 47.9254C36.0685 48.2319 36.8008 48.5621 37.6038 48.8922C37.7456 48.963 37.9345 48.963 38.0763 48.8922C38.8794 48.5857 39.7061 48.2556 40.5092 47.9489C40.6745 47.9254 40.7927 47.7602 40.769 47.5952C40.769 47.5717 40.769 47.548 40.7454 47.5245C40.6273 46.8406 40.5092 46.1567 40.4383 45.4727C40.4383 45.0247 40.4855 44.5766 40.6036 44.152C40.8636 42.3597 41.147 40.5675 41.4305 38.7752C41.454 38.4922 41.6193 38.2563 41.8792 38.1384C42.635 37.7375 43.3672 37.2894 44.1231 36.8885C44.3357 36.7942 44.4775 36.6055 44.5482 36.3933C44.7845 35.7094 45.0444 35.0254 45.3278 34.2709C44.7845 34.3651 44.3122 34.4831 43.8397 34.5539C43.4853 34.601 43.1784 34.7896 42.9893 35.0962C42.6822 35.5206 42.3515 35.9452 42.0209 36.3461C41.9737 36.4169 41.9265 36.5112 41.8319 36.4876C41.7374 36.4641 41.7611 36.3461 41.7847 36.2517C41.9737 35.0491 42.139 33.8463 42.3043 32.6435C42.328 32.4078 42.4933 32.1954 42.7296 32.1483C43.5562 31.8653 44.3594 31.5588 45.186 31.2993C45.3751 31.2522 45.5404 31.0871 45.5639 30.8984C45.7057 30.0022 45.8711 29.1297 46.0364 28.2336C46.0836 28.0685 46.0127 27.9033 45.871 27.8327C45.5639 27.644 45.2805 27.4552 44.9735 27.2667C44.8082 27.1959 44.7373 27.0072 44.8082 26.8657C45.5876 24.0594 46.9339 21.4416 48.7291 19.1305C49.8157 17.7391 51.3038 16.7486 52.9808 16.2534C55.9806 15.4515 58.3426 16.5127 59.7836 19.3192C60.4921 20.7106 60.8465 22.2435 60.7993 23.7999C60.7993 24.1065 60.6811 24.2245 60.374 24.248L58.2482 24.4838C57.9648 24.4838 57.823 24.6254 57.7522 24.9319C57.2561 27.809 56.831 30.6862 56.1224 33.5161C55.8862 34.601 55.4846 35.6622 54.9886 36.6763C54.7759 37.1007 54.4689 37.4545 54.0674 37.6903C53.5242 37.9733 53.1226 37.8083 52.9808 37.2186C52.7918 36.3696 52.7918 35.4971 52.9808 34.6481C53.2407 33.1624 53.6895 31.7474 53.8784 30.2617C54.1146 28.8939 54.1383 27.5025 53.9729 26.1347C53.9021 25.5687 53.6895 25.0262 53.3352 24.5781C52.6974 23.8943 51.5872 23.847 50.9022 24.4838C50.7841 24.6018 50.666 24.7433 50.5716 24.8848C50.5243 25.0262 50.5243 25.1678 50.5716 25.2857C50.7132 26.2526 50.7369 27.243 50.666 28.21C50.5716 29.507 49.9102 30.6862 48.8709 31.4172C48.3984 31.7474 47.9733 32.1719 47.5245 32.5257C47.3827 32.6435 47.2883 32.8322 47.2411 32.9973C46.6742 35.2849 46.0601 37.5724 45.4932 39.86C45.1388 40.9448 44.6191 41.9588 44.005 42.9022C43.7925 43.3503 43.5326 43.7984 43.2491 44.1993C42.6115 45.0718 42.5878 46.1095 42.3988 47.0999C42.2099 48.0905 42.0918 48.9159 41.95 49.812C41.8556 50.7789 41.1233 51.5336 40.1549 51.6987C38.7376 52.0524 37.2496 52.0524 35.8087 51.6987C34.8874 51.51 34.1789 50.7553 34.0845 49.812C33.8482 48.3262 33.5883 46.8877 33.3286 45.4256C33.2813 45.2369 33.2104 45.0483 33.116 44.8596C32.4545 43.7276 31.8169 42.6193 31.1554 41.4636C30.8484 40.9448 30.6359 40.3788 30.4705 39.7893C29.9272 37.5488 29.3367 35.3084 28.7934 33.0444C28.7226 32.7851 28.5808 32.5257 28.3683 32.3605C27.9195 31.9832 27.4707 31.6059 26.9982 31.2287C26.0298 30.4974 25.4394 29.3656 25.3448 28.1628C25.2503 27.2667 25.274 26.3469 25.4157 25.4508C25.5338 24.8376 25.1794 24.2245 24.5653 24.0358C23.6914 23.6585 22.6993 24.0594 22.3214 24.9319C22.3214 24.9319 22.3214 24.9555 22.2977 24.9555C22.038 25.4979 21.8962 26.111 21.8962 26.7007C21.8489 28.8702 22.1324 31.0163 22.6993 33.1152C23.0064 34.1529 23.1245 35.2376 23.1009 36.3225C23.1009 36.6055 23.0536 36.865 22.9591 37.148C22.9118 37.5016 22.5812 37.7611 22.2033 37.714C22.0852 37.6903 21.9907 37.6667 21.8962 37.5961C21.4711 37.3602 21.1404 37.0064 20.9277 36.5583C20.3373 35.3792 19.912 34.1058 19.6523 32.8087C19.0145 30.1673 18.6129 27.4789 18.1641 24.814C18.1641 24.5546 17.9516 24.3424 17.6918 24.3659L15.5423 24.13C15.3061 24.13 15.1408 24.0358 15.1408 23.7528C15.0226 21.5596 15.7312 19.4135 17.1249 17.7391C18.4003 16.1591 20.5026 15.4752 22.4631 16.0175C24.5181 16.5127 26.3369 17.7155 27.5415 19.4606C29.0296 21.4653 30.1634 23.7291 30.8956 26.111C31.2028 27.0072 31.2028 27.0072 30.3759 27.526C29.8091 27.8798 29.8091 27.8798 29.9272 28.5401C30.0453 29.2005 30.1871 30.0259 30.305 30.7804C30.3287 31.0163 30.4941 31.2287 30.7303 31.2758C31.557 31.5352 32.3601 31.8418 33.1868 32.1248C33.3995 32.1719 33.5411 32.337 33.5648 32.5257C33.7537 33.7755 33.9427 35.0019 34.108 36.2753C34.108 36.3461 34.1552 36.4404 34.0608 36.4641C33.9663 36.4876 33.9427 36.3933 33.8954 36.3461C33.5176 35.8744 33.1395 35.4029 32.7853 34.9311C32.6435 34.7424 32.4545 34.6245 32.2184 34.5774C31.746 34.5066 31.2028 34.3888 30.5885 34.2472ZM28.2737 30.3797C28.2029 29.7664 28.132 29.0589 28.0376 28.3515C28.0376 28.21 27.9667 28.092 27.8958 27.9741L26.5495 26.2055C26.5022 26.1347 26.455 26.0639 26.3841 26.0875C26.3132 26.1347 26.3132 26.1818 26.3132 26.2526C26.1479 26.96 26.077 27.6911 26.077 28.4222C26.0535 29.3656 26.6676 30.2146 27.5651 30.4976C27.7068 30.5682 27.8723 30.6154 28.0139 30.6862C28.2502 30.8277 28.3211 30.7098 28.2737 30.3797ZM49.5559 25.9696C49.0834 26.5827 48.6819 27.1487 48.2331 27.6676C47.9968 27.927 47.8552 28.2571 47.8315 28.6109C47.7843 29.1061 47.7134 29.5778 47.6662 30.0967C47.5953 30.8512 47.5953 30.8512 48.3275 30.5447C49.1306 30.3089 49.7212 29.6249 49.8157 28.776C49.9102 27.8562 49.8157 26.8892 49.5559 25.9696Z" fill="#161718"/>
<path d="M13.6291 24.7904C13.7708 25.0026 13.8889 25.2148 14.007 25.4507C14.1015 25.7337 14.3849 25.8988 14.692 25.8751C15.0227 25.8751 15.377 25.9459 15.7077 25.9459C16.0383 25.9695 16.1092 26.0638 16.1565 26.3705C16.6052 30.0258 17.5737 33.5869 19.0618 36.9592C19.6051 38.2798 20.4082 39.4826 21.4239 40.4966C21.8726 40.9683 22.4868 41.2748 23.1481 41.3221C23.5733 41.4164 23.9984 41.1334 24.093 40.6853C24.2819 40.0722 24.3765 39.4354 24.3528 38.7751C24.4237 37.7846 24.3528 36.7705 24.1638 35.7801C24.1638 35.7093 24.1638 35.6621 24.1638 35.5914C24.3528 35.5914 24.3528 35.7801 24.3765 35.8744C24.896 37.4309 25.1559 39.0581 25.1322 40.6853C25.0613 43.303 23.3371 44.3643 21.0695 44.2227C19.4397 44.1285 17.928 43.3974 16.865 42.1946L16.7706 42.1003H16.6761C17.054 42.8314 17.5028 43.5153 18.0697 44.1048C19.3688 45.4727 20.9042 46.6282 22.5577 47.5245C27.447 50.3308 32.4547 52.9013 37.5094 55.3775C37.7456 55.4954 38.0291 55.4954 38.2653 55.3775C41.454 53.9861 44.5484 52.4297 47.5954 50.8024C49.8394 49.6232 52.0833 48.3734 54.2327 47.0527C56.1224 46.015 57.7522 44.5294 58.9805 42.7606C59.2167 42.4068 59.4057 42.0295 59.5474 41.6286C58.886 42.5013 58.0357 43.1852 57.0435 43.6567C55.8153 44.2464 54.4217 44.3878 53.0989 44.0577C51.7998 43.751 50.8313 42.6192 50.7606 41.2748C50.6425 39.4118 50.8786 37.5487 51.5164 35.7801C51.5164 35.6856 51.5636 35.5442 51.7526 35.4971C51.7054 35.7329 51.6817 35.9451 51.6345 36.181C51.4691 37.4781 51.4691 38.7751 51.6345 40.0486C51.7763 41.2513 52.3432 41.6286 53.5949 41.0626C54.2564 40.7088 54.8233 40.1901 55.2484 39.5768C56.4294 37.9025 57.3507 36.0631 57.9412 34.1056C58.7914 31.6059 59.382 29.0352 59.7127 26.4411C59.7127 26.1346 59.8545 25.993 60.1852 25.993C60.5158 25.993 60.9409 25.8751 61.2717 25.8988C61.6024 25.9224 61.9331 25.6865 62.0275 25.3564C62.0747 25.2385 62.1219 25.0969 62.2637 25.0261C62.3582 25.1205 62.3109 25.2148 62.3109 25.3091C62.3109 26.4648 62.3109 27.6202 62.3109 28.7759C62.3109 31.8889 61.9094 35.0019 61.1536 38.0204C60.9646 39.0581 60.7048 40.0957 60.3977 41.0863C59.6183 43.1144 58.2482 44.883 56.4766 46.1566C54.9177 47.2886 53.2643 48.3027 51.5636 49.1988C48.4221 50.9911 45.1861 52.6891 41.9265 54.2455C40.7218 54.8351 39.4699 55.354 38.2416 55.92C38.0291 56.0379 37.7692 56.0379 37.5566 55.92C34.1552 54.2928 30.8012 52.5476 27.4707 50.7789C25.5338 49.7648 23.6441 48.7271 21.7545 47.5951C20.0302 46.6518 18.5185 45.3784 17.2666 43.8455C16.3927 42.7135 15.7549 41.3928 15.4005 40.0014C14.999 38.5628 14.5266 37.1714 14.2432 35.7093C13.8889 33.8462 13.6527 31.9597 13.6054 30.0493C13.5346 28.4457 13.6054 26.842 13.6054 25.2148C13.511 25.1205 13.5346 24.9318 13.6291 24.7904Z" fill="#161718"/>
<path d="M59.8071 16.8901L59.1222 15.7109C58.2482 14.1072 57.1616 12.6215 55.839 11.348C54.5871 10.051 52.8864 9.2963 51.0912 9.20197C49.6268 9.17838 48.1859 9.55571 46.9339 10.2868C45.0444 11.4188 43.4381 12.9517 42.1862 14.7676C41.0052 16.4184 39.966 18.1635 39.0683 20.0031C39.0211 20.1681 38.9029 20.3332 38.7613 20.4275C38.6195 19.9558 38.5251 19.4842 38.4542 18.989C38.3834 18.6352 38.3597 18.2343 38.2416 17.9041C38.1 17.4089 38.1707 16.8901 38.4542 16.4655C39.3991 14.4374 40.6745 12.5743 42.2099 10.9471C43.9106 9.1548 46.1782 8.02282 48.6111 7.71623C50.666 7.45682 52.7683 8.06999 54.3508 9.39063C56.7129 11.3244 58.5553 13.8007 59.7127 16.6071C59.7364 16.6542 59.7364 16.7014 59.7599 16.7485C59.8071 16.7956 59.8545 16.8193 59.8071 16.8901Z" fill="#161718"/>
<path d="M15.684 16.8902C16.062 15.9467 16.5108 15.0271 17.054 14.1545C18.0697 12.4329 19.3688 10.9 20.8805 9.62654C22.9592 7.81065 25.8409 7.22108 28.4627 8.04648C30.6122 8.68322 32.5019 9.93312 33.9426 11.6547C35.3127 13.2583 36.4465 15.0506 37.2968 16.9608C37.3913 17.126 37.4149 17.3146 37.3677 17.5033C37.2024 18.3758 37.0371 19.2721 36.8953 20.1446C36.8953 20.2388 36.8953 20.3804 36.8008 20.4039C36.7062 20.4276 36.6355 20.2625 36.5883 20.1682C35.6433 18.1872 34.5095 16.3005 33.2341 14.5318C31.9585 12.6452 30.2343 11.1123 28.2029 10.051C25.3684 8.68322 22.6757 8.89547 20.1956 10.9472C19.4397 11.5839 18.7784 12.315 18.1878 13.0933C17.4083 14.1545 16.6996 15.2629 16.062 16.4421C15.9674 16.6543 15.8494 16.7957 15.684 16.8902Z" fill="#161718"/>
<path d="M14.7156 17.2203V23.5877C14.7156 23.7056 14.7156 23.847 14.7156 23.9649C14.692 24.1536 14.5266 24.2716 14.3377 24.2716C14.1723 24.2716 14.2432 24.0594 14.2196 23.9649C14.1015 22.1492 14.1723 20.3096 14.1487 18.4937C14.1487 16.4892 14.1487 14.5082 14.1487 12.5036C14.1487 10.8764 14.1487 9.2256 14.2196 7.59836C14.2196 7.31536 14.2432 7.05595 14.314 6.77295C14.3849 5.90038 15.1408 5.21647 16.0384 5.28723C17.1485 5.19289 18.2823 5.12214 19.3452 5.05139L26.0061 4.69765C27.3762 4.6269 28.7225 4.57973 30.0925 4.53256C33.5648 4.43823 37.0134 4.41465 40.4856 4.46182C43.1547 4.50899 45.8474 4.60332 48.5166 4.69765C50.7369 4.7684 52.9336 4.86273 55.154 4.98065C56.7838 5.00423 58.3899 5.14573 60.0197 5.33439C60.9882 5.35797 61.7441 6.13621 61.7441 7.10312C61.7441 7.17386 61.7441 7.24462 61.7204 7.29178C61.9094 12.5272 61.8857 17.7626 61.8385 23.0688C61.8385 23.3989 61.8385 23.7292 61.7913 24.0357C61.7913 24.1536 61.8622 24.3424 61.6969 24.3659C61.5078 24.3659 61.3425 24.2479 61.2953 24.0829C61.2716 23.9414 61.2716 23.7999 61.2953 23.6819C61.2953 19.555 61.2953 15.4515 61.2953 11.3481C61.2953 9.93308 61.2953 8.54169 61.1772 7.12671C61.1063 6.37204 60.8937 6.11263 60.1615 5.94756C59.1458 5.75888 58.1301 5.66456 57.0908 5.66456C53.8549 5.49947 50.5951 5.38156 47.3355 5.26364C45.9892 5.21647 44.6192 5.16932 43.2491 5.12214C39.8478 5.00423 36.4228 5.00423 33.0215 5.05139C29.4784 5.09856 25.9117 5.24006 22.3687 5.47589C20.4554 5.5938 18.5185 5.68814 16.6053 5.80606C16.3218 5.80606 16.0619 5.85321 15.7784 5.90038C15.3061 5.94756 14.9281 6.3013 14.8573 6.77295C14.7864 7.05595 14.7628 7.33895 14.7628 7.62195V17.2439H14.7156V17.2203Z" fill="#161718"/>
</g>
<defs>
<clipPath id="clip0_101_160">
<rect width="75.9637" height="80.3045" fill="white"/>
</clipPath>
</defs>
</svg>
