<svg width="70" height="70" viewBox="0 0 70 70" fill="none" xmlns="http://www.w3.org/2000/svg">
<g clip-path="url(#clip0_101_240)">
<path d="M64.939 52.589C68.1823 47.1958 69.8916 41.0195 69.8827 34.7263C69.8827 15.5472 54.3344 0 35.1561 0C15.9773 0 0.43021 15.5479 0.43021 34.7263C0.421292 41.0197 2.13107 47.1961 5.37506 52.589L5.24866 52.6902L5.39959 52.6319C11.4777 62.7103 22.5289 69.4525 35.1561 69.4525C47.784 69.4525 58.834 62.7103 64.9114 52.6319L65.0624 52.6902L64.939 52.589ZM65.6163 34.7263C65.6222 40.0443 64.2281 45.2702 61.5739 49.8786L40.0915 32.576L35.6856 4.28144C52.2621 4.56443 65.6163 18.0816 65.6163 34.7263ZM4.69965 34.7263C4.69965 18.0822 18.0525 4.56505 34.629 4.28144L30.2232 32.576L8.7408 49.8786C6.08751 45.2699 4.69378 40.0441 4.69965 34.7263ZM35.1573 65.1843C24.3495 65.1843 14.8629 59.5495 9.4571 51.0627L35.1573 41.1202L60.8576 51.0634C55.4512 59.5495 45.9666 65.1843 35.1573 65.1843Z" fill="#161718"/>
</g>
<defs>
<clipPath id="clip0_101_240">
<rect width="69.4525" height="69.4525" fill="white" transform="translate(0.430176)"/>
</clipPath>
</defs>
</svg>
