<svg width="51" height="63" viewBox="0 0 51 63" fill="none" xmlns="http://www.w3.org/2000/svg">
<g clip-path="url(#clip0_101_799)">
<mask id="mask0_101_799" style="mask-type:luminance" maskUnits="userSpaceOnUse" x="0" y="0" width="51" height="63">
<path d="M50.8018 0H0.882812V62.9413H50.8018V0Z" fill="white"/>
</mask>
<g mask="url(#mask0_101_799)">
<path fill-rule="evenodd" clip-rule="evenodd" d="M29.5422 9.5536H20.2631V27.5368C19.0886 28.0988 17.914 28.5484 16.622 28.8855C16.0347 29.1104 15.2125 29.2228 14.5078 29.3352V10.4528C14.5078 10.4528 14.6252 7.75527 13.0983 6.74371V6.40654H27.8978C28.6025 7.1933 29.1898 8.20486 29.5422 9.5536ZM32.2437 34.2805C39.0562 31.1334 42.2275 25.7385 42.3449 19.4443C42.3449 15.1734 40.818 12.5883 39.0562 11.2395C38.9387 11.1271 38.8212 11.1271 38.7038 11.0147C38.5863 10.5652 38.4689 10.0032 38.234 9.5536C37.8816 8.54203 37.4118 7.64288 36.9419 6.74371C37.2943 6.74371 37.6467 6.74371 37.8816 6.85611C42.8148 7.86767 46.6908 10.5652 48.5701 15.9602C50.0971 20.3435 49.3923 25.7385 46.1035 30.0096C45.2814 31.0212 43.2846 33.269 40.9355 34.8426C40.4656 35.1797 40.2307 35.2921 39.7609 35.5169C42.6973 40.0127 44.2242 42.5978 46.1035 47.5433C47.7479 51.8142 49.04 57.5464 49.1574 58.8951C49.5098 62.1546 50.5669 62.3794 50.8018 62.3794V62.9413H39.0562V62.6041C39.4085 62.3794 42.5799 61.143 42.5799 56.4224C42.5799 52.9382 41.7577 49.0044 40.1133 44.7333C39.4085 42.8227 37.9991 39.6756 36.5896 37.3153C36.0023 37.54 35.1801 37.8772 34.2404 38.1021C33.5357 36.7532 32.831 35.5169 32.2437 34.2805ZM20.2631 33.831V36.7532C21.2028 36.7532 23.9043 36.5285 26.4883 36.0789C27.0756 37.3153 27.5454 38.4392 27.8978 39.3383V39.4508C26.8407 39.5632 25.7836 39.7879 24.4916 39.9003C22.8472 40.1251 21.2028 40.2375 20.2631 40.2375V59.1199C20.2631 59.5694 20.3806 61.8173 21.9075 62.4918V62.9413H12.8634V62.6041C14.3903 61.8173 14.5078 59.5694 14.5078 59.2323V34.8426C16.3871 34.6177 18.5013 34.2805 20.2631 33.831ZM21.4377 3.25947H20.1457H8.40003V31.0212C9.57459 31.0212 13.9205 30.5715 16.7394 29.7847C26.2534 27.0873 30.7168 20.7932 30.8342 13.2626C30.8342 8.87922 29.3073 6.29413 27.428 4.833C26.2534 3.93383 24.8439 3.48426 23.7868 3.37186C23.317 3.25947 21.9075 3.25947 21.4377 3.25947ZM2.5272 53.9497V4.04624C2.5272 4.04624 2.64466 1.23635 1.11773 0.337186V0H21.2028C22.8472 0 25.0788 0.112395 26.4883 0.449581C31.5389 1.46114 35.5325 4.27102 37.4118 9.77839C38.9387 14.2742 38.234 19.7816 34.8277 24.1649C34.0055 25.1765 31.8913 27.4244 29.5422 29.1104C29.0724 29.4476 28.8374 29.5599 28.3676 29.8971C31.4215 34.5053 32.831 37.2029 34.8277 42.2606C36.4721 46.6441 37.7641 52.4885 37.9991 53.8374C38.4689 57.0967 39.4085 57.434 39.6434 57.5464V57.8835H27.5454V57.5464C27.8978 57.3216 31.1866 55.9729 31.1866 51.1398C31.1866 47.5433 30.2469 43.6094 28.6025 39.2259C27.8978 37.2029 26.3709 34.0558 25.0788 31.6955V31.5831C23.4345 32.2574 20.1457 33.269 17.914 33.6061C16.3871 33.9434 14.7427 34.1682 12.8634 34.2805C11.1015 34.5053 9.45713 34.6177 8.51748 34.6177V53.9497C8.51748 54.3993 8.63494 56.6472 10.1619 57.434V57.7712H0.882812V57.434C2.40975 56.6472 2.5272 54.2869 2.5272 53.9497Z" fill="white"/>
</g>
</g>
<defs>
<clipPath id="clip0_101_799">
<rect width="49.919" height="62.9413" fill="white" transform="translate(0.882812)"/>
</clipPath>
</defs>
</svg>
