<svg width="51" height="63" viewBox="0 0 51 63" fill="none" xmlns="http://www.w3.org/2000/svg">
<g clip-path="url(#clip0_101_234)">
<mask id="mask0_101_234" style="mask-type:luminance" maskUnits="userSpaceOnUse" x="0" y="0" width="51" height="63">
<path d="M50.8017 0H0.88269V62.9413H50.8017V0Z" fill="white"/>
</mask>
<g mask="url(#mask0_101_234)">
<path fill-rule="evenodd" clip-rule="evenodd" d="M29.5421 9.5536H20.263V27.5368C19.0884 28.0988 17.9139 28.5484 16.6219 28.8855C16.0346 29.1104 15.2124 29.2228 14.5076 29.3352V10.4528C14.5076 10.4528 14.6251 7.75527 13.0982 6.74371V6.40654H27.8977C28.6024 7.1933 29.1897 8.20486 29.5421 9.5536ZM32.2436 34.2805C39.056 31.1334 42.2274 25.7385 42.3448 19.4443C42.3448 15.1734 40.8179 12.5883 39.056 11.2395C38.9386 11.1271 38.8211 11.1271 38.7037 11.0147C38.5862 10.5652 38.4688 10.0032 38.2338 9.5536C37.8815 8.54203 37.4116 7.64288 36.9418 6.74371C37.2942 6.74371 37.6466 6.74371 37.8815 6.85611C42.8146 7.86767 46.6907 10.5652 48.57 15.9602C50.0969 20.3435 49.3922 25.7385 46.1034 30.0096C45.2812 31.0212 43.2845 33.269 40.9353 34.8426C40.4655 35.1797 40.2306 35.2921 39.7608 35.5169C42.6972 40.0127 44.2241 42.5978 46.1034 47.5433C47.7478 51.8142 49.0398 57.5464 49.1573 58.8951C49.5097 62.1546 50.5668 62.3794 50.8017 62.3794V62.9413H39.056V62.6041C39.4084 62.3794 42.5797 61.143 42.5797 56.4224C42.5797 52.9382 41.7575 49.0044 40.1131 44.7333C39.4084 42.8227 37.9989 39.6756 36.5895 37.3153C36.0022 37.54 35.18 37.8772 34.2403 38.1021C33.5356 36.7532 32.8308 35.5169 32.2436 34.2805ZM20.263 33.831V36.7532C21.2027 36.7532 23.9042 36.5285 26.4882 36.0789C27.0755 37.3153 27.5453 38.4392 27.8977 39.3383V39.4508C26.8406 39.5632 25.7835 39.7879 24.4914 39.9003C22.847 40.1251 21.2027 40.2375 20.263 40.2375V59.1199C20.263 59.5694 20.3805 61.8173 21.9074 62.4918V62.9413H12.8632V62.6041C14.3902 61.8173 14.5076 59.5694 14.5076 59.2323V34.8426C16.3869 34.6177 18.5012 34.2805 20.263 33.831ZM21.4376 3.25947H20.1455H8.3999V31.0212C9.57447 31.0212 13.9204 30.5715 16.7393 29.7847C26.2533 27.0873 30.7166 20.7932 30.8341 13.2626C30.8341 8.87922 29.3072 6.29413 27.4278 4.833C26.2533 3.93383 24.8438 3.48426 23.7867 3.37186C23.3169 3.25947 21.9074 3.25947 21.4376 3.25947ZM2.52708 53.9497V4.04624C2.52708 4.04624 2.64454 1.23635 1.1176 0.337186V0H21.2027C22.847 0 25.0787 0.112395 26.4882 0.449581C31.5388 1.46114 35.5323 4.27102 37.4116 9.77839C38.9386 14.2742 38.2338 19.7816 34.8276 24.1649C34.0054 25.1765 31.8912 27.4244 29.5421 29.1104C29.0722 29.4476 28.8373 29.5599 28.3675 29.8971C31.4214 34.5053 32.8308 37.2029 34.8276 42.2606C36.472 46.6441 37.764 52.4885 37.9989 53.8374C38.4688 57.0967 39.4084 57.434 39.6433 57.5464V57.8835H27.5453V57.5464C27.8977 57.3216 31.1865 55.9729 31.1865 51.1398C31.1865 47.5433 30.2468 43.6094 28.6024 39.2259C27.8977 37.2029 26.3707 34.0558 25.0787 31.6955V31.5831C23.4343 32.2574 20.1455 33.269 17.9139 33.6061C16.3869 33.9434 14.7426 34.1682 12.8632 34.2805C11.1014 34.5053 9.45701 34.6177 8.51736 34.6177V53.9497C8.51736 54.3993 8.63482 56.6472 10.1618 57.434V57.7712H0.88269V57.434C2.40962 56.6472 2.52708 54.2869 2.52708 53.9497Z" fill="#161718"/>
</g>
</g>
<defs>
<clipPath id="clip0_101_234">
<rect width="49.919" height="62.9413" fill="white" transform="translate(0.88269)"/>
</clipPath>
</defs>
</svg>
