<svg width="129" height="42" viewBox="0 0 129 42" fill="none" xmlns="http://www.w3.org/2000/svg">
<g clip-path="url(#clip0_101_778)">
<mask id="mask0_101_778" style="mask-type:luminance" maskUnits="userSpaceOnUse" x="0" y="0" width="129" height="42">
<path d="M128.855 0H0.801758V41.2374H128.855V0Z" fill="white"/>
</mask>
<g mask="url(#mask0_101_778)">
<path d="M66.3737 40.2435C67.0981 41.6453 69.2049 41.2475 69.5055 39.8384C70.3721 41.1353 72.3787 40.5298 72.57 39.1656C73.4092 40.1051 75.074 39.7289 75.4512 38.5124C75.4457 38.5303 75.4567 38.4946 75.4512 38.5124C81.6265 35.9046 86.1461 31.1868 87.9139 25.5546C88.2891 25.3935 88.6171 25.1353 88.8661 24.8051C90.776 25.2664 92.91 26.1891 93.6965 23.9976C95.3822 24.4589 98.9168 25.6668 99.9866 22.7297C102.458 23.0758 106.052 23.306 106.502 20.6532C108.636 20.6532 112.342 20.3071 112.342 17.7694C114.477 17.7694 118.183 16.2694 117.733 14.5393C119.643 14.3091 122.227 12.2327 122.227 10.8488C124.137 10.2724 126.272 8.77244 125.821 6.8121C126.944 6.11966 128.854 5.31215 128.854 4.15934C128.854 3.00653 127.955 2.08297 126.944 2.08297C125.933 2.08297 122.114 2.32063 120.766 2.32063C119.419 2.32063 103.131 2.08951 99.3122 2.32063C95.4934 2.55083 90.663 2.65937 88.3038 2.42919C86.5662 2.25701 80.6461 1.90892 77.0915 2.88488C69.563 -0.945961 60.0945 -0.946897 52.5642 2.88488C49.0105 1.90987 43.0895 2.25795 41.3508 2.42731C38.9916 2.65844 34.1623 2.54896 30.3424 2.31876C26.5236 2.08764 10.2356 2.31876 8.88788 2.31876C7.54019 2.31876 3.72129 2.08109 2.70984 2.08109C1.69839 2.08109 0.801758 3.00466 0.801758 4.15747C0.801758 5.3112 2.71167 6.11873 3.83519 6.81023C3.38505 8.77151 5.52002 10.2705 7.42903 10.8469C7.42903 12.2309 10.0123 14.3072 11.9222 14.5374C11.473 16.2685 15.1798 17.7675 17.3139 17.7675C17.3139 20.3042 21.0207 20.6515 23.1548 20.6515C23.604 23.3042 27.1987 23.074 29.67 22.7278C30.7397 25.666 34.2753 24.458 35.9601 23.9957C36.7464 26.188 38.8806 25.2645 40.7905 24.8032C41.0511 25.1514 41.3791 25.3928 41.7427 25.5527C43.5104 31.1857 48.031 35.9037 54.2054 38.5116C54.1999 38.4937 54.2099 38.5294 54.2054 38.5116C54.5826 39.7279 56.2474 40.1041 57.0866 39.1647C57.2779 40.529 59.2845 41.1334 60.1511 39.8375C60.4508 41.2466 62.5585 41.6443 63.282 40.2426C63.4541 41.5536 66.2014 41.5536 66.3737 40.2435Z" fill="white"/>
<path d="M45.3957 25.2665C46.0562 26.817 48.1439 26.4942 49.3941 26.0104C51.0616 28.6154 53.8353 30.7357 57.2506 32.0167L54.5378 36.7384C49.2647 34.3795 45.361 30.4307 43.6406 25.781C44.2496 25.712 44.843 25.5379 45.3957 25.2665Z" fill="#091920"/>
<path d="M54.1453 37.9642C48.3235 35.4396 44.0444 31.0231 42.2721 25.7286C42.5645 25.7942 42.868 25.8195 43.1714 25.8139C44.9073 30.63 48.9158 34.7228 54.3375 37.1529C54.2284 37.41 54.1633 37.6844 54.1453 37.9642ZM57.1915 38.1054C57.1907 38.1084 57.1886 38.1138 57.1886 38.1138C56.3258 40.2941 53.7662 39.0327 54.9243 36.9742L57.6825 32.1739C58.1884 32.3499 58.7068 32.507 59.237 32.6474C59.2481 32.7213 57.2215 38.0063 57.1915 38.1054ZM60.1083 38.7838C59.5743 40.965 57.0137 40.2997 57.616 38.258L59.8084 32.7877C60.3297 32.9094 60.8609 33.0123 61.4013 33.0957C61.4066 33.1162 60.1083 38.7838 60.1083 38.7838ZM63.1144 39.1283C62.9239 41.475 60.1182 41.0679 60.6212 38.7305C60.6212 38.7305 61.8742 33.177 61.8787 33.1649C62.4055 33.2332 62.9394 33.2855 63.4816 33.3173C63.5006 33.3678 63.1162 39.0814 63.1144 39.1283ZM63.6028 39.0926C63.6028 39.0926 63.9016 33.4119 63.9062 33.3979C64.4311 33.4203 65.2066 33.4362 65.7469 33.3801C65.7724 33.4287 66.1205 39.0337 66.1259 39.0795C66.2954 41.3767 63.4688 41.4236 63.6028 39.0926ZM2.64974 3.46133C2.90123 3.26389 3.44249 3.27419 4.12681 3.23488C7.60858 3.23488 15.6965 3.466 17.2693 3.466C18.842 3.466 29.9625 4.73485 31.703 5.31218C32.4893 5.54331 32.6578 6.3499 31.703 6.40791C30.7479 6.46593 18.8767 6.63997 17.1919 6.63997C15.8851 6.63997 9.08838 6.61658 5.16013 5.81653C3.03518 5.3833 1.89434 4.05271 2.64974 3.46133ZM6.4741 7.73289C8.49609 7.79091 18.6051 7.84892 19.7851 7.79091C20.9642 7.7329 30.1193 7.2145 31.1863 7.15648C33.4944 7.03204 34.2415 8.08754 31.8041 8.65645C30.5685 8.94558 19.1673 10.2715 10.5181 10.0984C8.88882 10.1564 6.69918 9.29087 6.13696 8.48334C5.57564 7.67581 6.19346 7.73289 6.4741 7.73289ZM10.406 11.5403C11.8102 11.5403 28.3779 10.2715 31.8605 9.522C34.8894 9.04852 34.2061 10.6467 32.9832 10.9059C31.9553 11.124 19.6722 13.5587 13.4385 13.6738C11.36 13.6167 8.94532 11.5974 10.406 11.5403ZM14.6176 15.1157C16.5841 14.8846 29.67 12.7512 33.2083 11.7705C36.4085 10.919 35.7624 13.103 34.6124 13.4436C33.5882 13.7468 22.4359 16.5343 19.8972 16.6738C18.8208 16.7318 17.7414 16.6571 16.6825 16.4511C13.0959 15.7145 14.6176 15.1157 14.6176 15.1157ZM19.8972 18.1147C21.3015 17.8265 32.7025 15.1729 35.9601 13.9049C37.5474 13.3369 38.0249 14.938 37.0271 15.4039C36.4094 15.6922 27.648 19.4406 23.4919 19.6717C21.9757 19.6717 19.171 18.8334 19.8972 18.1147ZM38.4869 15.6922C37.1957 16.3266 29.3328 19.7297 26.2994 20.4222C25.8785 20.5373 25.4337 20.7281 25.4693 20.9686C25.739 22.8102 31.3212 21.2437 31.7085 21.1165C33.8551 20.41 38.2317 18.7604 40.0879 16.9029C39.6387 16.6727 38.5999 15.9232 38.4869 15.6922ZM40.8461 17.6534C40.0041 18.2299 34.4994 21.1726 31.9726 21.9792C30.6523 22.4312 32.0418 23.8254 34.6206 23.0703C37.4709 22.6165 41.6324 19.1533 42.3068 18.519C41.9695 18.3458 41.2396 17.8845 40.8461 17.6534ZM43.4302 19.2113C42.4125 19.9262 40.4533 21.2625 39.2095 22.1149C38.6964 22.4667 37.4719 23.162 37.4982 23.7178C37.5111 23.9835 38.003 24.488 40.2511 23.6495C41.6488 23.0619 43.3409 21.867 44.7779 19.7308C44.4972 19.6427 43.7664 19.3835 43.4302 19.2113ZM45.957 20.076C45.4304 20.6168 44.7498 21.3561 44.0836 22.0373C43.4703 22.8495 42.1035 23.4343 42.5738 24.3728C43.0831 25.389 44.6868 23.9265 45.2645 23.3669C46.0809 22.5744 46.8692 21.5273 47.1654 20.4792C46.7717 20.3642 46.3224 20.249 45.957 20.076Z" fill="#091920"/>
<path d="M26.4123 3.00469C27.873 3.00469 32.8145 3.35091 34.6123 3.35091C39.7771 3.35091 46.7661 2.41518 51.5701 3.42858C54.5561 4.05832 54.9843 4.94631 54.9843 5.90075C54.9843 7.14245 53.9737 7.88822 53.2575 8.42719C52.4157 9.06161 49.8314 10.6186 49.7194 14.6563C49.0459 14.3681 48.091 14.195 48.7653 12.753C49.9417 10.3361 52.5869 7.39229 48.0628 6.13842C47.3492 5.94098 46.47 5.81185 45.3957 5.77443C42.0824 5.65933 37.2776 5.63408 35.6483 5.34587C34.0199 5.05766 27.8721 3.58297 26.5808 3.41079C26.0186 3.34998 26.0186 3.06177 26.4123 3.00469Z" fill="#091920"/>
<path d="M39.3963 6.5118C40.5754 6.5118 44.1867 6.48652 45.3977 6.54548C48.7473 6.70924 51.1392 8.38511 48.7199 11.5301C48.2461 12.1448 46.9794 13.4333 46.4737 13.8946C46.0245 14.2409 45.1816 13.6635 45.9115 12.7989C44.9566 13.3753 43.7775 13.2602 44.3388 11.9343C43.4959 12.6267 42.0927 12.6838 42.9346 10.8966C42.3732 11.3579 40.8005 11.3008 41.8111 9.91595C40.9691 10.2042 40.0142 9.68483 40.632 8.82021C39.565 8.99426 38.9471 8.1858 40.0706 7.55232C39.0036 7.83771 38.723 6.56887 39.3963 6.5118ZM36.1014 5.89889C35.6467 5.86895 33.6739 5.53958 33.7213 6.63156C33.7686 7.72449 35.9601 7.31183 36.4103 7.22575C37.2395 7.06762 37.9019 6.80748 37.8829 6.45471C37.8637 6.09259 36.9999 5.9569 36.1014 5.89889ZM36.1816 7.77128C35.7022 7.8087 33.9792 7.72167 34.248 8.72103C34.3327 9.03544 34.9659 9.67172 37.0846 9.14304C38.0132 8.91098 38.4943 8.40007 38.4943 7.99397C38.4943 7.63933 37.2459 7.68799 36.1816 7.77128ZM37.542 9.39382C37.2012 9.45183 35.2258 9.59032 35.5565 10.6131C35.7879 11.3261 36.1433 11.1006 36.7456 11.1745C37.1428 11.2231 40.0861 10.3717 39.626 9.40223C39.4893 9.11404 38.6236 9.21135 37.542 9.39382ZM38.5188 10.8432C36.5598 11.6601 36.5852 12.2131 36.6746 12.5116C36.7629 12.8111 37.6615 13.1807 39.5203 12.2478C40.4615 11.7752 40.4734 11.2381 40.2419 10.8582C39.9532 10.3819 39.2224 10.5494 38.5188 10.8432ZM39.8902 12.2169C37.8509 12.9468 37.9676 13.613 38.1289 14.0041C38.3065 14.4364 38.9508 14.8967 40.6528 13.7833C41.6807 13.1114 42.3495 12.5481 42.1664 12.1009C42.0005 11.6948 41.0284 11.8005 39.8902 12.2169ZM40.6884 14.3148C40.1536 14.6479 39.9103 15.0989 40.2474 15.6126C40.8506 16.5334 42.6293 14.9089 43.0759 14.4121C43.4075 14.0434 43.6198 13.656 43.432 13.3725C43.238 13.0806 42.6348 13.103 40.6884 14.3148ZM43.9087 14.471C41.534 15.7145 41.7618 16.3172 42.0927 16.5745C42.4581 16.859 43.3192 17.1576 44.7589 15.4489C45.3904 14.7003 45.0431 13.8806 43.9087 14.471ZM45.0942 15.7754C44.593 16.3509 43.4185 17.2182 44.3278 17.8649C45.0942 18.4096 45.5434 17.8116 45.9206 17.4411C48.1021 15.2861 47.3804 13.9218 45.0942 15.7754Z" fill="#091920"/>
<path d="M52.2598 4.47939C53.9273 5.33558 54.6172 6.2451 52.905 7.48773C52.6953 7.63932 52.9541 8.01641 53.1638 7.86483C55.0481 6.49868 54.6426 5.08106 52.4613 4.06674C52.2317 3.94884 52.0311 4.36149 52.2598 4.47939Z" fill="white"/>
<path d="M75.1478 24.0014C75.1478 22.1617 73.3025 20.3221 71.2532 19.6876C70.7056 19.5604 70.7921 19.0608 71.2185 18.8633C71.6286 18.6724 74.0207 16.9601 73.9869 14.8032C73.9869 12.71 71.5941 9.53792 64.6232 9.53792C60.5228 9.53792 57.1058 10.4895 55.0554 12.2665C55.5329 12.6473 56.0806 13.2181 56.0806 13.8525V25.462C56.0122 26.16 55.6705 26.7308 55.1229 27.3653C56.9636 28.7071 60.2594 29.9871 64.9914 29.9712C70.0486 29.844 75.1478 28.3151 75.1478 24.0014Z" fill="#091920"/>
<path d="M64.9695 18.4132C67.1446 18.4132 68.9079 16.967 68.9079 15.1832C68.9079 13.3992 67.1446 11.953 64.9695 11.953C62.7945 11.953 61.0312 13.3992 61.0312 15.1832C61.0312 16.967 62.7945 18.4132 64.9695 18.4132Z" fill="white"/>
<path d="M65.4771 27.3475C67.9153 27.3475 69.892 25.821 69.892 23.9377C69.892 22.0545 67.9153 20.528 65.4771 20.528C63.0389 20.528 61.0623 22.0545 61.0623 23.9377C61.0623 25.821 63.0389 27.3475 65.4771 27.3475Z" fill="white"/>
<path d="M47.8605 18.3674C48.0146 17.5804 48.2615 16.8159 48.5913 16.0814C48.5722 16.0524 47.9881 15.2851 46.5493 17.4205C45.7548 18.5985 47.158 19.0729 47.8605 18.3674ZM47.8141 21.9943C47.2217 22.7008 46.6632 23.294 46.2942 23.7675C45.5232 24.7575 47.5289 25.9777 48.6096 24.5703C48.2351 23.7513 47.9676 22.8852 47.8141 21.9943ZM75.4567 3.53994C75.7744 3.35506 76.109 3.20214 76.4554 3.08331C69.2641 -0.39758 60.3915 -0.39758 53.2012 3.08331C53.5748 3.21618 53.9101 3.36777 54.199 3.53994C60.8582 0.561535 68.8559 0.587735 75.4567 3.53994Z" fill="#091920"/>
<path d="M78.7672 12.6978C77.9598 9.81391 75.9442 8.64053 75.1623 8.0791C73.5905 6.95155 73.6761 5.28503 75.0194 3.8487C68.6017 1.07054 60.9792 1.10235 54.6372 3.8487C55.9804 5.28503 56.0651 6.95155 54.4942 8.0791C53.7124 8.64053 51.6958 9.81391 50.8894 12.6978C57.7444 5.44317 71.912 5.44223 78.7672 12.6978ZM84.2608 25.2665C83.5994 26.8168 81.5117 26.494 80.2624 26.0104C78.5949 28.6154 75.8212 30.7357 72.405 32.0167L75.1187 36.7384C80.3918 34.3793 84.2946 30.4307 86.0167 25.781C85.4074 25.7121 84.8138 25.5382 84.2608 25.2665Z" fill="#091920"/>
<path d="M75.5114 37.9642C81.3332 35.4396 85.6131 31.0231 87.3846 25.7286C87.089 25.7927 86.7872 25.8212 86.4852 25.8139C84.7494 30.63 80.7408 34.7228 75.3191 37.1529C75.4283 37.41 75.4934 37.6844 75.5114 37.9642ZM72.4643 38.1054L72.4679 38.1138C73.3309 40.2941 75.8905 39.0327 74.7323 36.9742L71.9741 32.1739C71.4683 32.3499 70.9507 32.507 70.4195 32.6474C70.4086 32.7213 72.4351 38.0063 72.4643 38.1054ZM69.5475 38.7838C70.0824 40.965 72.6419 40.2997 72.0396 38.258C72.0396 38.258 69.9621 33.0712 69.8473 32.7877C69.327 32.9094 68.7957 33.0123 68.2554 33.0957C68.2499 33.1161 69.5475 38.7838 69.5475 38.7838ZM66.5423 39.1283C66.7327 41.475 69.5374 41.0679 69.0344 38.7305C69.0344 38.7305 67.7825 33.177 67.777 33.1649C67.2503 33.2332 66.7155 33.2855 66.1742 33.3173C66.1559 33.3678 66.5405 39.0814 66.5423 39.1283ZM127.007 3.46133C126.755 3.26389 126.214 3.27419 125.53 3.23488C122.048 3.23488 113.96 3.466 112.387 3.466C110.815 3.466 99.6942 4.73485 97.9537 5.31218C97.1674 5.54331 96.9988 6.3499 97.9537 6.40791C98.9086 6.46593 110.779 6.63997 112.464 6.63997C113.772 6.63997 120.568 6.61658 124.496 5.81653C126.622 5.3833 127.763 4.0527 127.007 3.46133ZM123.182 7.73289C121.16 7.79091 111.051 7.84892 109.871 7.79091C108.692 7.73289 99.5374 7.2145 98.4704 7.15648C96.1623 7.03204 95.4141 8.08754 97.8526 8.65645C99.0873 8.94558 110.489 10.2715 119.138 10.0984C120.766 10.1564 122.957 9.29087 123.519 8.48334C124.081 7.67581 123.463 7.73289 123.182 7.73289ZM119.251 11.5403C117.846 11.5403 101.279 10.2715 97.796 9.522C94.7671 9.04852 95.4506 10.6467 96.6735 10.9059C97.7013 11.124 109.984 13.5587 116.218 13.6738C118.296 13.6167 120.71 11.5974 119.251 11.5403ZM115.039 15.1157C113.073 14.8846 99.9866 12.7512 96.4492 11.7705C93.2491 10.919 93.8943 13.103 95.0451 13.4436C96.0683 13.7468 107.221 16.5343 109.759 16.6738C110.836 16.7318 111.915 16.6571 112.974 16.4511C116.561 15.7145 115.039 15.1157 115.039 15.1157ZM109.759 18.1147C108.355 17.8265 96.9541 15.1729 93.6965 13.9049C92.11 13.3369 91.6318 14.938 92.6295 15.4039C93.2473 15.6922 102.009 19.4406 106.165 19.6717C107.681 19.6717 110.486 18.8334 109.759 18.1147ZM91.1688 15.6922C92.4599 16.3266 100.324 19.7297 103.356 20.4222C103.777 20.5373 104.222 20.7281 104.186 20.9686C103.917 22.8102 98.3346 21.2437 97.9473 21.1165C95.8014 20.41 91.4239 18.7604 89.5677 16.9029C90.018 16.6727 91.0567 15.9232 91.1688 15.6922ZM88.8097 17.6534C89.6516 18.2299 95.1563 21.1726 97.683 21.9792C99.0034 22.4312 97.6138 23.8254 95.0351 23.0703C92.1848 22.6165 88.0233 19.1533 87.349 18.519C87.687 18.3458 88.4169 17.8845 88.8097 17.6534ZM86.2273 19.2113C87.2442 19.9262 89.2043 21.2625 90.448 22.1149C90.961 22.4667 92.1857 23.162 92.1593 23.7178C92.1465 23.9835 91.6545 24.488 89.4065 23.6495C88.0088 23.0619 86.3165 21.867 84.8796 19.7308C85.1593 19.6427 85.8892 19.3835 86.2273 19.2113ZM83.6987 20.076C84.2254 20.6168 84.9069 21.3561 85.5731 22.0373C86.1871 22.8495 87.554 23.4343 87.0829 24.3728C86.5735 25.389 84.9697 23.9265 84.393 23.3669C83.5765 22.5744 82.7875 21.5273 82.4913 20.4792C82.885 20.3642 83.3342 20.249 83.6987 20.076Z" fill="#091920"/>
<path d="M103.244 3.00469C101.783 3.00469 96.842 3.35091 95.0442 3.35091C89.8784 3.35091 82.8894 2.41518 78.0864 3.42858C75.1004 4.05832 74.6721 4.94631 74.6721 5.90075C74.6721 7.14245 75.6817 7.88822 76.398 8.42719C77.2408 9.06161 79.8251 10.6186 79.937 14.6563C80.6105 14.3681 81.5654 14.195 80.8921 12.753C79.7147 10.3361 77.0704 7.39229 81.5946 6.13842C82.3081 5.94098 83.1874 5.81185 84.2627 5.77443C87.5759 5.65933 92.3807 5.63408 94.009 5.34587C95.6374 5.05766 101.785 3.58297 103.077 3.41079C103.638 3.34998 103.638 3.06177 103.244 3.00469Z" fill="#091920"/>
<path d="M90.2594 6.5118C89.0803 6.5118 85.469 6.48652 84.258 6.54548C80.9084 6.70924 78.5165 8.38511 80.9358 11.5301C81.4096 12.1448 82.6761 13.4333 83.1819 13.8946C83.6312 14.2409 84.4741 13.6635 83.7433 12.7989C84.6991 13.3753 85.8782 13.2602 85.3169 11.9343C86.1589 12.6267 87.563 12.6838 86.7211 10.8966C87.2823 11.3579 88.8551 11.3008 87.8437 9.91595C88.6866 10.2042 89.6415 9.68483 89.0228 8.82021C90.0907 8.99426 90.7085 8.1858 89.5841 7.55232C90.6529 7.83771 90.9336 6.56887 90.2594 6.5118ZM93.5551 5.89889C94.0099 5.86895 95.9826 5.53958 95.9353 6.63156C95.8879 7.72449 93.6964 7.31183 93.2463 7.22575C92.4171 7.06762 91.7546 6.80748 91.7737 6.45471C91.7929 6.09259 92.6567 5.9569 93.5551 5.89889ZM93.4759 7.77128C93.9543 7.8087 95.6783 7.72167 95.4086 8.72103C95.3239 9.03544 94.6915 9.67172 92.5729 9.14304C91.6434 8.91098 91.1632 8.40007 91.1632 7.99397C91.1632 7.63933 92.4107 7.68799 93.4759 7.77128ZM92.1136 9.39382C92.4545 9.45183 94.4299 9.59032 94.0992 10.6131C93.8677 11.3261 93.5124 11.1006 92.9101 11.1745C92.5127 11.2231 89.5696 10.3717 90.0297 9.40223C90.1672 9.11404 91.0329 9.21135 92.1136 9.39382ZM91.1378 10.8432C93.0959 11.6601 93.0705 12.2131 92.982 12.5116C92.8927 12.8111 91.9953 13.1807 90.1363 12.2478C89.1951 11.7752 89.1823 11.2381 89.4137 10.8582C89.7036 10.3819 90.4342 10.5494 91.1378 10.8432ZM89.7655 12.2169C91.8048 12.9468 91.6881 13.613 91.5268 14.0041C91.3492 14.4364 90.7049 14.8967 89.0018 13.7833C87.974 13.1114 87.3051 12.5481 87.4893 12.1009C87.6561 11.6948 88.6273 11.8005 89.7655 12.2169ZM88.9673 14.3148C89.5021 14.6479 89.7454 15.0989 89.4083 15.6126C88.806 16.5334 87.0264 14.9089 86.5798 14.4121C86.2491 14.0434 86.0359 13.656 86.2235 13.3725C86.4177 13.0806 87.0217 13.103 88.9673 14.3148ZM85.7479 14.471C88.1226 15.7145 87.8947 16.3172 87.5639 16.5745C87.1985 16.859 86.3374 17.1576 84.8977 15.4489C84.2662 14.7003 84.6135 13.8806 85.7479 14.471ZM84.5615 15.7754C85.0627 16.3509 86.2372 17.2182 85.3288 17.8649C84.5615 18.4096 84.1123 17.8116 83.736 17.4411C81.5545 15.2861 82.2762 13.9218 84.5615 15.7754Z" fill="#091920"/>
<path d="M77.3968 4.47939C75.7292 5.33558 75.0394 6.2451 76.7525 7.48773C76.9612 7.63932 76.7024 8.01641 76.4928 7.86483C74.6094 6.49868 75.0148 5.08106 77.1962 4.06674C77.425 3.94884 77.6255 4.36149 77.3968 4.47939Z" fill="white"/>
<path d="M81.796 18.3674C81.641 17.5804 81.395 16.8159 81.0643 16.0814C81.0834 16.0524 81.6675 15.2851 83.1063 17.4205C83.9017 18.5985 82.4985 19.0729 81.796 18.3674ZM81.8416 21.9943C82.4337 22.7008 82.9933 23.294 83.3623 23.7675C84.1333 24.7575 82.1276 25.9777 81.0469 24.5703C81.4214 23.746 81.6912 22.8832 81.8416 21.9943Z" fill="#091920"/>
</g>
</g>
<defs>
<clipPath id="clip0_101_778">
<rect width="128.053" height="41.2374" fill="white" transform="translate(0.801758)"/>
</clipPath>
</defs>
</svg>
