<svg width="129" height="42" viewBox="0 0 129 42" fill="none" xmlns="http://www.w3.org/2000/svg">
<g clip-path="url(#clip0_101_213)">
<mask id="mask0_101_213" style="mask-type:luminance" maskUnits="userSpaceOnUse" x="0" y="0" width="129" height="42">
<path d="M128.855 0H0.801697V41.2374H128.855V0Z" fill="white"/>
</mask>
<g mask="url(#mask0_101_213)">
<path d="M66.3736 40.2435C67.098 41.6453 69.2048 41.2475 69.5054 39.8383C70.372 41.1352 72.3786 40.5298 72.5699 39.1656C73.4091 40.105 75.074 39.7289 75.4511 38.5124C75.4456 38.5302 75.4566 38.4946 75.4511 38.5124C81.6264 35.9046 86.1461 31.1867 87.9138 25.5546C88.289 25.3934 88.6171 25.1353 88.866 24.8051C90.7759 25.2663 92.91 26.189 93.6964 23.9976C95.3821 24.4588 98.9167 25.6668 99.9865 22.7297C102.458 23.0758 106.052 23.3059 106.502 20.6532C108.636 20.6532 112.342 20.3071 112.342 17.7694C114.477 17.7694 118.183 16.2694 117.733 14.5392C119.643 14.3091 122.227 12.2327 122.227 10.8488C124.136 10.2724 126.272 8.77239 125.821 6.81205C126.944 6.11962 128.854 5.3121 128.854 4.15929C128.854 3.00649 127.955 2.08293 126.944 2.08293C125.932 2.08293 122.114 2.32059 120.766 2.32059C119.419 2.32059 103.131 2.08947 99.3122 2.32059C95.4934 2.55078 90.6629 2.65932 88.3038 2.42915C86.5661 2.25697 80.6461 1.90888 77.0914 2.88484C69.5629 -0.946007 60.0944 -0.946943 52.5642 2.88484C49.0104 1.90982 43.0894 2.25791 41.3507 2.42726C38.9916 2.6584 34.1622 2.54891 30.3423 2.31872C26.5235 2.0876 10.2355 2.31872 8.88782 2.31872C7.54013 2.31872 3.72123 2.08104 2.70978 2.08104C1.69833 2.08104 0.801697 3.00461 0.801697 4.15742C0.801697 5.31116 2.71161 6.11869 3.83512 6.81018C3.38499 8.77146 5.51996 10.2705 7.42896 10.8469C7.42896 12.2308 10.0123 14.3072 11.9222 14.5374C11.4729 16.2685 15.1798 17.7675 17.3138 17.7675C17.3138 20.3042 21.0207 20.6514 23.1547 20.6514C23.6039 23.3042 27.1986 23.074 29.6699 22.7277C30.7396 25.6659 34.2752 24.4579 35.96 23.9956C36.7463 26.188 38.8805 25.2644 40.7904 24.8032C41.051 25.1513 41.379 25.3927 41.7426 25.5527C43.5104 31.1857 48.0309 35.9037 54.2053 38.5115C54.1998 38.4937 54.2098 38.5293 54.2053 38.5115C54.5825 39.7279 56.2473 40.104 57.0865 39.1647C57.2779 40.5289 59.2844 41.1333 60.151 39.8374C60.4507 41.2466 62.5584 41.6442 63.2819 40.2426C63.454 41.5535 66.2014 41.5535 66.3736 40.2435Z" fill="#161718"/>
<path d="M45.3958 25.2664C46.0563 26.8169 48.144 26.4941 49.3941 26.0103C51.0617 28.6153 53.8353 30.7356 57.2506 32.0166L54.5379 36.7383C49.2647 34.3794 45.3611 30.4306 43.6407 25.7809C44.2497 25.7119 44.843 25.5378 45.3958 25.2664Z" fill="#E2E2E2"/>
<path d="M54.1452 37.9642C48.3234 35.4396 44.0443 31.023 42.272 25.7286C42.5644 25.7941 42.8679 25.8195 43.1713 25.8139C44.9072 30.63 48.9157 34.7228 54.3374 37.1528C54.2283 37.41 54.1632 37.6844 54.1452 37.9642ZM57.1913 38.1054C57.1906 38.1084 57.1885 38.1138 57.1885 38.1138C56.3257 40.2941 53.7661 39.0327 54.9242 36.9742L57.6824 32.1739C58.1882 32.3499 58.7067 32.507 59.2369 32.6474C59.2479 32.7213 57.2214 38.0063 57.1913 38.1054ZM60.1081 38.7838C59.5742 40.9649 57.0136 40.2997 57.6159 38.258L59.8082 32.7877C60.3295 32.9094 60.8608 33.0123 61.4012 33.0957C61.4065 33.1161 60.1081 38.7838 60.1081 38.7838ZM63.1143 39.1283C62.9238 41.475 60.1181 41.0679 60.6211 38.7305C60.6211 38.7305 61.8741 33.177 61.8785 33.1649C62.4053 33.2332 62.9393 33.2855 63.4814 33.3173C63.5005 33.3678 63.116 39.0814 63.1143 39.1283ZM63.6026 39.0926C63.6026 39.0926 63.9015 33.4119 63.9061 33.3979C64.431 33.4203 65.2064 33.4362 65.7468 33.3801C65.7722 33.4287 66.1204 39.0337 66.1257 39.0795C66.2953 41.3767 63.4686 41.4236 63.6026 39.0926ZM2.64961 3.46132C2.9011 3.26388 3.44237 3.27417 4.12669 3.23486C7.60845 3.23486 15.6963 3.46598 17.2692 3.46598C18.8418 3.46598 29.9623 4.73483 31.7028 5.31217C32.4892 5.54329 32.6577 6.34988 31.7028 6.40789C30.7478 6.46592 18.8765 6.63996 17.1917 6.63996C15.885 6.63996 9.08826 6.61657 5.16 5.81652C3.03505 5.38329 1.89422 4.05269 2.64961 3.46132ZM6.47398 7.73288C8.49597 7.79089 18.6049 7.8489 19.785 7.79089C20.9641 7.73288 30.1191 7.21448 31.1861 7.15647C33.4942 7.03202 34.2414 8.08752 31.8039 8.65644C30.5684 8.94557 19.1672 10.2715 10.518 10.0984C8.8887 10.1564 6.69905 9.29086 6.13684 8.48333C5.57552 7.6758 6.19333 7.73288 6.47398 7.73288ZM10.4059 11.5403C11.8101 11.5403 28.3778 10.2715 31.8604 9.52198C34.8893 9.0485 34.206 10.6467 32.9831 10.9059C31.9552 11.1239 19.6721 13.5587 13.4384 13.6738C11.3599 13.6167 8.94519 11.5974 10.4059 11.5403ZM14.6175 15.1157C16.5839 14.8846 29.6699 12.7512 33.2082 11.7705C36.4083 10.919 35.7623 13.103 34.6123 13.4436C33.588 13.7468 22.4358 16.5343 19.8971 16.6737C18.8207 16.7318 17.7413 16.6571 16.6824 16.4511C13.0958 15.7145 14.6175 15.1157 14.6175 15.1157ZM19.8971 18.1147C21.3013 17.8265 32.7024 15.1728 35.96 13.9049C37.5473 13.3369 38.0248 14.9379 37.027 15.4039C36.4092 15.6921 27.6479 19.4406 23.4918 19.6717C21.9756 19.6717 19.1709 18.8334 19.8971 18.1147ZM38.4868 15.6921C37.1956 16.3266 29.3327 19.7297 26.2993 20.4222C25.8784 20.5372 25.4336 20.7281 25.4692 20.9686C25.7388 22.8102 31.3211 21.2437 31.7083 21.1165C33.855 20.41 38.2316 18.7604 40.0878 16.9029C39.6385 16.6727 38.5998 15.9232 38.4868 15.6921ZM40.846 17.6534C40.0039 18.2299 34.4993 21.1726 31.9725 21.9792C30.6522 22.4312 32.0417 23.8253 34.6205 23.0703C37.4707 22.6165 41.6323 19.1533 42.3067 18.519C41.9694 18.3458 41.2395 17.8845 40.846 17.6534ZM43.4301 19.2113C42.4124 19.9262 40.4532 21.2624 39.2094 22.1149C38.6963 22.4667 37.4718 23.162 37.4981 23.7178C37.5109 23.9835 38.0029 24.4879 40.251 23.6495C41.6487 23.0619 43.3408 21.867 44.7778 19.7308C44.4971 19.6427 43.7663 19.3835 43.4301 19.2113ZM45.9569 20.076C45.4303 20.6168 44.7497 21.3561 44.0835 22.0373C43.4702 22.8495 42.1034 23.4343 42.5736 24.3728C43.083 25.389 44.6867 23.9265 45.2644 23.3669C46.0808 22.5744 46.8691 21.5272 47.1652 20.4792C46.7715 20.3642 46.3223 20.249 45.9569 20.076Z" fill="#E2E2E2"/>
<path d="M26.4123 3.0046C27.873 3.0046 32.8145 3.35081 34.6123 3.35081C39.7772 3.35081 46.7662 2.41509 51.5701 3.42849C54.5561 4.05823 54.9844 4.94622 54.9844 5.90066C54.9844 7.14236 53.9738 7.88812 53.2576 8.4271C52.4157 9.06152 49.8314 10.6186 49.7195 14.6562C49.046 14.368 48.0911 14.1949 48.7653 12.7529C49.9418 10.336 52.587 7.3922 48.0628 6.13833C47.3493 5.94089 46.47 5.81176 45.3957 5.77434C42.0824 5.65924 37.2776 5.63398 35.6484 5.34578C34.02 5.05757 27.8721 3.58288 26.5809 3.4107C26.0186 3.34989 26.0186 3.06168 26.4123 3.0046Z" fill="#E2E2E2"/>
<path d="M39.3962 6.51172C40.5753 6.51172 44.1865 6.48645 45.3975 6.5454C48.7472 6.70916 51.1391 8.38503 48.7198 11.53C48.246 12.1448 46.9793 13.4332 46.4736 13.8946C46.0244 14.2408 45.1815 13.6634 45.9114 12.7988C44.9565 13.3752 43.7774 13.2601 44.3387 11.9342C43.4958 12.6267 42.0926 12.6837 42.9344 10.8965C42.3731 11.3578 40.8004 11.3007 41.811 9.91587C40.969 10.2041 40.0141 9.68475 40.6319 8.82013C39.5649 8.99419 38.9469 8.18573 40.0705 7.55224C39.0035 7.83764 38.7228 6.56879 39.3962 6.51172ZM36.1013 5.89882C35.6466 5.86887 33.6738 5.5395 33.7212 6.63149C33.7685 7.72441 35.96 7.31176 36.4101 7.22567C37.2394 7.06754 37.9018 6.80741 37.8827 6.45464C37.8635 6.09251 36.9998 5.95683 36.1013 5.89882ZM36.1814 7.7712C35.7021 7.80862 33.9791 7.7216 34.2478 8.72096C34.3326 9.03536 34.9658 9.67164 37.0845 9.14296C38.013 8.9109 38.4941 8.4 38.4941 7.9939C38.4941 7.63926 37.2458 7.68792 36.1814 7.7712ZM37.5419 9.39375C37.2011 9.45176 35.2256 9.59024 35.5564 10.613C35.7877 11.326 36.1432 11.1005 36.7455 11.1744C37.1427 11.2231 40.086 10.3716 39.6259 9.40216C39.4892 9.11397 38.6235 9.21127 37.5419 9.39375ZM38.5187 10.8432C36.5596 11.6601 36.5851 12.2131 36.6744 12.5116C36.7627 12.811 37.6613 13.1806 39.5202 12.2477C40.4614 11.7751 40.4733 11.238 40.2418 10.8581C39.953 10.3819 39.2222 10.5494 38.5187 10.8432ZM39.8901 12.2168C37.8507 12.9467 37.9675 13.6129 38.1287 14.004C38.3064 14.4363 38.9507 14.8966 40.6527 13.7832C41.6806 13.1114 42.3494 12.5481 42.1663 12.1008C42.0004 11.6947 41.0282 11.8004 39.8901 12.2168ZM40.6883 14.3147C40.1535 14.6478 39.9102 15.0989 40.2473 15.6126C40.8505 16.5333 42.6292 14.9089 43.0757 14.412C43.4073 14.0433 43.6197 13.6559 43.4319 13.3724C43.2379 13.0805 42.6347 13.1029 40.6883 14.3147ZM43.9085 14.471C41.5339 15.7145 41.7617 16.3171 42.0926 16.5744C42.458 16.859 43.3191 17.1575 44.7588 15.4488C45.3902 14.7002 45.043 13.8805 43.9085 14.471ZM45.0941 15.7753C44.5929 16.3509 43.4184 17.2182 44.3277 17.8649C45.0941 18.4095 45.5433 17.8115 45.9205 17.441C48.102 15.286 47.3803 13.9217 45.0941 15.7753Z" fill="#E2E2E2"/>
<path d="M52.2598 4.47939C53.9273 5.33558 54.6172 6.2451 52.905 7.48773C52.6953 7.63932 52.9541 8.01641 53.1638 7.86483C55.0481 6.49868 54.6426 5.08106 52.4613 4.06674C52.2317 3.94884 52.0311 4.36149 52.2598 4.47939Z" fill="#161718"/>
<path d="M75.1478 24.0013C75.1478 22.1616 73.3025 20.322 71.2532 19.6875C70.7056 19.5603 70.7921 19.0607 71.2185 18.8632C71.6286 18.6724 74.0207 16.96 73.9869 14.8031C73.9869 12.7099 71.5941 9.53784 64.6232 9.53784C60.5228 9.53784 57.1058 10.4895 55.0554 12.2664C55.5329 12.6472 56.0806 13.218 56.0806 13.8524V25.462C56.0122 26.1599 55.6705 26.7308 55.1229 27.3652C56.9636 28.7071 60.2594 29.987 64.9914 29.9711C70.0486 29.8439 75.1478 28.315 75.1478 24.0013Z" fill="#E2E2E2"/>
<path d="M64.9694 18.4132C67.1445 18.4132 68.9078 16.967 68.9078 15.1832C68.9078 13.3992 67.1445 11.953 64.9694 11.953C62.7944 11.953 61.0312 13.3992 61.0312 15.1832C61.0312 16.967 62.7944 18.4132 64.9694 18.4132Z" fill="#161718"/>
<path d="M65.477 27.3474C67.9152 27.3474 69.8918 25.8209 69.8918 23.9377C69.8918 22.0545 67.9152 20.528 65.477 20.528C63.0388 20.528 61.0621 22.0545 61.0621 23.9377C61.0621 25.8209 63.0388 27.3474 65.477 27.3474Z" fill="#161718"/>
<path d="M47.8604 18.3673C48.0146 17.5803 48.2614 16.8158 48.5912 16.0813C48.5722 16.0523 47.9881 15.285 46.5492 17.4203C45.7547 18.5984 47.1579 19.0728 47.8604 18.3673ZM47.814 21.9942C47.2217 22.7007 46.6632 23.2939 46.2942 23.7674C45.5232 24.7574 47.5289 25.9776 48.6096 24.5702C48.2351 23.7512 47.9675 22.885 47.814 21.9942ZM75.4566 3.53983C75.7744 3.35495 76.109 3.20204 76.4553 3.0832C69.2641 -0.397687 60.3915 -0.397687 53.2012 3.0832C53.5747 3.21607 53.9101 3.36766 54.1989 3.53983C60.8581 0.561428 68.8558 0.587628 75.4566 3.53983Z" fill="#E2E2E2"/>
<path d="M78.7671 12.6978C77.9598 9.8139 75.9441 8.64052 75.1623 8.07908C73.5905 6.95153 73.6761 5.28501 75.0193 3.84868C68.6016 1.07053 60.9792 1.10234 54.6371 3.84868C55.9803 5.28501 56.0651 6.95153 54.4942 8.07908C53.7123 8.64052 51.6958 9.8139 50.8893 12.6978C57.7444 5.44316 71.9119 5.44221 78.7671 12.6978ZM84.2607 25.2664C83.5993 26.8168 81.5116 26.494 80.2623 26.0103C78.5948 28.6154 75.8211 30.7357 72.4049 32.0167L75.1186 36.7384C80.3917 34.3793 84.2945 30.4307 86.0167 25.781C85.4074 25.7121 84.8137 25.5382 84.2607 25.2664Z" fill="#E2E2E2"/>
<path d="M75.5113 37.9642C81.333 35.4396 85.613 31.023 87.3844 25.7286C87.0889 25.7927 86.7871 25.8212 86.4851 25.8139C84.7492 30.63 80.7407 34.7228 75.319 37.1528C75.4282 37.41 75.4932 37.6844 75.5113 37.9642ZM72.4642 38.1054L72.4678 38.1138C73.3308 40.2941 75.8903 39.0327 74.7322 36.9742L71.974 32.1739C71.4682 32.3499 70.9506 32.507 70.4194 32.6474C70.4085 32.7213 72.435 38.0063 72.4642 38.1054ZM69.5474 38.7838C70.0822 40.9649 72.6418 40.2997 72.0395 38.258C72.0395 38.258 69.9619 33.0712 69.8471 32.7877C69.3269 32.9094 68.7956 33.0123 68.2553 33.0957C68.2497 33.1161 69.5474 38.7838 69.5474 38.7838ZM66.5422 39.1283C66.7326 41.475 69.5373 41.0679 69.0343 38.7305C69.0343 38.7305 67.7824 33.177 67.7768 33.1649C67.2502 33.2332 66.7153 33.2855 66.1741 33.3173C66.1558 33.3678 66.5404 39.0814 66.5422 39.1283ZM127.007 3.46132C126.755 3.26388 126.214 3.27417 125.53 3.23486C122.048 3.23486 113.96 3.46598 112.387 3.46598C110.814 3.46598 99.6941 4.73483 97.9536 5.31217C97.1673 5.54329 96.9987 6.34988 97.9536 6.40789C98.9085 6.46592 110.779 6.63996 112.464 6.63996C113.771 6.63996 120.568 6.61657 124.495 5.81652C126.622 5.38329 127.763 4.05269 127.007 3.46132ZM123.182 7.73288C121.159 7.79089 111.051 7.8489 109.871 7.79089C108.692 7.73288 99.5373 7.21448 98.4703 7.15647C96.1622 7.03202 95.414 8.08752 97.8525 8.65644C99.0872 8.94557 110.489 10.2715 119.137 10.0984C120.766 10.1564 122.956 9.29086 123.519 8.48333C124.081 7.6758 123.463 7.73288 123.182 7.73288ZM119.25 11.5403C117.846 11.5403 101.279 10.2715 97.7959 9.52198C94.767 9.0485 95.4504 10.6467 96.6734 10.9059C97.7012 11.1239 109.983 13.5587 116.218 13.6738C118.296 13.6167 120.71 11.5974 119.25 11.5403ZM115.039 15.1157C113.073 14.8846 99.9865 12.7512 96.4491 11.7705C93.249 10.919 93.8942 13.103 95.045 13.4436C96.0682 13.7468 107.221 16.5343 109.759 16.6737C110.836 16.7318 111.915 16.6571 112.974 16.4511C116.561 15.7145 115.039 15.1157 115.039 15.1157ZM109.759 18.1147C108.355 17.8265 96.954 15.1728 93.6964 13.9049C92.1099 13.3369 91.6316 14.9379 92.6294 15.4039C93.2472 15.6921 102.009 19.4406 106.164 19.6717C107.681 19.6717 110.486 18.8334 109.759 18.1147ZM91.1687 15.6921C92.4598 16.3266 100.324 19.7297 103.356 20.4222C103.777 20.5372 104.222 20.7281 104.186 20.9686C103.917 22.8102 98.3345 21.2437 97.9472 21.1165C95.8013 20.41 91.4238 18.7604 89.5676 16.9029C90.0179 16.6727 91.0566 15.9232 91.1687 15.6921ZM88.8096 17.6534C89.6514 18.2299 95.1562 21.1726 97.6829 21.9792C99.0033 22.4312 97.6137 23.8253 95.035 23.0703C92.1846 22.6165 88.0232 19.1533 87.3489 18.519C87.6869 18.3458 88.4168 17.8845 88.8096 17.6534ZM86.2272 19.2113C87.244 19.9262 89.2041 21.2624 90.4479 22.1149C90.9608 22.4667 92.1855 23.162 92.1592 23.7178C92.1464 23.9835 91.6544 24.4879 89.4063 23.6495C88.0086 23.0619 86.3164 21.867 84.8795 19.7308C85.1592 19.6427 85.8891 19.3835 86.2272 19.2113ZM83.6986 20.076C84.2253 20.6168 84.9068 21.3561 85.5729 22.0373C86.187 22.8495 87.5539 23.4343 87.0828 24.3728C86.5734 25.389 84.9696 23.9265 84.3929 23.3669C83.5764 22.5744 82.7873 21.5272 82.4912 20.4792C82.8849 20.3642 83.3341 20.249 83.6986 20.076Z" fill="#E2E2E2"/>
<path d="M103.244 3.0046C101.783 3.0046 96.8419 3.35081 95.0441 3.35081C89.8784 3.35081 82.8893 2.41509 78.0863 3.42849C75.1003 4.05823 74.6721 4.94622 74.6721 5.90066C74.6721 7.14236 75.6816 7.88812 76.3979 8.4271C77.2407 9.06152 79.825 10.6186 79.937 14.6562C80.6104 14.368 81.5653 14.1949 80.892 12.7529C79.7147 10.336 77.0704 7.3922 81.5945 6.13833C82.308 5.94089 83.1873 5.81176 84.2626 5.77434C87.5758 5.65924 92.3806 5.63398 94.009 5.34578C95.6373 5.05757 101.785 3.58288 103.076 3.4107C103.638 3.34989 103.638 3.06168 103.244 3.0046Z" fill="#E2E2E2"/>
<path d="M90.2594 6.51172C89.0803 6.51172 85.469 6.48645 84.258 6.5454C80.9084 6.70916 78.5165 8.38503 80.9358 11.53C81.4096 12.1448 82.6761 13.4332 83.1819 13.8946C83.6312 14.2408 84.4741 13.6634 83.7433 12.7988C84.6991 13.3752 85.8782 13.2601 85.3169 11.9342C86.1589 12.6267 87.563 12.6837 86.7211 10.8965C87.2823 11.3578 88.8551 11.3007 87.8437 9.91587C88.6866 10.2041 89.6415 9.68475 89.0228 8.82013C90.0907 8.99419 90.7085 8.18573 89.5841 7.55224C90.6529 7.83764 90.9336 6.56879 90.2594 6.51172ZM93.5551 5.89882C94.0099 5.86887 95.9826 5.5395 95.9353 6.63149C95.8879 7.72441 93.6964 7.31176 93.2463 7.22567C92.4171 7.06754 91.7546 6.80741 91.7737 6.45464C91.7929 6.09251 92.6567 5.95683 93.5551 5.89882ZM93.4759 7.7712C93.9543 7.80862 95.6783 7.7216 95.4086 8.72096C95.3239 9.03536 94.6915 9.67164 92.5729 9.14296C91.6434 8.9109 91.1632 8.4 91.1632 7.9939C91.1632 7.63926 92.4107 7.68792 93.4759 7.7712ZM92.1136 9.39375C92.4545 9.45176 94.4299 9.59024 94.0992 10.613C93.8677 11.326 93.5124 11.1005 92.9101 11.1744C92.5127 11.2231 89.5696 10.3716 90.0297 9.40216C90.1672 9.11397 91.0329 9.21127 92.1136 9.39375ZM91.1378 10.8432C93.0959 11.6601 93.0705 12.2131 92.982 12.5116C92.8927 12.811 91.9953 13.1806 90.1363 12.2477C89.1951 11.7751 89.1823 11.238 89.4137 10.8581C89.7036 10.3819 90.4342 10.5494 91.1378 10.8432ZM89.7655 12.2168C91.8048 12.9467 91.6881 13.6129 91.5268 14.004C91.3492 14.4363 90.7049 14.8966 89.0018 13.7832C87.974 13.1114 87.3051 12.5481 87.4893 12.1008C87.6561 11.6947 88.6273 11.8004 89.7655 12.2168ZM88.9673 14.3147C89.5021 14.6478 89.7454 15.0989 89.4083 15.6126C88.806 16.5333 87.0264 14.9089 86.5798 14.412C86.2491 14.0433 86.0359 13.6559 86.2235 13.3724C86.4177 13.0805 87.0217 13.1029 88.9673 14.3147ZM85.7479 14.471C88.1226 15.7145 87.8947 16.3171 87.5639 16.5744C87.1985 16.859 86.3374 17.1575 84.8977 15.4488C84.2662 14.7002 84.6135 13.8805 85.7479 14.471ZM84.5615 15.7753C85.0627 16.3509 86.2372 17.2182 85.3288 17.8649C84.5615 18.4095 84.1123 17.8115 83.736 17.441C81.5545 15.286 82.2762 13.9217 84.5615 15.7753Z" fill="#E2E2E2"/>
<path d="M77.3966 4.47939C75.7291 5.33558 75.0393 6.2451 76.7523 7.48773C76.9611 7.63932 76.7023 8.01641 76.4927 7.86483C74.6092 6.49868 75.0147 5.08106 77.1961 4.06674C77.4249 3.94884 77.6253 4.36149 77.3966 4.47939Z" fill="#161718"/>
<path d="M81.796 18.3674C81.641 17.5804 81.395 16.8159 81.0643 16.0814C81.0834 16.0524 81.6675 15.2851 83.1063 17.4204C83.9017 18.5985 82.4985 19.0729 81.796 18.3674ZM81.8416 21.9942C82.4337 22.7007 82.9933 23.294 83.3623 23.7675C84.1333 24.7574 82.1276 25.9776 81.0469 24.5703C81.4214 23.746 81.6912 22.8832 81.8416 21.9942Z" fill="#E2E2E2"/>
</g>
</g>
<defs>
<clipPath id="clip0_101_213">
<rect width="128.053" height="41.2374" fill="white" transform="translate(0.801697)"/>
</clipPath>
</defs>
</svg>
