<svg width="76" height="58" viewBox="0 0 76 58" fill="none" xmlns="http://www.w3.org/2000/svg">
<g clip-path="url(#clip0_101_776)">
<path fill-rule="evenodd" clip-rule="evenodd" d="M39.6083 4.63039C35.7065 9.68923 24.5774 26.0216 23.3091 28.1363C20.8673 32.1882 20.6517 34.1517 20.5797 35.4599C20.5089 36.7442 20.5089 39.0594 22.4952 40.9473C25.8229 44.0679 30.4896 43.5637 34.631 43.5637H68.7405C70.2006 43.5637 70.632 43.1101 71.4221 42.0034C74.1503 37.6239 75.3717 32.8675 75.3717 28.6141C75.3717 19.5034 69.7474 8.02816 55.5042 2.8433L53.8993 5.25931C65.1972 10.8955 69.8661 18.2696 69.8661 28.5876C69.938 31.3566 69.2429 34.3511 67.5192 37.1199H34.3424C32.356 37.1199 32.0684 34.7544 32.7865 33.4197C35.6308 28.0976 38.805 22.9782 42.2887 18.0942C45.6403 13.3883 48.9427 8.98356 52.4142 4.37837C53.348 3.09534 52.7248 1.86155 50.8583 1.45945C46.9804 0.603714 42.9359 0 38.0284 0C10.8138 0 0.85498 16.4332 0.85498 28.6141C0.85498 41.827 10.8846 57.1536 38.1002 57.1536C53.2042 57.1536 63.0911 52.0432 68.8113 45.4756H63.042C58.0385 50.3329 49.4451 53.7822 38.1002 53.7822C15.049 53.7822 6.55243 40.1659 6.55243 28.4377C6.71914 17.9682 15.839 3.52263 38.6757 3.04492C39.5375 3.01973 40.2086 3.85026 39.6083 4.63039Z" fill="white"/>
</g>
<defs>
<clipPath id="clip0_101_776">
<rect width="74.5168" height="57.1536" fill="white" transform="translate(0.85498)"/>
</clipPath>
</defs>
</svg>
