<svg width="76" height="58" viewBox="0 0 76 58" fill="none" xmlns="http://www.w3.org/2000/svg">
<g clip-path="url(#clip0_101_211)">
<path fill-rule="evenodd" clip-rule="evenodd" d="M39.6081 4.63039C35.7062 9.68923 24.5771 26.0216 23.3089 28.1363C20.8671 32.1882 20.6515 34.1517 20.5795 35.4599C20.5087 36.7442 20.5087 39.0594 22.495 40.9473C25.8226 44.0679 30.4893 43.5637 34.6308 43.5637H68.7402C70.2003 43.5637 70.6318 43.1101 71.4218 42.0034C74.15 37.6239 75.3715 32.8675 75.3715 28.6141C75.3715 19.5034 69.7471 8.02816 55.504 2.8433L53.899 5.25931C65.197 10.8955 69.8659 18.2696 69.8659 28.5876C69.9377 31.3566 69.2426 34.3511 67.5189 37.1199H34.3421C32.3558 37.1199 32.0682 34.7544 32.7862 33.4197C35.6305 28.0976 38.8048 22.9782 42.2884 18.0942C45.6401 13.3883 48.9425 8.98356 52.4139 4.37837C53.3478 3.09534 52.7245 1.86155 50.858 1.45945C46.9802 0.603714 42.9357 0 38.0282 0C10.8136 0 0.854736 16.4332 0.854736 28.6141C0.854736 41.827 10.8844 57.1536 38.1 57.1536C53.204 57.1536 63.0908 52.0432 68.811 45.4756H63.0418C58.0383 50.3329 49.4449 53.7822 38.1 53.7822C15.0488 53.7822 6.55218 40.1659 6.55218 28.4377C6.71889 17.9682 15.8387 3.52263 38.6754 3.04492C39.5373 3.01973 40.2084 3.85026 39.6081 4.63039Z" fill="#161718"/>
</g>
<defs>
<clipPath id="clip0_101_211">
<rect width="74.5168" height="57.1536" fill="white" transform="translate(0.854736)"/>
</clipPath>
</defs>
</svg>
