<svg width="100" height="39" viewBox="0 0 100 39" fill="none" xmlns="http://www.w3.org/2000/svg">
<g clip-path="url(#clip0_101_209)">
<path d="M22.0272 17.5337H13.5196L12.8618 13.7631H49.3919V17.5337H48.4054V14.6473H21.7181L22.0272 17.5337ZM12.7138 12.9028H49.382V10.1388H12.2386L12.7138 12.9028ZM35.6487 22.1759H49.3871V20.1959H35.6538L35.6487 22.1759ZM11.8802 9.25937H20.5704L18.9261 6.49382H48.4071V9.24823H49.3936V5.53805H9.18841L11.8802 9.25937ZM64.3338 5.53805H50.474V11.093H64.3404L64.3338 5.53805ZM15.4977 26.9579C15.7229 27.2887 16.1405 27.6735 17.5268 28.0378C18.1976 28.1967 18.9441 28.3557 19.9767 28.5784H34.6885V26.6176H15.3069C15.3583 26.7364 15.4211 26.8503 15.4944 26.9579H15.4977ZM14.6574 23.9618H34.6885V18.4227H13.6725L14.6574 23.9618ZM35.6487 31.732C40.779 32.7084 45.7942 33.6101 49.3953 34.1556V24.8602H35.6487V31.732ZM65.2843 17.5337H86.3447L87.3066 11.9772H65.2843V17.5337ZM65.2843 7.30488V9.27686L87.9364 9.26891L89.3571 7.30488H65.2843ZM99.4861 1.15039L92.8134 10.2613C92.0818 14.1305 90.1693 24.0969 89.9524 25.067C89.3243 27.8564 89.0233 29.5532 83.362 30.8557C75.8244 32.5844 58.5837 35.9448 49.923 37.2567C41.2658 35.9463 24.0333 32.5844 16.4957 30.8557C10.8344 29.5532 10.5335 27.8564 9.90533 25.067C9.68829 24.1033 7.77594 14.1305 7.04422 10.2613L0.371582 1.15039H99.4861ZM94.2243 2.86316H5.63998L10.9018 10.1293C12.2172 17.6865 13.0312 22.5447 13.3683 24.2385C13.9536 27.1853 14.0572 28.456 17.2044 29.2765C23.4627 30.7078 41.5996 34.3146 49.9346 35.5313C58.2697 34.3146 76.4081 30.7127 82.6697 29.2765C85.8168 28.456 85.9205 27.1853 86.5059 24.2385C86.8347 22.5447 87.6569 17.6865 88.9723 10.1293L94.2243 2.86316ZM50.474 22.1759H51.4605V19.3784H77.6676C77.6332 19.6504 77.3881 21.5254 77.2616 22.1839H85.5373L86.1952 18.4227H50.474V22.1759ZM50.474 25.7986H84.8402L85.396 23.0457H50.474V25.7986ZM64.3404 13.7647H50.474V15.7477H64.3404V13.7647ZM50.474 26.6176H84.5639C84.5158 26.7373 84.4541 26.8515 84.3798 26.9579C84.1545 27.2887 83.7418 27.6958 82.3474 28.0314C76.1747 29.5166 59.2102 32.7705 50.474 34.1524V26.6176ZM51.4605 33.0392C53.0325 32.764 56.8736 32.1169 58.2433 31.864C72.1904 29.2861 74.5829 28.8933 75.7454 27.5701H51.4605V33.0392Z" fill="#161718"/>
</g>
<defs>
<clipPath id="clip0_101_209">
<rect width="99.1145" height="38.3436" fill="white" transform="translate(0.371582)"/>
</clipPath>
</defs>
</svg>
