<svg width="81" height="52" viewBox="0 0 81 52" fill="none" xmlns="http://www.w3.org/2000/svg">
<g clip-path="url(#clip0_101_772)">
<path d="M57.9722 2.52045C53.0488 0.935967 46.9191 0 40.2791 0C33.639 0 27.5083 0.936251 22.5834 2.52045C9.48569 6.73471 0.486328 15.4867 0.486328 25.6009C0.486328 39.829 18.3009 51.3659 40.2791 51.3659C62.252 51.3659 80.0673 39.829 80.0673 25.6009C80.0673 15.4871 71.0676 6.73811 57.9722 2.52045ZM40.2791 40.2872C36.9991 40.2872 34.3209 33.8338 34.1638 25.7242C36.1361 25.9017 38.1819 25.9969 40.2791 25.9969C42.3764 25.9969 44.4189 25.9017 46.3935 25.7242C46.2351 33.8338 43.5577 40.2872 40.2791 40.2872ZM34.577 19.3752C35.4712 13.6829 37.6858 9.65078 40.2791 9.65078C42.8724 9.65078 45.084 13.6829 45.9772 19.3752C44.1553 19.54 42.2468 19.6301 40.2791 19.6301C38.3115 19.6301 36.4026 19.5388 34.577 19.3752ZM49.4621 18.9459C48.1322 10.0113 44.5229 3.60651 40.2791 3.60651C36.0353 3.60651 32.4237 10.0113 31.0932 18.9459C23.0103 17.6829 17.3607 14.8086 17.3607 11.4604C17.3607 6.94851 27.622 3.29074 40.28 3.29074C52.9379 3.29074 63.1962 6.94851 63.1962 11.4604C63.1962 14.8086 57.5455 17.6829 49.4621 18.9459ZM6.29399 24.6572C6.29399 20.2959 7.97104 16.2076 10.8976 12.6912C10.8641 12.9352 10.847 13.1812 10.8464 13.4275C10.8464 18.9141 19.0804 23.5782 30.5619 25.2935C30.5528 25.7077 30.546 26.1229 30.546 26.5426C30.546 36.7445 33.3733 45.3857 37.2823 48.3649C19.9151 47.3026 6.29399 37.0962 6.29399 24.6572ZM43.2761 48.366C47.1831 45.3868 50.0105 36.7461 50.0105 26.5438C50.0105 26.1241 50.006 25.7089 49.9967 25.2945C61.475 23.5798 69.7107 18.9158 69.7107 13.4286C69.7096 13.1823 69.6919 12.9363 69.6577 12.6923C72.5837 16.2088 74.2617 20.2965 74.2617 24.6582C74.2617 37.0974 60.64 47.3038 43.2781 48.3666" fill="white"/>
</g>
<defs>
<clipPath id="clip0_101_772">
<rect width="79.581" height="51.3659" fill="white" transform="translate(0.486328)"/>
</clipPath>
</defs>
</svg>
