<svg width="80" height="52" viewBox="0 0 80 52" fill="none" xmlns="http://www.w3.org/2000/svg">
<g clip-path="url(#clip0_101_207)">
<path d="M57.4859 2.52045C52.5625 0.935967 46.4328 0 39.7928 0C33.1527 0 27.022 0.936251 22.0971 2.52045C8.99937 6.73471 0 15.4867 0 25.6009C0 39.829 17.8146 51.3659 39.7928 51.3659C61.7657 51.3659 79.581 39.829 79.581 25.6009C79.581 15.4871 70.5813 6.73811 57.4859 2.52045ZM39.7928 40.2872C36.5128 40.2872 33.8345 33.8338 33.6775 25.7242C35.6497 25.9017 37.6956 25.9969 39.7928 25.9969C41.8901 25.9969 43.9326 25.9017 45.9071 25.7242C45.7487 33.8338 43.0713 40.2872 39.7928 40.2872ZM34.0907 19.3752C34.9849 13.6829 37.1995 9.65078 39.7928 9.65078C42.386 9.65078 44.5976 13.6829 45.4909 19.3752C43.669 19.54 41.7605 19.6301 39.7928 19.6301C37.8252 19.6301 35.9163 19.5388 34.0907 19.3752ZM48.9758 18.9459C47.6459 10.0113 44.0365 3.60651 39.7928 3.60651C35.549 3.60651 31.9374 10.0113 30.6069 18.9459C22.524 17.6829 16.8743 14.8086 16.8743 11.4604C16.8743 6.94851 27.1356 3.29074 39.7937 3.29074C52.4515 3.29074 62.7098 6.94851 62.7098 11.4604C62.7098 14.8086 57.0591 17.6829 48.9758 18.9459ZM5.80766 24.6572C5.80766 20.2959 7.48471 16.2076 10.4113 12.6912C10.3777 12.9352 10.3606 13.1812 10.3601 13.4275C10.3601 18.9141 18.594 23.5782 30.0756 25.2935C30.0665 25.7077 30.0597 26.1229 30.0597 26.5426C30.0597 36.7445 32.8869 45.3857 36.796 48.3649C19.4287 47.3026 5.80766 37.0962 5.80766 24.6572ZM42.7898 48.366C46.6968 45.3868 49.5242 36.7461 49.5242 26.5438C49.5242 26.1241 49.5197 25.7089 49.5103 25.2945C60.9886 23.5798 69.2244 18.9158 69.2244 13.4286C69.2233 13.1823 69.2056 12.9363 69.1714 12.6923C72.0974 16.2088 73.7754 20.2965 73.7754 24.6582C73.7754 37.0974 60.1536 47.3038 42.7918 48.3666" fill="#161718"/>
</g>
<defs>
<clipPath id="clip0_101_207">
<rect width="79.581" height="51.3659" fill="white"/>
</clipPath>
</defs>
</svg>
