<svg width="61" height="70" viewBox="0 0 61 70" fill="none" xmlns="http://www.w3.org/2000/svg">
<g clip-path="url(#clip0_101_762)">
<mask id="mask0_101_762" style="mask-type:luminance" maskUnits="userSpaceOnUse" x="0" y="0" width="61" height="70">
<path d="M60.1149 0H0.0673828V69.4525H60.1149V0Z" fill="white"/>
</mask>
<g mask="url(#mask0_101_762)">
<path d="M28.296 68.9355C27.3236 68.3849 24.5459 66.2315 22.3401 64.3185C18.6787 61.1432 15.4681 57.6462 12.5955 53.7048C6.41365 45.2223 2.59056 35.3547 0.919302 23.5655C0.121554 17.9405 -0.187691 10.0832 0.319357 8.33003C0.640258 7.2201 1.37054 6.18638 2.29387 5.53527C3.29206 4.83111 6.48006 3.56344 9.33973 2.73359C15.3996 0.974515 22.0925 0.132191 30.0347 0.128096C40.1596 0.123111 48.4462 1.48549 55.4372 4.30447C57.9332 5.31094 58.8563 6.03273 59.5769 7.53988L60.0506 8.53015L60.0395 12.8623C60.0085 24.9009 57.315 36.604 52.403 46.0439C51.1512 48.4499 48.1913 53.1037 46.727 54.9689C44.0174 58.4201 40.8848 61.7313 37.7765 64.4307C35.6774 66.2531 32.5713 68.629 31.7102 69.0705C30.652 69.6133 29.406 69.5639 28.296 68.9355ZM30.3966 68.626C30.2341 68.5826 29.9685 68.5826 29.8061 68.626C29.6435 68.6696 29.7765 68.7052 30.1014 68.7052C30.4262 68.7052 30.5591 68.6696 30.3966 68.626ZM23.6898 64.3481C23.6898 64.3121 23.5571 64.1753 23.3945 64.0448C23.1268 63.8292 23.1208 63.8353 23.3309 64.1101C23.5512 64.399 23.6898 64.4907 23.6898 64.3481ZM22.6774 63.4905C22.6774 63.4597 22.4686 63.2449 22.2134 63.0141L21.7494 62.594L22.1584 63.0706C22.5408 63.5161 22.6774 63.6266 22.6774 63.4905ZM20.3151 61.2079C19.7173 60.5883 19.1901 60.0816 19.1439 60.0816C19.0977 60.0816 19.5486 60.5885 20.1465 61.2079C20.7443 61.8274 21.2715 62.3342 21.3178 62.3342C21.364 62.3342 20.913 61.8274 20.3151 61.2079ZM17.7843 58.6085C17.1865 57.9889 16.6593 57.4823 16.613 57.4823C16.5668 57.4823 17.0179 57.989 17.6157 58.6086C18.2135 59.2281 18.7407 59.7349 18.7869 59.7349C18.8333 59.7349 18.382 59.2279 17.7843 58.6085ZM16.2655 56.906C16.2655 56.8748 16.0569 56.6603 15.8017 56.4294L15.3378 56.0092L15.7469 56.486C16.1292 56.9311 16.2655 57.0418 16.2655 56.906ZM15.2534 55.6898C15.2534 55.6567 15.0826 55.4813 14.8736 55.2999L14.4939 54.9697L14.8154 55.3597C15.1174 55.7259 15.2534 55.8283 15.2534 55.6898ZM14.5783 54.823C14.5783 54.7901 14.4076 54.6148 14.1986 54.4332L13.8193 54.1032L14.1407 54.493C14.4427 54.8595 14.5783 54.9619 14.5783 54.823ZM13.9035 53.9512C13.9035 53.9153 13.7707 53.7784 13.6082 53.6479C13.3407 53.4323 13.3345 53.4384 13.5445 53.7132C13.7649 54.0017 13.9035 54.0938 13.9035 53.9512ZM13.3974 53.2578C13.3974 53.2221 13.2645 53.0855 13.1021 52.9547C12.8345 52.7393 12.8283 52.7453 13.0383 53.0202C13.2589 53.309 13.3974 53.4007 13.3974 53.2578ZM12.8912 52.5649C12.8912 52.529 12.7584 52.3922 12.5959 52.2617C12.3283 52.0461 12.3221 52.0523 12.5323 52.327C12.7525 52.6155 12.8912 52.7075 12.8912 52.5649ZM10.529 48.9914C10.4298 48.8007 10.3106 48.6448 10.2641 48.6448C10.2177 48.6448 10.2609 48.8007 10.3604 48.9914C10.4596 49.182 10.5788 49.3379 10.6253 49.3379C10.6717 49.3379 10.6283 49.1821 10.529 48.9914ZM10.0227 48.1248C9.92342 47.9344 9.80422 47.7785 9.75777 47.7785C9.71132 47.7785 9.75459 47.9344 9.85401 48.1248C9.95327 48.3155 10.0725 48.4715 10.1189 48.4715C10.1654 48.4715 10.1221 48.3158 10.0227 48.1248ZM9.51669 47.2586C9.41743 47.068 9.29805 46.9121 9.25178 46.9121C9.2055 46.9121 9.2486 47.068 9.34803 47.2586C9.44728 47.4491 9.56649 47.6051 9.61295 47.6051C9.65922 47.6051 9.61595 47.4492 9.51669 47.2586ZM7.96199 44.2333C7.47931 43.2361 7.05739 42.4486 7.02454 42.4823C6.94984 42.5589 8.64582 46.0457 8.7578 46.0457C8.80283 46.0457 8.44467 45.2301 7.96199 44.2333ZM6.50019 41.0764C6.30133 40.7253 6.25329 40.8379 6.41595 41.2736C6.47388 41.4283 6.5567 41.5186 6.60016 41.4741C6.6436 41.4296 6.59873 41.2505 6.50019 41.0764ZM22.7089 11.0975C22.587 11.0477 22.4416 11.0537 22.3856 11.1114C22.3296 11.1689 22.4292 11.2099 22.607 11.2022C22.8036 11.194 22.8437 11.1527 22.7089 11.0975ZM1.48216 7.82812C1.53973 7.67394 1.51148 7.60432 1.41593 7.66504C1.32409 7.72326 1.24903 7.84433 1.24903 7.93388C1.24886 8.18314 1.36984 8.1283 1.48216 7.82812ZM58.954 7.94297C58.954 7.85821 58.7964 7.60467 58.6043 7.37981L58.2546 6.97084L58.5564 7.534C58.8691 8.1178 58.954 8.20504 58.954 7.94297ZM18.9969 5.37931C18.875 5.32928 18.7296 5.33534 18.6736 5.39285C18.6174 5.45035 18.7173 5.49149 18.895 5.48401C19.0917 5.47563 19.1317 5.43468 18.9969 5.37931ZM26.3052 5.15107C26.4728 4.96056 26.5725 4.80459 26.5258 4.80459C26.4793 4.80459 26.3043 4.96056 26.1363 5.15107C25.9683 5.34157 25.8689 5.49753 25.9153 5.49753C25.9617 5.49753 26.1372 5.34157 26.3052 5.15107ZM22.0341 5.03266C21.9122 4.98264 21.7668 4.98886 21.7108 5.04637C21.6548 5.10388 21.7543 5.14501 21.9322 5.13753C22.1289 5.12917 22.1686 5.0884 22.0341 5.03266ZM42.2814 1.74046C42.1595 1.69042 42.014 1.69648 41.958 1.754C41.902 1.81167 42.0016 1.85263 42.1795 1.84514C42.3761 1.83678 42.4162 1.79565 42.2814 1.74046ZM40.9315 1.56705C40.8098 1.51701 40.6642 1.52325 40.6085 1.58075C40.5522 1.63826 40.6519 1.67921 40.8299 1.67155C41.0263 1.66337 41.0662 1.62242 40.9315 1.56705ZM39.5925 1.39737C39.4766 1.3493 39.2867 1.3493 39.1705 1.39737C39.0546 1.44544 39.1496 1.48461 39.3812 1.48461C39.6135 1.48461 39.7084 1.44544 39.5925 1.39737ZM22.8778 1.22057C22.7559 1.17054 22.6104 1.17659 22.5544 1.23428C22.4984 1.29179 22.598 1.33274 22.7759 1.32508C22.9725 1.31689 23.0123 1.27576 22.8778 1.22057ZM37.6487 1.21879C37.4845 1.17481 37.2566 1.17784 37.1428 1.2252C37.0284 1.27274 37.1628 1.3087 37.4411 1.30496C37.7194 1.3014 37.8128 1.26277 37.6487 1.21879ZM26.0911 1.04004C25.7878 1.0014 25.3321 1.00229 25.0787 1.04182C24.8253 1.08134 25.0734 1.11286 25.6301 1.11196C26.1869 1.11107 26.3945 1.07867 26.0911 1.04004ZM35.0337 1.04004C34.7304 1.0014 34.2748 1.00229 34.0214 1.04182C33.7679 1.08134 34.0159 1.11286 34.5728 1.11196C35.1296 1.11107 35.3369 1.07867 35.0337 1.04004Z" fill="#091920"/>
<path d="M28.5155 69.0037C25.4946 67.3747 18.4371 60.9272 14.7662 56.4426C5.42459 45.0301 0.763665 31.2403 0.131048 13.1425C-0.0257823 8.65826 0.264388 7.49615 1.92259 5.96499C4.04084 4.009 12.3837 1.57621 19.809 0.749554C33.5983 -0.785893 46.8361 0.655369 56.291 4.7217C58.9337 5.85852 59.9592 7.3717 60.0982 10.3397C60.1895 12.2868 59.8898 18.1073 59.5376 21.2349C57.3678 40.4992 49.5195 55.0816 35.1743 66.502C32.168 68.8956 31.4519 69.3198 30.3007 69.3908C29.5253 69.4382 29.1838 69.364 28.5155 69.0037ZM32.4112 67.7099C37.8679 63.9077 43.4911 58.2794 47.5607 52.5465C52.9465 44.9599 56.4976 35.9668 58.2699 25.4251C59.3093 19.2432 59.7499 10.3319 59.1226 8.18341C58.753 6.91859 57.6152 6.01253 55.1395 5.0121C47.9266 2.09752 38.0575 0.595191 27.9921 0.88006C18.8385 1.13911 11.4459 2.4707 5.10511 5.00266C3.29238 5.72641 2.83213 5.99063 2.04392 6.75905C1.13525 7.645 1.11176 7.69254 0.904601 9.05761C0.660349 10.6677 0.886939 16.8799 1.33765 20.9197C3.52586 40.5387 11.5228 55.1694 26.3167 66.62C28.6362 68.4153 29.2278 68.7456 30.1243 68.7456C30.824 68.7456 31.1115 68.6153 32.4112 67.7099ZM28.4108 67.8519C27.6248 67.361 25.4079 65.6348 23.6897 64.1759C14.5061 56.3789 8.17706 46.8886 4.54136 35.4639C3.14296 31.0694 2.09036 25.9027 1.50578 20.5628C1.22285 17.9779 0.889412 10.5669 1.01904 9.7429C1.2248 8.43481 1.23186 8.42163 1.60875 8.62888C2.14458 8.92336 2.38389 8.57457 2.02838 8.01712C1.80937 7.67403 1.78642 7.49367 1.92771 7.22304C2.85137 5.45044 11.3052 2.73901 18.8813 1.78541C22.5416 1.32481 25.4158 1.16618 30.1193 1.16582C39.2057 1.16511 46.0597 2.13882 52.6269 4.36384C55.5949 5.36943 57.3843 6.17366 57.8632 6.7174C58.1616 7.05603 58.1626 7.09306 57.8799 7.5843C57.5104 8.2265 57.6343 8.44335 58.3702 8.44335C58.982 8.44335 58.9702 8.42377 59.1954 9.80396C59.3339 10.6546 58.9932 18.2023 58.6932 20.9197C57.3112 33.4441 53.4365 44.114 47.0719 52.9225C43.3221 58.112 37.5615 63.8418 32.4817 67.4344L31.2733 68.289L31.0019 67.8912C30.7713 67.5535 30.6269 67.5077 30.0423 67.5882C29.6639 67.6404 29.27 67.8009 29.1674 67.9454C29.0027 68.1761 28.9119 68.1648 28.4108 67.8519ZM24.7743 46.2932C25.0711 45.9884 25.1294 45.5257 24.8707 45.5257C24.7781 45.5257 24.702 45.6022 24.702 45.6958C24.702 45.7892 24.5121 45.9146 24.2802 45.9745C23.8577 46.0831 23.7601 46.2335 23.9709 46.4499C24.1605 46.6448 24.4959 46.5796 24.7743 46.2932ZM20.3149 44.0428C20.3149 44.0008 20.239 43.9663 20.1463 43.9663C20.0536 43.9663 19.9775 44.049 19.9775 44.1496C19.9775 44.2507 20.0534 44.285 20.1463 44.2262C20.2391 44.1674 20.3149 44.0848 20.3149 44.0428ZM32.1061 42.5734C31.8229 42.1006 31.5639 41.7138 31.531 41.7138C31.4983 41.7138 31.6756 42.1305 31.925 42.6402C32.1748 43.1494 32.4336 43.5367 32.5001 43.4999C32.5666 43.4632 32.3893 43.0462 32.1061 42.5734ZM34.9099 39.6346C34.97 39.5349 34.8514 39.4798 34.6308 39.5046C34.3282 39.5384 34.224 39.4384 34.1346 39.0279C34.0295 38.5429 34.0206 38.5377 34.0018 38.9499C33.9718 39.6184 34.6241 40.1102 34.9099 39.6346ZM31.0975 36.9709C31.857 36.8237 32.1261 36.5716 32.1261 36.0071C32.1261 35.5003 31.6351 34.6462 31.6253 35.136C31.6223 35.2829 31.2844 35.741 30.8747 36.1542C30.4649 36.5675 30.0905 37.0587 30.0428 37.2461C29.9652 37.5512 29.9856 37.5604 30.2396 37.3347C30.3955 37.1958 30.7817 37.0322 31.0975 36.9709ZM36.5088 36.6925C35.3913 36.5443 35.0034 36.3485 34.4222 35.6392C33.6986 34.7561 33.8981 33.7412 34.8814 33.3019L35.4164 33.0628L34.8155 33.0562C33.0462 33.0362 33.0177 35.5461 34.7765 36.4995C35.2249 36.7425 35.7194 36.8419 36.4287 36.8311L37.4411 36.816L36.5088 36.6925ZM41.2241 35.0421C41.2167 34.8514 41.1724 34.7931 41.1256 34.9123C41.0786 35.0314 40.8948 35.1289 40.7173 35.1289C40.5394 35.1289 40.3938 35.1875 40.3938 35.2588C40.3938 35.3302 40.5837 35.3886 40.8157 35.3886C41.1295 35.3886 41.2341 35.2998 41.2241 35.0421ZM23.261 34.0378C23.5432 33.5942 23.9515 33.18 24.1688 33.1173C24.6302 32.9849 25.7693 33.3214 26.43 33.7854C27.0935 34.2516 27.9539 34.3633 28.2319 34.0193C28.355 33.8671 28.6551 33.7397 28.8989 33.7369C29.3252 33.7316 29.3297 33.7216 29.0148 33.477C28.8115 33.319 28.2991 33.2215 27.6649 33.22C26.424 33.2169 25.8822 32.9605 25.5377 32.2127L25.2763 31.6454L24.9564 32.0085C24.5031 32.523 23.9669 32.3969 23.8567 31.7496L23.7683 31.2297L23.2467 32.0095C22.5077 33.1144 22.1714 33.8342 22.1714 34.3115C22.1711 35.2274 22.5678 35.1275 23.261 34.0378ZM33.4338 32.0198C33.6064 31.9785 33.4138 30.8309 33.1423 30.2847C32.8884 29.7728 32.6775 29.5863 32.2566 29.5009C30.5969 29.1639 30.1866 28.649 30.3397 27.0934C30.456 25.9089 30.4446 25.881 29.5414 25.1897C29.1874 24.9184 28.8145 24.5095 28.7132 24.2811C28.4719 23.7371 28.2287 23.7565 27.0685 24.4115C25.7076 25.1798 25.582 25.4464 26.2008 26.2531C26.4756 26.6113 26.7466 27.2257 26.8106 27.6347C26.8747 28.046 27.0185 28.3711 27.1365 28.3711C27.4481 28.3711 27.7393 29.1509 27.7393 29.985C27.7393 30.6015 27.8557 30.853 28.4806 31.5867L29.2221 32.4571L31.3071 32.2439C32.4535 32.1262 33.4102 32.0255 33.4338 32.0198ZM37.0943 30.702C36.8657 30.078 36.4486 28.6548 36.1675 27.5394C35.8704 26.3611 35.3344 24.8402 34.8877 23.9088C34.1581 22.388 33.9465 22.1174 33.746 22.4506C33.6347 22.6358 34.5196 24.8755 35.1563 26.0209C35.4245 26.5034 35.8441 27.7166 36.0886 28.7176C36.3452 29.7651 36.7181 30.8127 36.9682 31.1867C37.207 31.5442 37.4267 31.8365 37.4564 31.8365C37.4861 31.8365 37.3231 31.3259 37.0943 30.702ZM33.0962 21.7301C32.2216 20.9945 32.6658 20.4538 33.7343 20.9538C34.0753 21.1133 34.1596 21.256 34.1006 21.5733C34.0512 21.8396 34.0819 21.9259 34.1871 21.8176C34.4902 21.5066 34.2395 21.0084 33.6244 20.6995C32.5188 20.1445 31.9517 20.7981 32.8179 21.6289C33.1067 21.9061 33.3915 22.1298 33.4514 22.1265C33.5114 22.123 33.3514 21.9446 33.0962 21.7301ZM40.1492 20.6654C40.2837 20.3348 40.3935 19.8866 40.3928 19.669C40.3924 19.1389 39.829 18.2184 39.3482 17.9613L38.9595 17.7536L39.318 18.1667C40.1036 19.0727 40.2498 19.8593 39.799 20.7549C39.6394 21.0718 39.6107 21.2659 39.723 21.2659C39.823 21.2662 40.0147 20.9958 40.1492 20.6654ZM27.7706 16.5828C27.023 16.1145 27.0755 15.4663 27.9078 14.8908C28.381 14.5636 28.6743 14.4938 29.3842 14.5383C29.9883 14.577 30.2703 14.5291 30.2703 14.3882C30.27 14.2743 30.6306 14.0642 31.0715 13.9207L31.8729 13.6595L30.8605 13.7503C29.3105 13.8897 28.2103 14.2661 27.4936 14.9023C26.9439 15.3904 26.8601 15.5521 26.9554 15.9429C27.0177 16.1975 27.2764 16.5214 27.5304 16.6629C28.2227 17.0485 28.4131 16.9851 27.7706 16.5828ZM5.6118 12.2992C5.55563 8.89595 5.55758 8.87582 5.93306 8.70579C6.49448 8.45118 6.39029 8.25979 5.80448 8.46952L5.29831 8.65078V12.1862C5.29831 14.6341 5.35517 15.7214 5.48322 15.7214C5.61303 15.7214 5.65136 14.7003 5.6118 12.2992ZM33.4481 15.5695C33.6226 15.4556 33.6027 15.404 33.3587 15.3384C33.1856 15.292 32.9486 15.3591 32.8317 15.4876C32.6586 15.678 32.6749 15.7208 32.921 15.7187C33.087 15.7173 33.3241 15.6502 33.4481 15.5695ZM54.3594 8.6335C54.6185 8.73374 54.746 8.73997 54.6511 8.64722C54.5585 8.55641 54.3117 8.42946 54.103 8.36465L53.7232 8.24696L53.762 11.8541L53.8004 15.4616L53.8496 11.9583L53.899 8.45492L54.3594 8.6335ZM8.58856 13.7727C8.69895 13.6616 8.61152 13.6469 8.33548 13.73C7.67584 13.9283 6.81698 14.3086 6.81698 14.4025C6.81698 14.5294 8.39358 13.9691 8.58856 13.7727ZM10.2072 10.4545C10.9253 7.26257 10.9566 7.17462 11.4534 6.95224L11.9631 6.72434L11.5198 6.71758C11.276 6.71384 11.0003 6.8082 10.9074 6.92731C10.7395 7.14257 9.16925 13.798 9.18974 14.2075C9.21252 14.6608 9.49758 13.61 10.2072 10.4545ZM51.2125 13.5251C51.014 13.1736 50.966 13.2861 51.1287 13.7218C51.1864 13.8767 51.2694 13.967 51.3129 13.9223C51.3563 13.8776 51.3111 13.699 51.2125 13.5251ZM48.9131 6.92624C49.1403 6.97075 49.2857 6.94049 49.2369 6.85895C49.1879 6.77739 48.9624 6.71081 48.7358 6.71081H48.3239L48.3624 10.2197L48.4009 13.7287L48.4503 10.2868L48.4999 6.84506L48.9131 6.92624ZM12.4599 12.6982C12.3963 12.3507 12.3062 12.1052 12.2601 12.1529C12.214 12.2006 12.2276 12.5241 12.2912 12.8718C12.3546 13.2195 12.4447 13.4651 12.4908 13.4173C12.5369 13.3696 12.5234 13.046 12.4599 12.6982ZM14.6311 9.63108C14.6627 6.29632 14.665 6.27674 15.0424 6.22208C15.2511 6.19163 15.422 6.08498 15.422 5.98528C15.422 5.88166 15.2591 5.84855 15.0423 5.90819C14.8337 5.9657 14.6058 6.01377 14.5363 6.01501C14.4667 6.01644 14.4098 7.62898 14.4098 9.59867C14.4098 11.5684 14.4525 13.1361 14.5047 13.0825C14.5566 13.0289 14.6136 11.4758 14.6311 9.63108ZM46.5982 6.31448C47.0222 6.24825 47.0155 6.2406 46.5103 6.21656L45.962 6.19056L46.0002 9.69945L46.039 13.2085L46.0882 9.79719L46.1377 6.38624L46.5982 6.31448ZM16.4506 11.1356C16.2132 10.4294 15.9926 9.8791 15.9603 9.91239C15.9277 9.94568 16.0762 10.5993 16.2899 11.365C16.5037 12.1306 16.7242 12.6813 16.7802 12.5882C16.8362 12.4951 16.6879 11.8418 16.4506 11.1356ZM43.7235 10.3931C43.689 9.94033 43.6603 10.3107 43.6603 11.2162C43.6603 12.1216 43.689 12.4919 43.7235 12.0393C43.7584 11.5865 43.7584 10.8457 43.7235 10.3931ZM18.4592 10.5806C18.4592 9.56396 18.4314 8.7649 18.3973 8.80442C18.2524 8.97357 18.1658 12.4289 18.3062 12.4289C18.3904 12.4289 18.4592 11.5972 18.4592 10.5806ZM20.8213 8.70383V5.34575L21.578 5.22931C21.9942 5.16521 22.6015 5.14474 22.9277 5.18372C23.2539 5.2229 23.4566 5.18907 23.3781 5.1086C23.3 5.0283 22.6356 4.98538 21.9021 5.01352L20.5683 5.06462L20.5225 8.67268C20.4921 11.0937 20.5336 12.2446 20.6492 12.1712C20.7567 12.103 20.8213 10.8008 20.8213 8.70383ZM41.1985 5.48034L41.6593 5.46309L41.2371 5.33417C41.0052 5.26349 40.7585 5.23679 40.6889 5.27506C40.6192 5.31335 40.5797 6.91912 40.6006 8.84341L40.6392 12.342L40.6887 8.9198L40.7381 5.49726L41.1985 5.48034ZM51.999 7.81219C52.4474 7.90691 52.4462 7.90388 51.9517 7.67296L51.4455 7.43651L51.3611 9.54277C51.3144 10.7013 51.3144 11.766 51.3611 11.909C51.4074 12.0519 51.4667 11.1669 51.4928 9.94212L51.5402 7.71533L51.999 7.81219ZM26.1577 11.2109C25.6366 10.5749 25.4655 9.79756 25.4826 8.14584C25.4972 6.72897 25.8923 5.4588 26.4408 5.06391C26.6394 4.9213 27.1075 4.802 27.4811 4.79933C28.042 4.79506 28.107 4.76194 27.8534 4.61025C27.4305 4.35779 26.7337 4.56663 26.1744 5.11304C24.9853 6.27478 24.8652 10.0644 25.9783 11.2981C26.534 11.9141 26.6771 11.8447 26.1577 11.2109ZM32.1143 4.83031C32.8465 4.86414 33.3572 4.83476 33.2498 4.76444C33.142 4.69411 32.5034 4.63536 31.8308 4.6341L30.6075 4.63127L30.6459 8.22685L30.6847 11.8224L30.7339 8.29523L30.7832 4.768L32.1143 4.83031ZM33.2226 10.6963C33.0645 10.2074 32.8971 9.84651 32.8507 9.89405C32.8045 9.94177 32.8959 10.3806 33.0538 10.8695C33.2121 11.3585 33.3793 11.7194 33.4255 11.6718C33.4722 11.6241 33.381 11.1854 33.2226 10.6963ZM23.1963 10.9438C23.5961 10.5726 23.6303 9.51642 23.2584 9.0398C23.0051 8.71504 23.002 8.71646 23.1741 9.08199C23.616 10.0214 23.1913 11.0403 22.3558 11.0453C22.115 11.0469 21.8041 11.1307 21.6648 11.2322C21.4756 11.3702 21.5962 11.3951 22.142 11.3312C22.5434 11.284 23.018 11.1095 23.1963 10.9438ZM35.8969 10.8261C35.5179 10.0826 35.3877 7.6564 35.6712 6.61699C35.9609 5.55478 36.6924 4.92592 37.5415 5.00925C37.8884 5.04307 38.1357 5.01102 38.0917 4.93785C38.0477 4.86467 37.7065 4.80468 37.3336 4.80468C36.4998 4.80468 35.7911 5.45258 35.5176 6.4644C35.2129 7.59034 35.2909 9.80716 35.6649 10.6529C35.844 11.0577 36.034 11.3893 36.0873 11.3893C36.1406 11.3893 36.0549 11.1359 35.8969 10.8261ZM11.8488 11.0654C12.0323 10.9459 12.0254 10.7693 11.8099 10.0717L11.5478 9.22336L11.6432 10.0133C11.7285 10.7189 11.6965 10.8243 11.3447 10.9979C10.9869 11.1747 10.9818 11.1936 11.2882 11.2018C11.4737 11.2068 11.726 11.1453 11.8488 11.0654ZM38.3631 10.8809C38.4592 10.6967 38.5365 10.443 38.5353 10.3178C38.5341 10.1926 38.4352 10.2847 38.3157 10.5229C38.14 10.8729 37.9794 10.9523 37.4787 10.9367C37.1383 10.926 36.9 10.9847 36.9496 11.0666C37.1302 11.3674 38.1816 11.2292 38.3631 10.8809ZM28.2873 10.3497C28.4986 9.91507 28.5823 9.32574 28.5823 8.27012C28.5823 6.41828 28.2547 5.6105 27.4714 5.53215C27.1621 5.501 26.8663 5.58486 26.742 5.73834C26.5591 5.96481 26.5995 5.97139 27.0665 5.7905C27.5475 5.60444 27.6305 5.62314 27.9132 5.98154C28.5246 6.75675 28.5742 9.54811 27.9926 10.4597C27.7718 10.8056 27.6023 10.8879 27.2268 10.8315C26.9614 10.7914 26.7852 10.827 26.8358 10.9103C26.8859 10.9938 27.1668 11.0382 27.4595 11.009C27.8755 10.9678 28.057 10.8233 28.2873 10.3497ZM18.4011 5.66943C18.4793 5.5934 18.6953 5.49388 18.8808 5.44795C19.1078 5.39204 19.046 5.35803 18.6917 5.3445L18.1652 5.32456L17.6361 7.18725C17.3453 8.2119 17.112 9.16709 17.1175 9.31006C17.1234 9.45303 17.3825 8.72341 17.6934 7.68898C18.0041 6.6542 18.3228 5.74546 18.4011 5.66943ZM38.5905 8.57083L39.4659 8.50781L38.4955 8.47558C37.5371 8.44388 37.5257 8.44941 37.5484 8.92015C37.5675 9.31541 37.5837 9.33178 37.6434 9.0154C37.7045 8.6919 37.8477 8.62459 38.5905 8.57083ZM24.1185 8.62833C24.0571 8.52668 23.9265 8.44353 23.8277 8.44353C23.7159 8.44353 23.7286 8.54305 23.8616 8.70757C24.093 8.99404 24.3 8.93013 24.1185 8.62833ZM43.7681 7.21183V5.80688L44.2323 5.91728C44.5764 5.9997 44.631 5.98278 44.4432 5.85229C44.3037 5.7556 44.0572 5.67531 43.8948 5.6737C43.638 5.67138 43.5995 5.85175 43.5995 7.05888V8.44656L42.7137 8.37854C42.0242 8.32549 41.9587 8.33883 42.4184 8.43908C43.8083 8.74175 43.7681 8.77807 43.7681 7.21183ZM23.0243 7.77746C23.5046 7.37794 23.5414 6.47241 23.0944 6.05259C22.8064 5.78196 22.798 5.78178 22.9935 6.04938C23.2684 6.42593 23.1736 7.4164 22.8461 7.58839C22.7066 7.66139 22.3273 7.79777 22.0024 7.89141L21.4118 8.06145L22.026 8.07926C22.3932 8.08994 22.7941 7.9685 23.0243 7.77746ZM33.3072 7.57718C33.7108 7.16268 33.7481 6.32178 33.3795 5.94327C32.9961 5.54943 32.9084 5.60907 33.2133 6.05614C33.8001 6.91645 33.4309 7.56222 32.2383 7.76233L31.5357 7.88037L32.2528 7.90174C32.7649 7.9174 33.0662 7.82483 33.3072 7.57718ZM38.3023 6.41098C38.2462 6.35348 38.2062 6.45586 38.2137 6.63834C38.2217 6.84024 38.2613 6.88138 38.3154 6.74321C38.3643 6.61805 38.3581 6.46885 38.3023 6.41098Z" fill="#091920"/>
<path d="M28.6658 69.0407C26.6365 68.0469 21.325 63.5368 17.7823 59.8002C8.11676 49.6042 2.72345 37.544 0.74417 21.6993C0.48102 19.5936 0.0707541 13.2586 0.0693412 11.2771C0.066692 8.06523 1.06348 6.10605 3.2395 5.04561C5.57004 3.91005 10.2447 2.43193 13.8193 1.70053C20.064 0.422179 28.8055 -0.144 35.4163 0.301466C42.823 0.800343 48.3978 1.84973 53.7688 3.75622C57.6061 5.11826 58.7562 5.90486 59.6098 7.74974C60.0472 8.69568 60.0502 8.73236 60.0191 12.5153C59.8909 28.0585 55.888 41.7689 48.2939 52.6747C44.7255 57.8002 39.6669 63.0327 34.2181 67.2361C31.3068 69.4818 30.2608 69.8219 28.6658 69.0407ZM32.3362 67.8236C36.3133 65.0971 42.574 59.1539 45.6946 55.1426C49.0414 50.8406 52.601 44.6317 54.3868 39.9804C57.1319 32.8302 58.6715 25.5115 59.2892 16.6742C59.4957 13.7227 59.5047 9.62881 59.307 8.75443C59.2079 8.3152 59.2214 8.09195 59.3496 8.04797C59.5968 7.96321 59.0271 7.05715 58.7267 7.05715C58.6056 7.05715 58.3228 6.85418 58.0978 6.6067C56.5104 4.8592 48.3436 2.4047 40.9002 1.4381C35.4914 0.73607 26.3922 0.648117 20.9904 1.24616C12.6837 2.16558 3.82461 4.70377 2.0246 6.68005C1.75526 6.97596 1.47887 7.18249 1.41087 7.13941C0.538418 6.5857 0.549015 14.8234 1.42977 21.9593C3.36366 37.6304 8.90975 49.7571 18.7896 59.9191C22.2737 63.5021 26.5105 67.1031 28.789 68.4175C30.0125 69.1234 30.5786 69.0286 32.3362 67.8236ZM29.1502 66.9521C28.7665 66.7227 27.6714 65.9276 26.7169 65.1852C25.7626 64.4428 24.8817 63.8356 24.7597 63.8356C24.6376 63.8356 24.2898 63.6092 23.9872 63.3321L23.4367 62.8288L24.0694 63.2949C24.9202 63.9216 24.8739 63.7466 23.9977 63.0236C23.6102 62.7038 23.349 62.5348 23.4172 62.6478C23.698 63.1149 23.207 62.8044 22.5852 62.1217C22.2183 61.7191 22.108 61.5431 22.3401 61.7306C22.572 61.9181 21.5068 60.7464 19.9729 59.1269C17.2685 56.2721 14.6826 53.1307 12.9843 50.6374C12.0165 49.2166 11.7611 48.9125 12.0384 49.5111L12.2392 49.9445L11.8934 49.5111C11.7032 49.2729 11.5835 48.9764 11.6271 48.8523C11.6709 48.7285 11.6347 48.6723 11.5469 48.728C11.378 48.8353 10.8201 47.8841 10.9646 47.7356C11.0111 47.6879 10.675 46.9425 10.2184 46.0789C9.00724 43.7897 8.07368 41.764 6.98912 39.0712C6.4614 37.7607 5.98419 36.7352 5.92856 36.7923C5.8731 36.8491 5.8671 36.7127 5.91514 36.489C5.97236 36.223 5.95046 36.1565 5.85227 36.2974C5.63892 36.603 5.06917 34.9179 5.21117 34.4009C5.29948 34.0795 5.28393 34.0529 5.13065 34.2626C4.98264 34.465 4.96374 34.3883 5.04551 33.916C5.12835 33.4368 5.10945 33.364 4.95544 33.5697C4.79013 33.7898 4.77565 33.7813 4.86043 33.5131C4.91518 33.3388 4.77512 32.4423 4.54871 31.5204C3.45107 27.0515 2.30664 19.099 2.25012 15.5484C2.2413 15.0022 2.19926 14.8696 2.10919 15.1059C1.99015 15.4185 1.97249 15.412 1.87023 15.0195C1.80948 14.7861 1.7588 14.186 1.75755 13.6857C1.75403 12.3068 1.42341 12.4843 1.19276 13.9889C1.1562 14.2273 1.11717 13.2525 1.10587 11.823C1.09456 10.3935 1.14119 9.14578 1.20936 9.05052C1.27753 8.95527 1.56011 8.87711 1.83721 8.87711C2.44439 8.87711 2.56749 8.50269 2.20561 7.75775C1.96931 7.27134 1.97956 7.22077 2.40413 6.77833C2.83541 6.32877 4.42507 5.49144 5.29842 5.25392C5.70604 5.14301 5.70444 5.14816 5.25603 5.41061C5.001 5.56016 4.79225 5.75815 4.79225 5.85037C4.79225 6.06508 4.78765 6.06563 5.63592 5.75815C6.49072 5.44835 6.70794 5.43233 6.55253 5.69013C6.47729 5.81529 6.54723 5.84646 6.75368 5.77969C10.3851 4.60584 13.4944 3.82245 16.7719 3.25449C18.3241 2.98565 19.4066 2.72677 19.2185 2.66945C19.0328 2.61282 19.2607 2.60534 19.7247 2.65306C20.3692 2.71929 20.5085 2.69401 20.3153 2.54677C20.1225 2.40006 20.2834 2.37407 20.9899 2.43906C21.5003 2.48589 23.5506 2.45722 25.5457 2.37495C32.2728 2.09864 35.0799 2.03829 34.8699 2.17466C34.755 2.24926 35.7877 2.40559 37.1647 2.52185C40.2236 2.78036 44.8852 3.46406 47.408 4.02417C48.4388 4.25296 49.4653 4.39861 49.689 4.34751C50.0214 4.27166 50.0493 4.29142 49.8426 4.45469C49.6339 4.6192 49.6536 4.63593 49.9549 4.54905C50.3911 4.42389 51.2247 4.61047 51.1064 4.80703C51.0605 4.88342 51.1869 4.90176 51.3871 4.8478C51.6521 4.77659 51.7153 4.80953 51.6194 4.96923C51.5211 5.1325 51.5841 5.1569 51.8671 5.06466C52.11 4.98544 52.2084 5.00484 52.14 5.11843C52.0787 5.22028 52.4111 5.42414 52.9205 5.59702C54.6048 6.16854 56.5087 7.08084 56.9861 7.54481C57.9882 8.51871 58.0287 8.72167 57.9913 12.5615C57.9622 15.5401 57.6352 20.834 57.3467 22.9993C57.2559 23.6804 57.3069 23.5638 57.8028 21.9596C57.9942 21.3404 58.2164 20.7489 58.2965 20.6456C58.3767 20.5423 58.5151 20.0354 58.6044 19.5193C58.7583 18.6289 58.7622 18.6476 58.678 19.8803C58.0875 28.5301 55.1722 38.8285 51.2561 46.1007C47.9233 52.2889 43.1069 58.4155 38.3666 62.4965L37.2722 63.4387L38.0398 62.5832C38.4619 62.1127 38.9312 61.4445 39.0822 61.098C39.2334 60.7519 39.6055 60.1669 39.9091 59.7983L40.4612 59.1283L39.879 59.6576C39.559 59.9488 38.8034 60.6456 38.2003 61.2063C36.8815 62.4321 33.4646 65.2461 31.9274 66.373C30.5277 67.3981 30.0601 67.496 29.1502 66.9521ZM24.8709 46.3919C25.5865 45.6571 25.156 45.1365 24.3263 45.7337C24.0225 45.9523 23.7444 46.1485 23.7081 46.1707C23.5712 46.2529 24.0785 46.7386 24.3012 46.7386C24.4288 46.7386 24.6852 46.5827 24.8709 46.3919ZM20.4193 43.7869C20.4333 43.5043 20.3903 43.2728 20.3238 43.2728C20.0949 43.2728 19.7646 44.1167 19.8763 44.4165C20.0383 44.8498 20.3872 44.445 20.4193 43.7869ZM32.7834 43.6827C33.0928 43.5243 33.1243 43.4526 32.9356 43.3348C32.805 43.2528 32.5364 42.9134 32.339 42.5799C31.8935 41.8273 31.2783 41.1403 31.1593 41.2622C31.1103 41.3126 31.3178 41.7492 31.6195 42.2329C32.0727 42.9582 32.1532 43.2302 32.0805 43.7879C31.9828 44.5347 32.1547 44.9213 32.3012 44.2843C32.3522 44.0632 32.5692 43.7925 32.7834 43.6827ZM41.7411 43.403C41.7398 43.2837 41.6733 43.0804 41.5936 42.9512C41.4082 42.6508 41.1639 42.9994 41.3019 43.3679C41.4166 43.6757 41.7444 43.7019 41.7411 43.403ZM34.9943 39.6216C34.9943 39.5398 34.8426 39.3895 34.657 39.2875C34.4716 39.1854 34.3197 38.9877 34.3197 38.8482C34.3197 38.7087 34.2437 38.5943 34.1508 38.5943C33.8618 38.5943 33.9611 39.6046 34.2673 39.7806C34.5737 39.9566 34.9943 39.8647 34.9943 39.6216ZM21.7109 37.2081L21.8028 36.2548L21.5417 36.8614C21.3981 37.1949 21.2532 37.8578 21.2199 38.3342C21.1603 39.1869 21.163 39.1924 21.3892 38.6808C21.5156 38.3951 21.6603 37.7322 21.7109 37.2081ZM30.5733 38.3084C30.6155 38.0157 30.7481 37.9648 31.4412 37.9755C32.3872 37.9898 32.8886 37.6353 33.061 36.8295C33.1449 36.438 33.0856 36.2195 32.8164 35.925C32.6213 35.7119 32.1671 34.9324 31.8078 34.1931C31.0677 32.6714 31.0972 32.6068 32.4708 32.7426C32.9306 32.7879 33.3071 32.7711 33.3071 32.705C33.3071 32.4779 34.1682 32.1828 34.8322 32.1828C35.3151 32.1828 35.5556 32.2778 35.7086 32.5293C35.8245 32.7198 36.0341 32.8737 36.1741 32.8705C36.376 32.8666 36.3678 32.8287 36.1336 32.6888C35.6085 32.3748 35.8207 32.1648 36.3691 32.4556C36.7782 32.6731 36.8457 32.7726 36.6644 32.8908C36.4919 33.003 36.5419 33.0431 36.8507 33.0415C37.2719 33.039 37.2719 33.0383 36.7216 32.5243C36.301 32.1314 36.0088 32.0095 35.4872 32.0095C35.1114 32.0095 34.657 31.9288 34.4776 31.8301C34.0773 31.6101 34.0255 31.0565 34.42 31.2118C34.5677 31.27 34.8906 31.3618 35.1371 31.4159L35.5855 31.5137L35.1634 31.1328C34.9317 30.9234 34.5329 30.6764 34.2777 30.5839C33.7212 30.3825 33.6722 29.9726 34.1816 29.779C34.5284 29.6474 34.521 29.633 34.055 29.5339C33.7377 29.4662 33.4549 29.234 33.2654 28.8856C33.0053 28.4073 32.9092 28.3564 32.4572 28.4584C31.8807 28.5883 31.1141 28.1894 31.1141 27.7599C31.1141 27.6192 31.2739 27.3398 31.4694 27.1392L31.8247 26.7742L31.4987 25.7096C31.1869 24.6902 31.1331 24.6252 30.239 24.1829C28.8536 23.4976 28.8058 22.9249 30.0605 22.0491C30.8198 21.5192 31.4152 21.4982 32.3147 21.9693C33.0446 22.3517 33.4762 23.11 33.4762 24.0091C33.4762 24.3443 33.7805 24.9345 34.3928 25.7873C35.3441 27.1113 35.7379 28.1222 35.6413 28.9913C35.5954 29.4031 35.4912 29.5111 35.079 29.5742C34.6339 29.6422 34.6645 29.663 35.3323 29.7476C35.967 29.8276 36.1337 29.9303 36.3499 30.3742C36.6971 31.0874 37.5214 32.1488 37.5237 31.8858C37.5247 31.7701 37.3673 31.2634 37.1739 30.7595C36.9806 30.2557 36.5602 28.8296 36.2402 27.5907C35.9039 26.2888 35.3578 24.7205 34.9469 23.875C34.5555 23.0701 34.2103 22.3489 34.1792 22.2721C34.1483 22.1951 34.2784 22.1323 34.4686 22.1323C35.0278 22.1323 35.9781 23.1338 36.6992 24.4835C37.409 25.8112 37.9803 26.3476 38.5903 26.2587C38.9088 26.212 38.9555 26.105 38.9294 25.4851C38.8946 24.653 38.3435 23.4398 37.8592 23.1293C37.3677 22.814 37.4512 22.6522 38.1063 22.6522C38.6889 22.6522 39.0226 22.4194 38.7179 22.226C38.6281 22.169 37.9903 21.9742 37.3003 21.7929C36.6105 21.6117 35.2779 21.1017 34.3386 20.6601C33.3028 20.1723 32.5075 19.897 32.3156 19.9595C32.1416 20.0161 31.5893 20.4307 31.0884 20.8808C29.7051 22.1236 28.6113 22.8958 27.4019 23.4832C25.3725 24.4687 24.9551 25.1626 24.4671 28.3616C24.315 29.3579 24.1298 30.2154 24.0553 30.2679C23.7384 30.4904 22.1421 32.7853 21.9139 33.3459C21.6137 34.0835 21.6024 34.4508 21.8609 35.0335C22.105 35.5836 22.7277 35.6206 23.079 35.1054C23.4693 34.533 23.8623 34.7973 23.7429 35.5523C23.6793 35.9537 23.7122 36.1679 23.8365 36.1679C24.1353 36.1679 24.7079 35.5034 24.9754 34.8457C25.2956 34.0585 25.6068 33.9626 26.3841 34.4112C27.1943 34.8789 28.1429 34.8898 28.7029 34.4375C28.9372 34.2484 29.1906 34.1324 29.266 34.1805C29.4497 34.2971 29.6797 33.9107 29.6797 33.4854C29.6797 33.018 30.2042 32.9452 30.4313 33.3811C30.5673 33.6422 30.5612 33.8231 30.4069 34.0767C30.1084 34.5677 30.3804 34.736 30.9396 34.4065L31.4182 34.1242L31.4897 34.7535C31.5538 35.3182 31.4786 35.4656 30.755 36.1893C29.864 37.0807 29.6225 37.704 29.9137 38.3604C30.1324 38.8537 30.4983 38.8247 30.5733 38.3084ZM24.0273 34.684C24.0273 34.169 24.3027 33.5691 24.5392 33.5691C24.7729 33.5691 24.7406 34.6729 24.4995 34.9204C24.1832 35.2457 24.0273 35.1678 24.0273 34.684ZM26.3031 32.4157C26.1493 32.2582 25.9551 31.9445 25.8718 31.7184C25.6496 31.1183 25.2545 31.0382 24.7786 31.4973C24.2804 31.9782 24.0869 31.8475 24.3275 31.192C24.4246 30.9268 24.5952 29.9763 24.7062 29.0795C25.023 26.519 25.7425 26.097 26.3188 28.1334C26.4635 28.6452 26.6905 29.1754 26.8232 29.3113C26.9558 29.4474 27.0642 29.8717 27.0642 30.254C27.0642 30.8158 27.1936 31.1025 27.7392 31.7494C28.1105 32.1904 28.4139 32.5845 28.4139 32.6267C28.4139 32.6688 28.002 32.7028 27.4982 32.7028C26.8708 32.7027 26.4943 32.6119 26.3031 32.4157ZM33.0542 21.5292C32.6478 21.1852 32.5948 21.0692 32.7856 20.9395C33.253 20.6227 34.2909 21.3169 33.9609 21.7255C33.7071 22.0399 33.6407 22.0255 33.0542 21.5292ZM38.0599 36.7284C38.2249 36.5594 38.0137 36.5149 37.0448 36.5149C35.1992 36.5149 34.3197 35.8957 34.3197 34.5973C34.3197 33.1685 36.092 32.7741 36.543 34.1027C36.6374 34.3811 36.7861 34.6092 36.8729 34.6092C36.9657 34.6092 36.9588 34.4703 36.8564 34.2739C36.5712 33.7263 36.6515 33.5705 37.2301 33.5491C37.6403 33.534 37.5524 33.4904 36.8809 33.3755C36.3874 33.2911 35.8418 33.1445 35.6688 33.0492C34.9801 32.6706 33.8273 32.9223 33.3547 33.5544C32.7622 34.3468 33.4528 35.9854 34.6569 36.6454C35.2997 36.9977 35.6026 37.0522 36.6341 37.0018C37.3042 36.9687 37.9457 36.846 38.0599 36.7284ZM41.4765 35.625C41.4112 35.5167 41.3499 35.2698 41.3402 35.076C41.3301 34.8825 41.2166 34.6878 41.0877 34.644C40.9452 34.5953 40.8997 34.6407 40.971 34.7595C41.0431 34.8795 40.9614 34.9553 40.7595 34.9553C40.5784 34.9553 40.3864 35.0722 40.333 35.2152C40.2605 35.4094 40.3597 35.4752 40.7268 35.4752C40.9968 35.4752 41.2646 35.5532 41.322 35.6485C41.3793 35.7437 41.4643 35.8218 41.5104 35.8218C41.5571 35.8218 41.5415 35.7332 41.4765 35.625ZM40.7975 31.2161C40.9237 30.8784 40.7356 29.5838 40.5607 29.5838C40.2923 29.5838 40.0999 31.1301 40.3375 31.3744C40.5223 31.564 40.6889 31.5066 40.7975 31.2161ZM23.3561 30.25C23.7252 29.6633 24.0264 29.0979 24.0253 28.9935C24.0241 28.8891 23.8359 29.1407 23.6065 29.5526C23.3772 29.9642 23.0315 30.5296 22.8377 30.8088C22.6441 31.0883 22.5304 31.3166 22.5852 31.3166C22.64 31.3166 22.9868 30.8365 23.3561 30.25ZM41.3157 26.4268C41.196 25.6999 40.9392 25.4289 40.7149 25.7927C40.466 26.1965 40.5466 27.141 40.8578 27.4673C41.1412 27.7645 41.1587 27.7628 41.2884 27.4287C41.3624 27.2372 41.3748 26.7864 41.3157 26.4268ZM24.2979 26.6847C24.2419 26.6272 24.2022 26.7295 24.2095 26.912C24.2176 27.114 24.2575 27.1549 24.3114 27.0167C24.3599 26.8917 24.3538 26.7423 24.2979 26.6847ZM25.6301 24.212C25.7979 24.0213 25.8977 23.8654 25.8509 23.8654C25.8047 23.8654 25.6295 24.0213 25.4613 24.212C25.2934 24.4025 25.194 24.5584 25.2404 24.5584C25.2868 24.5584 25.4622 24.4025 25.6301 24.212ZM40.4843 20.1668C40.7074 18.9466 39.6264 17.6166 38.1976 17.3531C37.6129 17.2452 37.6138 17.2465 38.3678 17.6525C39.6954 18.3669 40.2929 19.9017 39.6247 20.8813C39.4803 21.0932 39.4164 21.3574 39.483 21.4682C39.6629 21.7666 40.357 20.8644 40.4843 20.1668ZM30.3546 21.0927C30.5224 20.9021 30.622 20.7462 30.5754 20.7462C30.5288 20.7462 30.3537 20.9021 30.1859 21.0929C30.0179 21.2834 29.9184 21.4394 29.9649 21.4394C30.0113 21.4394 30.1866 21.2832 30.3546 21.0927ZM31.4512 20.1398C31.5667 19.9969 31.6234 19.8798 31.577 19.8798C31.5305 19.8798 31.3981 19.9969 31.2825 20.1398C31.1671 20.2828 31.1103 20.3997 31.157 20.3997C31.2032 20.3997 31.3358 20.2826 31.4512 20.1398ZM28.4987 16.8335C27.0416 16.2958 26.9688 15.2926 28.3477 14.7518C29.0153 14.4899 29.4395 14.4978 30.1701 14.7857C30.3485 14.8562 30.4385 14.7963 30.4385 14.609C30.4385 14.2352 31.1019 13.9923 32.1792 13.9709C32.8705 13.9574 32.9655 13.9245 32.6321 13.815C30.9027 13.2461 27.7112 14.1495 26.984 15.4136L26.6748 15.9513L27.2889 16.5294C27.7667 16.9789 28.0438 17.1045 28.5382 17.0951L29.1735 17.083L28.4987 16.8335ZM5.63575 12.2639C5.63575 9.36869 5.67565 8.81124 5.88882 8.72738C6.10783 8.64102 6.14191 9.03521 6.14191 11.6544C6.14191 15.0173 6.07992 14.872 7.32308 14.4216C8.14785 14.1224 8.33541 14.1023 8.33541 14.3117C8.33541 14.3943 7.7623 14.6765 7.06188 14.9388C6.36144 15.2012 5.81801 15.4462 5.85438 15.4836C5.89059 15.5209 6.49548 15.3388 7.1984 15.0793C8.32923 14.6614 8.48446 14.5512 8.54576 14.1223C8.62169 13.5899 8.55229 13.5881 7.34463 14.0959C6.25811 14.5526 6.29061 14.6434 6.34536 11.3024C6.37274 9.63469 6.3874 8.26998 6.37804 8.27016C6.36868 8.27016 6.12195 8.35598 5.82966 8.46049L5.29842 8.65064V12.2827C5.29842 14.6603 5.35669 15.878 5.46708 15.808C5.57022 15.7421 5.63575 14.3683 5.63575 12.2639ZM33.6167 15.5695C33.7851 15.4597 33.7443 15.3966 33.454 15.3187C33.2406 15.2614 33.0246 15.2831 32.9743 15.3672C32.9236 15.4511 32.6174 15.5526 32.2935 15.593C31.8198 15.6515 31.8699 15.6709 32.5478 15.6908C33.0119 15.7047 33.4927 15.6499 33.6167 15.5695ZM53.9273 11.9751L53.8779 8.57514L54.3493 8.69479C54.9056 8.83599 54.6901 8.54649 54.1031 8.36435L53.7233 8.24666V11.8107C53.7233 13.7708 53.7803 15.3749 53.8501 15.3749C53.9197 15.3749 53.9543 13.8449 53.9273 11.9751ZM50.6666 11.9288C50.0943 10.4836 49.5956 9.33237 49.5584 9.37029C49.5213 9.40875 49.8819 10.4437 50.3596 11.6706C50.8376 12.8979 51.2986 14.0877 51.384 14.3155C51.4694 14.543 51.5773 14.6904 51.6234 14.643C51.6695 14.5957 51.2391 13.3743 50.6666 11.9288ZM10.2739 13.3353C10.4337 12.2412 10.4962 12.1275 11.005 12.003C11.2537 11.9421 11.5838 11.854 11.7389 11.8068C11.9639 11.7383 12.0592 11.9119 12.2122 12.6691L12.404 13.617L12.9174 13.4332C13.5138 13.2196 13.5539 13.6147 12.5147 9.47178L11.7947 6.60154L11.2754 6.73971C10.7885 6.86949 10.7385 6.96101 10.4683 8.22388C10.3097 8.964 9.92949 10.6695 9.62325 12.0139L9.06658 14.4581L9.61354 14.2857C10.0957 14.1335 10.1737 14.0212 10.2739 13.3353ZM9.74352 13.3743C9.6886 13.2273 9.68136 13.0681 9.72745 13.0209C9.77337 12.9734 9.85179 13.0939 9.90124 13.2883C10.0065 13.7012 9.88958 13.7649 9.74352 13.3743ZM9.86751 12.5297C9.86009 12.3472 9.90017 12.2446 9.95617 12.3023C10.0121 12.36 10.0183 12.5094 9.96941 12.6344C9.91554 12.7727 9.87545 12.7316 9.86751 12.5297ZM10.2048 10.9704C10.1974 10.7877 10.2375 10.6853 10.2935 10.743C10.3495 10.8007 10.3556 10.9499 10.3069 11.0751C10.253 11.2132 10.213 11.1721 10.2048 10.9704ZM10.8827 10.5659C10.8915 10.3038 10.9907 9.69949 11.1031 9.22305L11.3072 8.35669L11.5183 9.55314C11.6907 10.531 11.6889 10.7763 11.5089 10.8936C11.0912 11.1655 10.8661 11.0478 10.8827 10.5659ZM10.3737 10.2771C10.3662 10.0946 10.4062 9.99202 10.4623 10.0497C10.5183 10.1072 10.5241 10.2568 10.4756 10.3818C10.4217 10.5201 10.3818 10.479 10.3737 10.2771ZM10.6363 9.22305C10.8274 8.06292 11.0443 7.55656 10.9334 8.52975C10.8789 9.00637 10.7643 9.51308 10.6785 9.65605C10.5766 9.82555 10.5621 9.67438 10.6363 9.22305ZM11.0377 7.36018C11.036 7.15632 11.1596 7.06142 11.4148 7.07068C11.6686 7.07958 11.7104 7.11698 11.5414 7.18321C11.4019 7.23768 11.2323 7.36801 11.1644 7.47289C11.0879 7.59039 11.0393 7.54731 11.0377 7.36018ZM48.6616 10.2867V6.93181L49.1255 7.00801C49.4883 7.06748 49.5342 7.04398 49.3364 6.90011C49.1972 6.79864 48.9124 6.7146 48.7038 6.71317L48.324 6.71051V10.1761C48.324 12.371 48.3858 13.6417 48.4927 13.6417C48.5996 13.6417 48.6616 12.4079 48.6616 10.2867ZM15.183 12.9484C15.3764 12.9484 15.4267 12.508 15.4453 10.6526C15.4576 9.3897 15.5016 8.55147 15.5424 8.78969C15.6607 9.48014 16.6306 12.6742 16.7687 12.8291C16.8376 12.9068 16.943 12.6725 17.0028 12.3093C17.0625 11.946 17.3731 10.8297 17.6933 9.82912L18.2752 8.0095L18.1761 10.279L18.077 12.5484L18.5991 12.4698L19.1212 12.3912L19.1699 8.85734L19.2187 5.32354H18.6868C18.1731 5.32389 18.142 5.36716 17.7828 6.58017C17.5783 7.27099 17.2794 8.36702 17.1191 9.01546L16.8271 10.1941L16.2091 8.2139C15.8691 7.12481 15.5909 6.14592 15.5909 6.03874C15.5909 5.82153 15.3572 5.7966 14.7894 5.9531C14.4113 6.05708 14.4097 6.07238 14.4097 9.60815C14.4097 12.7747 14.4389 13.1473 14.6768 13.0537C14.8234 12.996 15.0512 12.9484 15.183 12.9484ZM46.1657 9.72228L46.1162 6.32272L46.5454 6.43311C46.7814 6.49399 46.9744 6.47317 46.9744 6.38681C46.9744 6.30047 46.7465 6.1956 46.4682 6.15341L45.9619 6.0772V9.59943C45.9619 11.5366 46.0188 13.1218 46.0886 13.122C46.1581 13.122 46.1927 11.5921 46.1657 9.72228ZM43.724 10.1329C43.6901 9.63237 43.662 10.0419 43.662 11.0425C43.662 12.0431 43.69 12.4526 43.7239 11.9521C43.7583 11.4518 43.7584 10.6332 43.724 10.1329ZM22.8571 11.8949C23.777 11.6573 24.2386 11.0407 24.3282 9.93006C24.3949 9.10572 24.3529 8.93551 23.9933 8.56589C23.5919 8.15371 23.5894 8.13449 23.8892 7.75436C24.3613 7.15579 24.3023 5.93726 23.7751 5.39583C23.3842 4.99451 23.254 4.96728 21.961 5.01375L20.5684 5.06413L20.5227 8.63462L20.4773 12.2053L21.3664 12.1277C21.8553 12.0849 22.5261 11.9804 22.8571 11.8949ZM21.4963 9.91617V8.78987H22.1449C22.9233 8.78987 23.352 9.20079 23.352 9.94627C23.352 10.6292 22.8858 11.0425 22.1156 11.0425H21.4963V9.91617ZM21.5634 7.6803C21.5147 7.54998 21.4987 7.10291 21.5278 6.68682C21.5752 6.01025 21.6285 5.92479 22.0362 5.87654C22.7681 5.79001 23.1836 6.11779 23.1836 6.78189C23.1836 7.44778 22.9838 7.65787 22.2069 7.8092C21.8165 7.88541 21.6257 7.84713 21.5634 7.6803ZM40.8999 8.85628C40.8999 5.54254 40.9084 5.45921 41.2372 5.54769C41.423 5.59755 41.5745 5.57672 41.5745 5.50141C41.5745 5.37891 41.0162 5.15938 40.6888 5.15334C40.6191 5.1519 40.5622 6.74949 40.5622 8.70316C40.5622 10.9558 40.6239 12.2551 40.731 12.2551C40.8379 12.2551 40.8999 11.0069 40.8999 8.85628ZM51.9986 7.83574C52.4539 7.92458 52.4533 7.92297 51.9516 7.68083L51.4454 7.43674L51.3977 9.43795C51.3547 11.2392 51.325 11.4068 51.1012 11.111C50.8739 10.8105 50.8677 10.8267 51.0275 11.3022C51.398 12.4041 51.4467 12.2719 51.4924 10.044L51.5395 7.746L51.9986 7.83574ZM38.5379 11.8042C38.8143 11.6297 38.8432 11.5804 38.6223 11.6603C38.4367 11.7274 38.0191 11.8408 37.6944 11.9122C37.1139 12.0401 37.1125 12.0422 37.6096 12.0561C37.8882 12.0636 38.3058 11.9503 38.5379 11.8042ZM28.2133 11.5577C28.8904 11.1338 29.2406 10.331 29.37 8.90578C29.6388 5.95293 28.3232 3.90987 26.6715 4.71499C25.8236 5.12805 25.3393 6.21643 25.2431 7.92564C25.067 11.0491 26.4075 12.6883 28.2133 11.5577ZM26.7392 10.535C26.045 9.82217 26.0354 6.8597 26.7247 6.10622C27.2393 5.5436 27.6573 5.55428 28.0308 6.13969C28.2647 6.50629 28.33 6.97116 28.33 8.26998C28.33 9.56882 28.2647 10.0337 28.0308 10.4005C27.6792 10.9513 27.1937 11.0019 26.7392 10.535ZM34.3197 11.5552C34.3197 11.4776 34.1013 10.7802 33.8341 10.0054L33.3487 8.59669L33.7488 8.32749C34.6548 7.71769 34.6274 5.73428 33.7023 4.98686C33.3429 4.69647 33.0179 4.63077 31.9348 4.63077H30.6076V11.7356H31.0292C31.4479 11.7356 31.4512 11.724 31.4512 10.1759V8.61628L31.9154 8.61806C32.3533 8.6202 32.4061 8.71028 32.8607 10.2319C33.3357 11.8227 33.3481 11.8424 33.8309 11.7698C34.0996 11.7294 34.3197 11.6327 34.3197 11.5552ZM33.593 11.4322C33.5536 11.3608 33.3151 10.659 33.0632 9.87255L32.6046 8.44321H31.9436C31.5264 8.44321 31.2831 8.36311 31.284 8.22654C31.285 8.08286 31.6 8.00043 32.2188 7.98209C32.7322 7.96659 33.2555 7.866 33.3819 7.75829C34.0072 7.22558 33.798 5.8769 33.0348 5.51993C32.534 5.28562 31.509 5.26122 31.3771 5.4804C31.3253 5.56639 31.2682 6.50005 31.2499 7.55514C31.2321 8.61022 31.1749 9.42994 31.1232 9.37723C31.0717 9.32418 30.9913 8.31254 30.9449 7.1289L30.8605 4.97671L32.0465 4.97707C33.4257 4.97743 33.8642 5.21209 34.1513 6.10479C34.4147 6.92539 34.2259 7.66428 33.6301 8.14322L33.135 8.54096L33.632 10.0515C34.0111 11.2029 34.0741 11.5618 33.897 11.5618C33.7692 11.5624 33.6326 11.504 33.593 11.4322ZM31.5203 7.51151C31.4713 7.38029 31.4547 6.89281 31.4832 6.42848C31.5336 5.61642 31.5565 5.58207 32.0814 5.53006C33.171 5.422 33.934 6.88106 33.1012 7.48036C32.6346 7.81579 31.6413 7.83521 31.5203 7.51151ZM36.5373 11.47C35.8781 10.9002 35.6145 10.0492 35.6007 8.44321C35.5855 6.70889 36.0028 5.55357 36.7618 5.22775C37.5307 4.89802 38.4441 5.20639 38.8428 5.93049C38.9476 6.121 39.036 6.17352 39.0385 6.04712C39.0414 5.92052 38.8218 5.58919 38.5505 5.31055C38.1722 4.92206 37.9023 4.804 37.3919 4.804C35.9302 4.804 35.2611 6.06882 35.3603 8.64298C35.4291 10.417 35.7907 11.4815 36.4125 11.7399C37.0266 11.9952 37.0604 11.922 36.5373 11.47ZM38.2521 11.1376C38.8428 10.5313 38.7332 9.13635 38.0953 9.13635C37.9673 9.13635 37.8629 9.01117 37.8629 8.85807C37.8629 8.67539 37.9547 8.61575 38.1296 8.68464C38.2765 8.74251 38.5762 8.78969 38.7959 8.78969C39.1571 8.78969 39.2008 8.8764 39.2568 9.69949L39.3187 10.6093L39.3503 9.52626L39.3814 8.44321H38.4535C37.5828 8.44321 37.5253 8.46922 37.5253 8.86482C37.5253 9.19599 37.6249 9.29837 37.9895 9.34146C38.3968 9.38953 38.4462 9.45985 38.3939 9.91617C38.3066 10.683 38.0667 11.043 37.646 11.0387C37.02 11.0323 36.521 10.4946 36.361 9.6541C36.2601 9.12476 36.2068 9.02506 36.1942 9.34181C36.1373 10.7678 37.475 11.9355 38.2521 11.1376ZM39.1801 10.9511C39.1282 10.8977 39.0339 10.9939 38.9704 11.1648C38.8785 11.4119 38.898 11.4317 39.065 11.2618C39.1802 11.1443 39.232 11.0045 39.1801 10.9511ZM43.7682 7.30659C43.7682 6.03891 43.7752 6.01737 44.2001 6.01737C44.4449 6.01737 44.5866 5.94242 44.5275 5.84414C44.4703 5.74888 44.2377 5.67073 44.0114 5.67073C43.609 5.67073 43.5996 5.70278 43.5996 7.05697C43.5996 8.0558 43.5406 8.44038 43.3887 8.4329C43.2726 8.42737 42.8172 8.36167 42.3766 8.28726C41.9357 8.21247 41.5746 8.21247 41.5746 8.2869C41.5746 8.36132 41.9357 8.47206 42.3766 8.53295C42.8172 8.59403 43.2537 8.6663 43.3465 8.69355C43.6966 8.79646 43.7682 8.56037 43.7682 7.30659ZM36.4241 7.00392C36.4834 6.64124 36.6793 6.19274 36.8597 6.00759C37.0399 5.82224 37.1137 5.67055 37.023 5.67055C36.7251 5.67055 36.3149 6.51002 36.2438 7.26688C36.1624 8.12292 36.2664 7.97194 36.4241 7.00392ZM38.5377 6.80521C38.5377 6.57163 38.1263 5.85197 37.9538 5.78396C37.8203 5.73143 37.8421 5.90059 38.0186 6.28871C38.244 6.78296 38.5377 7.07566 38.5377 6.80521ZM39.2124 6.54261C39.2124 6.45001 39.0986 6.41975 38.9594 6.47459C38.8203 6.52943 38.7063 6.60492 38.7063 6.64231C38.7063 6.6797 38.8203 6.71051 38.9594 6.71051C39.0986 6.71051 39.2124 6.63483 39.2124 6.54261ZM4.54376 6.05085C4.49185 5.99744 4.35567 6.05066 4.24122 6.16907C4.07575 6.33998 4.09517 6.36011 4.33572 6.2661C4.50208 6.20112 4.59568 6.10426 4.54376 6.05085Z" fill="#091920"/>
<path d="M29.6923 69.2802C29.0564 69.1906 28.6266 68.9791 27.7181 68.3106C24.6047 66.0195 22.0316 63.8952 19.7268 61.713C18.8427 60.8759 16.9006 58.8641 16.2184 58.0787C13.4297 54.8681 11.1165 51.5775 8.28384 46.793C7.65935 45.7384 6.89745 44.1631 5.85757 41.7745C2.47955 34.0191 0.715387 26.1894 0.194916 16.6429C0.0937186 14.7844 0.0601627 13.3516 0.06864 11.2464C0.0757044 9.50565 0.0841817 9.29662 0.166659 8.83726C0.322783 7.9677 0.625138 7.14371 0.991428 6.58929C1.44479 5.90312 2.67452 4.91337 3.65948 4.44191C5.05063 3.77584 8.43908 2.74427 11.4925 2.05701C12.3215 1.87042 13.9569 1.53303 14.5117 1.43386C14.6741 1.40502 15.0162 1.34306 15.2719 1.29677C15.5244 1.25062 15.7778 1.20895 16.0319 1.17178C16.1943 1.14953 16.4605 1.10306 16.6231 1.06852C16.7855 1.03398 17.0896 0.983055 17.2986 0.955992C17.5077 0.928752 17.9446 0.869285 18.2699 0.823885C18.53 0.787051 18.7905 0.751798 19.0511 0.718127C20.0704 0.594921 20.4007 0.556463 21.078 0.482219C24.5142 0.106013 29.0795 -0.0716747 32.3735 0.0429853C33.8198 0.0931936 37.1009 0.284235 37.3606 0.333197C37.4327 0.346906 37.7557 0.373078 38.0783 0.391416C38.4009 0.409754 38.9312 0.457827 39.2562 0.497887C39.5815 0.537946 40.1039 0.600084 40.4175 0.63587C41.8882 0.804299 43.1651 0.971838 43.7109 1.06798C43.9085 1.1027 44.4309 1.18976 44.8723 1.26116C49.5193 2.01357 53.3678 3.10996 56.2308 4.49728C57.4695 5.09729 57.9641 5.43486 58.5662 6.08863C59.268 6.85136 59.686 7.6563 59.9053 8.66848C60.0916 9.52629 60.0077 14.8704 59.7552 18.2647C59.4105 22.8969 58.8169 26.7954 57.8355 30.8718C56.775 35.2761 55.3526 39.311 53.2842 43.782C52.5848 45.2937 52.3955 45.6654 51.8153 46.6631C51.5033 47.1991 51.2388 47.6578 51.2271 47.6821C51.2155 47.7065 51.149 47.8138 51.0794 47.9212C51.0096 48.0285 50.9297 48.1544 50.9022 48.2019C50.8743 48.2491 50.7697 48.4243 50.6698 48.5912C50.5702 48.7581 50.4808 48.9138 50.4714 48.9376C50.4621 48.9615 50.4427 48.9907 50.4283 49.0026C50.4139 49.0144 50.3187 49.1607 50.2168 49.3276C50.1036 49.5121 49.9877 49.6949 49.8693 49.876C49.7802 50.0107 49.7071 50.1408 49.7071 50.1647C49.7071 50.1888 49.6929 50.2146 49.6753 50.2228C49.6322 50.2424 49.4114 50.594 49.4114 50.643C49.4114 50.6649 49.383 50.694 49.3482 50.7076C49.3134 50.7214 49.285 50.7525 49.285 50.7766C49.285 50.801 49.1804 50.9755 49.0529 51.1648C48.9249 51.354 48.8205 51.5276 48.8205 51.5508C48.8205 51.5738 48.7923 51.6038 48.7575 51.6176C48.7227 51.6313 48.6938 51.6724 48.6938 51.7089C48.6938 51.7454 48.6779 51.7751 48.659 51.7751C48.6396 51.7751 48.5969 51.8289 48.564 51.8944C48.5311 51.9598 48.4895 52.033 48.4721 52.0568C48.3299 52.2483 48.1576 52.493 47.8499 52.9431C47.5478 53.3838 47.2275 53.8333 46.7981 54.4179C42.9973 59.5943 39.022 63.4817 32.7783 68.1287C31.867 68.8069 31.4396 69.0487 30.9079 69.1874C30.5352 69.2845 30.0072 69.325 29.6923 69.2802ZM30.7727 68.8873C31.2988 68.7502 31.7357 68.5068 32.5699 67.8862C40.5452 61.9529 45.0015 57.1277 50.0808 48.9258C51.446 46.721 52.108 45.5536 52.651 44.3925C54.129 41.2312 55.1935 38.5992 56.0683 35.9405C58.1942 29.4792 59.3419 22.6472 59.6304 14.7337C59.6986 12.876 59.6857 9.27668 59.61 8.82979C59.4026 7.61144 58.6737 6.45274 57.6001 5.63623C57.2102 5.33943 55.8263 4.62138 54.9418 4.25691C52.3209 3.17673 49.3239 2.36574 45.4004 1.67476C43.0965 1.26935 40.088 0.895814 37.1874 0.655276C36.8853 0.63035 36.5339 0.600084 36.406 0.58851C36.0115 0.55219 34.1565 0.441624 33.0914 0.390883C31.0586 0.294027 27.3735 0.344057 24.7939 0.503762C18.0438 0.921274 10.6377 2.28473 5.55981 4.0447C4.16193 4.52898 3.66478 4.75508 2.94315 5.23509C1.77099 6.01439 1.23621 6.60763 0.850671 7.55643C0.399255 8.66688 0.318721 9.60499 0.386891 12.9577C0.473254 17.2107 0.720509 20.5264 1.21078 24.0052C2.18443 30.9148 3.89049 36.7459 6.80686 43.132C7.94121 45.6161 8.26742 46.2158 10.0718 49.1321C10.518 49.8532 11.7315 51.7023 12.2334 52.4253C15.6332 57.3236 18.9241 60.8623 23.827 64.8907C25.1001 65.9369 28.1288 68.255 28.6405 68.5748C28.8259 68.6909 29.3147 68.8827 29.5442 68.93C29.8709 68.9973 30.4251 68.9779 30.7727 68.8873ZM29.637 67.1389C29.3793 67.0644 28.7923 66.6515 27.5924 65.7C20.2222 59.8573 16.0601 55.2832 11.9065 48.4609C11.3505 47.5475 10.6089 46.2694 10.1093 45.3635C9.61071 44.459 8.02211 41.0669 7.22842 39.2114C4.41467 32.6346 2.86861 25.8099 2.3946 17.8747C2.22806 15.0848 2.20297 11.2638 2.34603 10.4664C2.50321 9.59022 2.78738 8.82392 3.17485 8.23014C3.59748 7.5826 4.3781 6.93932 5.12093 6.6265C6.64667 5.98377 10.0992 4.98049 13.055 4.32084C18.1965 3.17371 22.9953 2.58064 28.3829 2.42646C29.8652 2.38425 32.4406 2.3985 32.9645 2.45192C33.0575 2.46134 33.4185 2.48041 33.7668 2.49465C37.1012 2.62995 41.577 3.11548 44.7879 3.69021C48.751 4.39953 51.7692 5.30025 54.3521 6.54425C54.7583 6.74009 55.233 6.96781 55.4064 7.05043C56.8352 7.73001 57.4884 8.77923 57.704 10.7407C57.8099 11.7061 57.5567 16.4826 57.221 19.8459C56.2694 29.3792 54.3581 36.3423 50.7601 43.3861C49.3074 46.2298 46.9856 50.1159 45.2301 52.6416C42.2195 56.9733 39.3036 60.0001 33.4337 64.8869C33.3149 64.9856 32.8189 65.4005 32.331 65.809C31.8433 66.2174 31.3167 66.6396 31.1601 66.7472C30.6098 67.1274 30.0737 67.2651 29.637 67.1389ZM18.6922 51.6523C19.2104 51.4107 19.3821 51.0416 19.4516 50.0205C19.4983 49.3413 19.6283 49.0836 19.9602 49.0124L20.128 48.9766L20.1069 48.5671C20.0751 47.9555 20.0812 47.0473 20.1178 46.9137C20.1354 46.8489 20.3456 46.5465 20.5852 46.2421C21.1528 45.52 21.4911 45.02 21.5864 44.7625C21.6286 44.6482 21.7041 44.2738 21.7537 43.9302C21.8553 43.2283 21.8113 43.3289 22.5738 42.0537C22.8002 41.6751 23.1396 41.044 23.3278 40.6512C23.533 40.2234 23.7343 39.8665 23.8301 39.7613C23.913 39.6704 23.9945 39.5784 24.075 39.4851C24.1217 39.4299 24.1784 39.3848 24.2011 39.3848C24.2874 39.3848 24.539 39.6571 24.6327 39.8525C24.7266 40.0481 24.7305 40.0976 24.7305 41.0673C24.7305 42.0775 24.7305 42.0784 24.8301 42.1613C24.8849 42.2069 24.9731 42.2443 25.0264 42.2443C25.1223 42.2443 25.1222 42.2424 25.0041 42.1132C24.8314 41.9238 24.7915 41.6633 24.8226 40.9286C24.8469 40.3517 24.8412 40.2758 24.7555 40.0152C24.7038 39.8588 24.6678 39.6678 24.675 39.5903C24.6875 39.4572 24.698 39.4492 24.8781 39.4362C25.0925 39.4205 25.1897 39.3478 25.3044 39.117C25.3852 38.9548 25.4065 38.8235 25.3929 38.5753C25.3861 38.4568 25.3543 38.4203 25.1668 38.3154C24.8783 38.1544 24.7987 38.0324 24.7464 37.6714C24.6859 37.2545 24.7353 35.9649 24.823 35.6691C24.9002 35.4087 24.9353 35.4043 25.2375 35.6163C25.5323 35.8233 26.4285 36.2139 26.8711 36.3284C27.4132 36.4687 28.1505 36.4851 28.3849 36.3623C28.588 36.2554 29.3443 35.6626 29.6613 35.3613C29.806 35.2237 30.0387 35.0261 30.178 34.9224C30.3174 34.8186 30.5061 34.6691 30.5973 34.59C30.6886 34.511 30.8067 34.4458 30.8596 34.4458C31.009 34.4458 31.4111 34.6138 31.551 34.7347C31.8053 34.9544 31.6779 35.1763 31.0597 35.589C30.572 35.9144 30.0501 36.4941 29.8094 36.9782C29.6987 37.201 29.1856 38.7596 29.1856 38.8736C29.1856 39.0563 29.3242 39.4361 29.4629 39.6336C29.971 40.3573 30.2162 40.7633 30.2683 40.9686C30.2999 41.0923 30.3546 41.2646 30.39 41.351C30.5269 41.6874 30.3628 41.874 29.8076 42.0126C29.5935 42.0661 29.3101 42.123 29.178 42.1391L28.9375 42.1682L29.0055 42.2747C29.0639 42.3659 29.0789 42.3714 29.1108 42.3129C29.1413 42.2567 29.235 42.2445 29.63 42.2445C30.0183 42.2445 30.1551 42.2267 30.3348 42.1543L30.5572 42.0643L30.6635 42.1995C30.7823 42.3513 31.4667 43.0733 31.4667 43.0468C31.4667 42.9378 31.1397 42.1763 30.8806 41.6811C30.6996 41.3358 30.466 40.8678 30.3613 40.6414C30.2545 40.4097 30.0203 40.0234 29.8259 39.7573C29.6358 39.4974 29.4666 39.2345 29.4497 39.1727C29.3905 38.9542 29.4217 38.5846 29.5252 38.286C29.6881 37.8146 29.8181 37.846 29.8194 38.3576C29.8202 38.729 29.8674 38.8416 30.2731 39.4395C30.7386 40.1256 30.7715 40.186 31.0037 40.7747C31.2002 41.2739 31.442 41.7324 31.7282 42.1497C31.8693 42.3556 32.1425 43.1031 32.1425 43.2831C32.1425 43.3557 32.0907 43.4488 32.0003 43.5386L31.8577 43.6803L31.7673 43.5623C31.7174 43.4976 31.6635 43.4578 31.6476 43.4742C31.6313 43.4908 31.6105 43.6298 31.601 43.7833C31.5839 44.0585 31.5859 44.0646 31.7363 44.2014C31.8801 44.3319 31.8891 44.3554 31.8891 44.6029C31.8891 44.9157 31.9805 45.1284 32.1706 45.2587C32.2479 45.3117 32.5008 45.3905 32.7734 45.4462L33.2429 45.5423L33.4093 45.4069C33.7001 45.1706 34.0407 44.7517 34.0874 44.5724C34.1422 44.365 34.108 44.1857 33.9935 44.0792C33.9366 44.0224 33.8882 43.9574 33.8502 43.8863C33.7648 43.7171 33.8387 43.6741 34.2159 43.6741C34.5232 43.6741 34.5474 43.667 34.6444 43.549C34.7565 43.4118 35.0428 42.7686 35.2108 42.2755C35.2965 42.0234 35.3168 41.8837 35.315 41.5542C35.3129 41.2204 35.333 41.0852 35.4235 40.8176C35.5736 40.3743 35.575 40.0438 35.4274 39.7533C35.3031 39.5086 35.2138 39.4179 34.8975 39.215C34.5518 38.9933 34.5954 38.8543 35.0695 38.6703C35.3405 38.5648 35.478 38.4482 35.478 38.3233C35.478 38.2218 35.4759 38.2212 35.1043 38.2458C34.7326 38.2706 34.7304 38.2701 34.6505 38.151C34.4172 37.8035 34.2836 37.7535 34.0433 37.923C33.7825 38.1069 33.1978 39.1937 33.1978 39.4938C33.1978 39.6684 33.3889 39.8454 33.7369 39.992C33.9166 40.0679 34.1073 40.1584 34.1604 40.1931C34.3347 40.3069 34.4217 40.5093 34.4217 40.801C34.4222 40.9485 34.442 41.1224 34.466 41.1874C34.4901 41.2525 34.5111 41.4311 34.5118 41.5845C34.5136 41.811 34.4898 41.9139 34.3836 42.135C34.2134 42.4897 33.6826 43.1918 33.5434 43.2459C33.3925 43.3047 33.2358 43.1793 33.1601 42.9382C33.1057 42.7656 33.1084 42.7353 33.1971 42.5305C33.3966 42.068 33.4199 41.8959 33.3723 41.2276C33.3479 40.8888 33.3049 40.5588 33.2763 40.4945C33.1891 40.2977 33.0506 40.3577 32.7574 40.72C32.4819 41.0601 32.303 41.204 32.1539 41.2043C32.0095 41.2043 31.9591 41.0577 31.9844 40.7097C32.0104 40.3601 32.0856 40.1245 32.3875 39.4474C32.6151 38.9369 32.9749 37.973 33.0974 37.5441C33.1917 37.2156 33.2025 36.3918 33.1168 36.0497C33.0713 35.8669 33.0069 35.7568 32.8378 35.5732C32.457 35.1597 31.9578 34.4432 31.6905 33.9263C31.3847 33.335 31.1784 32.7136 31.2883 32.7136C31.3458 32.7136 31.8145 33.3282 32.0065 33.6552C32.2417 34.0559 32.3641 34.1584 32.5733 34.1299C32.7268 34.1089 32.7314 34.1124 32.756 34.2667C32.8378 34.779 33.077 35.2831 33.4508 35.7302C33.6234 35.9364 34.339 36.5256 34.5463 36.6318C34.7876 36.7556 35.1829 36.8882 35.6466 37.0011C35.9295 37.0699 36.1511 37.0883 36.693 37.0889C37.4141 37.0889 37.5781 37.0568 37.7491 36.8812C37.7951 36.8342 37.944 36.7549 38.0801 36.7047C38.2161 36.6546 38.3733 36.5889 38.4293 36.559C38.5769 36.4796 38.6899 36.3035 38.6618 36.1969C38.6396 36.1122 38.5996 36.1041 38.103 36.0793C37.463 36.0474 36.895 35.9119 36.4578 35.6859C36.266 35.5885 36.0702 35.4997 35.8707 35.4196C35.3749 35.2283 34.9981 34.919 34.9108 34.6325C34.8675 34.4887 34.9526 34.3675 35.1198 34.335C35.201 34.3196 35.278 34.2895 35.2908 34.2683C35.3034 34.2472 35.3459 34.2296 35.3852 34.2292C35.5654 34.2274 35.5763 34.1745 35.4823 33.764C35.37 33.2727 35.369 33.1901 35.4759 33.1901C35.6487 33.1901 35.7725 33.2987 36.0117 33.66C36.1477 33.8652 36.3662 34.1458 36.4973 34.2831C36.7099 34.5061 36.7543 34.5332 36.9064 34.5332C37.0005 34.5332 37.0883 34.5144 37.1024 34.4913C37.1165 34.4684 37.0888 34.3715 37.0415 34.2765C36.9888 34.1705 36.9556 34.0194 36.9556 33.8865C36.9556 33.7059 36.9774 33.6445 37.0864 33.5168C37.208 33.3746 37.2354 33.3637 37.4602 33.3637C37.7454 33.3637 37.9318 33.4696 38.0922 33.7226C38.1851 33.8694 38.2112 33.8836 38.3853 33.8836C38.5234 33.8836 38.6215 33.8515 38.7381 33.7687C38.875 33.6712 38.9151 33.6612 39.0028 33.7019C39.0592 33.7285 39.152 33.8241 39.2081 33.9141C39.2752 34.018 39.3526 34.1147 39.4392 34.2026C39.5587 34.3183 39.5839 34.3252 39.7948 34.2982C39.9209 34.2819 40.071 34.2884 40.1329 34.3124C40.3243 34.387 40.3465 34.4904 40.2659 34.9221C40.198 35.2843 40.1979 35.3194 40.2647 35.4987C40.3034 35.6038 40.393 35.7551 40.463 35.8358C40.606 36.0005 40.6083 36.0084 40.6727 36.5533C40.7342 37.0725 40.6828 37.4398 40.4696 38.0089C40.3779 38.2536 40.234 38.6399 40.1498 38.8667C40.0655 39.0937 39.9425 39.3456 39.8765 39.4269L39.7564 39.5745L39.9289 39.7091C40.1519 39.8831 40.321 40.1765 40.5603 40.8053C40.9022 41.703 40.9328 41.8144 40.9387 42.158C40.9428 42.4327 40.9163 42.5682 40.7655 43.0334C40.5266 43.7703 40.52 44.0541 40.735 44.3427C40.8162 44.452 40.8827 44.5739 40.8827 44.6138C40.8827 44.6537 40.7784 44.8631 40.6509 45.0796C40.1237 45.9735 40.1255 46.3801 40.6592 46.8805C40.9383 47.142 41.1846 47.2799 41.34 47.2616C41.4452 47.249 41.4539 47.232 41.4659 47.0099C41.4808 46.7428 41.5991 46.564 41.7468 46.5857C41.8205 46.5968 41.8372 46.6412 41.8613 46.8944C41.8966 47.2608 41.9157 47.3132 42.0133 47.3132C42.1881 47.3132 42.776 46.8428 42.8944 46.6081L42.9581 46.4812L42.7754 46.6109C42.6751 46.6822 42.5468 46.7915 42.4905 46.8534C42.3678 46.9888 42.241 46.9972 42.0948 46.8793C41.9463 46.7593 41.9212 46.5916 42.0033 46.2672C42.0994 45.8885 42.0691 45.5949 41.9202 45.4635C41.8231 45.3781 41.76 45.3635 41.482 45.3629C41.3032 45.3629 41.1298 45.3444 41.096 45.3225C40.9825 45.2489 41.1125 45.0735 41.3853 44.9324C41.781 44.7275 41.8022 44.5823 41.462 44.4041C41.2365 44.2861 41.1811 44.2104 41.1795 44.0159C41.1777 43.7924 41.3299 43.5825 41.5564 43.4967C41.8273 43.394 41.9383 43.2421 41.9383 42.9739C41.9383 42.6765 41.8381 42.4825 41.583 42.2858C41.1673 41.9653 41.178 41.9838 41.178 41.5959C41.178 41.3151 41.1932 41.2322 41.2561 41.1678C41.314 41.1082 41.3401 40.9973 41.3577 40.735C41.3728 40.5077 41.4123 40.3159 41.4697 40.1949C41.6094 39.8987 41.595 39.8225 41.3218 39.4065C41.1469 39.1408 41.0936 38.8708 41.0936 38.2552C41.0936 37.9979 41.0759 37.7404 41.0547 37.6828C41 37.535 41.0493 37.0433 41.1217 37.0148C41.2445 36.9665 41.4339 37.101 41.5689 37.3324C41.7172 37.587 41.7483 37.6084 41.7815 37.4784C41.8166 37.3395 42.0223 37.371 42.5089 37.588C43.6114 38.0806 44.8469 38.181 45.5134 37.832C45.8932 37.6332 46.5779 37.0246 46.7533 36.7296C46.9172 36.4539 46.9065 36.4489 46.2244 36.4727C45.5334 36.4969 45.1186 36.4449 44.6616 36.2771C44.2742 36.1347 43.8457 35.8406 43.6044 35.5507C43.4976 35.4224 43.2141 35.1505 42.9742 34.9463C42.7346 34.7421 42.5274 34.5457 42.514 34.5104C42.5062 34.4921 42.4936 34.4763 42.4773 34.4649C42.4611 34.4535 42.442 34.4469 42.4223 34.4458C42.2929 34.4458 41.7216 34.175 41.4089 33.9654C41.2358 33.8496 41.0156 33.7138 40.9199 33.6637C40.6159 33.5044 39.4594 33.2636 38.7407 33.2097L38.3513 33.1805L38.3227 33.0225C38.2708 32.7339 38.1855 32.5415 37.9284 32.1339C37.716 31.7972 37.6733 31.6986 37.6723 31.5393C37.6714 31.3107 37.5798 31.0923 37.2749 30.5948C37.1234 30.3463 37.0161 30.1067 36.9546 29.8772C36.9037 29.6877 36.789 29.3622 36.6995 29.154C36.4959 28.679 36.4249 28.4184 36.365 27.9259C36.2988 27.38 36.2247 27.0738 36.033 26.5556C35.9416 26.3085 35.8246 25.8919 35.7733 25.6298C35.6401 24.9494 35.5901 24.824 35.2459 24.3061C35.0763 24.0513 34.924 23.7769 34.9068 23.6966C34.8898 23.6161 34.8244 23.4899 34.7616 23.4162C34.6989 23.3424 34.5737 23.1573 34.4836 23.0045C34.3935 22.8518 34.2763 22.6609 34.2231 22.5802C34.17 22.4994 34.1265 22.38 34.1265 22.3148C34.1265 22.1304 34.2275 22.0757 34.5448 22.0884C35.2136 22.115 35.7306 22.6294 36.4068 23.9402C36.944 24.9817 37.3851 25.5191 37.9344 25.8011C38.1502 25.9119 38.2893 25.9546 38.4325 25.9546C38.6848 25.9546 38.7762 25.8593 38.8033 25.5688C38.827 25.3183 38.7789 25.0876 38.5496 24.3516C38.4175 23.9279 38.3751 23.7136 38.3546 23.3671C38.3224 22.8314 38.2987 22.7985 37.82 22.6288C37.4081 22.4828 37.3836 22.4063 37.7211 22.319C38.0552 22.2322 38.4115 22.3246 38.8022 22.5994C39.0582 22.7797 39.1073 22.7983 39.2694 22.7799C39.4163 22.7629 39.4967 22.715 39.6938 22.5264C39.9161 22.3138 39.9355 22.2808 39.9195 22.1388C39.9 21.9645 40.0137 21.6969 40.166 21.5574C40.2912 21.443 40.3621 21.264 40.5083 20.6957C40.7026 19.9388 40.6517 19.3075 40.3544 18.7847C40.1168 18.3671 38.9887 17.4471 38.3332 17.1369C37.7344 16.8535 37.7056 16.8511 34.4644 16.8124C30.8492 16.769 29.2406 16.6881 28.7732 16.5257C28.0986 16.292 27.6128 15.8677 27.6843 15.575C27.725 15.4076 27.9516 15.1782 28.1541 15.0989C28.5303 14.9517 29.0615 15.0567 30.094 15.4817C31.0406 15.8716 31.6142 15.9707 32.7096 15.9332C33.6824 15.8998 34.4504 15.7804 34.648 15.6323C34.7203 15.5779 34.7203 15.5728 34.6468 15.5054C34.6044 15.4665 34.2946 15.3626 33.9579 15.2743C33.22 15.0802 32.8177 14.9241 32.8177 14.8313C32.8177 14.7731 32.8908 14.7677 33.3772 14.7891C33.9429 14.8138 34.5734 14.9226 35.0629 15.0802C35.3658 15.1778 36.0498 15.1999 36.2739 15.1198C36.4216 15.0669 36.4484 14.9561 36.3406 14.8457C36.0701 14.568 34.5854 14.0237 33.4445 13.7837C32.7253 13.6323 32.1679 13.5955 30.9687 13.6197C29.4929 13.6494 28.883 13.7598 28.1773 14.1253C27.6011 14.4237 26.9272 15.0522 26.715 15.4888C26.4665 16.0006 26.6342 16.3415 27.3495 16.7808C27.8443 17.0849 28.2319 17.2096 29.0595 17.3314C30.5583 17.5517 31.6165 17.6037 34.5277 17.6009C35.9498 17.5992 37.0832 17.6163 37.2305 17.6411C37.6681 17.7149 38.1824 17.9036 38.4505 18.0884C38.7648 18.3056 39.1515 18.7707 39.3536 19.175C39.4862 19.4407 39.5054 19.5187 39.5078 19.8032C39.5102 20.083 39.4937 20.1593 39.389 20.3533C39.2258 20.6551 38.8909 21.0341 38.7249 21.1046C38.527 21.1888 38.0503 21.1028 37.4858 20.8844C37.0936 20.7321 36.9524 20.6992 36.5569 20.6697C36.0426 20.6313 35.9846 20.6138 35.2199 20.2666C34.439 19.9119 33.2504 19.5163 32.6547 19.4125C32.3704 19.363 32.094 19.419 31.6984 19.6066C31.299 19.7962 31.0694 19.9826 30.275 20.7626C29.5267 21.4978 29.187 21.7716 28.7686 21.9769C28.009 22.3499 25.8383 23.6006 25.6365 23.7819C25.3402 24.0477 24.841 24.6684 24.6309 25.032C24.246 25.6981 24.1269 26.2218 24.0811 27.4496C24.0499 28.2857 24.044 28.3288 23.9124 28.6722C23.7656 29.0557 23.3747 29.7465 22.8468 30.5552C22.3506 31.3154 21.9934 31.9206 21.755 32.4047C21.2852 33.3579 21.2047 33.7229 21.164 35.0744L21.134 36.071L20.981 36.5281C20.8968 36.7791 20.7212 37.2471 20.5904 37.5678C20.106 38.7559 20.1153 38.6951 20.0704 40.8799L20.0374 42.4828L19.8605 42.8414C19.7631 43.0386 19.6004 43.3245 19.4984 43.4767C19.2646 43.8275 19.1985 44.1092 19.1122 45.1254C19.0856 45.4456 19.0568 45.7657 19.0256 46.0856C19.008 46.2446 18.9426 46.3367 18.4734 46.8654C17.5789 47.8732 17.2365 48.3979 17.2365 48.7612C17.2365 48.941 17.2229 48.9651 17.0563 49.0827C16.7291 49.3137 16.268 49.8544 16.1136 50.1885C15.931 50.5829 15.8879 50.9501 15.9987 51.1692C16.1229 51.415 16.2053 51.3741 16.5543 50.8948L16.8645 50.4688L16.9659 50.5666C17.0218 50.6206 17.0676 50.6888 17.0676 50.7187C17.0676 50.7484 16.9909 50.9352 16.8972 51.1335C16.8028 51.3328 16.7322 51.5424 16.7388 51.6025C16.7547 51.7478 16.9017 51.7696 17.7854 51.7594C18.4093 51.7516 18.503 51.7408 18.6922 51.6523ZM18.2997 49.3026C18.1537 49.2439 17.936 48.7424 17.9717 48.5465C18.0025 48.3787 18.0435 48.3666 18.2633 48.461C18.491 48.5587 18.603 48.5411 18.816 48.3745C19.0236 48.2118 19.0897 48.1928 19.1692 48.2748C19.244 48.3514 19.2311 48.4862 19.1307 48.6793C19.0799 48.777 19.0293 48.8747 18.9789 48.9723C18.8604 49.2008 18.4925 49.3797 18.2997 49.3026ZM19.6615 45.2138C19.5677 45.1176 19.5577 45.0722 19.5577 44.7406C19.5577 44.5389 19.5484 44.3481 19.537 44.3164C19.5258 44.2843 19.5349 44.2295 19.5576 44.1936C19.592 44.1393 19.6199 44.1519 19.7281 44.2695C19.8338 44.3843 19.89 44.4102 20.0323 44.4102C20.1522 44.4102 20.2369 44.3815 20.3025 44.3181C20.4314 44.1939 20.5301 44.2388 20.526 44.4196C20.5193 44.7127 20.337 45.0431 20.0928 45.2059C19.8796 45.3476 19.7936 45.3491 19.6615 45.2138ZM33.0994 44.8248C32.9875 44.7941 32.8769 44.7492 32.8538 44.7251C32.7805 44.6502 32.7107 44.1216 32.7563 43.9884C32.8454 43.7279 33.1642 43.8482 33.2436 44.1726C33.2896 44.3605 33.2966 44.3666 33.4536 44.3666C33.6405 44.3666 33.7036 44.4465 33.7036 44.6833C33.7036 44.8155 33.6886 44.8353 33.5715 44.8594C33.3973 44.8955 33.3398 44.8913 33.0994 44.8248ZM20.5422 41.2284C20.3654 41.1483 20.3031 40.9355 20.3246 40.4852C20.3444 40.0704 20.5098 39.6833 20.7339 39.5284L20.8747 39.431L20.98 39.5596C21.0436 39.6376 21.1259 39.6877 21.1883 39.6877C21.3433 39.6877 21.6635 39.5014 21.9012 39.2729C22.0174 39.1611 22.2201 38.9732 22.3521 38.8552C22.6505 38.5881 22.7253 38.4089 22.723 37.965C22.7198 37.3899 22.6804 37.2703 22.4127 37.0237C22.1428 36.7751 22.0383 36.5564 22.0376 36.2395C22.0367 35.8677 22.2141 35.659 22.531 35.659C22.7053 35.659 22.8269 35.7777 23.0465 36.1634C23.4089 36.7989 23.9375 37.0453 24.2854 36.7403C24.4518 36.5943 24.5069 36.5836 24.6007 36.6801C24.6549 36.7357 24.6669 36.8623 24.6669 37.3705C24.6669 37.7127 24.6844 38.0398 24.7058 38.0973C24.732 38.1685 24.8202 38.2336 24.982 38.301C25.2702 38.4212 25.3624 38.5669 25.331 38.853C25.3055 39.085 25.1761 39.2392 24.9562 39.2998C24.72 39.3651 24.5457 39.3016 23.8229 38.8871C23.6045 38.7618 23.3606 38.7461 23.2092 38.8478C23.1523 38.8861 23.0091 39.0513 22.8907 39.2148C22.723 39.447 22.5829 39.5763 22.256 39.8012C21.7962 40.1171 21.6644 40.2522 21.3962 40.681C21.2045 40.9882 20.9755 41.2473 20.8947 41.2483C20.8677 41.2483 20.8073 41.2581 20.7609 41.2693C20.7147 41.2805 20.6164 41.2621 20.5422 41.2284ZM27.3274 32.0586C27.1764 31.9869 26.9578 31.9073 26.8417 31.882C26.5714 31.823 26.4158 31.7406 26.3347 31.6136C26.2768 31.5229 26.2769 31.4855 26.3362 31.2479C26.4128 30.9417 26.3733 30.702 26.2248 30.5643C26.1498 30.4949 26.0762 30.4829 25.7707 30.4888C25.5611 30.4929 25.3274 30.5252 25.2213 30.5646C25.1198 30.6024 25.0318 30.6333 25.026 30.6333C25.006 30.6333 25.0552 30.2219 25.0943 30.0623C25.1219 29.9497 25.177 29.8753 25.2824 29.8083C25.5346 29.6486 25.5694 29.5561 25.5421 29.121C25.5091 28.5987 25.5736 28.3408 25.7381 28.338C25.7584 28.338 25.8458 28.4105 25.9324 28.4998C26.0418 28.6127 26.1193 28.7549 26.1865 28.9654C26.3511 29.4814 26.421 29.5936 26.5785 29.5943C26.8311 29.5961 26.8415 29.6208 26.8415 30.2311C26.8415 30.8981 26.8822 31.0014 27.3219 31.4468C27.9982 32.132 28.0003 32.3785 27.3274 32.0586ZM34.1934 28.5775C34.178 28.5144 34.178 28.2906 34.1934 28.0798L34.2216 27.6971L34.1014 27.6166C33.9944 27.5446 33.8873 27.5357 33.1141 27.5346C32.3564 27.5328 32.2251 27.5232 32.0778 27.4521L31.9088 27.3708L32.0355 27.3394C32.1053 27.3219 32.3428 27.3054 32.5633 27.3024C33.0267 27.2964 33.208 27.2538 33.4039 27.1054C33.9537 26.6895 33.8429 26.1749 33.0252 25.3458C32.5157 24.8293 32.4262 24.6876 32.445 24.425L32.4579 24.2432L32.669 24.4622C32.785 24.583 32.9462 24.7972 33.0271 24.9388C33.2588 25.3444 34.0278 26.4233 34.3167 26.7481C34.737 27.2208 34.894 27.633 34.8259 28.0847C34.7898 28.3238 34.5415 28.6291 34.3531 28.6663C34.2365 28.6892 34.2183 28.6795 34.1934 28.5775ZM33.2748 21.7198C33.2019 21.6357 33.1339 21.5475 33.071 21.4554C33.0174 21.3753 32.8833 21.2042 32.773 21.0747C32.5322 20.7923 32.4989 20.692 32.6088 20.5794C32.7217 20.4637 33.1992 20.4619 33.4086 20.5762C33.6215 20.6926 33.7839 21.0376 33.8169 21.4436L33.843 21.762L33.715 21.7332C33.6201 21.7118 33.5808 21.7217 33.562 21.7716C33.5236 21.8752 33.3928 21.8516 33.2748 21.7198ZM32.0356 15.6125C31.9892 15.6011 31.8616 15.5524 31.7522 15.5046C31.5114 15.3996 31.4532 15.2741 31.5919 15.159C31.7144 15.0572 31.81 15.06 32.0239 15.172C32.1198 15.2223 32.3141 15.2732 32.4549 15.2854C32.6337 15.3003 32.7593 15.3402 32.8698 15.4161C33.0434 15.5361 33.0623 15.5776 32.9614 15.6174C32.8841 15.6475 32.1614 15.644 32.0356 15.6125ZM23.3416 49.4674C23.6321 49.3143 23.8998 48.9972 24.1382 48.5231C24.2563 48.2887 24.4196 48.0439 24.5424 47.9172C24.7907 47.6613 24.8419 47.5639 24.9581 47.1268C25.0677 46.7153 25.2535 46.329 25.5925 45.8091C25.9761 45.2207 26.1475 45.0536 26.6519 44.7759C27.4472 44.3379 27.4947 44.2791 27.545 43.6694C27.5643 43.4314 27.6086 43.1812 27.6428 43.1132C27.7218 42.9564 28.119 42.5867 28.4424 42.3686L28.6917 42.2007H27.5217C26.6139 42.2007 26.2868 42.2158 26.0622 42.2684C25.9033 42.3053 25.6808 42.3297 25.5683 42.3225L25.3639 42.309L25.1007 42.9804C24.9562 43.3499 24.8373 43.6898 24.837 43.7359C24.8352 43.8798 24.702 44.3812 24.6234 44.5404C24.5142 44.7603 23.7974 45.526 23.6078 45.6253C23.5188 45.672 23.3906 45.7101 23.3233 45.7101C23.1749 45.7101 23.0076 45.8369 22.939 46.0012C22.9111 46.0677 22.755 46.2185 22.5892 46.3385C22.2103 46.6133 21.7427 47.0556 21.625 47.2511C21.4848 47.4843 21.4165 47.8154 21.4161 48.2692C21.4155 48.7313 21.5051 49.1328 21.6085 49.1328C21.6435 49.1328 21.8073 49.0354 21.9727 48.9163C22.4559 48.568 22.5543 48.6421 22.26 49.1328C22.1671 49.2877 22.091 49.4369 22.091 49.4643C22.091 49.5486 22.3902 49.6058 22.7665 49.5934C23.0563 49.5834 23.1675 49.559 23.3416 49.4674ZM23.7549 47.1046C23.4836 46.9013 23.2316 46.6401 23.2316 46.562C23.2316 46.5184 23.3314 46.4392 23.4894 46.3577L23.7468 46.2241L23.9179 46.3402C24.1506 46.4985 24.3428 46.5174 24.6179 46.41C24.9252 46.29 24.9593 46.3107 24.9129 46.5894C24.8922 46.7134 24.8524 46.8617 24.8241 46.9193C24.7574 47.0554 24.4849 47.1768 24.1749 47.2093C23.9478 47.2328 23.9143 47.2242 23.7549 47.1046ZM28.1932 47.1828C28.2882 47.158 28.2424 47.1485 28.0105 47.1445C27.7403 47.1401 27.703 47.1298 27.7149 47.0636C27.7223 47.022 27.8272 46.939 27.9474 46.8794C28.068 46.82 28.1821 46.7549 28.2008 46.7349C28.2197 46.7151 28.2354 46.5452 28.2354 46.3571C28.2354 45.9483 28.2936 45.8622 28.6137 45.801C28.8343 45.7587 28.9321 45.6692 28.9321 45.5086C28.9321 45.4342 28.8869 45.3899 28.7456 45.3259C28.5129 45.2203 28.4328 45.0913 28.5404 44.9948C28.5815 44.958 28.7722 44.7889 28.9642 44.619C29.2733 44.3458 29.32 44.2849 29.3704 44.0894C29.4806 43.6634 29.5675 43.1231 29.5391 43.0414C29.4988 42.9254 29.3501 42.7636 29.2835 42.7636C29.2527 42.7636 29.1895 42.7244 29.1431 42.6771C29.0865 42.6195 29.0588 42.6094 29.0588 42.6483C29.0588 42.6801 28.9324 42.9189 28.7782 43.1788C28.6239 43.4387 28.4214 43.8139 28.3283 44.0124C28.1768 44.3342 28.131 44.392 27.9013 44.5518C27.2594 44.9983 26.9155 45.5643 26.8221 46.3286C26.7783 46.6865 26.8067 46.9227 26.8934 46.9227C26.9274 46.9227 27.0553 46.835 27.1775 46.7275C27.2997 46.6204 27.433 46.5326 27.4735 46.5326C27.5391 46.5326 27.5439 46.5647 27.5181 46.8286L27.4891 47.1245L27.6299 47.1707C27.7942 47.2251 28.0141 47.2295 28.1932 47.1828ZM41.3781 32.2529C41.4577 32.1904 41.6073 32.0221 41.7102 31.8786L41.8974 31.6178L41.7909 31.483C41.3682 30.9484 41.1055 30.5491 40.9036 30.1364C40.7751 29.8736 40.6704 29.6294 40.6715 29.5935C40.6737 29.4884 40.8027 29.3527 41.0564 29.1887C41.6292 28.8175 41.6918 28.6618 41.7168 27.5391C41.7283 27.011 41.7172 26.6258 41.6849 26.4561C41.6163 26.0929 41.4195 25.6998 41.1585 25.4052L40.9384 25.1566L40.7731 25.2079C40.5706 25.2706 40.2627 25.5686 40.1585 25.8028C40.0485 26.0509 40.0613 26.3416 40.2093 26.9317C40.2977 27.2842 40.339 27.5536 40.3393 27.7772C40.3399 28.1676 40.3238 28.2694 40.1431 29.0304C39.9599 29.8003 39.9056 30.2212 39.9068 30.8624C39.9075 31.4311 39.9634 31.7084 40.1255 31.9513C40.4055 32.3705 41.0345 32.5218 41.3781 32.2529ZM5.75125 15.8416C6.14033 15.6297 7.16944 15.1843 8.01946 14.8599L8.74762 14.582V13.9863C8.74762 13.6505 8.73102 13.3906 8.70877 13.3906C8.65648 13.3906 7.41757 13.9062 7.00095 14.1013C6.81798 14.1868 6.65178 14.2571 6.63147 14.2571C6.61064 14.2571 6.59439 12.9196 6.59439 11.2028C6.59439 9.52291 6.58027 8.14823 6.56296 8.14788C6.54529 8.14788 6.25335 8.2791 5.91356 8.44041L5.29578 8.73347L5.27776 12.3292C5.26787 14.3068 5.2668 15.9395 5.27511 15.9574C5.30831 16.0279 5.49057 15.9834 5.75125 15.8416ZM54.7403 14.3114C54.7331 13.4596 54.7142 11.8206 54.6978 10.6697L54.669 8.57661L54.12 8.34106C53.818 8.21145 53.5188 8.10551 53.4548 8.10551H53.339V15.33L53.5184 15.3786C53.6171 15.4053 53.9165 15.5228 54.1834 15.6397C54.4504 15.7567 54.6881 15.854 54.7112 15.8563C54.7387 15.8587 54.7487 15.3258 54.7403 14.3114ZM52.4037 9.70416L52.4097 7.6855L51.9346 7.5242C51.6737 7.43518 51.4267 7.34437 51.3867 7.32247C51.346 7.3004 51.2559 7.28224 51.1858 7.28224H51.0585L51.0537 9.11253C51.0508 10.1192 51.0516 10.9672 51.0555 10.9971C51.086 11.238 50.8764 10.7635 50.1294 8.90137C49.4826 7.28918 49.2454 6.74241 49.181 6.71463C49.022 6.64555 48.2366 6.45878 48.106 6.45878H47.9763V13.737H48.0841C48.1722 13.737 48.9977 13.9322 49.2961 14.0235C49.3664 14.0449 49.3691 13.9313 49.3435 11.8229C49.3251 10.2864 49.3302 9.613 49.3605 9.64291C49.3848 9.66678 49.8507 10.7966 50.396 12.1544L51.3877 14.6226L51.8672 14.7768L52.3467 14.931L52.3725 13.3266C52.3865 12.445 52.4004 10.8144 52.4037 9.70416ZM9.32496 14.4095C9.39384 14.3744 9.63792 14.2863 9.86716 14.2137C10.0964 14.1414 10.2866 14.0774 10.29 14.0721C10.2931 14.0666 10.3878 13.5989 10.4999 13.0327L10.7041 12.0034L10.8978 11.9447C11.5642 11.7431 12.0082 11.6454 12.0375 11.694C12.0545 11.7221 12.1511 12.1204 12.2519 12.5788C12.3528 13.0373 12.4476 13.4272 12.4628 13.4452C12.4778 13.463 12.7645 13.4121 13.0998 13.3316C13.6018 13.2113 13.7074 13.1726 13.6968 13.1132C13.6897 13.0735 13.5318 12.5105 13.3457 11.8621C13.1593 11.2134 12.7311 9.71805 12.3944 8.53869C12.0578 7.35933 11.774 6.38614 11.7645 6.37653C11.7549 6.36656 11.552 6.41 11.3138 6.47267C11.0755 6.53534 10.8337 6.59232 10.7765 6.59872C10.6746 6.61013 10.6623 6.65784 10.1571 8.97151C9.87369 10.2702 9.49062 12.0214 9.30588 12.8632C8.97316 14.3801 8.97086 14.394 9.05969 14.4309C9.18261 14.482 9.18333 14.482 9.32496 14.4095ZM10.9017 11.0603C10.9017 10.9918 11.3238 8.86719 11.3512 8.79846C11.3819 8.72119 11.4347 8.91685 11.6809 10.0223L11.8618 10.8346L11.688 10.8803C11.5057 10.9284 11.1022 11.0406 10.9757 11.0785C10.9349 11.0904 10.9017 11.0824 10.9017 11.0603ZM47.0617 9.80849L47.0871 6.20472L46.8456 6.15486C46.6169 6.10674 46.3885 6.05712 46.1604 6.00602C45.9166 5.95154 45.6841 5.90756 45.6433 5.90863C45.5736 5.91042 45.5688 6.06798 45.5589 8.51323C45.5482 11.0357 45.563 13.1376 45.5906 13.1668C45.6224 13.2002 46.9864 13.4605 47.0103 13.4374C47.0247 13.4238 47.0481 11.7905 47.0617 9.80849ZM14.9378 12.936C15.2349 12.8764 15.4835 12.8278 15.4904 12.8278C15.4973 12.8278 15.5078 12.0041 15.5138 10.9975C15.5221 9.63223 15.5365 9.1946 15.5709 9.27526C15.5963 9.3349 15.8797 10.1099 16.2006 10.9975C16.5216 11.885 16.8052 12.6109 16.8302 12.6105C16.9667 12.6086 16.9542 12.6467 17.8341 9.57847C17.9536 9.16166 18.0672 8.80202 18.0866 8.77941C18.1061 8.75679 18.1217 9.56102 18.1217 10.5666C18.1217 11.572 18.1358 12.3946 18.1534 12.3944C18.204 12.3944 19.1433 12.2687 19.2853 12.2436L19.4142 12.2205L19.3998 8.72278C19.3922 6.79885 19.3755 5.15943 19.3632 5.07966C19.3419 4.94381 19.3323 4.93616 19.206 4.95824C18.8444 5.02179 18.2382 5.08108 18.1426 5.06256C18.0834 5.05099 18.0274 5.0542 18.0178 5.06969C18.0085 5.08554 17.7421 5.94548 17.4259 6.98099C17.1098 8.01648 16.8307 8.92842 16.8065 9.00748C16.7817 9.08652 16.7535 9.14279 16.7436 9.13211C16.7336 9.12196 16.4596 8.32628 16.1349 7.36395C15.8099 6.40181 15.5368 5.59296 15.5277 5.56661C15.5162 5.53332 15.3573 5.54969 15.0111 5.61966C14.7361 5.67521 14.4525 5.72097 14.381 5.72168L14.2503 5.72347L14.2225 7.09511C14.2072 7.84966 14.1946 9.48588 14.1946 10.7311C14.1946 13.152 14.1837 13.0062 14.3702 13.0402C14.3854 13.0428 14.6409 12.9955 14.9378 12.936ZM44.6295 9.34826L44.6405 5.72436L44.5452 5.70352C44.1337 5.61308 43.5084 5.50589 43.3939 5.50589H43.2547L43.2783 6.91405C43.3008 8.27733 43.2992 8.32201 43.2213 8.32201C43.1771 8.32201 42.8273 8.27359 42.4441 8.21429C42.0613 8.15518 41.7334 8.1064 41.716 8.10605C41.6983 8.10605 41.6842 7.46259 41.6842 6.67671V5.24791L41.5893 5.22779C41.4011 5.18792 40.5203 5.07254 40.407 5.07271H40.2909V12.3353L40.956 12.4241C41.3217 12.4729 41.6324 12.5064 41.6465 12.4984C41.6608 12.4904 41.6629 11.7394 41.6512 10.8299L41.63 9.17591L41.731 9.20012C41.7866 9.2133 42.1407 9.26813 42.5184 9.32173L43.2044 9.41911V12.7845L43.3417 12.7868C43.4173 12.7886 43.716 12.8343 44.0068 12.8892C44.2972 12.9444 44.5536 12.9853 44.5768 12.9809C44.6046 12.9754 44.6225 11.7207 44.6295 9.34826ZM38.1084 12.1996C38.7498 12.0283 39.167 11.6169 39.3665 10.9594C39.4365 10.7288 39.4461 10.5506 39.4461 9.48784V8.27857H37.5038V8.48866C37.5038 8.60421 37.4915 8.84812 37.4767 9.03027L37.4495 9.36179H38.2723L38.2576 9.939C38.2438 10.4785 38.2355 10.5276 38.1304 10.6903C37.8183 11.1739 37.173 11.0885 36.7962 10.5139C36.5233 10.0976 36.5114 10.0006 36.5114 8.17049C36.5114 6.55903 36.5137 6.52003 36.604 6.3468C36.7165 6.13119 36.9573 5.9065 37.1141 5.87124C37.1775 5.857 37.2516 5.8383 37.279 5.82994C37.3786 5.79895 37.6367 5.90418 37.782 6.03505C37.9651 6.20009 38.0882 6.4392 38.1229 6.69736L38.1487 6.8925H38.7765C39.4935 6.8925 39.4423 6.93219 39.3434 6.45398C39.1395 5.46691 38.3508 4.81295 37.3639 4.81295C36.3898 4.81295 35.5912 5.43557 35.3008 6.42122C35.2584 6.56489 35.245 7.02603 35.2458 8.32219C35.2464 10.2127 35.2699 10.439 35.52 10.9519C35.68 11.2806 36.0268 11.6755 36.3341 11.8793C36.5623 12.0307 36.9586 12.1916 37.2084 12.2345C37.4535 12.2767 37.8829 12.26 38.1084 12.1996ZM22.1335 11.9628C23.5799 11.8382 23.674 11.8111 24.0406 11.4089C24.7157 10.6686 24.8096 9.13514 24.2173 8.52142C24.0849 8.38397 23.8069 8.2378 23.6746 8.23637C23.6198 8.23637 23.6549 8.20254 23.7741 8.14184C24.4117 7.81814 24.6005 6.46679 24.1457 5.48417C23.969 5.10209 23.7265 4.8425 23.4069 4.69241L23.1693 4.58061L22.4717 4.63366C21.7577 4.68796 20.3884 4.81669 20.3715 4.83111C20.3663 4.83538 20.3492 6.47391 20.3327 8.47193L20.3035 12.1045L20.7009 12.0782C20.9199 12.0636 21.5645 12.0116 22.1335 11.9628ZM21.574 10.9396C21.5563 10.9216 21.5422 10.455 21.5422 9.9025V8.89798L22.165 8.87305L22.7878 8.84866L22.927 8.98558C23.0034 9.06088 23.1174 9.22986 23.1804 9.36124C23.2789 9.56707 23.2947 9.65377 23.2947 9.98975C23.2947 10.3385 23.2823 10.4016 23.1768 10.5853C22.9977 10.8979 22.8902 10.9385 22.1967 10.9567C21.8717 10.9652 21.5914 10.9567 21.574 10.9396ZM21.7842 7.77007L21.5408 7.75441L21.5521 6.81433L21.5633 5.87427L22.139 5.86235L22.7147 5.85041L22.9099 6.07296C23.3685 6.59624 23.3169 7.44283 22.8105 7.70473C22.6181 7.80425 22.466 7.81387 21.7842 7.77007ZM27.8883 11.8106C28.7692 11.6192 29.3752 10.9802 29.4785 10.134C29.4997 9.95948 29.5127 9.03686 29.5075 8.08361C29.4965 6.17231 29.4891 6.11 29.2141 5.57088C29.0532 5.25574 28.6501 4.83272 28.3586 4.67301C28.0788 4.51989 27.7087 4.41306 27.3785 4.39028C26.6402 4.33935 25.8305 4.90001 25.4236 5.74411C25.1344 6.34412 25.1193 6.49581 25.1534 8.47264C25.1858 10.3303 25.2028 10.4868 25.4164 10.8897C25.8067 11.626 26.8871 12.0283 27.8883 11.8106ZM26.9846 10.6884C26.7517 10.6029 26.5783 10.4587 26.4601 10.2513L26.3529 10.0633L26.344 8.25026L26.3352 6.43741L26.4518 6.19386C26.7463 5.57818 27.4478 5.46655 27.954 5.95492C28.1463 6.14008 28.2577 6.3783 28.2999 6.69309C28.3194 6.83837 28.3412 7.63958 28.3482 8.47352C28.3609 9.97888 28.3604 9.99134 28.2645 10.1922C28.0494 10.6419 27.4701 10.8664 26.9846 10.6884ZM34.5902 11.7762C34.5902 11.7463 34.3146 11.0155 33.9778 10.1519C33.641 9.28844 33.3654 8.56486 33.3654 8.54367C33.3654 8.52248 33.4358 8.49151 33.5219 8.47496C34.1478 8.35442 34.5039 7.7261 34.5046 6.7408C34.5054 5.80696 34.1229 4.9568 33.5457 4.60963C33.3293 4.47965 32.9859 4.44724 31.3491 4.40132L30.3252 4.37265V11.648L30.4622 11.6694C30.5377 11.681 30.8332 11.6942 31.1187 11.6979L31.6379 11.705L31.6319 10.1543L31.6258 8.6035L31.9801 8.59103L32.3344 8.57857L32.712 9.82576C32.92 10.5118 33.1391 11.2287 33.1992 11.4193L33.3085 11.7661L33.7695 11.7782C34.0235 11.785 34.2595 11.7972 34.2944 11.8056C34.4462 11.8419 34.5902 11.8275 34.5902 11.7762ZM31.6204 7.60022C31.6049 7.58419 31.5922 7.12841 31.5922 6.58715V5.60347L32.1125 5.57265C32.6882 5.53865 32.856 5.57747 33.0801 5.79771C33.447 6.15842 33.4266 7.15333 33.0447 7.49732L32.8982 7.62907H32.2737C31.9296 7.62907 31.6361 7.61607 31.6204 7.60022Z" fill="white"/>
<path d="M28.9566 66.7108C27.5459 65.8284 24.0278 62.9423 21.6649 60.7291C17.7872 57.0968 13.8983 52.2298 11.248 47.6919C5.59625 38.0152 2.66009 26.7314 2.31448 13.3604C2.21345 9.45595 2.22052 9.33256 2.58804 8.55291C3.07514 7.51954 3.51277 7.2158 5.83132 6.30191C12.2325 3.77884 18.9905 2.61142 28.2455 2.43034C38.6947 2.22559 47.334 3.49664 54.2872 6.26185C56.697 7.22007 57.1256 7.51527 57.6155 8.55397C57.9842 9.3363 57.9905 9.45184 57.8873 13.4479C57.3211 35.4063 49.8494 51.692 34.6036 64.1979C32.7545 65.7148 30.8251 67.0978 30.3447 67.2509C30.107 67.3268 29.6701 67.157 28.9566 66.7108ZM18.711 51.7333C18.9754 51.6096 19.1693 51.2917 19.3122 50.7476C19.4281 50.3061 19.641 49.8038 19.7852 49.6314C19.9441 49.4419 20.0756 48.8653 20.1187 48.1687C20.1817 47.1513 20.2646 46.9218 20.8368 46.1781C21.206 45.6987 21.6012 44.9135 21.7577 44.349C21.9085 43.8049 22.1501 43.1257 22.2949 42.8399C23.3776 40.7005 24.0767 39.4607 24.2004 39.4607C24.573 39.4607 24.8711 40.2825 24.8711 41.3102C24.8711 42.1203 24.9387 42.4283 25.1419 42.5451C25.3836 42.684 25.3862 42.7544 25.1655 43.2036C25.0295 43.4801 24.865 43.9354 24.7992 44.2157C24.636 44.913 24.0952 45.6544 23.5316 45.9535C23.2736 46.0909 22.71 46.5545 22.2793 46.9843C21.6586 47.6038 21.4971 47.8834 21.4992 48.3353C21.5026 49.0991 21.7455 49.4982 22.0294 49.2068C22.3691 48.8579 22.5233 48.9589 22.4029 49.4517C22.2943 49.8953 22.3104 49.9074 22.855 49.7958C23.5537 49.6522 24.1861 49.2396 24.3017 48.8516C24.3498 48.6905 24.4563 48.4414 24.538 48.2986C24.6198 48.1559 24.9324 47.5057 25.2326 46.854C25.6063 46.0429 26.0161 45.4692 26.5319 45.0351C26.9464 44.6862 27.3958 44.1295 27.5308 43.7981C27.9293 42.8181 29.0895 41.9817 29.0895 42.674C29.0895 43.0804 28.4369 44.3061 27.9595 44.7963C27.3596 45.4123 26.8974 46.2385 26.8964 46.6959C26.8958 47.0974 27.133 47.2191 27.3178 46.9125C27.5014 46.6072 27.7111 46.7274 27.6198 47.086C27.5455 47.3773 27.6144 47.4324 28.0515 47.4324C28.9185 47.4324 29.7341 46.9311 29.8596 46.321C29.9199 46.0269 30.1155 45.5384 30.2949 45.2356C30.5081 44.8752 30.5836 44.5341 30.5136 44.2484C30.3995 43.7818 30.7092 42.5806 30.9434 42.5806C31.1179 42.5806 31.7285 43.8723 31.8856 44.5733C31.9495 44.8589 32.151 45.2618 32.3331 45.4681C32.6414 45.8171 32.7762 45.8366 34.2935 45.7494C35.8634 45.6591 35.9383 45.6362 36.3447 45.1209C36.6502 44.7335 36.7925 44.2987 36.8617 43.5399C36.9833 42.2028 37.5553 41.2929 38.8691 40.3463L39.8516 39.6385L40.0936 40.0264C40.2268 40.2396 40.515 40.8632 40.7339 41.4119C41.0996 42.3287 41.1147 42.4791 40.9179 43.2672C40.8004 43.7388 40.7544 44.2878 40.8163 44.4874C40.8787 44.6894 40.7957 45.2285 40.6288 45.7049L40.3294 46.5595L40.7286 46.996C41.1817 47.491 41.4944 47.5519 41.6362 47.1723C41.765 46.8283 42.0813 46.8386 42.0813 47.1866C42.0813 47.5552 42.4128 47.4201 42.7939 46.8958C43.0853 46.4948 43.0882 46.4198 42.8381 45.6939C42.6914 45.268 42.6057 44.7851 42.647 44.621C42.6884 44.4567 42.6473 43.9887 42.5551 43.5812C42.3448 42.6501 42.356 41.5595 42.588 40.4128C42.7509 39.6071 42.7279 39.4322 42.3475 38.589C42.1159 38.0761 41.9584 37.6239 41.9973 37.584C42.0358 37.5443 42.3554 37.6279 42.7072 37.7701C44.3432 38.4306 45.6213 38.28 46.3977 37.3353L46.8577 36.7753L45.8615 36.6881C44.7291 36.5888 44.6773 36.5628 43.4821 35.4879C42.6398 34.7307 42.609 34.6711 42.6992 33.9938C42.7528 33.5939 42.6692 32.7154 42.5068 31.9657C42.2429 30.7469 42.2415 30.5696 42.4883 29.6973C42.6359 29.1767 42.7563 28.5219 42.7563 28.2421C42.7563 27.4046 42.302 26.1124 41.7673 25.4289C41.4912 25.0764 41.1827 24.474 41.0826 24.0904C40.9819 23.7071 40.7133 23.1111 40.4854 22.7662C40.095 22.1752 40.0852 22.1047 40.317 21.5352C40.4522 21.203 40.5627 20.5022 40.5627 19.9782C40.5627 19.1507 40.4911 18.9418 40.0146 18.3842C38.9808 17.175 38.4968 17.0648 33.5607 16.9151C27.8625 16.7423 26.965 16.5229 27.8502 15.5184C28.2123 15.1071 28.8032 15.1178 30.0331 15.558C31.3765 16.0384 33.0205 16.1576 33.9826 15.8446C34.8088 15.5758 34.8238 15.59 33.392 15.2847C33.1602 15.2354 32.97 15.1081 32.97 15.0022C32.97 14.8727 33.2324 14.8456 33.7717 14.9191C35.9775 15.2205 36.3447 15.2425 36.3447 15.0736C36.3447 14.7922 34.8629 14.2149 33.3173 13.8931C30.8316 13.3761 28.4357 13.8047 27.3018 14.9689C26.6051 15.6846 26.5256 16.4447 27.1067 16.8338C27.8375 17.3234 29.0387 17.4731 33.3296 17.6111C37.2535 17.737 37.7241 17.7844 38.406 18.1234C39.245 18.5406 39.609 19.085 39.5873 19.8878C39.5688 20.5548 39.1341 21.2659 38.7451 21.2659C38.0864 21.2656 35.9068 20.7044 34.3633 20.1378C33.4578 19.8055 32.5649 19.5337 32.3793 19.5343C31.9603 19.5354 31.4681 19.8668 30.0098 21.1313C29.3807 21.6767 28.2614 22.446 27.5222 22.841C25.1298 24.1194 24.3909 25.1359 24.0587 27.6086C23.8785 28.9478 23.6552 29.4833 22.6262 31.0444C21.7719 32.3402 21.1671 34.0818 21.1624 35.2591C21.1602 35.8275 20.9623 36.738 20.6355 37.6849C20.2026 38.9383 20.1055 39.5006 20.0742 40.9337C20.0418 42.4198 19.9751 42.7814 19.6066 43.4743C19.341 43.9735 19.1312 44.7196 19.0573 45.4262C18.9486 46.4688 18.8646 46.6584 18.1098 47.5642C17.6542 48.1108 17.2807 48.653 17.2798 48.7688C17.2789 48.8848 17.049 49.2475 16.7689 49.5751C16.1252 50.328 15.8097 51.1915 16.0778 51.4667C16.2202 51.6131 16.3354 51.5657 16.5298 51.2803C16.9 50.7379 17.1121 50.8032 16.9431 51.4079C16.8459 51.7557 16.8635 51.9462 16.9974 52.0061C17.2514 52.12 18.211 51.9672 18.711 51.7333ZM31.6247 15.3815C31.1513 15.0739 31.6026 14.9935 32.3268 15.2567L33.0542 15.5209L32.4637 15.5318C32.139 15.5379 31.7614 15.4702 31.6247 15.3815ZM7.28129 15.1702C8.58891 14.6806 8.67332 14.6183 8.67332 14.1456C8.67332 13.8686 8.64719 13.6421 8.61539 13.6421C8.58343 13.6421 8.11595 13.7981 7.57657 13.9886C7.03703 14.1791 6.56955 14.3352 6.53775 14.3352C6.50579 14.3352 6.47984 12.9705 6.47984 11.3028C6.47984 9.63505 6.45316 8.27035 6.42066 8.27035C6.38799 8.27035 6.12219 8.35581 5.83008 8.46051L5.29884 8.65066V12.2913C5.29884 15.6889 5.31826 15.9237 5.59413 15.8115C5.75643 15.7453 6.51568 15.4567 7.28129 15.1702ZM54.9046 12.2728V8.65066L54.3731 8.46051C54.0809 8.35599 53.8152 8.27035 53.7826 8.27035C53.7499 8.27035 53.7235 9.89661 53.7235 11.8843V15.4983L54.2716 15.679C54.4691 15.7431 54.6659 15.8092 54.8621 15.8773C54.8856 15.8868 54.9046 14.2649 54.9046 12.2728ZM52.3347 11.2718L52.2891 7.6885L51.8252 7.5612L51.3612 7.43391L51.3585 9.36818C51.3557 11.5852 51.3386 11.5786 50.3281 8.96347C49.5876 7.04684 49.3466 6.71086 48.7136 6.71086H48.3239V10.2628C48.3239 12.9881 48.373 13.8159 48.5348 13.8178C48.6508 13.8191 48.914 13.8664 49.1199 13.9232C49.4897 14.0247 49.4948 14.0009 49.5418 11.916L49.5895 9.80562L50.5121 12.1695C51.0197 13.4699 51.5511 14.6034 51.6933 14.6888C52.364 15.0925 52.3825 14.9958 52.3347 11.2718ZM10.2141 14.2304C10.2729 14.1953 10.373 13.7377 10.4366 13.2137C10.5669 12.144 10.556 12.1579 11.3956 11.9963L12.0067 11.8786L12.211 12.7528C12.4113 13.6104 12.4254 13.625 12.9485 13.523C13.2417 13.4658 13.5126 13.392 13.5506 13.3587C13.6354 13.2844 12.0353 6.83817 11.8954 6.69146C11.8399 6.63324 11.562 6.65104 11.2776 6.73152C10.7647 6.87609 10.7556 6.8996 10.1307 9.69648C9.84631 10.9726 9.55884 12.248 9.26834 13.5226L9.03591 14.5302L9.57158 14.4121C9.86633 14.3473 10.1553 14.2658 10.2141 14.2304ZM10.9452 10.714C11.0012 10.5335 11.1058 10.0462 11.1775 9.63131L11.3082 8.87676L11.5305 9.80616C11.7177 10.5883 11.716 10.7594 11.5206 10.8863C11.1137 11.1511 10.8357 11.0678 10.9452 10.714ZM47.143 9.92669C47.143 7.97853 47.0863 6.35157 47.0165 6.31169C46.9468 6.27145 46.6813 6.1876 46.4259 6.12474L45.9619 6.0108V13.2725L46.4259 13.3446C46.6811 13.3843 46.9468 13.4283 47.0165 13.4425C47.0861 13.4571 47.143 11.8748 47.143 9.92669ZM15.2818 13.0343C15.4462 12.9698 15.4919 12.6312 15.4519 11.7727C15.4219 11.1272 15.4219 10.2895 15.4519 9.91138C15.5025 9.27381 15.5545 9.36818 16.163 11.2033L16.8195 13.1828L17.4284 10.9629L18.0374 8.7427L18.085 10.6891C18.1264 12.3622 18.1697 12.6207 18.3941 12.5322C18.5379 12.4756 18.8012 12.4293 18.9793 12.4293C19.2879 12.4293 19.3029 12.2624 19.3029 8.82513V5.22083L18.7271 5.29009C18.1629 5.35774 18.142 5.38961 17.7054 6.85812C17.4599 7.68246 17.1601 8.66882 17.0388 9.05019L16.818 9.74331L16.2689 7.9237C15.9668 6.92309 15.6604 6.03804 15.5876 5.95686C15.515 5.87584 15.2203 5.86249 14.9328 5.9273L14.41 6.04535V9.58377C14.41 12.9565 14.4252 13.1222 14.7337 13.1222C14.9116 13.1222 15.1583 13.0825 15.2818 13.0343ZM44.5735 9.3534L44.5275 5.7578L44.0638 5.70296L43.5998 5.64812V8.44732L42.8825 8.34442C41.7057 8.17528 41.7434 8.2294 41.7434 6.71603C41.7434 5.71935 41.684 5.32373 41.5329 5.32195C41.4169 5.3207 41.151 5.27263 40.9424 5.21512L40.5626 5.11062V12.3908L41.1531 12.4615L41.7437 12.5322V10.9209C41.7437 9.136 41.6886 9.20348 42.9673 9.42069L43.5999 9.52805V11.139C43.5999 12.5274 43.6406 12.7606 43.8952 12.829C44.6392 13.0291 44.6212 13.1213 44.5735 9.3534ZM23.3372 11.8487C24.0305 11.5086 24.423 10.7911 24.4368 9.83927C24.4464 9.1725 24.3657 8.88745 24.0854 8.59956C23.7241 8.22815 23.7238 8.22175 24.0426 7.68476C24.4298 7.03259 24.4529 6.34836 24.1108 5.66878C23.7924 5.03636 22.9784 4.80705 21.5811 4.95643L20.5687 5.0645L20.5228 8.67807L20.4774 12.2916L21.7042 12.1699C22.3784 12.1031 23.1135 11.9585 23.3372 11.8487ZM21.6652 10.0339C21.6652 9.13226 21.7093 8.99196 22.0208 8.90846C22.9655 8.65475 23.6495 9.61512 23.1623 10.5108C22.9817 10.8429 22.7603 10.97 22.2927 11.0101L21.6652 11.0639V10.0339ZM21.6652 6.96618V6.01756H22.222C22.8966 6.01756 23.1838 6.28018 23.1838 6.89745C23.1838 7.44833 22.9537 7.6643 22.2136 7.80833L21.6652 7.91498V6.96618ZM38.8161 11.8218C39.263 11.5209 39.5482 10.5933 39.5494 9.43458C39.5505 8.52335 39.5359 8.51107 38.3269 8.39213L37.5254 8.31309V8.89831C37.5254 9.40698 37.5806 9.48354 37.9474 9.48354C38.2877 9.48354 38.369 9.569 38.369 9.92811C38.369 10.9549 37.5653 11.4117 36.9626 10.7275C36.1353 9.78906 36.3201 6.21395 37.2106 5.92392C37.582 5.80285 38.2003 6.25722 38.2003 6.65122C38.2003 6.80202 38.4087 6.88429 38.7909 6.88429C39.4607 6.88429 39.5359 6.65407 39.1292 5.84665C38.7726 5.13803 38.2329 4.80491 37.4409 4.80491C35.9927 4.80491 35.3372 5.91466 35.3431 8.35724C35.3466 9.97191 35.5876 10.9916 36.1038 11.577C36.7002 12.2535 38.0001 12.3709 38.8161 11.8218ZM28.3789 11.6379C28.5866 11.4887 28.9216 11.0404 29.1241 10.6415C29.6532 9.59855 29.6635 6.98043 29.1431 5.81334C28.788 5.01785 28.1005 4.45827 27.4781 4.45827C26.8883 4.45827 26.0934 5.01607 25.7257 5.68818C24.9417 7.12108 25.0951 10.2924 26.002 11.3996C26.3549 11.8301 26.5424 11.9092 27.2107 11.9092C27.6555 11.9092 28.1667 11.7905 28.3789 11.6379ZM26.7731 10.4012C26.555 10.0599 26.4603 9.50741 26.4236 8.36507C26.3809 7.02352 26.4241 6.71442 26.7233 6.22267C27.16 5.50515 27.7076 5.52741 28.0753 6.27751C28.4557 7.05378 28.4261 9.78087 28.0307 10.4006C27.6492 10.9985 27.1547 10.9989 26.7731 10.4012ZM31.6202 10.2943C31.6202 8.83083 31.6355 8.76852 31.981 8.82157C32.2685 8.86555 32.4484 9.18639 32.8634 10.3932L33.3845 11.9094H34.646L34.092 10.276L33.5375 8.64265L33.9904 8.20359C34.5436 7.66749 34.7158 6.88659 34.4796 5.98641C34.2165 4.98296 33.5558 4.63292 31.9217 4.63221L30.6207 4.6315L30.5719 8.19859C30.5452 10.1606 30.5357 11.7783 30.5513 11.7942C30.5666 11.8099 30.8136 11.8227 31.0995 11.8227H31.6197L31.6202 10.2943ZM31.7466 7.65023C31.6771 7.5783 31.6202 7.09331 31.6202 6.57236V5.62551L32.3311 5.72344C33.3414 5.86232 33.7693 6.57948 33.2646 7.28809C33.0373 7.60749 31.9552 7.86547 31.7466 7.65023ZM0.0944824 12.4289C0.0944824 12.1909 0.132983 12.0933 0.179785 12.2124C0.226586 12.3315 0.226586 12.5267 0.179785 12.6458C0.132983 12.7649 0.0944824 12.667 0.0944824 12.4289ZM0.118501 10.8693C0.118501 10.3454 0.150115 10.1309 0.188792 10.393C0.227471 10.6551 0.227471 11.0838 0.188792 11.3461C0.149938 11.6083 0.118501 11.3936 0.118501 10.8693Z" fill="white"/>
</g>
</g>
<defs>
<clipPath id="clip0_101_762">
<rect width="60.0475" height="69.4525" fill="white" transform="translate(0.0673828)"/>
</clipPath>
</defs>
</svg>
