<svg width="61" height="70" viewBox="0 0 61 70" fill="none" xmlns="http://www.w3.org/2000/svg">
<g clip-path="url(#clip0_101_197)">
<mask id="mask0_101_197" style="mask-type:luminance" maskUnits="userSpaceOnUse" x="0" y="0" width="61" height="70">
<path d="M60.0475 0H0V69.4525H60.0475V0Z" fill="white"/>
</mask>
<g mask="url(#mask0_101_197)">
<path d="M28.2285 68.9354C27.2561 68.3848 24.4784 66.2315 22.2726 64.3185C18.6112 61.1432 15.4006 57.6462 12.528 53.7048C6.34614 45.2223 2.52306 35.3547 0.851797 23.5655C0.0540491 17.9404 -0.255196 10.0832 0.251852 8.33C0.572754 7.22007 1.30304 6.18635 2.22636 5.53524C3.22456 4.83108 6.41256 3.56341 9.27223 2.73356C15.3321 0.974484 22.025 0.13216 29.9672 0.128065C40.0921 0.12308 48.3787 1.48546 55.3697 4.30444C57.8657 5.31091 58.7888 6.0327 59.5094 7.53985L59.9831 8.53012L59.972 12.8623C59.941 24.9009 57.2475 36.604 52.3355 46.0439C51.0837 48.4499 48.1238 53.1037 46.6595 54.9688C43.9499 58.42 40.8173 61.7313 37.709 64.4306C35.6099 66.2531 32.5038 68.629 31.6427 69.0705C30.5845 69.6133 29.3385 69.5639 28.2285 68.9354ZM30.3291 68.626C30.1666 68.5826 29.901 68.5826 29.7386 68.626C29.576 68.6696 29.709 68.7052 30.0339 68.7052C30.3587 68.7052 30.4916 68.6696 30.3291 68.626ZM23.6223 64.348C23.6223 64.3121 23.4896 64.1753 23.327 64.0448C23.0593 63.8292 23.0533 63.8353 23.2634 64.1101C23.4837 64.399 23.6223 64.4906 23.6223 64.348ZM22.6099 63.4905C22.6099 63.4596 22.4011 63.2449 22.1459 63.0141L21.6819 62.594L22.0909 63.0705C22.4733 63.5161 22.6099 63.6266 22.6099 63.4905ZM20.2476 61.2079C19.6498 60.5883 19.1226 60.0816 19.0764 60.0816C19.0302 60.0816 19.4811 60.5884 20.079 61.2079C20.6768 61.8273 21.204 62.3342 21.2503 62.3342C21.2965 62.3342 20.8455 61.8273 20.2476 61.2079ZM17.7168 58.6084C17.119 57.9888 16.5918 57.4823 16.5455 57.4823C16.4993 57.4823 16.9504 57.989 17.5482 58.6086C18.146 59.228 18.6732 59.7349 18.7194 59.7349C18.7658 59.7349 18.3145 59.2279 17.7168 58.6084ZM16.198 56.906C16.198 56.8748 15.9894 56.6602 15.7341 56.4294L15.2703 56.0091L15.6794 56.486C16.0617 56.9311 16.198 57.0418 16.198 56.906ZM15.1859 55.6898C15.1859 55.6567 15.0151 55.4813 14.8061 55.2998L14.4264 54.9697L14.7479 55.3597C15.0499 55.7259 15.1859 55.8283 15.1859 55.6898ZM14.5108 54.823C14.5108 54.79 14.3401 54.6148 14.1311 54.4332L13.7518 54.1032L14.0732 54.493C14.3752 54.8595 14.5108 54.9619 14.5108 54.823ZM13.836 53.9511C13.836 53.9152 13.7032 53.7784 13.5407 53.6479C13.2731 53.4323 13.267 53.4384 13.477 53.7132C13.6974 54.0017 13.836 54.0937 13.836 53.9511ZM13.3298 53.2578C13.3298 53.222 13.197 53.0855 13.0345 52.9547C12.767 52.7393 12.7608 52.7453 12.9708 53.0202C13.1914 53.3089 13.3298 53.4007 13.3298 53.2578ZM12.8237 52.5649C12.8237 52.529 12.6909 52.3921 12.5284 52.2617C12.2608 52.0461 12.2546 52.0523 12.4648 52.327C12.685 52.6154 12.8237 52.7075 12.8237 52.5649ZM10.4615 48.9913C10.3623 48.8007 10.243 48.6448 10.1966 48.6448C10.1502 48.6448 10.1934 48.8007 10.2929 48.9913C10.3921 49.182 10.5113 49.3379 10.5578 49.3379C10.6042 49.3379 10.5608 49.1821 10.4615 48.9913ZM9.95518 48.1248C9.85592 47.9343 9.73671 47.7784 9.69026 47.7784C9.64382 47.7784 9.68708 47.9343 9.7865 48.1248C9.88576 48.3154 10.005 48.4715 10.0514 48.4715C10.0979 48.4715 10.0546 48.3157 9.95518 48.1248ZM9.44919 47.2586C9.34993 47.0679 9.23054 46.912 9.18427 46.912C9.13799 46.912 9.18109 47.0679 9.28053 47.2586C9.37977 47.449 9.49898 47.6051 9.54544 47.6051C9.59171 47.6051 9.54845 47.4492 9.44919 47.2586ZM7.89448 44.2332C7.41181 43.2361 6.98988 42.4486 6.95704 42.4823C6.88234 42.5588 8.57832 46.0457 8.69029 46.0457C8.73533 46.0457 8.37716 45.2301 7.89448 44.2332ZM6.43269 41.0764C6.23383 40.7253 6.18579 40.8379 6.34844 41.2735C6.40637 41.4283 6.48919 41.5185 6.53265 41.4741C6.5761 41.4296 6.53123 41.2505 6.43269 41.0764ZM22.6414 11.0975C22.5195 11.0477 22.374 11.0537 22.3181 11.1114C22.2621 11.1689 22.3617 11.2099 22.5395 11.2022C22.7361 11.194 22.7762 11.1527 22.6414 11.0975ZM1.41466 7.82809C1.47223 7.6739 1.44397 7.60429 1.34843 7.66501C1.25659 7.72323 1.18153 7.8443 1.18153 7.93385C1.18135 8.18311 1.30233 8.12827 1.41466 7.82809ZM58.8865 7.94294C58.8865 7.85818 58.7289 7.60464 58.5367 7.37978L58.1871 6.97081L58.4889 7.53397C58.8016 8.11777 58.8865 8.20501 58.8865 7.94294ZM18.9294 5.37928C18.8075 5.32925 18.6621 5.33531 18.6061 5.39282C18.5499 5.45032 18.6498 5.49146 18.8275 5.48398C19.0241 5.4756 19.0642 5.43465 18.9294 5.37928ZM26.2377 5.15103C26.4053 4.96053 26.505 4.80456 26.4583 4.80456C26.4118 4.80456 26.2368 4.96053 26.0688 5.15103C25.9008 5.34154 25.8014 5.4975 25.8478 5.4975C25.8942 5.4975 26.0697 5.34154 26.2377 5.15103ZM21.9666 5.03263C21.8447 4.9826 21.6993 4.98883 21.6433 5.04634C21.5873 5.10385 21.6868 5.14498 21.8647 5.1375C22.0614 5.12914 22.1011 5.08837 21.9666 5.03263ZM42.2139 1.74043C42.092 1.69039 41.9465 1.69645 41.8905 1.75396C41.8345 1.81164 41.9341 1.8526 42.112 1.84511C42.3086 1.83675 42.3487 1.79562 42.2139 1.74043ZM40.864 1.56702C40.7423 1.51698 40.5967 1.52322 40.541 1.58072C40.4847 1.63823 40.5844 1.67918 40.7624 1.67152C40.9587 1.66334 40.9987 1.62239 40.864 1.56702ZM39.525 1.39734C39.4091 1.34927 39.2192 1.34927 39.103 1.39734C38.9871 1.44541 39.0821 1.48458 39.3137 1.48458C39.546 1.48458 39.6409 1.44541 39.525 1.39734ZM22.8103 1.22054C22.6884 1.17051 22.5429 1.17656 22.4869 1.23425C22.4309 1.29176 22.5305 1.33271 22.7084 1.32505C22.905 1.31686 22.9448 1.27573 22.8103 1.22054ZM37.5812 1.21876C37.417 1.17478 37.1891 1.17781 37.0753 1.22517C36.9609 1.27271 37.0953 1.30867 37.3736 1.30493C37.6519 1.30137 37.7453 1.26274 37.5812 1.21876ZM26.0236 1.04C25.7203 1.00137 25.2646 1.00226 25.0112 1.04179C24.7578 1.08131 25.0059 1.11283 25.5626 1.11193C26.1194 1.11104 26.327 1.07864 26.0236 1.04ZM34.9662 1.04C34.6629 1.00137 34.2073 1.00226 33.9539 1.04179C33.7004 1.08131 33.9484 1.11283 34.5053 1.11193C35.0621 1.11104 35.2694 1.07864 34.9662 1.04Z" fill="#E2E2E2"/>
<path d="M28.4481 69.0038C25.4272 67.3748 18.3697 60.9272 14.6988 56.4426C5.35721 45.0301 0.696282 31.2404 0.0636648 13.1425C-0.0931651 8.6583 0.197005 7.4962 1.85521 5.96504C3.97346 4.00905 12.3163 1.57626 19.7416 0.7496C33.5309 -0.785847 46.7687 0.655415 56.2236 4.72175C58.8663 5.85857 59.8918 7.37175 60.0308 10.3397C60.1221 12.2868 59.8224 18.1074 59.4703 21.2349C57.3004 40.4993 49.4521 55.0817 35.1069 66.502C32.1006 68.8956 31.3845 69.3199 30.2333 69.3908C29.4579 69.4382 29.1164 69.3641 28.4481 69.0038ZM32.3438 67.7099C37.8005 63.9077 43.4238 58.2794 47.4933 52.5465C52.8791 44.9599 56.4302 35.9669 58.2025 25.4251C59.2419 19.2433 59.6825 10.3319 59.0552 8.18345C58.6856 6.91863 57.5478 6.01257 55.0721 5.01215C47.8592 2.09757 37.9901 0.595237 27.9248 0.880106C18.7711 1.13916 11.3786 2.47075 5.03772 5.00271C3.22499 5.72646 2.76475 5.99067 1.97653 6.7591C1.06787 7.64505 1.04438 7.69259 0.837218 9.05765C0.592966 10.6677 0.819557 16.88 1.27027 20.9197C3.45847 40.5387 11.4554 55.1694 26.2493 66.6201C28.5688 68.4154 29.1604 68.7456 30.0569 68.7456C30.7566 68.7456 31.0441 68.6153 32.3438 67.7099ZM28.3434 67.8519C27.5574 67.361 25.3405 65.6349 23.6224 64.1759C14.4387 56.3789 8.10968 46.8886 4.47398 35.464C3.07558 31.0694 2.02298 25.9027 1.4384 20.5629C1.15547 17.9779 0.822029 10.5669 0.951661 9.74294C1.15741 8.43486 1.16448 8.42168 1.54137 8.62893C2.0772 8.9234 2.31651 8.57462 1.96099 8.01717C1.74199 7.67407 1.71903 7.49372 1.86033 7.22309C2.78399 5.45048 11.2378 2.73906 18.8139 1.78546C22.4743 1.32486 25.3484 1.16622 30.0519 1.16587C39.1383 1.16515 45.9923 2.13887 52.5595 4.36389C55.5275 5.36947 57.317 6.1737 57.7958 6.71744C58.0943 7.05608 58.0952 7.09311 57.8125 7.58434C57.4431 8.22654 57.5669 8.4434 58.3028 8.4434C58.9147 8.4434 58.9028 8.42382 59.128 9.804C59.2665 10.6547 58.9258 18.2024 58.6258 20.9197C57.2438 33.4441 53.3691 44.1141 47.0045 52.9226C43.2547 58.112 37.4941 63.8418 32.4144 67.4345L31.2059 68.289L30.9345 67.8912C30.7039 67.5536 30.5595 67.5078 29.9749 67.5883C29.5965 67.6404 29.2026 67.8009 29.1 67.9454C28.9354 68.1761 28.8445 68.1649 28.3434 67.8519ZM24.707 46.2933C25.0037 45.9884 25.062 45.5257 24.8033 45.5257C24.7107 45.5257 24.6346 45.6023 24.6346 45.6958C24.6346 45.7892 24.4447 45.9147 24.2128 45.9745C23.7903 46.0831 23.6928 46.2336 23.9035 46.4499C24.0931 46.6448 24.4285 46.5796 24.707 46.2933ZM20.2475 44.0429C20.2475 44.0009 20.1716 43.9663 20.079 43.9663C19.9862 43.9663 19.9101 44.0491 19.9101 44.1497C19.9101 44.2508 19.986 44.285 20.079 44.2262C20.1717 44.1674 20.2475 44.0848 20.2475 44.0429ZM32.0388 42.5734C31.7555 42.1007 31.4965 41.7138 31.4637 41.7138C31.4309 41.7138 31.6082 42.1305 31.8576 42.6402C32.1074 43.1494 32.3662 43.5367 32.4327 43.4999C32.4992 43.4633 32.3219 43.0463 32.0388 42.5734ZM34.8425 39.6347C34.9026 39.5349 34.784 39.4798 34.5635 39.5046C34.2608 39.5385 34.1566 39.4384 34.0672 39.0279C33.9621 38.5429 33.9532 38.5378 33.9345 38.9499C33.9044 39.6184 34.5567 40.1102 34.8425 39.6347ZM31.0301 36.971C31.7896 36.8238 32.0587 36.5717 32.0587 36.0072C32.0587 35.5003 31.5677 34.6462 31.5579 35.1361C31.5549 35.283 31.217 35.7411 30.8073 36.1542C30.3975 36.5675 30.0231 37.0587 29.9754 37.2461C29.8978 37.5513 29.9182 37.5604 30.1722 37.3348C30.3282 37.1959 30.7143 37.0323 31.0301 36.971ZM36.4414 36.6926C35.324 36.5443 34.9361 36.3485 34.3548 35.6392C33.6312 34.7562 33.8307 33.7413 34.814 33.3019L35.349 33.0629L34.7481 33.0562C32.9788 33.0363 32.9503 35.5462 34.7091 36.4996C35.1575 36.7425 35.652 36.842 36.3613 36.8312L37.3737 36.8161L36.4414 36.6926ZM41.1567 35.0421C41.1493 34.8515 41.105 34.7931 41.0582 34.9124C41.0112 35.0315 40.8275 35.129 40.6499 35.129C40.472 35.129 40.3264 35.1875 40.3264 35.2589C40.3264 35.3303 40.5163 35.3886 40.7484 35.3886C41.0621 35.3886 41.1667 35.2998 41.1567 35.0421ZM23.1936 34.0378C23.4758 33.5942 23.8842 33.18 24.1014 33.1174C24.5629 32.985 25.702 33.3215 26.3626 33.7855C27.0261 34.2517 27.8865 34.3634 28.1645 34.0194C28.2876 33.8672 28.5877 33.7398 28.8315 33.737C29.2578 33.7317 29.2623 33.7216 28.9474 33.4771C28.7441 33.3191 28.2318 33.2216 27.5975 33.2201C26.3566 33.217 25.8148 32.9606 25.4703 32.2127L25.209 31.6454L24.8891 32.0085C24.4357 32.523 23.8995 32.397 23.7893 31.7496L23.7009 31.2297L23.1794 32.0095C22.4403 33.1144 22.1041 33.8342 22.1041 34.3115C22.1038 35.2274 22.5004 35.1275 23.1936 34.0378ZM33.3664 32.0199C33.5391 31.9785 33.3464 30.8309 33.0749 30.2848C32.821 29.7729 32.6101 29.5864 32.1892 29.501C30.5295 29.1639 30.1192 28.6491 30.2723 27.0935C30.3887 25.9089 30.3773 25.881 29.474 25.1897C29.12 24.9184 28.7471 24.5096 28.6458 24.2811C28.4045 23.7372 28.1613 23.7565 27.0011 24.4116C25.6403 25.1798 25.5146 25.4464 26.1334 26.2531C26.4083 26.6113 26.6792 27.2257 26.7432 27.6348C26.8073 28.046 26.9511 28.3711 27.0691 28.3711C27.3807 28.3711 27.672 29.1509 27.672 29.9851C27.672 30.6016 27.7883 30.8531 28.4132 31.5868L29.1547 32.4571L31.2397 32.2439C32.3861 32.1263 33.3428 32.0255 33.3664 32.0199ZM37.0269 30.7021C36.7983 30.078 36.3812 28.6548 36.1001 27.5395C35.803 26.3611 35.2671 24.8403 34.8203 23.9089C34.0907 22.388 33.8791 22.1174 33.6787 22.4507C33.5673 22.6358 34.4522 24.8756 35.0889 26.021C35.3571 26.5034 35.7767 27.7166 36.0213 28.7176C36.2778 29.7652 36.6507 30.8127 36.9008 31.1867C37.1396 31.5442 37.3593 31.8365 37.389 31.8365C37.4187 31.8365 37.2557 31.3259 37.0269 30.7021ZM33.0288 21.7301C32.1542 20.9945 32.5984 20.4538 33.667 20.9539C34.0079 21.1133 34.0922 21.2561 34.0332 21.5733C33.9839 21.8396 34.0145 21.9259 34.1197 21.8176C34.4228 21.5067 34.1721 21.0084 33.5571 20.6996C32.4514 20.1445 31.8843 20.7981 32.7505 21.6289C33.0393 21.9061 33.3241 22.1298 33.384 22.1266C33.444 22.123 33.284 21.9447 33.0288 21.7301ZM40.0818 20.6654C40.2163 20.3349 40.3261 19.8867 40.3255 19.669C40.325 19.139 39.7616 18.2185 39.2808 17.9614L38.8921 17.7536L39.2506 18.1668C40.0362 19.0728 40.1824 19.8593 39.7316 20.755C39.572 21.0718 39.5434 21.266 39.6556 21.266C39.7556 21.2663 39.9473 20.9958 40.0818 20.6654ZM27.7032 16.5828C26.9556 16.1145 27.0081 15.4664 27.8404 14.8908C28.3136 14.5636 28.6069 14.4938 29.3168 14.5384C29.9209 14.577 30.203 14.5291 30.203 14.3883C30.2027 14.2743 30.5632 14.0642 31.0041 13.9207L31.8055 13.6595L30.7931 13.7503C29.2431 13.8897 28.1429 14.2661 27.4262 14.9023C26.8765 15.3904 26.7927 15.5521 26.888 15.943C26.9503 16.1976 27.209 16.5215 27.463 16.6629C28.1553 17.0486 28.3457 16.9852 27.7032 16.5828ZM5.54442 12.2993C5.48824 8.89599 5.4902 8.87586 5.86567 8.70584C6.4271 8.45123 6.3229 8.25984 5.7371 8.46957L5.23093 8.65082V12.1862C5.23093 14.6341 5.28779 15.7214 5.41584 15.7214C5.54565 15.7214 5.58397 14.7004 5.54442 12.2993ZM33.3807 15.5695C33.5553 15.4556 33.5353 15.404 33.2914 15.3384C33.1183 15.292 32.8812 15.3591 32.7643 15.4877C32.5912 15.678 32.6076 15.7209 32.8536 15.7188C33.0196 15.7173 33.2567 15.6502 33.3807 15.5695ZM54.2921 8.63355C54.5512 8.73378 54.6786 8.74002 54.5837 8.64726C54.4911 8.55646 54.2443 8.42951 54.0357 8.36469L53.6559 8.24701L53.6946 11.8542L53.733 15.4617L53.7823 11.9583L53.8316 8.45497L54.2921 8.63355ZM8.52118 13.7728C8.63157 13.6617 8.54414 13.6469 8.2681 13.73C7.60846 13.9284 6.7496 14.3087 6.7496 14.4025C6.7496 14.5295 8.32619 13.9692 8.52118 13.7728ZM10.1398 10.4546C10.8579 7.26262 10.8892 7.17466 11.386 6.95228L11.8957 6.72439L11.4524 6.71762C11.2087 6.71388 10.933 6.80825 10.8401 6.92735C10.6721 7.14261 9.10187 13.7981 9.12236 14.2076C9.14514 14.6609 9.4302 13.61 10.1398 10.4546ZM51.1451 13.5251C50.9467 13.1737 50.8986 13.2862 51.0614 13.7219C51.119 13.8768 51.202 13.967 51.2456 13.9223C51.2889 13.8776 51.2438 13.6991 51.1451 13.5251ZM48.8458 6.92629C49.0729 6.9708 49.2183 6.94053 49.1696 6.85899C49.1205 6.77744 48.895 6.71085 48.6685 6.71085H48.2565L48.295 10.2197L48.3335 13.7288L48.3829 10.2869L48.4325 6.8451L48.8458 6.92629ZM12.3925 12.6983C12.3289 12.3507 12.2388 12.1052 12.1927 12.1529C12.1466 12.2006 12.1602 12.5242 12.2238 12.8719C12.2872 13.2196 12.3773 13.4651 12.4234 13.4174C12.4695 13.3697 12.456 13.046 12.3925 12.6983ZM14.5637 9.63112C14.5953 6.29637 14.5976 6.27679 14.975 6.22213C15.1837 6.19167 15.3546 6.08503 15.3546 5.98533C15.3546 5.88171 15.1917 5.84859 14.9749 5.90823C14.7663 5.96575 14.5385 6.01382 14.4689 6.01506C14.3993 6.01649 14.3424 7.62903 14.3424 9.59872C14.3424 11.5684 14.3852 13.1361 14.4373 13.0825C14.4892 13.0289 14.5462 11.4758 14.5637 9.63112ZM46.5308 6.31453C46.9549 6.2483 46.9481 6.24064 46.443 6.2166L45.8946 6.19061L45.9328 9.6995L45.9716 13.2085L46.0208 9.79723L46.0704 6.38629L46.5308 6.31453ZM16.3832 11.1356C16.1458 10.4295 15.9252 9.87914 15.8929 9.91244C15.8603 9.94573 16.0088 10.5993 16.2226 11.3651C16.4363 12.1307 16.6569 12.6814 16.7128 12.5882C16.7688 12.4951 16.6205 11.8419 16.3832 11.1356ZM43.6562 10.3932C43.6216 9.94038 43.5929 10.3107 43.5929 11.2163C43.5929 12.1216 43.6216 12.4919 43.6562 12.0393C43.691 11.5866 43.691 10.8457 43.6562 10.3932ZM18.3918 10.5806C18.3918 9.56401 18.364 8.76495 18.3299 8.80446C18.1851 8.97362 18.0984 12.4289 18.2388 12.4289C18.323 12.4289 18.3918 11.5973 18.3918 10.5806ZM20.7539 8.70387V5.3458L21.5106 5.22936C21.9268 5.16525 22.5341 5.14479 22.8604 5.18377C23.1866 5.22294 23.3892 5.18912 23.3107 5.10864C23.2327 5.02834 22.5682 4.98543 21.8347 5.01357L20.5009 5.06467L20.4552 8.67272C20.4247 11.0938 20.4663 12.2446 20.5819 12.1713C20.6893 12.1031 20.7539 10.8009 20.7539 8.70387ZM41.1312 5.48039L41.5919 5.46313L41.1697 5.33422C40.9378 5.26354 40.6912 5.23683 40.6215 5.27511C40.5518 5.31339 40.5124 6.91917 40.5332 8.84346L40.5718 12.342L40.6213 8.91984L40.6707 5.49731L41.1312 5.48039ZM51.9316 7.81224C52.38 7.90696 52.3788 7.90393 51.8843 7.67301L51.3781 7.43656L51.2937 9.54282C51.2471 10.7013 51.2471 11.7661 51.2937 11.909C51.34 12.052 51.3993 11.1669 51.4254 9.94217L51.4728 7.71537L51.9316 7.81224ZM26.0903 11.2109C25.5693 10.5749 25.3981 9.7976 25.4152 8.14589C25.4298 6.72901 25.8249 5.45885 26.3734 5.06396C26.572 4.92134 27.0401 4.80205 27.4138 4.79937C27.9746 4.7951 28.0396 4.76199 27.7861 4.6103C27.3632 4.35783 26.6663 4.56668 26.107 5.11309C24.9179 6.27482 24.7978 10.0645 25.9109 11.2981C26.4667 11.9142 26.6097 11.8447 26.0903 11.2109ZM32.0469 4.83036C32.7791 4.86418 33.2899 4.83481 33.1824 4.76448C33.0746 4.69416 32.436 4.6354 31.7634 4.63415L30.5401 4.63131L30.5786 8.2269L30.6173 11.8225L30.6665 8.29527L30.7158 4.76804L32.0469 4.83036ZM33.1552 10.6964C32.9971 10.2074 32.8297 9.84656 32.7834 9.8941C32.7371 9.94181 32.8285 10.3807 32.9865 10.8696C33.1447 11.3585 33.3119 11.7194 33.3582 11.6719C33.4048 11.6241 33.3136 11.1854 33.1552 10.6964ZM23.1289 10.9438C23.5287 10.5726 23.5629 9.51647 23.1911 9.03985C22.9377 8.71509 22.9347 8.71651 23.1067 9.08204C23.5487 10.0214 23.124 11.0403 22.2884 11.0453C22.0476 11.0469 21.7367 11.1308 21.5974 11.2323C21.4083 11.3703 21.5288 11.3952 22.0746 11.3313C22.4761 11.2841 22.9506 11.1096 23.1289 10.9438ZM35.8296 10.8262C35.4505 10.0826 35.3204 7.65644 35.6038 6.61703C35.8935 5.55482 36.625 4.92597 37.4741 5.0093C37.821 5.04312 38.0683 5.01107 38.0243 4.93789C37.9803 4.86472 37.6391 4.80472 37.2662 4.80472C36.4324 4.80472 35.7237 5.45262 35.4502 6.46444C35.1455 7.59039 35.2235 9.80721 35.5975 10.6529C35.7766 11.0578 35.9666 11.3893 36.0199 11.3893C36.0732 11.3893 35.9875 11.136 35.8296 10.8262ZM11.7814 11.0655C11.9649 10.946 11.958 10.7694 11.7425 10.0718L11.4805 9.22341L11.5758 10.0134C11.6611 10.719 11.6292 10.8244 11.2774 10.998C10.9195 11.1748 10.9144 11.1936 11.2208 11.2018C11.4063 11.2068 11.6587 11.1454 11.7814 11.0655ZM38.2957 10.881C38.3918 10.6967 38.4691 10.443 38.4679 10.3178C38.4667 10.1927 38.3678 10.2847 38.2483 10.5229C38.0726 10.873 37.912 10.9524 37.4114 10.9367C37.0709 10.926 36.8327 10.9848 36.8822 11.0667C37.0628 11.3674 38.1142 11.2292 38.2957 10.881ZM28.2199 10.3497C28.4313 9.91511 28.5149 9.32578 28.5149 8.27017C28.5149 6.41832 28.1873 5.61055 27.404 5.5322C27.0948 5.50105 26.7989 5.58491 26.6746 5.73838C26.4917 5.96486 26.5321 5.97143 26.9991 5.79055C27.4801 5.60449 27.5631 5.62318 27.8458 5.98159C28.4572 6.75679 28.5068 9.54815 27.9252 10.4597C27.7044 10.8057 27.5349 10.8879 27.1595 10.8315C26.894 10.7914 26.7178 10.827 26.7684 10.9104C26.8185 10.9939 27.0994 11.0382 27.3921 11.009C27.8081 10.9679 27.9896 10.8233 28.2199 10.3497ZM18.3337 5.66948C18.4119 5.59345 18.6279 5.49393 18.8135 5.448C19.0404 5.39208 18.9786 5.35808 18.6243 5.34454L18.0978 5.32461L17.5687 7.1873C17.2779 8.21194 17.0446 9.16714 17.0502 9.31011C17.056 9.45308 17.3151 8.72345 17.626 7.68903C17.9368 6.65424 18.2555 5.74551 18.3337 5.66948ZM38.5231 8.57088L39.3985 8.50786L38.4281 8.47563C37.4698 8.44393 37.4584 8.44946 37.481 8.9202C37.5001 9.31546 37.5163 9.33183 37.576 9.01545C37.6371 8.69195 37.7804 8.62464 38.5231 8.57088ZM24.0511 8.62838C23.9897 8.52673 23.8591 8.44357 23.7603 8.44357C23.6485 8.44357 23.6612 8.5431 23.7942 8.70761C24.0256 8.99408 24.2326 8.93017 24.0511 8.62838ZM43.7007 7.21187V5.80692L44.1649 5.91732C44.509 5.99975 44.5636 5.98283 44.3758 5.85233C44.2364 5.75564 43.9899 5.67536 43.8274 5.67375C43.5706 5.67143 43.5322 5.8518 43.5322 7.05893V8.4466L42.6463 8.37858C41.9568 8.32554 41.8914 8.33888 42.351 8.43913C43.741 8.74179 43.7007 8.77812 43.7007 7.21187ZM22.9569 7.77751C23.4373 7.37798 23.474 6.47245 23.027 6.05264C22.7391 5.78201 22.7307 5.78183 22.9261 6.04943C23.201 6.42598 23.1063 7.41645 22.7787 7.58844C22.6392 7.66144 22.2599 7.79781 21.935 7.89146L21.3445 8.0615L21.9586 8.0793C22.3258 8.08999 22.7267 7.96855 22.9569 7.77751ZM33.2399 7.57722C33.6434 7.16272 33.6808 6.32183 33.3121 5.94331C32.9287 5.54947 32.841 5.60911 33.1459 6.05618C33.7327 6.91649 33.3636 7.56227 32.1709 7.76238L31.4683 7.88042L32.1854 7.90179C32.6975 7.91745 32.9988 7.82487 33.2399 7.57722ZM38.2349 6.41103C38.1788 6.35353 38.1388 6.4559 38.1463 6.63839C38.1543 6.84029 38.1939 6.88143 38.248 6.74326C38.2969 6.6181 38.2908 6.46889 38.2349 6.41103Z" fill="#E2E2E2"/>
<path d="M28.5983 69.0407C26.569 68.0469 21.2575 63.5368 17.7148 59.8003C8.04926 49.6042 2.65594 37.544 0.676665 21.6993C0.413516 19.5936 0.00324919 13.2586 0.00183632 11.2772C-0.000812839 8.06524 0.995976 6.10606 3.17199 5.04563C5.50254 3.91006 10.1772 2.43195 13.7518 1.70054C19.9965 0.422194 28.738 -0.143984 35.3488 0.301481C42.7555 0.800358 48.3303 1.84975 53.7013 3.75623C57.5386 5.11827 58.6887 5.90487 59.5422 7.74975C59.9797 8.6957 59.9827 8.73237 59.9516 12.5153C59.8234 28.0585 55.8205 41.7689 48.2264 52.6747C44.658 57.8002 39.5994 63.0328 34.1506 67.2361C31.2393 69.4818 30.1933 69.822 28.5983 69.0407ZM32.2687 67.8237C36.2458 65.0971 42.5065 59.1539 45.6271 55.1427C48.9739 50.8406 52.5335 44.6317 54.3193 39.9804C57.0644 32.8302 58.604 25.5116 59.2217 16.6742C59.4282 13.7228 59.4372 9.62883 59.2395 8.75445C59.1404 8.31521 59.1539 8.09196 59.2821 8.04798C59.5293 7.96322 58.9596 7.05716 58.6592 7.05716C58.5381 7.05716 58.2553 6.8542 58.0303 6.60671C56.4429 4.85921 48.2761 2.40472 40.8326 1.43811C35.4239 0.736085 26.3247 0.648132 20.9229 1.24618C12.6162 2.16559 3.75711 4.70379 1.95709 6.68007C1.68775 6.97598 1.41136 7.1825 1.34337 7.13943C0.470913 6.58571 0.48151 14.8234 1.36227 21.9593C3.29615 37.6304 8.84224 49.7571 18.7221 59.9191C22.2062 63.5021 26.443 67.1031 28.7215 68.4175C29.945 69.1234 30.5111 69.0286 32.2687 67.8237ZM29.0827 66.9521C28.699 66.7228 27.6039 65.9276 26.6494 65.1852C25.6951 64.4428 24.8142 63.8356 24.6922 63.8356C24.5701 63.8356 24.2223 63.6092 23.9197 63.3321L23.3692 62.8288L24.0019 63.2949C24.8527 63.9216 24.8064 63.7466 23.9302 63.0236C23.5427 62.7038 23.2815 62.5348 23.3497 62.6478C23.6305 63.1149 23.1395 62.8045 22.5177 62.1217C22.1508 61.7191 22.0405 61.5431 22.2726 61.7306C22.5045 61.9181 21.4393 60.7464 19.9053 59.1269C17.201 56.2721 14.6151 53.1307 12.9168 50.6374C11.949 49.2166 11.6936 48.9125 11.9709 49.5111L12.1717 49.9445L11.8259 49.5111C11.6357 49.2729 11.5159 48.9765 11.5596 48.8523C11.6034 48.7285 11.5672 48.6723 11.4794 48.7281C11.3105 48.8353 10.7526 47.8841 10.8971 47.7356C10.9435 47.6879 10.6075 46.9425 10.1509 46.079C8.93973 43.7897 8.00617 41.764 6.92161 39.0712C6.3939 37.7608 5.91669 36.7352 5.86105 36.7923C5.8056 36.8492 5.79959 36.7128 5.84763 36.489C5.90486 36.2231 5.88295 36.1566 5.78476 36.2974C5.57141 36.603 5.00167 34.9179 5.14366 34.4009C5.23198 34.0795 5.21643 34.0529 5.06314 34.2626C4.91514 34.465 4.89624 34.3883 4.97801 33.916C5.06084 33.4368 5.04194 33.364 4.88794 33.5697C4.72263 33.7899 4.70814 33.7813 4.79293 33.5131C4.84768 33.3389 4.70761 32.4423 4.48121 31.5204C3.38357 27.0515 2.23914 19.099 2.18262 15.5484C2.17379 15.0022 2.13176 14.8697 2.04169 15.1059C1.92264 15.4185 1.90499 15.412 1.80273 15.0195C1.74197 14.7862 1.69129 14.186 1.69005 13.6857C1.68652 12.3068 1.35591 12.4843 1.12525 13.9889C1.0887 14.2273 1.04966 13.2525 1.03836 11.823C1.02706 10.3935 1.07368 9.14579 1.14186 9.05054C1.21003 8.95529 1.4926 8.87713 1.7697 8.87713C2.37689 8.87713 2.49998 8.50271 2.13811 7.75776C1.90181 7.27136 1.91206 7.22079 2.33662 6.77835C2.7679 6.32878 4.35757 5.49145 5.23091 5.25394C5.63853 5.14302 5.63694 5.14818 5.18852 5.41062C4.9335 5.56018 4.72474 5.75816 4.72474 5.85039C4.72474 6.0651 4.72015 6.06565 5.56841 5.75816C6.42322 5.44836 6.64044 5.43234 6.48502 5.69015C6.40978 5.81531 6.47972 5.84647 6.68618 5.77971C10.3176 4.60586 13.4269 3.82246 16.7044 3.2545C18.2566 2.98566 19.3391 2.72678 19.151 2.66946C18.9653 2.61284 19.1932 2.60536 19.6572 2.65308C20.3017 2.71931 20.441 2.69402 20.2478 2.54678C20.055 2.40008 20.2159 2.37408 20.9224 2.43907C21.4328 2.4859 23.4831 2.45723 25.4782 2.37497C32.2053 2.09865 35.0124 2.0383 34.8024 2.17468C34.6875 2.24928 35.7202 2.4056 37.0972 2.52187C40.1561 2.78038 44.8177 3.46407 47.3404 4.02419C48.3713 4.25298 49.3978 4.39862 49.6215 4.34752C49.9539 4.27167 49.9818 4.29143 49.7751 4.4547C49.5664 4.61922 49.5861 4.63594 49.8874 4.54907C50.3236 4.42391 51.1572 4.61048 51.0389 4.80705C50.993 4.88343 51.1194 4.90177 51.3196 4.84782C51.5846 4.77661 51.6478 4.80955 51.5519 4.96924C51.4536 5.13252 51.5166 5.15691 51.7996 5.06467C52.0425 4.98545 52.1409 5.00486 52.0725 5.11845C52.0112 5.22029 52.3436 5.42416 52.853 5.59703C54.5373 6.16855 56.4412 7.08085 56.9186 7.54482C57.9207 8.51872 57.9612 8.72169 57.9238 12.5616C57.8947 15.5401 57.5677 20.834 57.2792 22.9993C57.1884 23.6804 57.2394 23.5638 57.7353 21.9596C57.9267 21.3404 58.1488 20.7489 58.229 20.6456C58.3092 20.5423 58.4476 20.0354 58.5369 19.5193C58.6908 18.629 58.6947 18.6476 58.6105 19.8803C58.02 28.5301 55.1047 38.8286 51.1886 46.1007C47.8558 52.2889 43.0394 58.4155 38.2991 62.4965L37.2047 63.4387L37.9723 62.5832C38.3944 62.1127 38.8637 61.4445 39.0147 61.098C39.1659 60.7519 39.538 60.1669 39.8416 59.7983L40.3937 59.1283L39.8115 59.6577C39.4915 59.9488 38.7359 60.6457 38.1328 61.2063C36.814 62.4321 33.3971 65.2461 31.8599 66.373C30.4602 67.3981 29.9926 67.496 29.0827 66.9521ZM24.8034 46.3919C25.519 45.6571 25.0885 45.1365 24.2588 45.7338C23.955 45.9523 23.6769 46.1486 23.6406 46.1707C23.5037 46.2529 24.0109 46.7386 24.2337 46.7386C24.3613 46.7386 24.6177 46.5827 24.8034 46.3919ZM20.3518 43.7869C20.3658 43.5043 20.3228 43.2728 20.2563 43.2728C20.0274 43.2728 19.6971 44.1167 19.8088 44.4165C19.9708 44.8498 20.3197 44.445 20.3518 43.7869ZM32.7159 43.6827C33.0253 43.5243 33.0568 43.4526 32.8681 43.3348C32.7375 43.2528 32.4689 42.9134 32.2715 42.5799C31.826 41.8273 31.2108 41.1403 31.0917 41.2622C31.0428 41.3126 31.2503 41.7493 31.552 42.2329C32.0052 42.9582 32.0857 43.2302 32.013 43.7879C31.9153 44.5347 32.0872 44.9213 32.2337 44.2843C32.2847 44.0632 32.5017 43.7925 32.7159 43.6827ZM41.6736 43.403C41.6723 43.2837 41.6058 43.0804 41.5261 42.9512C41.3407 42.6508 41.0964 42.9994 41.2344 43.3679C41.3491 43.6758 41.6769 43.7019 41.6736 43.403ZM34.9268 39.6216C34.9268 39.5398 34.7751 39.3895 34.5895 39.2875C34.4041 39.1854 34.2522 38.9877 34.2522 38.8482C34.2522 38.7087 34.1762 38.5943 34.0833 38.5943C33.7943 38.5943 33.8936 39.6047 34.1998 39.7806C34.5062 39.9566 34.9268 39.8647 34.9268 39.6216ZM21.6434 37.2081L21.7353 36.2548L21.4742 36.8614C21.3306 37.1949 21.1857 37.8578 21.1524 38.3343C21.0928 39.1869 21.0955 39.1924 21.3217 38.6808C21.4481 38.3951 21.5928 37.7322 21.6434 37.2081ZM30.5058 38.3084C30.548 38.0157 30.6806 37.9648 31.3737 37.9755C32.3197 37.9898 32.8211 37.6353 32.9935 36.8295C33.0774 36.4381 33.0181 36.2195 32.7489 35.925C32.5537 35.7119 32.0996 34.9324 31.7403 34.1931C31.0002 32.6714 31.0297 32.6068 32.4033 32.7426C32.8631 32.788 33.2396 32.7711 33.2396 32.7051C33.2396 32.4779 34.1007 32.1828 34.7647 32.1828C35.2476 32.1828 35.4881 32.2779 35.6411 32.5294C35.757 32.7198 35.9665 32.8737 36.1066 32.8706C36.3085 32.8666 36.3003 32.8287 36.0661 32.6888C35.541 32.3748 35.7532 32.1648 36.3016 32.4556C36.7107 32.6731 36.7782 32.7726 36.5969 32.8908C36.4244 33.003 36.4744 33.0432 36.7832 33.0415C37.2044 33.039 37.2044 33.0383 36.6541 32.5243C36.2335 32.1314 35.9413 32.0095 35.4197 32.0095C35.0439 32.0095 34.5895 31.9288 34.4101 31.8301C34.0098 31.6101 33.958 31.0565 34.3525 31.2118C34.5002 31.2701 34.8231 31.3618 35.0696 31.4159L35.518 31.5137L35.0959 31.1328C34.8642 30.9234 34.4654 30.6765 34.2102 30.584C33.6537 30.3825 33.6047 29.9726 34.1141 29.779C34.4609 29.6474 34.4535 29.633 33.9875 29.5339C33.6702 29.4662 33.3874 29.2341 33.1979 28.8856C32.9378 28.4073 32.8417 28.3564 32.3897 28.4584C31.8132 28.5883 31.0466 28.1895 31.0466 27.7599C31.0466 27.6192 31.2064 27.3398 31.4019 27.1393L31.7572 26.7743L31.4312 25.7096C31.1194 24.6902 31.0656 24.6252 30.1715 24.1829C28.7861 23.4976 28.7383 22.925 29.993 22.0491C30.7523 21.5192 31.3477 21.4982 32.2472 21.9693C32.9771 22.3518 33.4087 23.11 33.4087 24.0092C33.4087 24.3443 33.713 24.9345 34.3253 25.7873C35.2766 27.1113 35.6704 28.1222 35.5738 28.9913C35.5279 29.4031 35.4237 29.5111 35.0115 29.5742C34.5664 29.6422 34.597 29.663 35.2647 29.7476C35.8994 29.8277 36.0662 29.9304 36.2824 30.3743C36.6296 31.0874 37.4539 32.1489 37.4562 31.8858C37.4572 31.7701 37.2998 31.2634 37.1064 30.7595C36.913 30.2558 36.4927 28.8296 36.1727 27.5907C35.8364 26.2888 35.2903 24.7205 34.8794 23.875C34.488 23.0701 34.1428 22.349 34.1117 22.2721C34.0808 22.1951 34.2109 22.1323 34.4011 22.1323C34.9603 22.1323 35.9106 23.1338 36.6317 24.4835C37.3415 25.8112 37.9128 26.3476 38.5228 26.2587C38.8413 26.212 38.888 26.105 38.8619 25.4851C38.8271 24.653 38.276 23.4398 37.7917 23.1293C37.3002 22.814 37.3837 22.6522 38.0388 22.6522C38.6214 22.6522 38.9551 22.4194 38.6504 22.226C38.5606 22.169 37.9227 21.9742 37.2328 21.7929C36.543 21.6117 35.2104 21.1018 34.2711 20.6601C33.2353 20.1723 32.44 19.897 32.2481 19.9595C32.0741 20.0161 31.5218 20.4307 31.0209 20.8808C29.6375 22.1236 28.5438 22.8959 27.3344 23.4832C25.305 24.4687 24.8876 25.1627 24.3996 28.3616C24.2475 29.3579 24.0623 30.2154 23.9878 30.2679C23.6709 30.4904 22.0746 32.7853 21.8464 33.3459C21.5461 34.0835 21.5349 34.4508 21.7934 35.0335C22.0375 35.5836 22.6602 35.6206 23.0115 35.1055C23.4018 34.533 23.7948 34.7974 23.6754 35.5523C23.6118 35.9537 23.6447 36.1679 23.769 36.1679C24.0678 36.1679 24.6404 35.5034 24.9079 34.8457C25.2281 34.0585 25.5393 33.9626 26.3166 34.4112C27.1268 34.8789 28.0754 34.8899 28.6354 34.4375C28.8697 34.2484 29.1231 34.1324 29.1984 34.1806C29.3822 34.2971 29.6122 33.9107 29.6122 33.4854C29.6122 33.018 30.1367 32.9452 30.3638 33.3811C30.4998 33.6422 30.4937 33.8231 30.3394 34.0767C30.0409 34.5677 30.3129 34.736 30.8721 34.4065L31.3507 34.1243L31.4222 34.7535C31.4863 35.3182 31.411 35.4656 30.6875 36.1894C29.7965 37.0807 29.555 37.704 29.8462 38.3604C30.0649 38.8537 30.4308 38.8247 30.5058 38.3084ZM23.9598 34.684C23.9598 34.169 24.2352 33.5691 24.4717 33.5691C24.7054 33.5691 24.6731 34.6729 24.432 34.9204C24.1157 35.2457 23.9598 35.1678 23.9598 34.684ZM26.2356 32.4157C26.0818 32.2582 25.8876 31.9445 25.8043 31.7184C25.5821 31.1183 25.187 31.0382 24.7111 31.4973C24.2129 31.9782 24.0194 31.8475 24.26 31.192C24.3571 30.9268 24.5277 29.9763 24.6387 29.0795C24.9555 26.5191 25.675 26.097 26.2513 28.1335C26.396 28.6452 26.623 29.1754 26.7557 29.3113C26.8883 29.4474 26.9967 29.8717 26.9967 30.254C26.9967 30.8158 27.1261 31.1025 27.6717 31.7494C28.043 32.1904 28.3464 32.5845 28.3464 32.6267C28.3464 32.6689 27.9344 32.7028 27.4306 32.7028C26.8033 32.7027 26.4268 32.612 26.2356 32.4157ZM32.9867 21.5293C32.5803 21.1853 32.5273 21.0693 32.7181 20.9395C33.1855 20.6227 34.2234 21.3169 33.8934 21.7255C33.6396 22.04 33.5732 22.0255 32.9867 21.5293ZM37.9924 36.7284C38.1574 36.5594 37.9462 36.5149 36.9773 36.5149C35.1317 36.5149 34.2522 35.8957 34.2522 34.5973C34.2522 33.1685 36.0245 32.7741 36.4755 34.1027C36.5699 34.3811 36.7186 34.6092 36.8054 34.6092C36.8982 34.6092 36.8913 34.4703 36.7889 34.2739C36.5037 33.7263 36.584 33.5706 37.1625 33.5491C37.5728 33.5341 37.4849 33.4905 36.8134 33.3755C36.3199 33.2911 35.7743 33.1445 35.6013 33.0492C34.9126 32.6706 33.7598 32.9223 33.2872 33.5545C32.6947 34.3468 33.3853 35.9854 34.5894 36.6454C35.2322 36.9977 35.5351 37.0522 36.5666 37.0018C37.2367 36.9687 37.8782 36.8461 37.9924 36.7284ZM41.409 35.625C41.3437 35.5167 41.2824 35.2698 41.2726 35.076C41.2626 34.8825 41.1491 34.6879 41.0201 34.644C40.8777 34.5954 40.8322 34.6407 40.9035 34.7595C40.9756 34.8795 40.8939 34.9553 40.692 34.9553C40.5109 34.9553 40.3189 35.0722 40.2655 35.2153C40.193 35.4094 40.2922 35.4752 40.6593 35.4752C40.9293 35.4752 41.1971 35.5532 41.2545 35.6485C41.3118 35.7437 41.3968 35.8219 41.4429 35.8219C41.4896 35.8219 41.474 35.7332 41.409 35.625ZM40.73 31.2161C40.8562 30.8785 40.6681 29.5838 40.4932 29.5838C40.2248 29.5838 40.0324 31.1301 40.27 31.3744C40.4548 31.564 40.6214 31.5066 40.73 31.2161ZM23.2886 30.25C23.6577 29.6633 23.9589 29.098 23.9578 28.9935C23.9566 28.8892 23.7684 29.1407 23.539 29.5527C23.3097 29.9642 22.964 30.5296 22.7702 30.8089C22.5766 31.0883 22.4629 31.3166 22.5177 31.3166C22.5725 31.3166 22.9193 30.8365 23.2886 30.25ZM41.2482 26.4268C41.1285 25.7 40.8717 25.4289 40.6474 25.7928C40.3985 26.1965 40.4791 27.141 40.7903 27.4673C41.0737 27.7645 41.0912 27.7628 41.2209 27.4287C41.2949 27.2372 41.3073 26.7864 41.2482 26.4268ZM24.2304 26.6847C24.1744 26.6272 24.1346 26.7295 24.142 26.912C24.1501 27.114 24.19 27.1549 24.2439 27.0168C24.2924 26.8917 24.2863 26.7423 24.2304 26.6847ZM25.5626 24.2121C25.7304 24.0213 25.8302 23.8654 25.7834 23.8654C25.7372 23.8654 25.562 24.0213 25.3938 24.2121C25.2259 24.4025 25.1265 24.5584 25.1729 24.5584C25.2193 24.5584 25.3947 24.4025 25.5626 24.2121ZM40.4168 20.1668C40.6399 18.9467 39.5589 17.6166 38.1301 17.3531C37.5453 17.2452 37.5462 17.2466 38.3003 17.6525C39.6279 18.367 40.2254 19.9017 39.5572 20.8813C39.4128 21.0932 39.3489 21.3574 39.4155 21.4682C39.5954 21.7666 40.2895 20.8644 40.4168 20.1668ZM30.2871 21.0927C30.4549 20.9021 30.5545 20.7462 30.5079 20.7462C30.4612 20.7462 30.2862 20.9021 30.1184 21.0929C29.9504 21.2834 29.8509 21.4394 29.8974 21.4394C29.9438 21.4394 30.1191 21.2832 30.2871 21.0927ZM31.3837 20.1398C31.4992 19.9969 31.5559 19.8798 31.5095 19.8798C31.463 19.8798 31.3306 19.9969 31.215 20.1398C31.0996 20.2828 31.0428 20.3997 31.0895 20.3997C31.1357 20.3997 31.2683 20.2827 31.3837 20.1398ZM28.4312 16.8335C26.9741 16.2958 26.9013 15.2926 28.2802 14.7519C28.9478 14.4899 29.372 14.4978 30.1026 14.7857C30.281 14.8562 30.371 14.7964 30.371 14.6091C30.371 14.2352 31.0344 13.9923 32.1117 13.971C32.8029 13.9574 32.898 13.9245 32.5646 13.815C30.8352 13.2461 27.6437 14.1495 26.9165 15.4136L26.6072 15.9513L27.2214 16.5294C27.6992 16.9789 27.9763 17.1045 28.4707 17.0951L29.106 17.083L28.4312 16.8335ZM5.56825 12.2639C5.56825 9.3687 5.60815 8.81125 5.82132 8.72739C6.04032 8.64104 6.0744 9.03523 6.0744 11.6544C6.0744 15.0173 6.01242 14.872 7.25558 14.4216C8.08035 14.1225 8.26791 14.1024 8.26791 14.3117C8.26791 14.3943 7.6948 14.6765 6.99437 14.9388C6.29393 15.2013 5.7505 15.4463 5.78688 15.4836C5.82309 15.5209 6.42798 15.3388 7.13089 15.0793C8.26172 14.6614 8.41696 14.5512 8.47825 14.1223C8.55418 13.5899 8.48478 13.5882 7.27712 14.0959C6.19061 14.5526 6.22311 14.6434 6.27786 11.3024C6.30524 9.63471 6.31989 8.27 6.31054 8.27017C6.30117 8.27017 6.05445 8.356 5.76215 8.4605L5.23091 8.65065V12.2827C5.23091 14.6603 5.28919 15.878 5.39957 15.808C5.50272 15.7421 5.56825 14.3683 5.56825 12.2639ZM33.5492 15.5695C33.7176 15.4597 33.6768 15.3966 33.3865 15.3187C33.1731 15.2614 32.9571 15.2831 32.9068 15.3672C32.8561 15.4511 32.5499 15.5527 32.226 15.593C31.7523 15.6515 31.8024 15.6709 32.4803 15.6908C32.9444 15.7047 33.4252 15.6499 33.5492 15.5695ZM53.8598 11.9751L53.8104 8.57516L54.2818 8.69481C54.8381 8.836 54.6226 8.5465 54.0356 8.36436L53.6558 8.24668V11.8107C53.6558 13.7708 53.7128 15.3749 53.7826 15.3749C53.8521 15.3749 53.8868 13.8449 53.8598 11.9751ZM50.5991 11.9288C50.0268 10.4836 49.5281 9.33238 49.4909 9.3703C49.4538 9.40877 49.8144 10.4437 50.2921 11.6706C50.7701 12.8979 51.2311 14.0878 51.3165 14.3155C51.4019 14.543 51.5098 14.6904 51.5559 14.6431C51.602 14.5957 51.1716 13.3743 50.5991 11.9288ZM10.2064 13.3353C10.3662 12.2413 10.4287 12.1275 10.9375 12.003C11.1862 11.9421 11.5163 11.854 11.6714 11.8068C11.8964 11.7383 11.9917 11.9119 12.1447 12.6691L12.3365 13.617L12.8499 13.4333C13.4463 13.2196 13.4864 13.6147 12.4472 9.47179L11.7272 6.60155L11.2079 6.73972C10.721 6.86951 10.671 6.96102 10.4008 8.22389C10.2422 8.96402 9.86199 10.6695 9.55574 12.0139L8.99907 14.4581L9.54603 14.2857C10.0282 14.1335 10.1062 14.0212 10.2064 13.3353ZM9.67602 13.3743C9.62109 13.2273 9.61385 13.0681 9.65994 13.0209C9.70586 12.9734 9.78429 13.0939 9.83373 13.2883C9.939 13.7012 9.82207 13.765 9.67602 13.3743ZM9.8 12.5297C9.79259 12.3472 9.83267 12.2446 9.88866 12.3023C9.94464 12.36 9.95083 12.5094 9.9019 12.6344C9.84804 12.7727 9.80794 12.7316 9.8 12.5297ZM10.1373 10.9704C10.1299 10.7877 10.17 10.6853 10.226 10.743C10.282 10.8007 10.2881 10.9499 10.2394 11.0751C10.1855 11.2132 10.1455 11.1721 10.1373 10.9704ZM10.8152 10.5659C10.824 10.3038 10.9232 9.69951 11.0356 9.22306L11.2397 8.35671L11.4508 9.55315C11.6231 10.531 11.6214 10.7763 11.4414 10.8936C11.0237 11.1655 10.7985 11.0478 10.8152 10.5659ZM10.3062 10.2771C10.2987 10.0946 10.3387 9.99203 10.3948 10.0497C10.4508 10.1072 10.4566 10.2568 10.4081 10.3818C10.3542 10.5201 10.3143 10.479 10.3062 10.2771ZM10.5688 9.22306C10.7599 8.06294 10.9768 7.55657 10.8658 8.52976C10.8114 9.00638 10.6968 9.51309 10.611 9.65606C10.5091 9.82557 10.4946 9.6744 10.5688 9.22306ZM10.9702 7.3602C10.9685 7.15633 11.0921 7.06143 11.3473 7.0707C11.6011 7.07959 11.6429 7.117 11.4739 7.18323C11.3344 7.2377 11.1648 7.36803 11.0968 7.4729C11.0204 7.59041 10.9718 7.54732 10.9702 7.3602ZM48.5941 10.2867V6.93182L49.058 7.00803C49.4208 7.06749 49.4667 7.044 49.2689 6.90013C49.1297 6.79865 48.8449 6.71461 48.6363 6.71318L48.2565 6.71052V10.1761C48.2565 12.371 48.3183 13.6417 48.4252 13.6417C48.5321 13.6417 48.5941 12.4079 48.5941 10.2867ZM15.1155 12.9485C15.3089 12.9485 15.3592 12.508 15.3778 10.6526C15.3901 9.38972 15.4341 8.55149 15.4749 8.78971C15.5932 9.48015 16.5631 12.6743 16.7012 12.8292C16.7701 12.9068 16.8755 12.6725 16.9352 12.3093C16.995 11.9461 17.3056 10.8297 17.6258 9.82913L18.2077 8.00952L18.1086 10.279L18.0095 12.5484L18.5316 12.4699L19.0537 12.3912L19.1024 8.85736L19.1512 5.32355H18.6193C18.1056 5.32391 18.0745 5.36718 17.7153 6.58019C17.5108 7.271 17.2119 8.36704 17.0516 9.01547L16.7596 10.1941L16.1416 8.21392C15.8016 7.12483 15.5234 6.14593 15.5234 6.03875C15.5234 5.82154 15.2896 5.79661 14.7219 5.95312C14.3438 6.05709 14.3422 6.0724 14.3422 9.60817C14.3422 12.7747 14.3714 13.1473 14.6093 13.0537C14.7559 12.996 14.9837 12.9485 15.1155 12.9485ZM46.0982 9.72229L46.0487 6.32274L46.4779 6.43312C46.7139 6.49401 46.9069 6.47319 46.9069 6.38683C46.9069 6.30049 46.679 6.19561 46.4007 6.15342L45.8944 6.07722V9.59945C45.8944 11.5366 45.9512 13.1219 46.0211 13.122C46.0906 13.122 46.1252 11.5921 46.0982 9.72229ZM43.6565 10.1329C43.6226 9.63239 43.5945 10.0419 43.5945 11.0425C43.5945 12.0431 43.6225 12.4526 43.6564 11.9521C43.6908 11.4518 43.6909 10.6332 43.6565 10.1329ZM22.7896 11.895C23.7095 11.6573 24.1711 11.0407 24.2607 9.93007C24.3274 9.10573 24.2854 8.93553 23.9258 8.56591C23.5244 8.15373 23.5219 8.1345 23.8216 7.75438C24.2938 7.1558 24.2348 5.93728 23.7076 5.39584C23.3166 4.99453 23.1865 4.96729 21.8935 5.01377L20.5009 5.06414L20.4552 8.63464L20.4097 12.2053L21.2989 12.1277C21.7878 12.0849 22.4586 11.9804 22.7896 11.895ZM21.4288 9.91618V8.78988H22.0774C22.8558 8.78988 23.2845 9.20081 23.2845 9.94628C23.2845 10.6293 22.8183 11.0425 22.0481 11.0425H21.4288V9.91618ZM21.4959 7.68031C21.4472 7.54999 21.4312 7.10293 21.4603 6.68683C21.5077 6.01026 21.561 5.92481 21.9687 5.87656C22.7006 5.79002 23.1161 6.11781 23.1161 6.78191C23.1161 7.4478 22.9163 7.65788 22.1394 7.80922C21.749 7.88542 21.5582 7.84715 21.4959 7.68031ZM40.8323 8.85629C40.8323 5.54255 40.8409 5.45922 41.1697 5.54771C41.3555 5.59757 41.507 5.57673 41.507 5.50143C41.507 5.37892 40.9487 5.1594 40.6213 5.15335C40.5516 5.15192 40.4947 6.7495 40.4947 8.70317C40.4947 10.9558 40.5564 12.2552 40.6635 12.2552C40.7704 12.2552 40.8323 11.0069 40.8323 8.85629ZM51.9311 7.83575C52.3864 7.92459 52.3858 7.92298 51.8841 7.68085L51.3779 7.43676L51.3302 9.43797C51.2872 11.2392 51.2575 11.4068 51.0337 11.111C50.8064 10.8105 50.8002 10.8267 50.96 11.3023C51.3304 12.4042 51.3792 12.2719 51.4249 10.044L51.472 7.74601L51.9311 7.83575ZM38.4704 11.8042C38.7467 11.6297 38.7757 11.5804 38.5547 11.6603C38.3692 11.7274 37.9516 11.8408 37.6269 11.9122C37.0464 12.0401 37.045 12.0422 37.542 12.0561C37.8207 12.0636 38.2383 11.9503 38.4704 11.8042ZM28.1458 11.5577C28.8229 11.1338 29.1731 10.331 29.3025 8.9058C29.5713 5.95294 28.2557 3.90989 26.6039 4.715C25.7561 5.12807 25.2718 6.21645 25.1756 7.92566C24.9995 11.0491 26.34 12.6883 28.1458 11.5577ZM26.6716 10.5351C25.9775 9.82219 25.9679 6.85971 26.6572 6.10624C27.1718 5.54361 27.5898 5.5543 27.9633 6.13971C28.1972 6.5063 28.2625 6.97117 28.2625 8.27C28.2625 9.56883 28.1972 10.0337 27.9633 10.4005C27.6117 10.9513 27.1262 11.0019 26.6716 10.5351ZM34.2522 11.5553C34.2522 11.4776 34.0338 10.7802 33.7666 10.0054L33.2812 8.5967L33.6813 8.32751C34.5873 7.7177 34.5599 5.7343 33.6348 4.98687C33.2754 4.69649 32.9504 4.63079 31.8673 4.63079H30.5401V11.7356H30.9617C31.3804 11.7356 31.3837 11.724 31.3837 10.176V8.6163L31.8479 8.61807C32.2858 8.62021 32.3386 8.71029 32.7932 10.2319C33.2682 11.8227 33.2806 11.8424 33.7634 11.7698C34.0321 11.7294 34.2522 11.6327 34.2522 11.5553ZM33.5255 11.4322C33.4861 11.3608 33.2476 10.659 32.9957 9.87256L32.5371 8.44323H31.8761C31.4589 8.44323 31.2156 8.36312 31.2165 8.22655C31.2175 8.08287 31.5325 8.00045 32.1513 7.98211C32.6647 7.96661 33.188 7.86602 33.3144 7.75831C33.9396 7.22559 33.7305 5.87691 32.9673 5.51994C32.4665 5.28564 31.4415 5.26124 31.3096 5.48041C31.2578 5.5664 31.2007 6.50006 31.1824 7.55515C31.1646 8.61024 31.1074 9.42996 31.0557 9.37725C31.0042 9.3242 30.9238 8.31255 30.8774 7.12892L30.793 4.97672L31.9789 4.97709C33.3582 4.97744 33.7967 5.2121 34.0838 6.10481C34.3472 6.92541 34.1584 7.6643 33.5625 8.14324L33.0675 8.54098L33.5645 10.0515C33.9436 11.2029 34.0066 11.5618 33.8295 11.5618C33.7017 11.5624 33.5651 11.504 33.5255 11.4322ZM31.4528 7.51153C31.4038 7.38031 31.3872 6.89283 31.4157 6.4285C31.4661 5.61644 31.489 5.58208 32.0139 5.53008C33.1035 5.42201 33.8665 6.88108 33.0337 7.48038C32.5671 7.81581 31.5738 7.83522 31.4528 7.51153ZM36.4697 11.47C35.8106 10.9002 35.547 10.0492 35.5332 8.44323C35.518 6.70891 35.9353 5.55359 36.6943 5.22777C37.4632 4.89803 38.3766 5.2064 38.7753 5.93051C38.8801 6.12102 38.9685 6.17353 38.971 6.04713C38.9739 5.92054 38.7543 5.5892 38.483 5.31056C38.1047 4.92207 37.8348 4.80402 37.3244 4.80402C35.8627 4.80402 35.1936 6.06884 35.2928 8.643C35.3616 10.417 35.7232 11.4816 36.345 11.7399C36.9591 11.9952 36.9929 11.922 36.4697 11.47ZM38.1846 11.1376C38.7753 10.5313 38.6657 9.13636 38.0278 9.13636C37.8998 9.13636 37.7954 9.01119 37.7954 8.85808C37.7954 8.67541 37.8872 8.61577 38.0621 8.68466C38.209 8.74252 38.5087 8.78971 38.7284 8.78971C39.0896 8.78971 39.1333 8.87642 39.1893 9.69951L39.2511 10.6093L39.2828 9.52627L39.3139 8.44323H38.386C37.5153 8.44323 37.4578 8.46924 37.4578 8.86483C37.4578 9.196 37.5574 9.29838 37.922 9.34147C38.3293 9.38954 38.3787 9.45987 38.3264 9.91618C38.239 10.683 37.9992 11.043 37.5785 11.0388C36.9525 11.0323 36.4535 10.4946 36.2935 9.65411C36.1926 9.12478 36.1393 9.02508 36.1267 9.34183C36.0698 10.7678 37.4075 11.9356 38.1846 11.1376ZM39.1126 10.9512C39.0606 10.8977 38.9664 10.9939 38.9029 11.1648C38.811 11.4119 38.8305 11.4317 38.9974 11.2618C39.1127 11.1443 39.1645 11.0046 39.1126 10.9512ZM43.7007 7.3066C43.7007 6.03893 43.7077 6.01739 44.1326 6.01739C44.3774 6.01739 44.5191 5.94244 44.46 5.84415C44.4028 5.7489 44.1702 5.67074 43.9439 5.67074C43.5415 5.67074 43.5321 5.70279 43.5321 7.05699C43.5321 8.05582 43.4731 8.44039 43.3212 8.43291C43.2051 8.42739 42.7497 8.36169 42.3091 8.28727C41.8682 8.21248 41.5071 8.21248 41.5071 8.28692C41.5071 8.36133 41.8682 8.47207 42.3091 8.53297C42.7497 8.59404 43.1862 8.66632 43.279 8.69357C43.6291 8.79648 43.7007 8.56038 43.7007 7.3066ZM36.3566 7.00394C36.4159 6.64126 36.6118 6.19276 36.7922 6.0076C36.9723 5.82225 37.0462 5.67057 36.9555 5.67057C36.6575 5.67057 36.2474 6.51004 36.1763 7.26689C36.0949 8.12293 36.1989 7.97196 36.3566 7.00394ZM38.4702 6.80523C38.4702 6.57165 38.0588 5.85198 37.8863 5.78398C37.7528 5.73145 37.7746 5.9006 37.9511 6.28872C38.1764 6.78297 38.4702 7.07568 38.4702 6.80523ZM39.1449 6.54262C39.1449 6.45003 39.0311 6.41977 38.8919 6.4746C38.7528 6.52944 38.6388 6.60494 38.6388 6.64232C38.6388 6.67971 38.7528 6.71052 38.8919 6.71052C39.0311 6.71052 39.1449 6.63485 39.1449 6.54262ZM4.47625 6.05087C4.42434 5.99745 4.28817 6.05068 4.17372 6.16909C4.00824 6.34 4.02767 6.36013 4.26822 6.26611C4.43458 6.20114 4.52818 6.10427 4.47625 6.05087Z" fill="#E2E2E2"/>
<path d="M29.6249 69.2803C28.989 69.1906 28.5592 68.9791 27.6507 68.3106C24.5374 66.0196 21.9642 63.8952 19.6594 61.7131C18.7753 60.8759 16.8333 58.8642 16.151 58.0788C13.3624 54.8681 11.0491 51.5776 8.21646 46.793C7.59197 45.7384 6.83007 44.1631 5.79018 41.7746C2.41217 34.0191 0.648004 26.1894 0.127534 16.643C0.0263358 14.7844 -0.00722013 13.3516 0.00125716 11.2464C0.00832157 9.50568 0.0167989 9.29665 0.0992759 8.83729C0.2554 7.96773 0.557756 7.14375 0.924045 6.58932C1.3774 5.90315 2.60714 4.9134 3.5921 4.44194C4.98325 3.77587 8.3717 2.7443 11.4251 2.05704C12.2541 1.87045 13.8895 1.53306 14.4443 1.43389C14.6067 1.40505 14.9489 1.34309 15.2045 1.2968C15.457 1.25065 15.7104 1.20898 15.9645 1.17181C16.127 1.14956 16.3931 1.10309 16.5557 1.06855C16.7181 1.03401 17.0223 0.983086 17.2312 0.956023C17.4403 0.928783 17.8772 0.869315 18.2025 0.823915C18.4626 0.787082 18.7231 0.751828 18.9837 0.718157C20.003 0.594951 20.3333 0.556494 21.0106 0.482249C24.4468 0.106043 29.0121 -0.0716442 32.3061 0.0430158C33.7524 0.0932241 37.0335 0.284265 37.2932 0.333228C37.3653 0.346936 37.6884 0.373108 38.011 0.391447C38.3336 0.409785 38.8638 0.457858 39.1888 0.497917C39.5141 0.537977 40.0365 0.600114 40.3501 0.6359C41.8208 0.80433 43.0977 0.971869 43.6436 1.06801C43.8411 1.10273 44.3635 1.18979 44.8049 1.26119C49.452 2.0136 53.3004 3.10999 56.1635 4.49731C57.4021 5.09732 57.8967 5.43489 58.4989 6.08866C59.2007 6.85139 59.6186 7.65633 59.8379 8.66851C60.0242 9.52632 59.9403 14.8704 59.6878 18.2647C59.3431 22.8969 58.7496 26.7954 57.7681 30.8719C56.7076 35.2762 55.2853 39.3111 53.2168 43.782C52.5174 45.2937 52.3281 45.6654 51.7479 46.6631C51.4359 47.1991 51.1714 47.6578 51.1597 47.6822C51.1481 47.7066 51.0816 47.8138 51.012 47.9213C50.9422 48.0285 50.8623 48.1544 50.8348 48.2019C50.8069 48.2492 50.7023 48.4243 50.6025 48.5913C50.5028 48.7581 50.4135 48.9138 50.404 48.9376C50.3947 48.9616 50.3753 48.9907 50.3609 49.0027C50.3465 49.0145 50.2513 49.1608 50.1494 49.3276C50.0362 49.5122 49.9203 49.695 49.8019 49.876C49.7129 50.0108 49.6398 50.1408 49.6398 50.1647C49.6398 50.1888 49.6255 50.2147 49.6079 50.2228C49.5648 50.2425 49.344 50.594 49.344 50.6431C49.344 50.6649 49.3156 50.694 49.2808 50.7076C49.246 50.7214 49.2176 50.7526 49.2176 50.7766C49.2176 50.801 49.113 50.9755 48.9855 51.1648C48.8575 51.354 48.7532 51.5276 48.7532 51.5508C48.7532 51.5739 48.7249 51.6039 48.6901 51.6176C48.6553 51.6314 48.6264 51.6724 48.6264 51.7089C48.6264 51.7454 48.6105 51.7751 48.5916 51.7751C48.5723 51.7751 48.5295 51.8289 48.4966 51.8944C48.4637 51.9599 48.4221 52.033 48.4047 52.0568C48.2626 52.2483 48.0902 52.493 47.7825 52.9431C47.4804 53.3838 47.1601 53.8333 46.7308 54.4179C42.9299 59.5943 38.9546 63.4817 32.7109 68.1287C31.7996 68.807 31.3723 69.0487 30.8405 69.1875C30.4678 69.2846 29.9398 69.3251 29.6249 69.2803ZM30.7053 68.8874C31.2314 68.7502 31.6683 68.5068 32.5025 67.8862C40.4779 61.9529 44.9341 57.1277 50.0134 48.9258C51.3786 46.7211 52.0406 45.5537 52.5836 44.3925C54.0616 41.2312 55.1261 38.5993 56.0009 35.9406C58.1269 29.4793 59.2745 22.6472 59.563 14.7338C59.6312 12.876 59.6183 9.27671 59.5426 8.82982C59.3352 7.61147 58.6063 6.45277 57.5327 5.63626C57.1428 5.33946 55.7589 4.62141 54.8744 4.25694C52.2535 3.17677 49.2565 2.36577 45.333 1.67479C43.0291 1.26938 40.0206 0.895845 37.12 0.655307C36.818 0.630381 36.4665 0.600114 36.3386 0.588541C35.9441 0.55222 34.0891 0.441655 33.024 0.390913C30.9913 0.294058 27.3061 0.344087 24.7265 0.503793C17.9764 0.921304 10.5703 2.28476 5.49242 4.04473C4.09455 4.52901 3.5974 4.75511 2.87576 5.23512C1.70361 6.01442 1.16883 6.60766 0.783288 7.55646C0.331872 8.66691 0.251338 9.60502 0.319508 12.9578C0.405871 17.2107 0.653126 20.5264 1.1434 24.0052C2.11705 30.9149 3.8231 36.7459 6.73947 43.132C7.87383 45.6162 8.20004 46.2158 10.0045 49.1321C10.4506 49.8532 11.6641 51.7023 12.166 52.4253C15.5658 57.3237 18.8567 60.8623 23.7596 64.8907C25.0327 65.937 28.0614 68.255 28.5731 68.5748C28.7585 68.691 29.2473 68.8828 29.4769 68.9301C29.8035 68.9973 30.3578 68.9779 30.7053 68.8874ZM29.5696 67.1389C29.3119 67.0644 28.7249 66.6516 27.525 65.7001C20.1548 59.8573 15.9927 55.2832 11.8391 48.4609C11.2831 47.5476 10.5415 46.2695 10.0419 45.3635C9.54333 44.459 7.95473 41.0669 7.16104 39.2115C4.34729 32.6346 2.80123 25.8099 2.32722 17.8748C2.16067 15.0849 2.13559 11.2639 2.27865 10.4664C2.43583 9.59025 2.72 8.82395 3.10747 8.23017C3.5301 7.58263 4.31072 6.93935 5.05355 6.62653C6.57928 5.9838 10.0318 4.98052 12.9876 4.32087C18.1291 3.17374 22.9279 2.58067 28.3155 2.42649C29.7978 2.38428 32.3732 2.39853 32.8972 2.45195C32.9901 2.46138 33.3511 2.48044 33.6994 2.49468C37.0338 2.62998 41.5096 3.11551 44.7205 3.69024C48.6836 4.39956 51.7018 5.30028 54.2847 6.54428C54.6909 6.74012 55.1656 6.96784 55.339 7.05046C56.7678 7.73004 57.421 8.77926 57.6366 10.7408C57.7426 11.7061 57.4893 16.4826 57.1536 19.8459C56.202 29.3792 54.2907 36.3424 50.6927 43.3862C49.24 46.2299 46.9183 50.116 45.1628 52.6417C42.1521 56.9733 39.2362 60.0001 33.3663 64.8869C33.2475 64.9856 32.7515 65.4005 32.2637 65.809C31.7759 66.2174 31.2493 66.6396 31.0927 66.7472C30.5424 67.1274 30.0063 67.2651 29.5696 67.1389ZM18.6248 51.6523C19.143 51.4107 19.3147 51.0416 19.3842 50.0205C19.4309 49.3413 19.5609 49.0836 19.8928 49.0124L20.0607 48.9767L20.0395 48.5672C20.0077 47.9556 20.0138 47.0473 20.0505 46.9138C20.068 46.8489 20.2782 46.5465 20.5178 46.2421C21.0854 45.52 21.4237 45.0201 21.5191 44.7625C21.5612 44.6483 21.6368 44.2738 21.6863 43.9303C21.7879 43.2283 21.7439 43.329 22.5064 42.0537C22.7328 41.6751 23.0722 41.044 23.2604 40.6512C23.4657 40.2234 23.667 39.8665 23.7627 39.7613C23.8456 39.6705 23.9271 39.5784 24.0076 39.4851C24.0543 39.4299 24.111 39.3848 24.1337 39.3848C24.22 39.3848 24.4716 39.6572 24.5653 39.8525C24.6592 40.0482 24.6632 40.0977 24.6632 41.0673C24.6632 42.0775 24.6632 42.0784 24.7627 42.1613C24.8175 42.207 24.9057 42.2443 24.959 42.2443C25.055 42.2443 25.0548 42.2424 24.9367 42.1133C24.764 41.9238 24.7241 41.6633 24.7552 40.9286C24.7795 40.3517 24.7738 40.2759 24.6881 40.0152C24.6364 39.8589 24.6004 39.6678 24.6076 39.5904C24.6201 39.4572 24.6306 39.4492 24.8107 39.4362C25.0251 39.4206 25.1224 39.3479 25.2371 39.1171C25.3178 38.9548 25.3391 38.8236 25.3255 38.5753C25.3187 38.4568 25.2869 38.4203 25.0994 38.3154C24.8109 38.1545 24.7313 38.0324 24.6791 37.6714C24.6186 37.2545 24.668 35.9649 24.7556 35.6691C24.8328 35.4087 24.8679 35.4043 25.1701 35.6163C25.4649 35.8234 26.3611 36.2139 26.8037 36.3285C27.3458 36.4687 28.0832 36.4851 28.3175 36.3623C28.5206 36.2555 29.2769 35.6626 29.594 35.3613C29.7387 35.2237 29.9713 35.0261 30.1107 34.9224C30.25 34.8187 30.4387 34.6691 30.5299 34.5901C30.6212 34.511 30.7394 34.4459 30.7922 34.4459C30.9416 34.4459 31.3437 34.6139 31.4836 34.7347C31.7379 34.9545 31.6105 35.1763 30.9923 35.589C30.5046 35.9144 29.9828 36.4941 29.742 36.9782C29.6313 37.201 29.1182 38.7596 29.1182 38.8737C29.1182 39.0563 29.2568 39.4361 29.3955 39.6337C29.9036 40.3573 30.1488 40.7634 30.2009 40.9686C30.2326 41.0923 30.2872 41.2646 30.3226 41.3511C30.4595 41.6874 30.2955 41.874 29.7402 42.0126C29.5261 42.0661 29.2427 42.123 29.1106 42.1391L28.8701 42.1682L28.9381 42.2748C28.9965 42.366 29.0115 42.3714 29.0435 42.3129C29.0739 42.2567 29.1676 42.2445 29.5626 42.2445C29.9509 42.2445 30.0877 42.2267 30.2674 42.1543L30.4899 42.0644L30.5961 42.1996C30.7149 42.3513 31.3993 43.0733 31.3993 43.0469C31.3993 42.9378 31.0723 42.1764 30.8132 41.6812C30.6322 41.3358 30.3986 40.8678 30.294 40.6415C30.1871 40.4098 29.9529 40.0235 29.7585 39.7573C29.5684 39.4974 29.3992 39.2345 29.3823 39.1728C29.3231 38.9542 29.3544 38.5846 29.4578 38.286C29.6207 37.8146 29.7507 37.8461 29.752 38.3577C29.7528 38.729 29.8001 38.8416 30.2057 39.4395C30.6712 40.1256 30.7041 40.186 30.9363 40.7747C31.1328 41.2739 31.3747 41.7325 31.6608 42.1498C31.8019 42.3556 32.0751 43.1032 32.0751 43.2832C32.0751 43.3557 32.0233 43.4488 31.933 43.5387L31.7903 43.6804L31.7 43.5623C31.65 43.4976 31.5961 43.4578 31.5802 43.4742C31.564 43.4908 31.5431 43.6298 31.5336 43.7834C31.5165 44.0585 31.5185 44.0646 31.6689 44.2014C31.8127 44.3319 31.8217 44.3554 31.8217 44.6029C31.8217 44.9157 31.9131 45.1284 32.1032 45.2587C32.1805 45.3118 32.4334 45.3905 32.7061 45.4462L33.1755 45.5423L33.342 45.4069C33.6327 45.1707 33.9734 44.7517 34.0201 44.5725C34.0748 44.365 34.0406 44.1858 33.9261 44.0792C33.8692 44.0225 33.8208 43.9574 33.7829 43.8864C33.6974 43.7172 33.7713 43.6742 34.1486 43.6742C34.4558 43.6742 34.48 43.6671 34.577 43.549C34.6891 43.4119 34.9754 42.7686 35.1434 42.2755C35.2291 42.0234 35.2494 41.8838 35.2476 41.5542C35.2455 41.2204 35.2656 41.0852 35.3561 40.8176C35.5062 40.3743 35.5076 40.0439 35.36 39.7534C35.2357 39.5086 35.1464 39.4179 34.8301 39.215C34.4844 38.9934 34.5281 38.8543 35.0021 38.6703C35.2731 38.5648 35.4106 38.4482 35.4106 38.3234C35.4106 38.2219 35.4085 38.2213 35.037 38.2458C34.6653 38.2706 34.663 38.2702 34.5831 38.1511C34.3499 37.8035 34.2163 37.7536 33.9759 37.9231C33.7152 38.1069 33.1304 39.1937 33.1304 39.4939C33.1304 39.6684 33.3215 39.8454 33.6695 39.992C33.8492 40.068 34.0399 40.1584 34.093 40.1931C34.2673 40.3069 34.3544 40.5094 34.3544 40.8011C34.3548 40.9485 34.3746 41.1225 34.3987 41.1875C34.4227 41.2525 34.4437 41.4311 34.4444 41.5845C34.4462 41.8111 34.4224 41.9139 34.3162 42.135C34.146 42.4898 33.6152 43.1918 33.476 43.2459C33.3252 43.3047 33.1684 43.1793 33.0928 42.9383C33.0383 42.7657 33.041 42.7354 33.1297 42.5306C33.3292 42.068 33.3525 41.8959 33.3049 41.2277C33.2806 40.8888 33.2375 40.5589 33.209 40.4946C33.1217 40.2977 32.9832 40.3577 32.69 40.7201C32.4145 41.0601 32.2356 41.204 32.0865 41.2043C31.9421 41.2043 31.8917 41.0577 31.917 40.7097C31.943 40.3601 32.0182 40.1246 32.3201 39.4475C32.5477 38.9369 32.9075 37.973 33.03 37.5442C33.1243 37.2157 33.1351 36.3919 33.0494 36.0498C33.0039 35.867 32.9395 35.7569 32.7705 35.5732C32.3896 35.1597 31.8905 34.4432 31.6231 33.9263C31.3173 33.3351 31.1111 32.7137 31.2209 32.7137C31.2784 32.7137 31.7471 33.3283 31.9391 33.6553C32.1743 34.0559 32.2967 34.1584 32.506 34.1299C32.6594 34.1089 32.664 34.1125 32.6886 34.2668C32.7705 34.7791 33.0096 35.2831 33.3834 35.7303C33.556 35.9364 34.2717 36.5256 34.479 36.6318C34.7202 36.7557 35.1155 36.8882 35.5792 37.0011C35.8622 37.07 36.0837 37.0883 36.6257 37.0889C37.3467 37.0889 37.5108 37.0568 37.6817 36.8813C37.7277 36.8343 37.8766 36.7549 38.0128 36.7047C38.1488 36.6546 38.3059 36.589 38.3619 36.559C38.5095 36.4796 38.6225 36.3035 38.5945 36.1969C38.5723 36.1123 38.5322 36.1041 38.0356 36.0793C37.3956 36.0474 36.8276 35.9119 36.3904 35.686C36.1986 35.5886 36.0028 35.4998 35.8033 35.4197C35.3075 35.2283 34.9307 34.919 34.8435 34.6325C34.8001 34.4887 34.8852 34.3675 35.0524 34.335C35.1336 34.3197 35.2106 34.2895 35.2234 34.2684C35.236 34.2472 35.2785 34.2297 35.3178 34.2292C35.498 34.2274 35.5089 34.1745 35.415 33.764C35.3027 33.2727 35.3016 33.1901 35.4085 33.1901C35.5813 33.1901 35.7051 33.2987 35.9443 33.66C36.0803 33.8653 36.2989 34.1459 36.4299 34.2832C36.6425 34.5061 36.6869 34.5332 36.839 34.5332C36.9331 34.5332 37.0209 34.5144 37.035 34.4914C37.0491 34.4685 37.0214 34.3715 36.9741 34.2765C36.9214 34.1706 36.8882 34.0194 36.8882 33.8865C36.8882 33.706 36.91 33.6445 37.019 33.5168C37.1406 33.3747 37.168 33.3637 37.3928 33.3637C37.678 33.3637 37.8644 33.4697 38.0248 33.7227C38.1177 33.8694 38.1438 33.8836 38.318 33.8836C38.4561 33.8836 38.5541 33.8515 38.6707 33.7688C38.8076 33.6712 38.8477 33.6612 38.9354 33.702C38.9918 33.7286 39.0846 33.8242 39.1408 33.9142C39.2079 34.0181 39.2852 34.1147 39.3718 34.2026C39.4913 34.3183 39.5165 34.3253 39.7274 34.2982C39.8535 34.282 40.0036 34.2885 40.0655 34.3124C40.2569 34.387 40.2791 34.4905 40.1985 34.9221C40.1306 35.2843 40.1305 35.3195 40.1973 35.4987C40.236 35.6038 40.3256 35.7551 40.3956 35.8358C40.5387 36.0006 40.5409 36.0084 40.6053 36.5534C40.6669 37.0725 40.6154 37.4398 40.4022 38.0089C40.3105 38.2536 40.1667 38.6399 40.0824 38.8667C39.9981 39.0937 39.8751 39.3457 39.8091 39.4269L39.689 39.5746L39.8615 39.7092C40.0845 39.8831 40.2536 40.1766 40.4929 40.8053C40.8348 41.703 40.8655 41.8145 40.8713 42.158C40.8754 42.4327 40.8489 42.5682 40.6981 43.0334C40.4592 43.7704 40.4526 44.0541 40.6676 44.3427C40.7488 44.452 40.8153 44.5739 40.8153 44.6138C40.8153 44.6537 40.711 44.8631 40.5835 45.0796C40.0563 45.9735 40.0581 46.3802 40.5918 46.8805C40.8709 47.1421 41.1172 47.2799 41.2726 47.2616C41.3778 47.2491 41.3865 47.2321 41.3985 47.01C41.4134 46.7428 41.5317 46.564 41.6794 46.5857C41.7531 46.5968 41.7698 46.6413 41.7939 46.8944C41.8292 47.2609 41.8483 47.3132 41.9459 47.3132C42.1208 47.3132 42.7086 46.8428 42.8271 46.6082L42.8907 46.4812L42.708 46.611C42.6077 46.6822 42.4794 46.7916 42.4231 46.8535C42.3004 46.9888 42.1736 46.9972 42.0274 46.8793C41.8789 46.7593 41.8538 46.5916 41.936 46.2673C42.032 45.8885 42.0017 45.5949 41.8528 45.4635C41.7557 45.3781 41.6926 45.3635 41.4146 45.3629C41.2358 45.3629 41.0624 45.3444 41.0286 45.3226C40.9152 45.249 41.0452 45.0736 41.3179 44.9324C41.7136 44.7275 41.7348 44.5824 41.3946 44.4042C41.1692 44.2861 41.1138 44.2104 41.1121 44.016C41.1103 43.7924 41.2625 43.5826 41.4891 43.4967C41.7599 43.394 41.871 43.2421 41.871 42.9739C41.871 42.6766 41.7707 42.4825 41.5156 42.2859C41.0999 41.9653 41.1106 41.9838 41.1106 41.5959C41.1106 41.3151 41.1258 41.2323 41.1887 41.1678C41.2466 41.1083 41.2727 40.9973 41.2903 40.735C41.3055 40.5077 41.3449 40.3159 41.4023 40.1949C41.542 39.8988 41.5276 39.8225 41.2544 39.4065C41.0795 39.1408 41.0262 38.8709 41.0262 38.2552C41.0262 37.998 41.0085 37.7404 40.9874 37.6828C40.9326 37.535 40.982 37.0434 41.0543 37.0149C41.1771 36.9665 41.3666 37.101 41.5015 37.3324C41.6498 37.587 41.6809 37.6085 41.7141 37.4784C41.7492 37.3395 41.9549 37.371 42.4416 37.5881C43.544 38.0806 44.7795 38.1811 45.446 37.832C45.8258 37.6333 46.5105 37.0246 46.6859 36.7297C46.8498 36.4539 46.8391 36.4489 46.157 36.4727C45.466 36.4969 45.0512 36.4449 44.5943 36.2772C44.2068 36.1347 43.7784 35.8407 43.537 35.5507C43.4302 35.4225 43.1467 35.1506 42.9068 34.9464C42.6672 34.7421 42.46 34.5457 42.4467 34.5104C42.4389 34.4921 42.4263 34.4763 42.4099 34.4649C42.3937 34.4535 42.3746 34.4469 42.3549 34.4459C42.2255 34.4459 41.6542 34.175 41.3415 33.9654C41.1684 33.8496 40.9482 33.7138 40.8526 33.6637C40.5486 33.5044 39.3921 33.2637 38.6733 33.2097L38.2839 33.1805L38.2554 33.0225C38.2034 32.7339 38.1181 32.5415 37.861 32.134C37.6486 31.7972 37.6059 31.6986 37.6049 31.5393C37.604 31.3107 37.5124 31.0923 37.2075 30.5948C37.0561 30.3464 36.9487 30.1067 36.8872 29.8772C36.8363 29.6878 36.7216 29.3622 36.6321 29.154C36.4286 28.6791 36.3576 28.4184 36.2977 27.9259C36.2314 27.38 36.1573 27.0738 35.9656 26.5556C35.8742 26.3085 35.7572 25.892 35.7059 25.6298C35.5727 24.9495 35.5227 24.824 35.1785 24.3061C35.0089 24.0513 34.8567 23.7769 34.8394 23.6967C34.8224 23.6161 34.757 23.4899 34.6942 23.4162C34.6315 23.3425 34.5063 23.1573 34.4162 23.0045C34.3261 22.8519 34.2089 22.6609 34.1558 22.5803C34.1026 22.4994 34.0591 22.38 34.0591 22.3149C34.0591 22.1304 34.1601 22.0758 34.4775 22.0885C35.1462 22.1151 35.6632 22.6295 36.3394 23.9402C36.8767 24.9817 37.3177 25.5191 37.867 25.8011C38.0829 25.9119 38.2219 25.9546 38.3651 25.9546C38.6174 25.9546 38.7089 25.8593 38.7359 25.5688C38.7596 25.3183 38.7116 25.0876 38.4822 24.3516C38.3501 23.9279 38.3077 23.7137 38.2872 23.3671C38.2551 22.8315 38.2313 22.7985 37.7526 22.6289C37.3407 22.4829 37.3162 22.4063 37.6537 22.319C37.9878 22.2323 38.3441 22.3246 38.7348 22.5995C38.9908 22.7798 39.0399 22.7984 39.202 22.7799C39.349 22.7629 39.4293 22.715 39.6264 22.5265C39.8487 22.3138 39.8681 22.2809 39.8522 22.1389C39.8326 21.9645 39.9463 21.6969 40.0987 21.5574C40.2239 21.443 40.2947 21.2641 40.4409 20.6957C40.6352 19.9388 40.5843 19.3076 40.2871 18.7848C40.0494 18.3672 38.9213 17.4471 38.2659 17.137C37.667 16.8535 37.6382 16.8512 34.397 16.8125C30.7818 16.769 29.1732 16.6882 28.7059 16.5258C28.0312 16.292 27.5454 15.8677 27.6169 15.575C27.6576 15.4076 27.8842 15.1782 28.0868 15.0989C28.463 14.9517 28.9941 15.0568 30.0266 15.4818C30.9732 15.8716 31.5468 15.9707 32.6423 15.9332C33.615 15.8998 34.383 15.7804 34.5806 15.6323C34.653 15.578 34.653 15.5728 34.5794 15.5054C34.5371 15.4665 34.2272 15.3627 33.8905 15.2743C33.1527 15.0803 32.7503 14.9241 32.7503 14.8313C32.7503 14.7731 32.8235 14.7678 33.3098 14.7892C33.8755 14.8138 34.506 14.9226 34.9955 15.0803C35.2985 15.1778 35.9824 15.2 36.2065 15.1199C36.3542 15.067 36.381 14.9561 36.2732 14.8458C36.0027 14.568 34.518 14.0237 33.3771 13.7837C32.6579 13.6324 32.1005 13.5955 30.9013 13.6197C29.4255 13.6495 28.8156 13.7599 28.1099 14.1254C27.5337 14.4238 26.8598 15.0522 26.6476 15.4889C26.3991 16.0006 26.5668 16.3415 27.2821 16.7808C27.7769 17.0849 28.1645 17.2097 28.9921 17.3314C30.4909 17.5518 31.5491 17.6038 34.4604 17.601C35.8824 17.5992 37.0158 17.6163 37.1631 17.6412C37.6007 17.7149 38.115 17.9036 38.3831 18.0885C38.6975 18.3057 39.0842 18.7707 39.2862 19.175C39.4188 19.4407 39.438 19.5187 39.4404 19.8032C39.4428 20.0831 39.4263 20.1593 39.3216 20.3533C39.1585 20.6551 38.8236 21.0341 38.6575 21.1046C38.4597 21.1888 37.9829 21.1028 37.4184 20.8844C37.0262 20.7321 36.8851 20.6993 36.4895 20.6697C35.9752 20.6313 35.9173 20.6139 35.1525 20.2666C34.3716 19.912 33.183 19.5164 32.5873 19.4125C32.303 19.363 32.0266 19.419 31.6311 19.6067C31.2316 19.7962 31.0021 19.9826 30.2076 20.7627C29.4593 21.4978 29.1196 21.7717 28.7012 21.9769C27.9416 22.3499 25.7709 23.6006 25.5691 23.7819C25.2728 24.0478 24.7736 24.6684 24.5635 25.0321C24.1786 25.6981 24.0595 26.2218 24.0137 27.4496C23.9825 28.2857 23.9767 28.3289 23.845 28.6723C23.6982 29.0557 23.3073 29.7466 22.7795 30.5552C22.2832 31.3155 21.926 31.9206 21.6876 32.4047C21.2178 33.358 21.1373 33.723 21.0966 35.0745L21.0666 36.071L20.9136 36.5281C20.8294 36.7792 20.6538 37.2472 20.523 37.5678C20.0386 38.7559 20.0479 38.6952 20.003 40.88L19.97 42.4828L19.7932 42.8415C19.6957 43.0386 19.533 43.3245 19.4311 43.4767C19.1972 43.8276 19.1311 44.1092 19.0448 45.1254C19.0182 45.4457 18.9894 45.7657 18.9582 46.0856C18.9406 46.2447 18.8752 46.3367 18.4061 46.8654C17.5115 47.8732 17.1691 48.398 17.1691 48.7612C17.1691 48.941 17.1556 48.9651 16.9889 49.0827C16.6617 49.3137 16.2007 49.8544 16.0462 50.1885C15.8636 50.5829 15.8206 50.9501 15.9313 51.1693C16.0555 51.415 16.1379 51.3741 16.4869 50.8949L16.7971 50.4688L16.8986 50.5667C16.9544 50.6206 17.0002 50.6889 17.0002 50.7187C17.0002 50.7484 16.9235 50.9352 16.8298 51.1335C16.7354 51.3329 16.6648 51.5424 16.6714 51.6025C16.6873 51.7478 16.8343 51.7697 17.7181 51.7595C18.342 51.7516 18.4356 51.7409 18.6248 51.6523ZM18.2324 49.3026C18.0863 49.244 17.8686 48.7424 17.9044 48.5465C17.9351 48.3788 17.9761 48.3666 18.1959 48.4611C18.4236 48.5588 18.5356 48.5412 18.7486 48.3745C18.9562 48.2118 19.0223 48.1929 19.1019 48.2749C19.1766 48.3514 19.1637 48.4862 19.0633 48.6793C19.0125 48.777 18.9619 48.8747 18.9115 48.9724C18.7931 49.2008 18.4251 49.3798 18.2324 49.3026ZM19.5941 45.2138C19.5003 45.1176 19.4904 45.0722 19.4904 44.7406C19.4904 44.5389 19.4811 44.3482 19.4696 44.3164C19.4584 44.2843 19.4675 44.2295 19.4902 44.1936C19.5246 44.1394 19.5525 44.1519 19.6607 44.2695C19.7664 44.3844 19.8226 44.4102 19.9649 44.4102C20.0848 44.4102 20.1695 44.3815 20.2351 44.3182C20.3641 44.1939 20.4627 44.2388 20.4586 44.4197C20.4519 44.7127 20.2696 45.0431 20.0254 45.206C19.8122 45.3477 19.7262 45.3492 19.5941 45.2138ZM33.032 44.8249C32.9201 44.7941 32.8095 44.7492 32.7864 44.7251C32.7131 44.6502 32.6433 44.1216 32.6889 43.9885C32.778 43.728 33.0968 43.8482 33.1762 44.1726C33.2222 44.3606 33.2292 44.3666 33.3863 44.3666C33.5732 44.3666 33.6362 44.4466 33.6362 44.6833C33.6362 44.8156 33.6212 44.8354 33.5041 44.8594C33.33 44.8955 33.2725 44.8914 33.032 44.8249ZM20.4748 41.2284C20.298 41.1483 20.2357 40.9355 20.2572 40.4853C20.277 40.0705 20.4424 39.6833 20.6665 39.5284L20.8074 39.4311L20.9126 39.5596C20.9762 39.6376 21.0585 39.6877 21.121 39.6877C21.2759 39.6877 21.5961 39.5014 21.8339 39.2729C21.9501 39.1611 22.1527 38.9733 22.2847 38.8552C22.5831 38.5882 22.6579 38.4089 22.6556 37.965C22.6525 37.3899 22.613 37.2704 22.3453 37.0237C22.0754 36.7752 21.9709 36.5565 21.9702 36.2395C21.9693 35.8677 22.1467 35.6591 22.4636 35.6591C22.6379 35.6591 22.7595 35.7777 22.9791 36.1634C23.3415 36.799 23.8701 37.0453 24.2181 36.7403C24.3844 36.5943 24.4395 36.5837 24.5333 36.6802C24.5875 36.7357 24.5995 36.8624 24.5995 37.3705C24.5995 37.7128 24.6171 38.0398 24.6384 38.0973C24.6647 38.1685 24.7528 38.2337 24.9146 38.3011C25.2028 38.4212 25.295 38.5669 25.2636 38.853C25.2381 39.085 25.1087 39.2393 24.8888 39.2998C24.6526 39.3652 24.4784 39.3016 23.7555 38.8871C23.5371 38.7618 23.2932 38.7461 23.1418 38.8478C23.085 38.8861 22.9417 39.0513 22.8233 39.2149C22.6556 39.447 22.5156 39.5763 22.1886 39.8012C21.7288 40.1172 21.597 40.2522 21.3289 40.6811C21.1372 40.9883 20.9081 41.2473 20.8273 41.2484C20.8003 41.2484 20.74 41.2581 20.6936 41.2693C20.6473 41.2806 20.549 41.2621 20.4748 41.2284ZM27.2601 32.0586C27.109 31.9869 26.8905 31.9073 26.7743 31.882C26.5041 31.8231 26.3484 31.7406 26.2673 31.6137C26.2094 31.5229 26.2095 31.4855 26.2688 31.2479C26.3454 30.9417 26.3059 30.7021 26.1574 30.5643C26.0824 30.4949 26.0088 30.4829 25.7033 30.4888C25.4938 30.493 25.26 30.5252 25.1539 30.5646C25.0524 30.6025 24.9644 30.6334 24.9586 30.6334C24.9386 30.6334 24.9879 30.222 25.0269 30.0624C25.0545 29.9498 25.1096 29.8753 25.215 29.8083C25.4672 29.6486 25.502 29.5561 25.4747 29.1211C25.4417 28.5987 25.5062 28.3408 25.6707 28.338C25.691 28.338 25.7784 28.4106 25.865 28.4998C25.9744 28.6127 26.0519 28.7549 26.1192 28.9655C26.2837 29.4815 26.3536 29.5936 26.5111 29.5944C26.7638 29.5961 26.7741 29.6208 26.7741 30.2311C26.7741 30.8982 26.8148 31.0015 27.2545 31.4468C27.9308 32.132 27.9329 32.3785 27.2601 32.0586ZM34.126 28.5776C34.1106 28.5145 34.1106 28.2906 34.126 28.0799L34.1543 27.6971L34.034 27.6166C33.927 27.5446 33.8199 27.5358 33.0467 27.5346C32.289 27.5328 32.1577 27.5232 32.0104 27.4521L31.8414 27.3709L31.9681 27.3394C32.0379 27.3219 32.2754 27.3054 32.4959 27.3024C32.9593 27.2964 33.1407 27.2538 33.3366 27.1055C33.8863 26.6895 33.7755 26.1749 32.9578 25.3458C32.4483 24.8293 32.3588 24.6876 32.3776 24.425L32.3905 24.2433L32.6016 24.4623C32.7176 24.583 32.8788 24.7973 32.9598 24.9388C33.1914 25.3445 33.9605 26.4233 34.2493 26.7481C34.6696 27.2209 34.8266 27.633 34.7585 28.0847C34.7225 28.3238 34.4742 28.6291 34.2858 28.6664C34.1691 28.6893 34.151 28.6795 34.126 28.5776ZM33.2075 21.7198C33.1345 21.6357 33.0665 21.5475 33.0036 21.4554C32.95 21.3753 32.816 21.2042 32.7056 21.0748C32.4648 20.7924 32.4315 20.692 32.5414 20.5794C32.6543 20.4637 33.1318 20.462 33.3412 20.5762C33.5541 20.6926 33.7165 21.0377 33.7495 21.4436L33.7757 21.7621L33.6476 21.7332C33.5527 21.7118 33.5134 21.7217 33.4946 21.7717C33.4562 21.8752 33.3255 21.8516 33.2075 21.7198ZM31.9682 15.6125C31.9218 15.6012 31.7942 15.5524 31.6848 15.5047C31.444 15.3996 31.3858 15.2742 31.5245 15.159C31.647 15.0572 31.7426 15.06 31.9565 15.172C32.0524 15.2223 32.2467 15.2733 32.3875 15.2854C32.5663 15.3003 32.692 15.3402 32.8024 15.4162C32.976 15.5361 32.9949 15.5777 32.894 15.6174C32.8167 15.6476 32.094 15.644 31.9682 15.6125ZM23.2743 49.4674C23.5647 49.3143 23.8324 48.9972 24.0708 48.5231C24.1889 48.2888 24.3523 48.0439 24.4751 47.9173C24.7234 47.6613 24.7745 47.564 24.8907 47.1268C25.0003 46.7153 25.1862 46.329 25.5251 45.8092C25.9087 45.2207 26.0801 45.0536 26.5845 44.776C27.3799 44.338 27.4273 44.2791 27.4776 43.6694C27.4969 43.4314 27.5412 43.1812 27.5755 43.1132C27.6544 42.9564 28.0516 42.5867 28.375 42.3686L28.6243 42.2007H27.4543C26.5465 42.2007 26.2194 42.2158 25.9949 42.2684C25.8359 42.3054 25.6134 42.3297 25.501 42.3225L25.2965 42.3091L25.0333 42.9804C24.8888 43.35 24.7699 43.6898 24.7696 43.7359C24.7678 43.8799 24.6346 44.3813 24.556 44.5404C24.4468 44.7603 23.73 45.526 23.5404 45.6253C23.4514 45.672 23.3232 45.7102 23.2559 45.7102C23.1075 45.7102 22.9402 45.8369 22.8716 46.0013C22.8437 46.0678 22.6876 46.2185 22.5219 46.3385C22.143 46.6133 21.6753 47.0556 21.5576 47.2511C21.4174 47.4843 21.3491 47.8155 21.3487 48.2693C21.3481 48.7313 21.4377 49.1328 21.5411 49.1328C21.5761 49.1328 21.7399 49.0355 21.9053 48.9164C22.3886 48.5681 22.4869 48.6421 22.1926 49.1328C22.0997 49.2877 22.0236 49.437 22.0236 49.4643C22.0236 49.5487 22.3228 49.6059 22.6992 49.5934C22.9889 49.5834 23.1001 49.559 23.2743 49.4674ZM23.6875 47.1047C23.4163 46.9013 23.1642 46.6401 23.1642 46.5621C23.1642 46.5185 23.264 46.4393 23.422 46.3577L23.6794 46.2241L23.8506 46.3403C24.0832 46.4985 24.2754 46.5174 24.5506 46.41C24.8579 46.29 24.8919 46.3107 24.8455 46.5894C24.8248 46.7134 24.785 46.8617 24.7567 46.9194C24.69 47.0555 24.4176 47.1768 24.1076 47.2093C23.8804 47.2328 23.847 47.2242 23.6875 47.1047ZM28.1258 47.1828C28.2208 47.158 28.175 47.1486 27.9431 47.1446C27.6729 47.1401 27.6357 47.1298 27.6475 47.0636C27.6549 47.0221 27.7598 46.939 27.88 46.8795C28.0006 46.8201 28.1147 46.7549 28.1334 46.735C28.1524 46.7152 28.168 46.5452 28.168 46.3571C28.168 45.9484 28.2262 45.8622 28.5463 45.801C28.7669 45.7588 28.8647 45.6692 28.8647 45.5086C28.8647 45.4343 28.8195 45.3899 28.6782 45.326C28.4455 45.2203 28.3654 45.0913 28.473 44.9948C28.5141 44.958 28.7048 44.789 28.8968 44.619C29.2059 44.3458 29.2526 44.2849 29.303 44.0894C29.4132 43.6634 29.5001 43.1231 29.4718 43.0414C29.4314 42.9254 29.2828 42.7636 29.2161 42.7636C29.1853 42.7636 29.1221 42.7244 29.0757 42.6772C29.0191 42.6195 28.9914 42.6095 28.9914 42.6483C28.9914 42.6801 28.865 42.9189 28.7108 43.1788C28.5565 43.4388 28.354 43.814 28.2609 44.0124C28.1094 44.3343 28.0636 44.392 27.834 44.5518C27.1921 44.9983 26.8481 45.5643 26.7548 46.3286C26.7109 46.6865 26.7393 46.9228 26.8261 46.9228C26.86 46.9228 26.9879 46.835 27.1101 46.7276C27.2323 46.6204 27.3656 46.5327 27.4061 46.5327C27.4717 46.5327 27.4765 46.5647 27.4507 46.8286L27.4217 47.1245L27.5625 47.1707C27.7268 47.2251 27.9467 47.2295 28.1258 47.1828ZM41.3107 32.2529C41.3903 32.1904 41.5399 32.0221 41.6428 31.8786L41.83 31.6178L41.7235 31.483C41.3008 30.9484 41.0381 30.5491 40.8362 30.1364C40.7077 29.8737 40.6031 29.6294 40.6041 29.5935C40.6064 29.4884 40.7353 29.3528 40.989 29.1887C41.5619 28.8175 41.6245 28.6618 41.6494 27.5392C41.6609 27.011 41.6498 26.6258 41.6176 26.4562C41.549 26.0929 41.3521 25.6999 41.0911 25.4052L40.871 25.1567L40.7057 25.2079C40.5032 25.2706 40.1953 25.5686 40.0912 25.8029C39.9811 26.051 39.9939 26.3416 40.1419 26.9317C40.2303 27.2843 40.2716 27.5536 40.2719 27.7772C40.2725 28.1676 40.2564 28.2695 40.0757 29.0305C39.8925 29.8004 39.8382 30.2212 39.8394 30.8624C39.8402 31.4312 39.896 31.7084 40.0581 31.9513C40.3381 32.3706 40.9671 32.5219 41.3107 32.2529ZM5.68387 15.8416C6.07295 15.6297 7.10206 15.1843 7.95207 14.8599L8.68024 14.5821V13.9863C8.68024 13.6505 8.66364 13.3906 8.64139 13.3906C8.5891 13.3906 7.35019 13.9062 6.93356 14.1013C6.7506 14.1868 6.5844 14.2571 6.56409 14.2571C6.54325 14.2571 6.52701 12.9197 6.52701 11.2028C6.52701 9.52294 6.51289 8.14826 6.49558 8.14791C6.47791 8.14791 6.18597 8.27913 5.84618 8.44044L5.22839 8.7335L5.21038 12.3293C5.20049 14.3068 5.19942 15.9396 5.20772 15.9574C5.24093 16.0279 5.42319 15.9835 5.68387 15.8416ZM54.6729 14.3114C54.6657 13.4597 54.6468 11.8206 54.6304 10.6697L54.6016 8.57664L54.0526 8.34109C53.7506 8.21148 53.4514 8.10554 53.3875 8.10554H53.2716V15.33L53.451 15.3786C53.5497 15.4054 53.8491 15.5229 54.116 15.6397C54.3831 15.7568 54.6207 15.854 54.6438 15.8564C54.6713 15.8587 54.6813 15.3259 54.6729 14.3114ZM52.3363 9.70419L52.3423 7.68553L51.8672 7.52423C51.6063 7.43521 51.3594 7.3444 51.3193 7.3225C51.2786 7.30043 51.1885 7.28227 51.1184 7.28227H50.9911L50.9863 9.11256C50.9835 10.1192 50.9842 10.9672 50.9881 10.9971C51.0186 11.238 50.809 10.7636 50.062 8.9014C49.4152 7.28921 49.178 6.74244 49.1136 6.71466C48.9546 6.64558 48.1692 6.45881 48.0386 6.45881H47.9089V13.7371H48.0167C48.1048 13.7371 48.9303 13.9322 49.2287 14.0235C49.299 14.0449 49.3017 13.9313 49.2762 11.8229C49.2577 10.2864 49.2628 9.61303 49.2931 9.64294C49.3175 9.66681 49.7833 10.7967 50.3287 12.1544L51.3203 14.6226L51.7998 14.7768L52.2793 14.931L52.3051 13.3267C52.3191 12.445 52.333 10.8145 52.3363 9.70419ZM9.25758 14.4095C9.32646 14.3745 9.57053 14.2863 9.79978 14.2137C10.029 14.1414 10.2192 14.0775 10.2226 14.0721C10.2258 14.0666 10.3204 13.5989 10.4326 13.0327L10.6367 12.0034L10.8305 11.9447C11.4968 11.7431 11.9408 11.6454 11.9701 11.694C11.9871 11.7221 12.0837 12.1204 12.1845 12.5789C12.2854 13.0374 12.3802 13.4273 12.3954 13.4452C12.4104 13.4631 12.6971 13.4121 13.0325 13.3317C13.5344 13.2113 13.64 13.1727 13.6294 13.1132C13.6223 13.0735 13.4644 12.5105 13.2783 11.8621C13.092 11.2135 12.6637 9.71808 12.3271 8.53872C11.9904 7.35936 11.7066 6.38617 11.6971 6.37656C11.6876 6.36659 11.4846 6.41003 11.2464 6.4727C11.0081 6.53537 10.7664 6.59235 10.7091 6.59875C10.6072 6.61016 10.5949 6.65787 10.0898 8.97154C9.80631 10.2702 9.42324 12.0214 9.2385 12.8632C8.90578 14.3801 8.90348 14.394 8.99231 14.4309C9.11522 14.482 9.11594 14.482 9.25758 14.4095ZM10.8344 11.0603C10.8344 10.9918 11.2565 8.86722 11.2838 8.79849C11.3146 8.72122 11.3674 8.91688 11.6136 10.0224L11.7944 10.8346L11.6206 10.8803C11.4384 10.9284 11.0348 11.0406 10.9084 11.0785C10.8676 11.0904 10.8344 11.0824 10.8344 11.0603ZM46.9944 9.80852L47.0197 6.20475L46.7782 6.15489C46.5496 6.10677 46.3211 6.05715 46.093 6.00605C45.8493 5.95157 45.6167 5.90759 45.5759 5.90866C45.5062 5.91045 45.5014 6.06801 45.4915 8.51326C45.4809 11.0358 45.4956 13.1376 45.5232 13.1668C45.555 13.2003 46.919 13.4606 46.9429 13.4374C46.9573 13.4239 46.9807 11.7905 46.9944 9.80852ZM14.8704 12.936C15.1675 12.8764 15.4161 12.8278 15.423 12.8278C15.43 12.8278 15.4405 12.0042 15.4465 10.9975C15.4547 9.63226 15.4691 9.19463 15.5035 9.27529C15.5289 9.33493 15.8123 10.11 16.1333 10.9975C16.4542 11.885 16.7378 12.6109 16.7629 12.6106C16.8993 12.6086 16.8869 12.6467 17.7667 9.5785C17.8862 9.16169 17.9998 8.80205 18.0192 8.77944C18.0387 8.75682 18.0543 9.56105 18.0543 10.5666C18.0543 11.5721 18.0684 12.3946 18.086 12.3944C18.1366 12.3944 19.0759 12.2687 19.2179 12.2436L19.3468 12.2205L19.3324 8.72281C19.3248 6.79888 19.3081 5.15946 19.2958 5.07969C19.2745 4.94384 19.2649 4.93619 19.1386 4.95827C18.777 5.02182 18.1708 5.08111 18.0752 5.06259C18.016 5.05102 17.9601 5.05423 17.9504 5.06972C17.9411 5.08557 17.6747 5.94551 17.3585 6.98102C17.0424 8.01651 16.7633 8.92845 16.7391 9.00751C16.7144 9.08655 16.6861 9.14283 16.6762 9.13214C16.6662 9.12199 16.3922 8.32631 16.0675 7.36398C15.7425 6.40184 15.4694 5.59299 15.4603 5.56664C15.4489 5.53335 15.2899 5.54972 14.9437 5.61969C14.6687 5.67524 14.3851 5.721 14.3136 5.72171L14.1829 5.7235L14.1552 7.09514C14.1398 7.84969 14.1273 9.48591 14.1273 10.7311C14.1273 13.152 14.1163 13.0062 14.3028 13.0402C14.318 13.0429 14.5736 12.9955 14.8704 12.936ZM44.5621 9.34829L44.5731 5.72439L44.4778 5.70355C44.0663 5.61312 43.4411 5.50592 43.3265 5.50592H43.1874L43.2109 6.91408C43.2334 8.27736 43.2318 8.32204 43.1539 8.32204C43.1097 8.32204 42.76 8.27362 42.3767 8.21432C41.9939 8.15521 41.666 8.10643 41.6486 8.10608C41.6309 8.10608 41.6168 7.46262 41.6168 6.67674V5.24794L41.5219 5.22782C41.3337 5.18795 40.4529 5.07257 40.3396 5.07275H40.2236V12.3353L40.8886 12.4242C41.2543 12.473 41.565 12.5064 41.5791 12.4984C41.5934 12.4904 41.5955 11.7394 41.5838 10.83L41.5626 9.17594L41.6636 9.20015C41.7192 9.21333 42.0733 9.26816 42.451 9.32176L43.1371 9.41914V12.7845L43.2743 12.7868C43.3499 12.7886 43.6487 12.8344 43.9394 12.8892C44.2298 12.9444 44.4862 12.9854 44.5094 12.9809C44.5372 12.9754 44.5551 11.7207 44.5621 9.34829ZM38.041 12.1997C38.6824 12.0284 39.0996 11.6169 39.2991 10.9594C39.3691 10.7288 39.3787 10.5506 39.3787 9.48787V8.2786H37.4365V8.48869C37.4365 8.60424 37.4241 8.84815 37.4093 9.0303L37.3821 9.36182H38.2049L38.1902 9.93903C38.1764 10.4785 38.1681 10.5276 38.063 10.6904C37.751 11.1739 37.1056 11.0885 36.7288 10.5139C36.4559 10.0977 36.444 10.0006 36.444 8.17052C36.444 6.55906 36.4463 6.52006 36.5366 6.34683C36.6491 6.13122 36.8899 5.90653 37.0467 5.87127C37.1101 5.85703 37.1843 5.83833 37.2116 5.82997C37.3113 5.79898 37.5693 5.90421 37.7146 6.03508C37.8978 6.20012 38.0209 6.43923 38.0555 6.69739L38.0814 6.89253H38.7092C39.4261 6.89253 39.3749 6.93223 39.276 6.45401C39.0721 5.46694 38.2834 4.81298 37.2965 4.81298C36.3224 4.81298 35.5238 5.4356 35.2335 6.42125C35.191 6.56492 35.1776 7.02606 35.1784 8.32222C35.179 10.2127 35.2025 10.439 35.4526 10.9519C35.6127 11.2806 35.9594 11.6755 36.2667 11.8794C36.4949 12.0307 36.8912 12.1916 37.141 12.2346C37.3862 12.2767 37.8155 12.26 38.041 12.1997ZM22.0661 11.9628C23.5125 11.8382 23.6066 11.8112 23.9732 11.409C24.6483 10.6687 24.7423 9.13517 24.1499 8.52145C24.0175 8.384 23.7395 8.23783 23.6072 8.2364C23.5524 8.2364 23.5876 8.20257 23.7067 8.14187C24.3443 7.81817 24.5331 6.46682 24.0783 5.4842C23.9016 5.10212 23.6592 4.84253 23.3396 4.69244L23.1019 4.58064L22.4043 4.63369C21.6904 4.68799 20.321 4.81672 20.3042 4.83114C20.2989 4.83541 20.2818 6.47394 20.2653 8.47196L20.2362 12.1046L20.6335 12.0782C20.8525 12.0636 21.4971 12.0116 22.0661 11.9628ZM21.5066 10.9396C21.4889 10.9217 21.4748 10.455 21.4748 9.90253V8.89801L22.0976 8.87308L22.7205 8.84869L22.8596 8.98561C22.936 9.06091 23.05 9.22989 23.113 9.36127C23.2115 9.56711 23.2273 9.6538 23.2273 9.98978C23.2273 10.3386 23.215 10.4016 23.1094 10.5853C22.9303 10.898 22.8228 10.9386 22.1293 10.9567C21.8043 10.9653 21.524 10.9567 21.5066 10.9396ZM21.7168 7.7701L21.4734 7.75444L21.4847 6.81436L21.4959 5.8743L22.0717 5.86238L22.6474 5.85044L22.8425 6.07299C23.3011 6.59627 23.2495 7.44286 22.7431 7.70476C22.5507 7.80428 22.3986 7.8139 21.7168 7.7701ZM27.8209 11.8106C28.7018 11.6192 29.3078 10.9802 29.4111 10.134C29.4323 9.95951 29.4453 9.03689 29.4401 8.08364C29.4291 6.17234 29.4218 6.11003 29.1467 5.57091C28.9858 5.25577 28.5828 4.83275 28.2912 4.67304C28.0114 4.51992 27.6414 4.41309 27.3111 4.39031C26.5728 4.33939 25.7631 4.90004 25.3563 5.74414C25.067 6.34415 25.052 6.49584 25.086 8.47267C25.1185 10.3304 25.1354 10.4869 25.349 10.8898C25.7394 11.626 26.8198 12.0284 27.8209 11.8106ZM26.9172 10.6884C26.6843 10.603 26.511 10.4587 26.3927 10.2513L26.2855 10.0633L26.2766 8.25029L26.2678 6.43744L26.3844 6.19389C26.6789 5.57821 27.3805 5.46659 27.8867 5.95495C28.079 6.14011 28.1903 6.37833 28.2325 6.69312C28.252 6.83841 28.2738 7.63961 28.2809 8.47355C28.2935 9.97892 28.293 9.99137 28.1971 10.1922C27.982 10.642 27.4027 10.8665 26.9172 10.6884ZM34.5228 11.7763C34.5228 11.7463 34.2472 11.0155 33.9105 10.152C33.5736 9.28847 33.298 8.56489 33.298 8.5437C33.298 8.52251 33.3684 8.49154 33.4546 8.47499C34.0804 8.35445 34.4365 7.72613 34.4372 6.74083C34.438 5.80699 34.0555 4.95683 33.4783 4.60966C33.262 4.47968 32.9185 4.44727 31.2817 4.40135L30.2578 4.37268V11.6481L30.3948 11.6694C30.4703 11.681 30.7658 11.6942 31.0513 11.6979L31.5706 11.705L31.5646 10.1543L31.5584 8.60353L31.9127 8.59106L32.267 8.5786L32.6447 9.82579C32.8526 10.5118 33.0718 11.2288 33.1318 11.4193L33.2411 11.7661L33.7021 11.7782C33.9561 11.785 34.1921 11.7973 34.2271 11.8056C34.3788 11.842 34.5228 11.8275 34.5228 11.7763ZM31.553 7.60026C31.5375 7.58422 31.5248 7.12844 31.5248 6.58718V5.6035L32.0451 5.57269C32.6208 5.53868 32.7886 5.5775 33.0128 5.79774C33.3796 6.15845 33.3592 7.15336 32.9773 7.49735L32.8308 7.6291H32.2063C31.8622 7.6291 31.5688 7.6161 31.553 7.60026Z" fill="#161718"/>
<path d="M28.8891 66.7108C27.4784 65.8284 23.9602 62.9423 21.5974 60.7292C17.7197 57.0968 13.8308 52.2298 11.1804 47.6919C5.52875 38.0152 2.59259 26.7314 2.24697 13.3605C2.14594 9.45597 2.15301 9.33258 2.52053 8.55292C3.00764 7.51956 3.44526 7.21581 5.76382 6.30192C12.165 3.77886 18.923 2.61144 28.178 2.43036C38.6271 2.2256 47.2665 3.49666 54.2197 6.26186C56.6295 7.22008 57.0581 7.51529 57.548 8.55399C57.9167 9.33632 57.923 9.45186 57.8198 13.4479C57.2536 35.4063 49.7819 51.6921 34.5361 64.1979C32.687 65.7148 30.7576 67.0978 30.2772 67.2509C30.0395 67.3269 29.6026 67.1571 28.8891 66.7108ZM18.6435 51.7333C18.9079 51.6096 19.1018 51.2917 19.2447 50.7476C19.3606 50.3061 19.5735 49.8038 19.7177 49.6314C19.8766 49.4419 20.0081 48.8653 20.0512 48.1687C20.1142 47.1513 20.1971 46.9218 20.7693 46.1781C21.1385 45.6987 21.5337 44.9135 21.6902 44.349C21.841 43.8049 22.0826 43.1257 22.2274 42.84C23.3101 40.7005 24.0092 39.4607 24.1329 39.4607C24.5055 39.4607 24.8036 40.2825 24.8036 41.3102C24.8036 42.1203 24.8712 42.4283 25.0744 42.5452C25.3161 42.6841 25.3187 42.7544 25.098 43.2036C24.962 43.4801 24.7975 43.9354 24.7317 44.2157C24.5685 44.913 24.0277 45.6544 23.4641 45.9535C23.2061 46.0909 22.6425 46.5545 22.2118 46.9844C21.5911 47.6038 21.4295 47.8834 21.4316 48.3353C21.4351 49.0991 21.678 49.4982 21.9619 49.2068C22.3016 48.8579 22.4558 48.9589 22.3354 49.4517C22.2268 49.8953 22.2429 49.9074 22.7875 49.7958C23.4862 49.6522 24.1186 49.2396 24.2342 48.8516C24.2823 48.6905 24.3888 48.4414 24.4705 48.2986C24.5523 48.1559 24.8649 47.5057 25.1651 46.854C25.5387 46.0429 25.9486 45.4693 26.4644 45.0351C26.8789 44.6862 27.3283 44.1296 27.4633 43.7981C27.8618 42.8181 29.022 41.9817 29.022 42.674C29.022 43.0804 28.3694 44.3061 27.892 44.7963C27.2921 45.4124 26.8299 46.2385 26.8289 46.6959C26.8283 47.0974 27.0655 47.2192 27.2503 46.9125C27.4338 46.6072 27.6436 46.7274 27.5523 47.086C27.478 47.3773 27.5469 47.4324 27.984 47.4324C28.851 47.4324 29.6666 46.9312 29.7921 46.321C29.8524 46.0269 30.048 45.5384 30.2274 45.2356C30.4406 44.8752 30.5161 44.5342 30.4461 44.2484C30.332 43.7819 30.6417 42.5806 30.8759 42.5806C31.0504 42.5806 31.661 43.8723 31.8181 44.5733C31.882 44.859 32.0835 45.2618 32.2656 45.4681C32.5739 45.8171 32.7087 45.8366 34.226 45.7494C35.7959 45.6591 35.8708 45.6362 36.2772 45.121C36.5827 44.7335 36.725 44.2988 36.7942 43.5399C36.9158 42.2028 37.4877 41.2929 38.8016 40.3463L39.7841 39.6385L40.0261 40.0264C40.1593 40.2396 40.4475 40.8632 40.6664 41.4119C41.0321 42.3287 41.0472 42.4791 40.8504 43.2672C40.7329 43.7388 40.6869 44.2878 40.7488 44.4875C40.8112 44.6895 40.7282 45.2285 40.5613 45.7049L40.2619 46.5595L40.6611 46.996C41.1142 47.4911 41.4269 47.5519 41.5687 47.1723C41.6975 46.8283 42.0138 46.8386 42.0138 47.1866C42.0138 47.5552 42.3453 47.4201 42.7264 46.8958C43.0178 46.4948 43.0207 46.4199 42.7706 45.6939C42.6239 45.268 42.5382 44.7851 42.5795 44.621C42.6209 44.4567 42.5798 43.9887 42.4876 43.5812C42.2773 42.6501 42.2885 41.5595 42.5205 40.4128C42.6834 39.6072 42.6604 39.4322 42.28 38.589C42.0484 38.0761 41.8909 37.6239 41.9298 37.584C41.9683 37.5443 42.2879 37.6279 42.6397 37.7701C44.2757 38.4306 45.5538 38.28 46.3302 37.3353L46.7902 36.7753L45.794 36.6881C44.6616 36.5888 44.6098 36.5628 43.4146 35.4879C42.5723 34.7307 42.5415 34.6712 42.6317 33.9938C42.6853 33.5939 42.6017 32.7154 42.4393 31.9658C42.1754 30.7469 42.174 30.5696 42.4208 29.6973C42.5684 29.1767 42.6888 28.522 42.6888 28.2421C42.6888 27.4047 42.2345 26.1124 41.6998 25.429C41.4237 25.0764 41.1152 24.4741 41.0151 24.0904C40.9144 23.7071 40.6458 23.1112 40.4179 22.7663C40.0275 22.1752 40.0177 22.1047 40.2495 21.5352C40.3847 21.203 40.4952 20.5023 40.4952 19.9783C40.4952 19.1507 40.4236 18.9418 39.9471 18.3843C38.9133 17.175 38.4293 17.0648 33.4932 16.9151C27.795 16.7424 26.8975 16.5229 27.7827 15.5184C28.1448 15.1071 28.7357 15.1178 29.9656 15.558C31.309 16.0384 32.953 16.1576 33.9151 15.8447C34.7413 15.5759 34.7563 15.59 33.3245 15.2847C33.0927 15.2354 32.9025 15.1082 32.9025 15.0022C32.9025 14.8728 33.1649 14.8456 33.7042 14.9192C35.91 15.2205 36.2772 15.2425 36.2772 15.0736C36.2772 14.7922 34.7954 14.2149 33.2497 13.8932C30.7641 13.3761 28.3682 13.8047 27.2343 14.969C26.5376 15.6846 26.4581 16.4448 27.0392 16.8338C27.77 17.3234 28.9712 17.4731 33.2621 17.6111C37.186 17.737 37.6566 17.7844 38.3385 18.1234C39.1775 18.5406 39.5415 19.085 39.5198 19.8878C39.5013 20.5549 39.0665 21.2659 38.6776 21.2659C38.0189 21.2656 35.8393 20.7044 34.2958 20.1379C33.3903 19.8055 32.4974 19.5338 32.3118 19.5344C31.8928 19.5354 31.4006 19.8668 29.9423 21.1313C29.3132 21.6767 28.1939 22.446 27.4547 22.841C25.0623 24.1194 24.3234 25.1359 23.9912 27.6086C23.811 28.9478 23.5877 29.4834 22.5587 31.0444C21.7044 32.3402 21.0996 34.0818 21.0949 35.2591C21.0927 35.8275 20.8948 36.738 20.568 37.685C20.1351 38.9384 20.0379 39.5006 20.0067 40.9337C19.9743 42.4198 19.9076 42.7814 19.5391 43.4743C19.2735 43.9735 19.0637 44.7196 18.9898 45.4263C18.8811 46.4688 18.7971 46.6584 18.0423 47.5642C17.5867 48.1108 17.2132 48.653 17.2123 48.7688C17.2114 48.8848 16.9815 49.2475 16.7014 49.5751C16.0577 50.328 15.7421 51.1916 16.0103 51.4667C16.1527 51.6131 16.2679 51.5657 16.4623 51.2804C16.8325 50.7379 17.0446 50.8032 16.8755 51.4079C16.7784 51.7557 16.796 51.9462 16.9299 52.0061C17.1839 52.12 18.1434 51.9672 18.6435 51.7333ZM31.5572 15.3815C31.0838 15.0739 31.5351 14.9935 32.2593 15.2567L32.9867 15.5209L32.3962 15.5318C32.0715 15.5379 31.6939 15.4702 31.5572 15.3815ZM7.21378 15.1702C8.52141 14.6806 8.60582 14.6183 8.60582 14.1456C8.60582 13.8686 8.57968 13.6421 8.54789 13.6421C8.51593 13.6421 8.04844 13.7981 7.50907 13.9886C6.96953 14.1791 6.50204 14.3352 6.47025 14.3352C6.43829 14.3352 6.41233 12.9705 6.41233 11.3028C6.41233 9.63507 6.38565 8.27037 6.35315 8.27037C6.32049 8.27037 6.05469 8.35582 5.76257 8.46052L5.23133 8.65067V12.2913C5.23133 15.6889 5.25076 15.9237 5.52663 15.8116C5.68892 15.7453 6.44818 15.4568 7.21378 15.1702ZM54.8371 12.2728V8.65067L54.3055 8.46052C54.0134 8.356 53.7477 8.27037 53.7151 8.27037C53.6824 8.27037 53.656 9.89662 53.656 11.8843V15.4983L54.2041 15.679C54.4016 15.7431 54.5984 15.8092 54.7946 15.8773C54.8181 15.8868 54.8371 14.2649 54.8371 12.2728ZM52.2672 11.2718L52.2216 7.68852L51.7577 7.56121L51.2937 7.43392L51.291 9.36819C51.2882 11.5852 51.271 11.5786 50.2606 8.96349C49.5201 7.04685 49.2791 6.71088 48.6461 6.71088H48.2564V10.2629C48.2564 12.9882 48.3055 13.8159 48.4673 13.8179C48.5833 13.8191 48.8465 13.8665 49.0524 13.9233C49.4222 14.0247 49.4273 14.0009 49.4743 11.916L49.522 9.80564L50.4446 12.1695C50.9522 13.47 51.4836 14.6034 51.6258 14.6888C52.2965 15.0925 52.315 14.9959 52.2672 11.2718ZM10.1466 14.2304C10.2054 14.1953 10.3055 13.7377 10.3691 13.2137C10.4994 12.1441 10.4885 12.158 11.3281 11.9963L11.9392 11.8786L12.1435 12.7528C12.3438 13.6104 12.3579 13.625 12.881 13.523C13.1742 13.4659 13.4451 13.392 13.4831 13.3587C13.5679 13.2844 11.9678 6.83818 11.8279 6.69148C11.7724 6.63325 11.4945 6.65106 11.2101 6.73154C10.6972 6.8761 10.6881 6.89961 10.0632 9.69649C9.7788 10.9726 9.49134 12.248 9.20083 13.5226L8.9684 14.5302L9.50407 14.4122C9.79883 14.3473 10.0878 14.2658 10.1466 14.2304ZM10.8777 10.714C10.9337 10.5335 11.0383 10.0462 11.11 9.63133L11.2407 8.87678L11.463 9.80617C11.6502 10.5883 11.6485 10.7594 11.4531 10.8864C11.0462 11.1511 10.7682 11.0678 10.8777 10.714ZM47.0755 9.92671C47.0755 7.97855 47.0188 6.35159 46.949 6.3117C46.8793 6.27146 46.6138 6.18762 46.3584 6.12476L45.8944 6.01081V13.2725L46.3584 13.3446C46.6136 13.3843 46.8793 13.4283 46.949 13.4425C47.0186 13.4571 47.0755 11.8749 47.0755 9.92671ZM15.2143 13.0343C15.3787 12.9698 15.4243 12.6312 15.3844 11.7727C15.3544 11.1273 15.3544 10.2896 15.3844 9.9114C15.435 9.27382 15.4869 9.36819 16.0955 11.2033L16.752 13.1828L17.3609 10.9629L17.9699 8.74272L18.0175 10.6891C18.0589 12.3622 18.1022 12.6207 18.3266 12.5322C18.4704 12.4756 18.7337 12.4293 18.9118 12.4293C19.2204 12.4293 19.2354 12.2625 19.2354 8.82515V5.22084L18.6596 5.2901C18.0954 5.35775 18.0745 5.38962 17.6378 6.85813C17.3924 7.68247 17.0926 8.66883 16.9713 9.0502L16.7505 9.74332L16.2014 7.92371C15.8993 6.92311 15.5929 6.03806 15.5201 5.95687C15.4475 5.87585 15.1528 5.86251 14.8652 5.92732L14.3425 6.04536V9.58379C14.3425 12.9565 14.3577 13.1222 14.6662 13.1222C14.844 13.1222 15.0908 13.0825 15.2143 13.0343ZM44.5059 9.35341L44.46 5.75781L43.9963 5.70297L43.5323 5.64814V8.44734L42.815 8.34443C41.6382 8.17529 41.6759 8.22942 41.6759 6.71605C41.6759 5.71936 41.6165 5.32375 41.4654 5.32196C41.3494 5.32072 41.0835 5.27265 40.8749 5.21514L40.4951 5.11063V12.3908L41.0856 12.4615L41.6762 12.5322V10.9209C41.6762 9.13601 41.6211 9.2035 42.8998 9.42071L43.5324 9.52806V11.139C43.5324 12.5274 43.5731 12.7606 43.8277 12.829C44.5717 13.0291 44.5537 13.1213 44.5059 9.35341ZM23.2697 11.8487C23.963 11.5086 24.3555 10.7911 24.3693 9.83929C24.3789 9.17251 24.2982 8.88746 24.0179 8.59957C23.6566 8.22816 23.6563 8.22177 23.9751 7.68478C24.3623 7.03261 24.3854 6.34838 24.0433 5.66879C23.7249 5.03638 22.9109 4.80707 21.5136 4.95645L20.5012 5.06451L20.4553 8.67808L20.4099 12.2917L21.6367 12.1699C22.3109 12.1031 23.046 11.9585 23.2697 11.8487ZM21.5977 10.0339C21.5977 9.13227 21.6418 8.99198 21.9533 8.90847C22.898 8.65477 23.582 9.61513 23.0948 10.5109C22.9142 10.8429 22.6928 10.97 22.2252 11.0101L21.5977 11.0639V10.0339ZM21.5977 6.9662V6.01758H22.1545C22.8291 6.01758 23.1163 6.2802 23.1163 6.89747C23.1163 7.44835 22.8862 7.66431 22.1461 7.80835L21.5977 7.91499V6.9662ZM38.7486 11.8218C39.1955 11.5209 39.4807 10.5933 39.4819 9.4346C39.483 8.52337 39.4684 8.51109 38.2594 8.39215L37.4579 8.3131V8.89832C37.4579 9.407 37.5131 9.48356 37.8799 9.48356C38.2202 9.48356 38.3015 9.56901 38.3015 9.92813C38.3015 10.9549 37.4978 11.4118 36.8951 10.7276C36.0678 9.78907 36.2526 6.21397 37.1431 5.92394C37.5145 5.80287 38.1328 6.25723 38.1328 6.65124C38.1328 6.80204 38.3412 6.8843 38.7234 6.8843C39.3932 6.8843 39.4684 6.65409 39.0617 5.84667C38.7051 5.13804 38.1654 4.80492 37.3734 4.80492C35.9252 4.80492 35.2697 5.91467 35.2756 8.35726C35.2791 9.97192 35.5201 10.9916 36.0363 11.577C36.6327 12.2536 37.9325 12.3709 38.7486 11.8218ZM28.3114 11.6379C28.5191 11.4887 28.8541 11.0404 29.0566 10.6416C29.5856 9.59857 29.596 6.98044 29.0755 5.81336C28.7205 5.01786 28.033 4.45828 27.4106 4.45828C26.8208 4.45828 26.0259 5.01609 25.6582 5.6882C24.8742 7.12109 25.0276 10.2924 25.9345 11.3997C26.2874 11.8302 26.4749 11.9092 27.1432 11.9092C27.588 11.9092 28.0992 11.7905 28.3114 11.6379ZM26.7056 10.4012C26.4875 10.0599 26.3928 9.50742 26.3561 8.36509C26.3134 7.02353 26.3566 6.71444 26.6558 6.22269C27.0925 5.50517 27.6401 5.52742 28.0078 6.27752C28.3882 7.0538 28.3586 9.78089 27.9632 10.4007C27.5817 10.9985 27.0872 10.9989 26.7056 10.4012ZM31.5527 10.2944C31.5527 8.83085 31.568 8.76853 31.9135 8.82158C32.201 8.86556 32.3809 9.1864 32.7959 10.3932L33.317 11.9094H34.5784L34.0245 10.276L33.47 8.64266L33.9229 8.2036C34.4761 7.6675 34.6483 6.88661 34.4121 5.98643C34.149 4.98297 33.4883 4.63293 31.8542 4.63222L30.5532 4.63151L30.5044 8.19861C30.4777 10.1607 30.4682 11.7784 30.4838 11.7942C30.4991 11.8099 30.7461 11.8227 31.032 11.8227H31.5522L31.5527 10.2944ZM31.6791 7.65025C31.6095 7.57831 31.5527 7.09332 31.5527 6.57237V5.62553L32.2636 5.72345C33.2739 5.86233 33.7018 6.57949 33.1971 7.2881C32.9698 7.60751 31.8877 7.86549 31.6791 7.65025ZM0.0269775 12.4289C0.0269775 12.1909 0.0654785 12.0933 0.11228 12.2124C0.159081 12.3315 0.159081 12.5267 0.11228 12.6458C0.0654785 12.7649 0.0269775 12.667 0.0269775 12.4289ZM0.0509965 10.8693C0.0509965 10.3455 0.0826097 10.1309 0.121287 10.393C0.159966 10.6551 0.159966 11.0838 0.121287 11.3461C0.082433 11.6083 0.0509965 11.3936 0.0509965 10.8693Z" fill="#161718"/>
</g>
</g>
<defs>
<clipPath id="clip0_101_197">
<rect width="60.0475" height="69.4525" fill="white"/>
</clipPath>
</defs>
</svg>
