<svg width="114" height="39" viewBox="0 0 114 39" fill="none" xmlns="http://www.w3.org/2000/svg">
<g clip-path="url(#clip0_101_191)">
<mask id="mask0_101_191" style="mask-type:luminance" maskUnits="userSpaceOnUse" x="0" y="0" width="114" height="39">
<path d="M113.584 0H0V38.3436H113.584V0Z" fill="white"/>
</mask>
<g mask="url(#mask0_101_191)">
<path d="M93.2732 0C88.7454 0 84.541 1.42242 81.1128 3.83437C77.6845 1.42242 73.4802 0 68.9523 0C64.4246 0 60.2202 1.42242 56.7919 3.83437C53.3636 1.42242 49.2239 0 44.6315 0C40.1036 0 35.8991 1.42242 32.471 3.83437C29.1074 1.42242 24.903 0 20.3106 0C9.12032 0 0 8.59639 0 19.1718C0 29.7472 9.12032 38.3435 20.3106 38.3435C24.8384 38.3435 29.0428 36.9211 32.471 34.5092C35.8991 36.9211 40.1036 38.3435 44.6315 38.3435C49.1592 38.3435 53.3636 36.9211 56.7919 34.5092C60.1555 36.9211 64.3599 38.3435 68.9523 38.3435C73.4802 38.3435 77.6845 36.9211 81.1128 34.5092C84.4764 36.9211 88.6808 38.3435 93.2732 38.3435C104.463 38.3435 113.584 29.7472 113.584 19.1718C113.584 8.59639 104.463 0 93.2732 0ZM81.1128 29.0669C78.6548 26.4076 77.1672 22.9443 77.1672 19.1718C77.1672 15.3993 78.6548 11.936 81.1128 9.27668C83.5707 11.936 85.0585 15.3993 85.0585 19.1718C85.0585 22.9443 83.5707 26.4076 81.1128 29.0669ZM56.7919 29.0669C54.3339 26.4076 52.8461 22.9443 52.8461 19.1718C52.8461 15.3993 54.3339 11.936 56.7919 9.27668C59.2499 11.936 60.7375 15.3993 60.7375 19.1718C60.7375 22.9443 59.2499 26.4076 56.7919 29.0669ZM32.471 29.0669C30.0131 26.4076 28.5253 22.9443 28.5253 19.1718C28.5253 15.3993 30.0131 11.936 32.471 9.27668C34.929 11.936 36.4166 15.3993 36.4166 19.1718C36.4815 22.9443 34.929 26.4076 32.471 29.0669ZM4.2044 19.1718C4.2044 10.8228 11.4489 4.01989 20.3106 4.01989C23.6094 4.01989 26.7142 4.94757 29.3014 6.61736C26.1967 9.95697 24.3209 14.3479 24.3209 19.1718C24.3209 23.9957 26.1967 28.3866 29.3014 31.7262C26.7142 33.3342 23.674 34.3237 20.3106 34.3237C11.4489 34.3237 4.2044 27.5208 4.2044 19.1718ZM35.6405 31.7262C38.7453 28.3866 40.6211 23.9957 40.6211 19.1718C40.6211 14.3479 38.7453 9.95697 35.6405 6.61736C38.2278 5.00939 41.2679 4.01989 44.6315 4.01989C47.9949 4.01989 51.035 4.94757 53.6225 6.61736C50.5175 9.95697 48.5771 14.3479 48.5771 19.1718C48.5771 23.9957 50.453 28.3866 53.6225 31.7262C51.035 33.3342 47.9949 34.3237 44.6315 34.3237C41.3325 34.3237 38.2278 33.3342 35.6405 31.7262ZM59.9613 31.7262C63.0661 28.3866 65.0067 23.9957 65.0067 19.1718C65.0067 14.3479 63.1308 9.95697 59.9613 6.61736C62.5486 5.00939 65.5889 4.01989 68.9523 4.01989C72.3159 4.01989 75.356 4.94757 77.9433 6.61736C74.8385 9.95697 72.8981 14.3479 72.8981 19.1718C72.8981 23.9957 74.7739 28.3866 77.9433 31.7262C75.356 33.3342 72.3159 34.3237 68.9523 34.3237C65.5889 34.3237 62.5486 33.3342 59.9613 31.7262ZM93.2732 34.3237C89.9744 34.3237 86.8697 33.396 84.2822 31.7262C87.3871 28.3866 89.3276 23.9957 89.3276 19.1718C89.3276 14.3479 87.4518 9.95697 84.2822 6.61736C86.8697 5.00939 89.9098 4.01989 93.2732 4.01989C102.135 4.01989 109.379 10.8228 109.379 19.1718C109.379 27.5208 102.135 34.3237 93.2732 34.3237Z" fill="#161718"/>
</g>
</g>
<defs>
<clipPath id="clip0_101_191">
<rect width="113.584" height="38.3436" fill="white"/>
</clipPath>
</defs>
</svg>
