<svg width="70" height="70" viewBox="0 0 70 70" fill="none" xmlns="http://www.w3.org/2000/svg">
<g clip-path="url(#clip0_101_1320)">
<path d="M64.5089 52.589C67.7521 47.1958 69.4614 41.0195 69.4525 34.7263C69.4525 15.5472 53.9042 0 34.726 0C15.5471 0 3.47132e-05 15.5479 3.47132e-05 34.7263C-0.00888387 41.0197 1.70089 47.1961 4.94488 52.589L4.81848 52.6902L4.96942 52.6319C11.0475 62.7103 22.0987 69.4525 34.726 69.4525C47.3538 69.4525 58.4038 62.7103 64.4812 52.6319L64.6322 52.6902L64.5089 52.589ZM65.1862 34.7263C65.1921 40.0443 63.7979 45.2702 61.1437 49.8786L39.6613 32.576L35.2555 4.28144C51.832 4.56443 65.1862 18.0816 65.1862 34.7263ZM4.26947 34.7263C4.26947 18.0822 17.6224 4.56505 34.1989 4.28144L29.793 32.576L8.31063 49.8786C5.65733 45.2699 4.2636 40.0441 4.26947 34.7263ZM34.7272 65.1843C23.9193 65.1843 14.4327 59.5495 9.02693 51.0627L34.7272 41.1202L60.4275 51.0634C55.021 59.5495 45.5364 65.1843 34.7272 65.1843Z" fill="#091920"/>
</g>
<defs>
<clipPath id="clip0_101_1320">
<rect width="69.4525" height="69.4525" fill="white"/>
</clipPath>
</defs>
</svg>
